<svg width="24" height="24" viewBox="0 0 24 24" xmlns="http://www.w3.org/2000/svg"><path fill-rule="evenodd" clip-rule="evenodd" d="M19.85 6.85c0 .93-.38 1.77-1 2.38 1.87.89 3.15 2.81 3.15 5.03v2.24h-1.5v-2.23c0-2.24-1.76-4.07-4-4.07V8.7c1.02 0 1.85-.83 1.85-1.85S17.52 5 16.5 5V3.5c1.85 0 3.35 1.5 3.35 3.35zM14.5 11.7h1.53c1.87 0 3.47 1.35 3.47 3.16v1.64H18v-1.3c0-1.31-.92-2.05-1.97-2.05H14.5a3.35 3.35 0 010-6.7v1.5c-1.02 0-1.85.73-1.85 1.75s.83 2 1.85 2zM2 17.5h15v3H2v-3zm16 0h1.5v3H18v-3zm2.5 0H22v3h-1.5v-3z"/></svg>