<svg width="24" height="24" viewBox="0 0 24 24" xmlns="http://www.w3.org/2000/svg"><path fill-rule="evenodd" clip-rule="evenodd" d="M20.56 9.215l2.44 2.78-2.44 2.78.34 3.68-3.61.82-1.89 3.18-3.4-1.46-3.4 1.47-1.89-3.18-3.61-.82.34-3.69L1 11.995l2.44-2.79-.34-3.68 3.61-.81 1.89-3.18 3.4 1.46 3.4-1.46 1.89 3.18 3.61.82-.34 3.68zm-1.81 7.68l-.26-2.79 1.85-2.11-1.85-2.11.26-2.79-2.74-.62-1.43-2.41L12 5.175l-2.58-1.1-1.43 2.41-2.74.61.26 2.78-1.85 2.12 1.85 2.1-.26 2.8 2.74.62 1.43 2.41 2.58-1.11 2.58 1.11 1.43-2.41 2.74-.62zm-5.75-1.9v2h-2v-2h2zm0-8h-2v6h2v-6z"/></svg>