<svg width="24" height="24" viewBox="0 0 24 24" xmlns="http://www.w3.org/2000/svg"><path fill-rule="evenodd" clip-rule="evenodd" d="m9.995 2 5.71 5.71-4.3 4.29 4.3 4.29L9.995 22h-1v-7.59L4.405 19l-1.41-1.41L8.585 12l-5.59-5.59L4.405 5l4.59 4.59V2zm9.53 4.71-1.26 1.26c.63 1.21.98 2.57.98 4.02s-.36 2.82-.98 4.02l1.2 1.2a9.94 9.94 0 0 0 1.54-5.31c-.01-1.89-.55-3.67-1.48-5.19m-5.29 5.3 2.32 2.32c.28-.72.44-1.51.44-2.33s-.16-1.59-.43-2.31zm-3.24-6.18 1.88 1.88-1.88 1.88zm0 12.34 1.88-1.88-1.88-1.88z"/></svg>
