<svg style="display: none;" xmlns="http://www.w3.org/2000/svg" xmlns:xlink="http://www.w3.org/1999/xlink">
<style>
use,use:target~use:last-child { display: none; }
use:target,use:last-child { display: inline; }
</style>
<defs><symbol id="bluetooth_connected" viewBox="0 0 24 24"><path fill-rule="evenodd" clip-rule="evenodd" d="M17.71 7.71 12 2h-1v7.59L6.41 5 5 6.41 10.59 12 5 17.59 6.41 19 11 14.41V22h1l5.71-5.71-4.3-4.29 4.3-4.29zM7 12l-2-2-2 2 2 2 2-2zm7.88-4.29L13 5.83v3.76l1.88-1.88zm0 8.58L13 18.17v-3.76l1.88 1.88zM17 12l2-2 2 2-2 2-2-2z"/></symbol></defs><use id="medium" xlink:href="#bluetooth_connected" />
</svg>
