<svg style="display: none;" xmlns="http://www.w3.org/2000/svg" xmlns:xlink="http://www.w3.org/1999/xlink">
<style>
use,use:target~use:last-child { display: none; }
use:target,use:last-child { display: inline; }
</style>
<defs><symbol id="dns" viewBox="0 0 24 24"><path fill-rule="evenodd" clip-rule="evenodd" d="M20 3H4c-.55 0-1 .45-1 1v6c0 .55.45 1 1 1h16c.55 0 1-.45 1-1V4c0-.55-.45-1-1-1zM5 9h14V5H5v4zm-1 4h16c.55 0 1 .45 1 1v6c0 .55-.45 1-1 1H4c-.55 0-1-.45-1-1v-6c0-.55.45-1 1-1zm15 2H5v4h14v-4zM7 18.5c-.82 0-1.5-.67-1.5-1.5s.68-1.5 1.5-1.5 1.5.67 1.5 1.5-.67 1.5-1.5 1.5zM5.5 7c0 .83.68 1.5 1.5 1.5.83 0 1.5-.68 1.5-1.5S7.82 5.5 7 5.5 5.5 6.17 5.5 7z"/></symbol></defs><use id="medium" xlink:href="#dns" />
</svg>
