<svg style="display: none;" xmlns="http://www.w3.org/2000/svg" xmlns:xlink="http://www.w3.org/1999/xlink">
<style>
use,use:target~use:last-child { display: none; }
use:target,use:last-child { display: inline; }
</style>
<defs><symbol id="headset" viewBox="0 0 24 24"><path fill-rule="evenodd" clip-rule="evenodd" d="M3 11.5a9 9 0 0 1 18 0v7c0 1.66-1.34 3-3 3h-3v-8h4v-2c0-3.87-3.13-7-7-7s-7 3.13-7 7v2h4v8H6c-1.66 0-3-1.34-3-3v-7zm4 4v4H6c-.55 0-1-.45-1-1v-3h2zm12 0v3c0 .55-.45 1-1 1h-1v-4h2z"/></symbol></defs><use id="medium" xlink:href="#headset" />
</svg>
