<svg style="display: none;" xmlns="http://www.w3.org/2000/svg" xmlns:xlink="http://www.w3.org/1999/xlink">
<style>
use,use:target~use:last-child { display: none; }
use:target,use:last-child { display: inline; }
</style>
<defs><symbol id="iphone" viewBox="0 0 24 24"><path fill-rule="evenodd" clip-rule="evenodd" d="M16 1H8a2.5 2.5 0 0 0-2.5 2.5v17A2.5 2.5 0 0 0 8 23h8a2.5 2.5 0 0 0 2.5-2.5v-17A2.5 2.5 0 0 0 16 1zm-4 21c-.83 0-1.5-.67-1.5-1.5S11.17 19 12 19s1.5.67 1.5 1.5S12.83 22 12 22zm-4.5-4h9V4h-9v14z"/></symbol></defs><use id="medium" xlink:href="#iphone" />
</svg>
