<svg style="display: none;" xmlns="http://www.w3.org/2000/svg" xmlns:xlink="http://www.w3.org/1999/xlink">
<style>
use,use:target~use:last-child { display: none; }
use:target,use:last-child { display: inline; }
</style>
<defs><symbol id="keyboard" viewBox="0 0 24 24"><path fill-rule="evenodd" clip-rule="evenodd" d="M20 5H4c-1.1 0-1.99.9-1.99 2L2 17c0 1.1.9 2 2 2h16c1.1 0 2-.9 2-2V7c0-1.1-.9-2-2-2zm0 2v10H4V7h16zm-7 1h-2v2h2V8zm-2 3h2v2h-2v-2zm-1-3H8v2h2V8zm-2 3h2v2H8v-2zm-1 0H5v2h2v-2zM5 8h2v2H5V8zm11 6H8v2h8v-2zm-2-3h2v2h-2v-2zm2-3h-2v2h2V8zm1 3h2v2h-2v-2zm2-3h-2v2h2V8z"/></symbol></defs><use id="medium" xlink:href="#keyboard" />
</svg>
