<svg style="display: none;" xmlns="http://www.w3.org/2000/svg" xmlns:xlink="http://www.w3.org/1999/xlink">
<style>
use,
use:target~use:last-child { display: none; }
use:target,
use:last-child { display: inline; }
</style><defs><symbol id="sim_card" viewBox="0 0 24 24"><path fill-rule="evenodd" clip-rule="evenodd" d="M10 2h8c1.1 0 2 .9 2 2v16c0 1.1-.9 2-2 2H6c-1.1 0-2-.9-2-2V8l6-6zm8 18V4h-7.17L6 8.83V20h12zM7 17h2v2H7v-2zm10 0h-2v2h2v-2zM7 11h2v4H7v-4zm6 4h-2v4h2v-4zm-2-4h2v2h-2v-2zm6 0h-2v4h2v-4z"/></symbol></defs><use id="medium" xlink:href="#sim_card" /></svg>