<svg style="display: none;" xmlns="http://www.w3.org/2000/svg" xmlns:xlink="http://www.w3.org/1999/xlink">
<style>
use,use:target~use:last-child { display: none; }
use:target,use:last-child { display: inline; }
</style>
<defs><symbol id="tablet_ipad" viewBox="0 0 24 24"><path fill-rule="evenodd" clip-rule="evenodd" d="M19 0H5a2.5 2.5 0 0 0-2.5 2.5v19A2.5 2.5 0 0 0 5 24h14a2.5 2.5 0 0 0 2.5-2.5v-19A2.5 2.5 0 0 0 19 0zm-7 23c-.83 0-1.5-.67-1.5-1.5S11.17 20 12 20s1.5.67 1.5 1.5S12.83 23 12 23zm-7.5-4h15V3h-15v16z"/></symbol></defs><use id="medium" xlink:href="#tablet_ipad" />
</svg>
