<svg width="24" height="24" viewBox="0 0 24 24" xmlns="http://www.w3.org/2000/svg"><path fill-rule="evenodd" clip-rule="evenodd" d="M.29 12.24C3.34 9.35 7.46 7.57 12 7.57c4.54 0 8.66 1.78 11.71 4.67.18.18.29.43.29.71 0 .28-.11.53-.29.71l-2.48 2.48c-.18.18-.43.29-.71.29-.27 0-.52-.11-.7-.28a11.27 11.27 0 00-2.67-1.85.996.996 0 01-.56-.9v-3.1c-1.44-.48-2.99-.73-4.59-.73-1.6 0-3.15.25-4.6.72v3.1c0 .39-.23.74-.56.9-.98.49-1.87 1.12-2.66 1.85-.18.18-.43.28-.7.28-.28 0-.53-.11-.71-.29L.29 13.65a.956.956 0 01-.29-.7c0-.28.11-.53.29-.71zm5.11-1.15v1.7c-.65.37-1.28.79-1.87 1.27l-1.07-1.07c.91-.75 1.9-1.38 2.94-1.9zm13.19 0l.01.005V12.8c.67.38 1.3.8 1.88 1.27L21.55 13a14.798 14.798 0 00-2.95-1.905v-.005h-.01z"/></svg>