<svg width="24" height="24" viewBox="0 0 24 24" xmlns="http://www.w3.org/2000/svg"><path fill-rule="evenodd" clip-rule="evenodd" d="M22 3H2C.9 3 0 3.9 0 5v14c0 1.1.9 2 2 2h20c1.1 0 1.99-.9 1.99-2L24 5c0-1.1-.9-2-2-2zM2 19V5h20v14H2zm19-3l-1.99 1.99A7.512 7.512 0 0116.28 14c-.18-.64-.28-1.31-.28-2s.1-1.36.28-2a7.474 7.474 0 012.73-3.99L21 8l-1.51 2h-1.64c-.22.63-.35 1.3-.35 2s.13 1.37.35 2h1.64L21 16zM9 12c1.65 0 3-1.35 3-3s-1.35-3-3-3-3 1.35-3 3 1.35 3 3 3zm1-3c0-.55-.45-1-1-1s-1 .45-1 1 .45 1 1 1 1-.45 1-1zm5 7.59c0-2.5-3.97-3.58-6-3.58s-6 1.08-6 3.58V18h12v-1.41zM9 15c-1.3 0-2.78.5-3.52 1h7.04c-.75-.51-2.22-1-3.52-1z"/></svg>