<svg width="24" height="24" viewBox="0 0 24 24" xmlns="http://www.w3.org/2000/svg"><path fill-rule="evenodd" clip-rule="evenodd" d="M1.11 2.84L2.66 4.4c-.41.37-.66.89-.66 1.48v9.98c0 1.1.9 2 2.01 2H0v2h18.13l2.71 2.71 1.41-1.41L2.52 1.43 1.11 2.84zm20.68 15.02l2 2H24v-2h-2.21zM4.13 5.88H4v10h10.13l-3.46-3.48c-1.54.38-2.71 1.17-3.67 2.46.31-1.48.94-2.93 2.08-4.05L4.13 5.88zm15.87 0v10.19l1.3 1.3c.42-.37.7-.89.7-1.49v-10a2 2 0 00-2-2H7.8l2 2H20zm-4.28 5.91l-2.79-2.78.07-.02V6.86l4 3.73-1.28 1.2z"/></svg>