<svg width="24" height="24" viewBox="0 0 24 24" xmlns="http://www.w3.org/2000/svg"><path fill-rule="evenodd" clip-rule="evenodd" d="M11 5c.55 0 1 .45 1 1v1.25c0 .19-.04.38-.11.55l-2.26 5.29c-.23.53-.76.91-1.38.91H1.5C.67 14 0 13.33 0 12.5V6c0-.41.17-.79.44-1.06L5.38 0l.79.79c.2.21.33.49.33.8l-.02.23L5.82 5H11zm-3.08 7L10 7.13V7H3.36l.57-2.72L2 6.21V12h5.92zm14.58-2h-6.75c-.62 0-1.15.38-1.38.91l-2.26 5.29c-.07.17-.11.36-.11.55V18c0 .55.45 1 1 1h5.18l-.66 3.18-.02.24c0 .31.13.59.33.8l.79.78 4.94-4.94c.27-.27.44-.65.44-1.06v-6.5c0-.83-.67-1.5-1.5-1.5zm-2.43 9.72L22 17.79V12h-5.92L14 16.87V17h6.64l-.57 2.72z"/></svg>