<svg width="24" height="24" viewBox="0 0 24 24" xmlns="http://www.w3.org/2000/svg"><path fill-rule="evenodd" clip-rule="evenodd" d="M12 20c3.31 0 6-2.69 6-6h2c0 4.42-3.58 8-8 8s-8-3.58-8-8 3.58-8 8-8V2l5 5-5 5V8c-3.31 0-6 2.69-6 6s2.69 6 6 6zm-1.1-7.27V17h-.85v-3.26l-1.01.31v-.69l1.77-.63h.09zm3.42.05c-.18-.07-.37-.1-.59-.1-.22 0-.41.03-.59.1s-.33.18-.45.33c-.12.15-.23.34-.29.57-.06.23-.1.5-.1.82v.74c0 .32.04.6.11.82.07.22.17.42.3.57.13.15.28.26.46.33s.37.1.59.1c.22 0 .41-.03.59-.1s.33-.18.45-.33c.12-.15.22-.34.29-.57.07-.23.1-.5.1-.82v-.74c0-.32-.04-.6-.11-.82-.07-.22-.17-.42-.3-.57-.13-.15-.29-.26-.46-.33zm-.03 3.05c.03-.13.04-.29.04-.48h.01v-.97c0-.19-.01-.35-.04-.48s-.07-.23-.12-.31a.436.436 0 00-.19-.17.655.655 0 00-.5 0c-.08.03-.13.09-.19.17-.06.08-.09.18-.12.31s-.04.29-.04.48v.97c0 .19.01.35.04.48s.07.24.12.32c.05.08.12.14.19.17a.655.655 0 00.5 0c.08-.03.14-.09.19-.17.05-.08.08-.19.11-.32z"/></svg>