<svg width="24" height="24" viewBox="0 0 24 24" xmlns="http://www.w3.org/2000/svg"><path fill-rule="evenodd" clip-rule="evenodd" d="M10.72 5.39c0-.66.54-1.2 1.2-1.2.66 0 1.2.54 1.2 1.2l-.01 3.91 1.81 1.79v-5.6c0-1.66-1.34-3-3-3-1.54 0-2.79 1.16-2.96 2.65l1.76 1.76V5.39zm8.2 6.1h-1.7c0 .58-.1 1.13-.27 1.64l1.27 1.27c.44-.88.7-1.87.7-2.91zm-16-6.73l1.41-1.41L21.08 20.1l-1.41 1.41-4.2-4.2c-.78.45-1.64.77-2.55.9v3.28h-2v-3.28c-3.28-.49-6-3.31-6-6.72h1.7c0 3 2.54 5.1 5.3 5.1.81 0 1.6-.19 2.31-.52l-1.66-1.66c-.21.05-.42.08-.65.08-1.66 0-3-1.34-3-3v-.73l-6-6z"/></svg>