<svg width="24" height="24" viewBox="0 0 24 24" xmlns="http://www.w3.org/2000/svg"><path fill-rule="evenodd" clip-rule="evenodd" d="M18.44 4.13l1.63-1.63c3.91 4.05 3.9 10.11 0 14l-1.63-1.63c2.77-3.18 2.77-7.72 0-10.74zM13 9.5c0 2.21-1.79 4-4 4s-4-1.79-4-4 1.79-4 4-4 4 1.79 4 4zm-2 0c0-1.1-.9-2-2-2s-2 .9-2 2 .9 2 2 2 2-.9 2-2zm-2 6c-2.67 0-8 1.34-8 4v2h16v-2c0-2.66-5.33-4-8-4zm0 2c-2.69 0-5.78 1.28-6 2h12c-.2-.71-3.3-2-6-2zm6.08-9.95c.84 1.18.84 2.71 0 3.89l1.68 1.69c2.02-2.02 2.02-5.07 0-7.27l-1.68 1.69z"/></svg>