<svg style="display: none;" xmlns="http://www.w3.org/2000/svg" xmlns:xlink="http://www.w3.org/1999/xlink">
<style>
use,
use:target~use:last-child { display: none; }
use:target,
use:last-child { display: inline; }
</style><defs><symbol id="facebook" viewBox="0 0 24 24"><path fill-rule="evenodd" clip-rule="evenodd" d="M5 3c-1.103 0-2 .897-2 2v14c0 1.103.897 2 2 2H19c1.103 0 2-.897 2-2V5c0-1.103-.897-2-2-2H5zm0 2h14l.002 14h-4.588v-3.965h2.365l.352-2.725H14.43v-1.736c0-.788.22-1.32 1.35-1.32h1.427V6.822a20.013 20.013 0 0 0-2.092-.103c-2.074 0-3.494 1.266-3.494 3.59v2.006H9.277v2.724h2.344V19H5V5z"/></symbol></defs><use id="medium" xlink:href="#facebook" /></svg>