<svg style="display: none;" xmlns="http://www.w3.org/2000/svg" xmlns:xlink="http://www.w3.org/1999/xlink">
<style>
use,
use:target~use:last-child { display: none; }
use:target,
use:last-child { display: inline; }
</style><defs><symbol id="google_maps" viewBox="0 0 24 24"><path fill-rule="evenodd" clip-rule="evenodd" d="M18.5 2A3.5 3.5 0 0 0 15 5.5c0 2.625 3.063 3.927 3.063 7 0 .241.196.453.437.453s.473-.178.473-.418C18.972 9.461 22 8 22 5.5A3.5 3.5 0 0 0 18.5 2zM5 3a2 2 0 0 0-2 2v14a2 2 0 0 0 2 2h14a2 2 0 0 0 2-2v-7s-.125 2.375-2 3v2.586L13.414 12l1.73-1.73-1.226-1.602L5 17.586V5h8c.125-1.25.625-2 .625-2H5zm13.533 1.299a1.167 1.167 0 1 1 .002 2.334 1.167 1.167 0 0 1-.002-2.334zM8.502 6a2.5 2.5 0 1 0 0 5c2.099 0 2.56-1.963 2.355-2.938l-2.355-.001v.955h1.36c-.179.579-.66.992-1.36.992A1.51 1.51 0 0 1 6.992 8.5 1.51 1.51 0 0 1 9.48 7.355l.705-.703A2.493 2.493 0 0 0 8.502 6zM12 13.414 17.586 19H6.414L12 13.414z"/></symbol></defs><use id="medium" xlink:href="#google_maps" /></svg>