<svg width="24" height="24" viewBox="0 0 24 24" xmlns="http://www.w3.org/2000/svg"><path d="M4.602 2.01a1.5 1.5 0 0 0-.344.002c-.019.002-.036 0-.055.004a1 1 0 0 0-.59.26A1.6 1.6 0 0 0 3 3.503v17.088c0 .432.206.984.701 1.252s1.056.146 1.424-.076l.002-.002c-.06.036.276-.16.701-.4l1.715-.973c1.4-.793 3.238-1.832 5.08-2.873s3.687-2.083 5.096-2.881l1.732-.983c.432-.245.645-.366.776-.445.388-.235.78-.69.773-1.275-.008-.586-.402-1.014-.775-1.225A21953 21953 0 0 1 7.713 3.635L6 2.662c-.426-.242-.747-.428-.715-.408h-.002a1.8 1.8 0 0 0-.681-.244M5 5.35l5.756 6.607L5 18.567V5.35m3.596 1.084 3.177 1.797 1.493.843-1.184 1.36zm6.445 3.642 3.338 1.887q-.64.364-1.647.936l-1.683.953a1 1 0 0 0-.063-.084l-1.578-1.81 1.578-1.813zm-2.959 3.404 1.195 1.372-1.638.927-3.073 1.739z"/></svg>
