<svg width="24" height="24" viewBox="0 0 24 24" xmlns="http://www.w3.org/2000/svg"><path d="M7.533 2.977a4.567 4.567 0 0 0-4.556 4.556v8.889a4.567 4.567 0 0 0 4.556 4.557h8.889a4.567 4.567 0 0 0 4.557-4.557V7.533a4.567 4.567 0 0 0-4.557-4.556zm0 2h8.889a2.52 2.52 0 0 1 2.557 2.556v8.889a2.52 2.52 0 0 1-2.557 2.557H7.533a2.52 2.52 0 0 1-2.556-2.557V7.533a2.52 2.52 0 0 1 2.556-2.556M6.5 9a.5.5 0 1 0 0 1 .5.5 0 0 0 0-1m4 0C8.961 9 8 10.152 8 12c0 1.844.943 3 2.5 3 1.553 0 2.5-1.16 2.5-3 0-1.844-.954-3-2.5-3M16 9c-.558 0-1.07.18-1.435.53-.366.348-.565.853-.565 1.398 0 .53.354.96.727 1.164.372.204.774.29 1.142.39.386.105.735.2.924.303.189.104.207.107.207.287 0 .317-.097.527-.254.676S16.35 14 16 14c-.324 0-.566-.093-.727-.242-.16-.15-.273-.367-.273-.758h-1c0 .61.216 1.141.594 1.492S15.479 15 16 15c.558 0 1.07-.179 1.436-.527s.564-.855.564-1.4c0-.531-.354-.96-.727-1.165-.372-.204-.774-.29-1.142-.39-.385-.105-.735-.2-.924-.303-.189-.104-.207-.108-.207-.287 0-.316.097-.526.254-.676S15.65 10 16 10c.324 0 .566.093.727.242.16.15.273.367.273.758h1c0-.61-.216-1.141-.594-1.492S16.521 9 16 9m-5.5 1c1.305 0 1.5 1.253 1.5 2s-.195 2-1.5 2C9.26 14 9 12.912 9 12c0-.747.195-2 1.5-2M6 11v4h1v-4z"/></svg>
