<svg style="display: none;" xmlns="http://www.w3.org/2000/svg" xmlns:xlink="http://www.w3.org/1999/xlink">
<style>
use,
use:target~use:last-child { display: none; }
use:target,
use:last-child { display: inline; }
</style><defs><symbol id="linkedin" viewBox="0 0 24 24"><path fill-rule="evenodd" clip-rule="evenodd" d="M5 3a2 2 0 0 0-2 2v14a2 2 0 0 0 2 2h14a2 2 0 0 0 2-2V5a2 2 0 0 0-2-2H5zm0 2h14v14H5V5zm2.78 1.316c-.858 0-1.372.516-1.372 1.202 0 .686.514 1.199 1.285 1.199.857 0 1.371-.513 1.371-1.2 0-.685-.514-1.2-1.285-1.2zM6.476 10v7H9v-7H6.477zm4.605 0v7h2.523v-3.826c0-1.14.813-1.303 1.057-1.303s.897.245.897 1.303V17H18v-3.826C18 10.977 17.024 10 15.803 10s-1.873.407-2.198.977V10h-2.523z"/></symbol></defs><use id="medium" xlink:href="#linkedin" /></svg>