<svg width="24" height="24" viewBox="0 0 24 24" xmlns="http://www.w3.org/2000/svg"><path d="M13 5c-1.811 0-3.382.972-4.26 2.414A3.96 3.96 0 0 0 7 7a4 4 0 0 0-4 4c0 .36.063.703.152 1.035A2.493 2.493 0 0 0 3.5 17h.55c-.018-.166-.05-.329-.05-.5a4.51 4.51 0 0 1 3.287-4.334A6.01 6.01 0 0 1 13 8c1.322 0 2.57.426 3.594 1.203.42-.125.86-.186 1.304-.195A5 5 0 0 0 13 5m0 5a4 4 0 0 0-4 4c0 .018.006.034.006.05A2.5 2.5 0 1 0 8.5 19H21a2 2 0 1 0 0-4c-.065 0-.125.014-.19.02.117-.32.19-.66.19-1.02a3 3 0 0 0-3-3c-.68 0-1.302.235-1.805.617A3.98 3.98 0 0 0 13 10"/></svg>
