<svg style="display: none;" xmlns="http://www.w3.org/2000/svg" xmlns:xlink="http://www.w3.org/1999/xlink">
<style>
use,use:target~use:last-child { display: none; }
use:target,use:last-child { display: inline; }
</style>
<defs><symbol id="microsoft_powerpoint" viewBox="0 0 24 24"><path fill-rule="evenodd" clip-rule="evenodd" d="M14 3 2 5v14l12 2v-2h7a1 1 0 0 0 1-1V6a1 1 0 0 0-1-1h-7V3zm-2 2.361V18.64l-8-1.332V6.693l8-1.332zM14 7h6v10h-6v-2h4v-2h-4V7zm0 3a2 2 0 1 0 4 0h-2V8a2 2 0 0 0-2 2zM4.988 8v8H6.5v-2.969h1.545c.93 0 1.653-.216 2.17-.652.517-.437.773-1.047.773-1.832 0-.766-.263-1.384-.79-1.85C9.668 8.232 8.957 8 8.06 8H4.988zM6.5 9.188h1.506c.436.005.777.128 1.025.365.25.236.375.55.375.945 0 .401-.123.708-.369.92-.246.212-.601.318-1.068.318H6.5V9.187z"/></symbol></defs><use id="medium" xlink:href="#microsoft_powerpoint" />
</svg>
