<svg width="24" height="24" viewBox="0 0 24 24" xmlns="http://www.w3.org/2000/svg"><path d="M7.362 14.11a1.682 1.682 0 0 1-3.362 0 1.688 1.688 0 0 1 1.681-1.682h1.681v1.681Zm.847 0a1.688 1.688 0 0 1 1.682-1.682 1.688 1.688 0 0 1 1.68 1.681v4.21A1.688 1.688 0 0 1 9.892 20a1.684 1.684 0 0 1-1.682-1.681v-4.21Zm1.682-6.747A1.684 1.684 0 0 1 8.209 5.68 1.688 1.688 0 0 1 9.891 4a1.688 1.688 0 0 1 1.68 1.681v1.681h-1.68Zm0 .846a1.686 1.686 0 0 1 1.68 1.682 1.686 1.686 0 0 1-1.68 1.68H5.68A1.688 1.688 0 0 1 4 9.892a1.684 1.684 0 0 1 1.681-1.682h4.21Zm6.746 1.682a1.682 1.682 0 0 1 1.682-1.682A1.688 1.688 0 0 1 20 9.891a1.688 1.688 0 0 1-1.681 1.68h-1.681v-1.68Zm-.846 0a1.688 1.688 0 0 1-1.682 1.68 1.686 1.686 0 0 1-1.68-1.68V5.68A1.688 1.688 0 0 1 14.108 4a1.682 1.682 0 0 1 1.682 1.681v4.21Zm-1.682 6.746a1.68 1.68 0 0 1 1.682 1.682A1.686 1.686 0 0 1 14.109 20a1.688 1.688 0 0 1-1.68-1.681v-1.681h1.68Zm0-.846a1.688 1.688 0 0 1-1.68-1.682 1.686 1.686 0 0 1 1.68-1.68h4.21A1.688 1.688 0 0 1 20 14.108a1.682 1.682 0 0 1-1.681 1.682h-4.21Z"/></svg>
