<svg width="24" height="24" viewBox="0 0 24 24" xmlns="http://www.w3.org/2000/svg"><path d="M7.363 14.11a1.682 1.682 0 0 1-3.362 0 1.69 1.69 0 0 1 1.68-1.682h1.681zm.846 0a1.69 1.69 0 0 1 1.682-1.682 1.69 1.69 0 0 1 1.68 1.681v4.21A1.69 1.69 0 0 1 9.892 20a1.684 1.684 0 0 1-1.682-1.681zm1.682-6.747A1.684 1.684 0 0 1 8.209 5.68 1.69 1.69 0 0 1 9.891 4a1.69 1.69 0 0 1 1.68 1.681v1.681zm0 .846a1.686 1.686 0 0 1 1.68 1.682 1.686 1.686 0 0 1-1.68 1.68H5.68A1.69 1.69 0 0 1 4 9.892a1.684 1.684 0 0 1 1.681-1.682zm6.746 1.682a1.68 1.68 0 0 1 1.682-1.682A1.69 1.69 0 0 1 20 9.891a1.69 1.69 0 0 1-1.681 1.68h-1.681zm-.846 0a1.69 1.69 0 0 1-1.682 1.68 1.686 1.686 0 0 1-1.68-1.68V5.68A1.69 1.69 0 0 1 14.108 4a1.68 1.68 0 0 1 1.682 1.681zm-1.682 6.746a1.68 1.68 0 0 1 1.682 1.682A1.686 1.686 0 0 1 14.109 20a1.69 1.69 0 0 1-1.68-1.681v-1.681zm0-.846a1.69 1.69 0 0 1-1.68-1.682 1.686 1.686 0 0 1 1.68-1.68h4.21A1.69 1.69 0 0 1 20 14.108a1.68 1.68 0 0 1-1.681 1.682z"/></svg>
