<svg width="24" height="24" viewBox="0 0 24 24" xmlns="http://www.w3.org/2000/svg"><path d="m5.68 2 1.478 5.344v2.562H8.44V7.344L9.938 2H8.646L8.11 4.432q-.225 1.064-.29 1.515h-.04q-.094-.631-.29-1.525L6.97 2zm5.752 2.018q-.65-.001-1.051.257-.4.259-.59.825-.187.565-.187 1.498v.84q0 .922.164 1.478.165.556.556.82t1.078.264q.67 0 1.06-.26.391-.258.565-.818.174-.561.174-1.485v-.84q0-.93-.178-1.492-.179-.56-.566-.824t-1.025-.263m2.447.113v4.314q0 .801.271 1.178.273.377.848.377.829 0 1.244-.8h.027l.114.706H17.4V4.131h-1.298v4.588a.64.64 0 0 1-.23.263.57.57 0 0 1-.325.104q-.198 0-.283-.164-.086-.165-.086-.553V4.131zm-2.477.781q.274 0 .383.287t.108.91v1.8q0 .64-.108.923-.109.282-.38.283-.274 0-.378-.283t-.103-.924V6.11q0-.621.107-.91.107-.286.371-.287M5 11c-1.1 0-2 .9-2 2v7c0 1.1.9 2 2 2h14c1.1 0 2-.9 2-2v-7c0-1.1-.9-2-2-2zm7.049 2h1.056v2.568h.008q.143-.279.407-.449.263-.17.566-.17.39 0 .611.207.223.207.323.668.098.463.097 1.281v.772h.002q0 1.09-.264 1.602-.262.512-.818.513-.31 0-.564-.142a.93.93 0 0 1-.383-.391h-.024l-.11.46h-.907zm-6.563.246h3.252v.885h-1.09v5.789H6.576v-5.79h-1.09zm11.612 1.705q.564 0 .867.207.3.208.426.645.123.438.123 1.209v.836h-1.836v.248q0 .47.027.703.029.234.115.342t.27.107q.246 0 .338-.191.09-.19.1-.635l.947.055q.007.063.007.175 0 .677-.37 1.01-.37.334-1.046.334-.81 0-1.138-.51-.327-.508-.326-1.574v-.851q0-1.099.338-1.604t1.158-.506m-8.688.094h1.1v3.58q0 .326.072.465.071.14.238.139a.5.5 0 0 0 .276-.088.54.54 0 0 0 .193-.223v-3.873h1.1v4.875h-.862l-.093-.598h-.026q-.351.678-1.05.678-.486 0-.715-.318-.232-.319-.233-.994zm8.664.648q-.176.001-.26.104-.084.104-.11.338a7 7 0 0 0-.028.71v.35h.803v-.35q0-.468-.032-.71-.03-.243-.115-.342-.083-.1-.258-.1m-3.482.036a.42.42 0 0 0-.293.127.7.7 0 0 0-.192.326v2.767a.49.49 0 0 0 .438.256.34.34 0 0 0 .277-.127q.105-.127.149-.43.043-.301.043-.835v-.627q0-.573-.035-.883-.037-.312-.127-.444a.3.3 0 0 0-.26-.13"/></svg>
