<svg width="24" height="24" viewBox="0 0 24 24" xmlns="http://www.w3.org/2000/svg"><path fill-rule="evenodd" clip-rule="evenodd" d="M17.745 12l3.98-3.98a.996.996 0 000-1.41l-4.34-4.34a.996.996 0 00-1.41 0l-3.98 3.98-3.98-3.98a1.001 1.001 0 00-1.41 0l-4.34 4.34a.996.996 0 000 1.41L6.245 12l-3.98 3.98a.996.996 0 000 1.41l4.34 4.34c.39.39 1.02.39 1.41 0l3.98-3.98 3.98 3.98c.2.2.45.29.71.29.26 0 .51-.1.71-.29l4.34-4.34a.996.996 0 000-1.41L17.745 12zm-5.73-3.02c.55 0 1 .45 1 1s-.45 1-1 1-1-.45-1-1 .45-1 1-1zm-8.34-1.66l3.63 3.62 3.62-3.63-3.62-3.62-3.63 3.63zm6.34 5.66c-.55 0-1-.45-1-1s.45-1 1-1 1 .45 1 1-.45 1-1 1zm1 1c0 .55.45 1 1 1s1-.45 1-1-.45-1-1-1-1 .45-1 1zm3-3c.55 0 1 .45 1 1s-.45 1-1 1-1-.45-1-1 .45-1 1-1zm-.97 5.72l3.63 3.62 3.62-3.63-3.62-3.62-3.63 3.63z"/></svg>