<svg width="24" height="24" viewBox="0 0 24 24" xmlns="http://www.w3.org/2000/svg"><path fill-rule="evenodd" clip-rule="evenodd" d="M14 5a2 2 0 11-4 0c0-.38.1-.73.29-1.03L12 1l1.71 2.97c.19.3.29.65.29 1.03zm-1 5h5c1.66 0 3 1.34 3 3v9c0 .55-.45 1-1 1H4c-.55 0-1-.45-1-1v-9c0-1.66 1.34-3 3-3h5V8h2v2zM5 21v-3c.9-.01 1.76-.37 2.4-1.01l1.09-1.07 1.07 1.07c1.31 1.31 3.59 1.3 4.89 0l1.08-1.07 1.07 1.07c.64.64 1.5 1 2.4 1.01v3H5zm12.65-5.07c.36.37.84.56 1.35.57V13c0-.55-.45-1-1-1H6c-.55 0-1 .45-1 1v3.5c.51-.01.99-.21 1.34-.57l2.14-2.13 2.13 2.13c.74.74 2.03.74 2.77 0l2.14-2.13 2.13 2.13z"/></svg>