<svg width="24" height="24" viewBox="0 0 24 24" xmlns="http://www.w3.org/2000/svg"><path fill-rule="evenodd" clip-rule="evenodd" d="M2 12c0 5.51 4.49 10 10 10a2.5 2.5 0 002.5-2.5c0-.61-.23-1.2-.64-1.67a.528.528 0 01-.13-.33c0-.28.22-.5.5-.5H16c3.31 0 6-2.69 6-6 0-4.96-4.49-9-10-9S2 6.49 2 12zm2 0c0-4.41 3.59-8 8-8s8 3.14 8 7c0 2.21-1.79 4-4 4h-1.77a2.5 2.5 0 00-2.5 2.5c0 .6.22 1.19.63 1.65.06.07.14.19.14.35 0 .28-.22.5-.5.5-4.41 0-8-3.59-8-8zm2.5-2a1.5 1.5 0 100 3 1.5 1.5 0 000-3zM8 7.5a1.5 1.5 0 113 0 1.5 1.5 0 01-3 0zM14.5 6a1.5 1.5 0 100 3 1.5 1.5 0 000-3zm1.5 5.5a1.5 1.5 0 113 0 1.5 1.5 0 01-3 0z"/></svg>