<svg width="24" height="24" viewBox="0 0 24 24" xmlns="http://www.w3.org/2000/svg"><path fill-rule="evenodd" clip-rule="evenodd" d="M8.66 13.57c.15 0 .29-.01.43-.03A3.15 3.15 0 0012 15.5c1.31 0 2.44-.81 2.91-1.96a3.145 3.145 0 003.57-3.11c0-.71-.25-1.39-.67-1.93.43-.54.67-1.22.67-1.93a3.145 3.145 0 00-3.57-3.11A3.15 3.15 0 0012 1.5c-1.31 0-2.44.81-2.91 1.96a3.145 3.145 0 00-3.57 3.11c0 .71.25 1.39.67 1.93-.43.54-.68 1.22-.68 1.93 0 1.73 1.41 3.14 3.15 3.14zM12 13.5c-.62 0-1.12-.49-1.14-1.1l.12-1.09c.32.12.66.19 1.02.19s.71-.07 1.03-.19l.11 1.09c-.02.61-.52 1.1-1.14 1.1zm2.7-2.13c.18.13.4.2.64.2.63 0 1.15-.51 1.15-1.15 0-.44-.26-.84-.66-1.03l-.88-.42c-.12.74-.51 1.38-1.06 1.83l.81.57zm-.01-5.74c.2-.13.42-.2.65-.2.63 0 1.14.51 1.14 1.14 0 .44-.25.83-.66 1.03l-.88.42c-.12-.74-.51-1.38-1.07-1.83l.82-.56zM13.14 4.6c-.02-.61-.52-1.1-1.14-1.1-.62 0-1.12.49-1.14 1.1l.12 1.09c.32-.12.66-.19 1.02-.19s.71.07 1.03.19l.11-1.09zm-4.48.83c.24 0 .46.07.64.2l.81.56c-.55.45-.94 1.09-1.06 1.83l-.88-.42c-.4-.2-.66-.59-.66-1.03 0-.63.52-1.14 1.15-1.14zm.39 3.55l-.88.42c-.4.2-.66.59-.65 1.02 0 .63.51 1.14 1.14 1.14.23 0 .45-.07.65-.2l.81-.55c-.56-.45-.95-1.09-1.07-1.83zM12 22.5a9 9 0 009-9 9 9 0 00-9 9zm-9-9a9 9 0 009 9 9 9 0 00-9-9zm11.44 6.56c.71-1.9 2.22-3.42 4.12-4.12a7.04 7.04 0 01-4.12 4.12zm-9-4.12c1.9.71 3.42 2.22 4.12 4.12a7.04 7.04 0 01-4.12-4.12z"/></svg>