<svg width="24" height="24" viewBox="0 0 24 24" xmlns="http://www.w3.org/2000/svg"><path fill-rule="evenodd" clip-rule="evenodd" d="M13.5 10V2c4.42 0 8 3.58 8 8h-8zm2-5.66V8h3.66a6.032 6.032 0 00-3.66-3.66zM6.94 11l-.95-2H2.5v2h2.22s1.89 4.07 2.12 4.42C5.74 16.01 5 17.17 5 18.5 5 20.43 6.57 22 8.5 22c1.76 0 3.22-1.3 3.46-3h2.08c.24 1.7 1.7 3 3.46 3 1.93 0 3.5-1.57 3.5-3.5 0-1.04-.46-1.97-1.18-2.61A7.948 7.948 0 0021.5 11H6.94zM7 18.5c0 .83.67 1.5 1.5 1.5s1.5-.67 1.5-1.5S9.33 17 8.5 17 7 17.67 7 18.5zM17.5 20c-.83 0-1.5-.67-1.5-1.5s.67-1.5 1.5-1.5 1.5.67 1.5 1.5-.67 1.5-1.5 1.5zm.45-4.97l.29-.37c.4-.51.71-1.07.92-1.66H7.87c.125.254.237.486.333.686.159.328.275.568.337.674l.44.67c1.18.17 2.18.93 2.68 1.97h2.68a3.505 3.505 0 013.61-1.97z"/></svg>