<svg width="24" height="24" viewBox="0 0 24 24" xmlns="http://www.w3.org/2000/svg"><path fill-rule="evenodd" clip-rule="evenodd" d="M17.19 8H20v2h-2.09c.05.33.09.66.09 1v1h2v2h-2v1c0 .34-.04.67-.09 1H20v2h-2.81c-1.04 1.79-2.97 3-5.19 3s-4.15-1.21-5.19-3H4v-2h2.09c-.05-.33-.09-.66-.09-1v-1H4v-2h2v-1c0-.34.04-.67.09-1H4V8h2.81c.45-.78 1.07-1.45 1.81-1.96L7 4.41 8.41 3l2.18 2.17c.45-.11.92-.17 1.41-.17.49 0 .96.06 1.42.17L15.59 3 17 4.41l-1.63 1.63c.75.51 1.37 1.18 1.82 1.96zM16 15v-4c0-.22-.03-.47-.07-.69l-.1-.65-.38-.65c-.3-.53-.71-.97-1.21-1.31l-.61-.42-.68-.16a3.787 3.787 0 00-1.89 0l-.74.18-.57.39A4.1 4.1 0 008.54 9l-.37.65-.1.65c-.04.22-.07.47-.07.7v4c0 .23.03.48.07.71l.1.65.37.64c.72 1.23 2.04 2 3.46 2s2.74-.76 3.46-2l.37-.65.1-.65c.04-.23.07-.48.07-.7zm-6-1h4v2h-4v-2zm4-4h-4v2h4v-2z"/></svg>