<svg width="24" height="24" viewBox="0 0 24 24" xmlns="http://www.w3.org/2000/svg"><path fill-rule="evenodd" clip-rule="evenodd" d="M16.03 8.175H14.5a3.35 3.35 0 010-6.7v1.5c-1.02 0-1.85.73-1.85 1.75s.83 2 1.85 2h1.53c1.87 0 3.47 1.35 3.47 3.16v1.64H18v-1.3c0-1.31-.92-2.05-1.97-2.05zm.97 4.35h-2.34l2.34 2.34v-2.34zm2.5 0H18v3h1.5v-3zm2.5 0h-1.5v3H22v-3zm-3.15-8.27c.62-.61 1-1.45 1-2.38h-1.5c0 1.02-.83 1.85-1.85 1.85v1.5c2.24 0 4 1.83 4 4.07v2.23H22v-2.24c0-2.22-1.28-4.14-3.15-5.03zM2 5.525l1.41-1.41 17 17-1.41 1.41-7-7H2v-3h7l-7-7z"/></svg>