<svg width="24" height="24" viewBox="0 0 24 24" xmlns="http://www.w3.org/2000/svg"><path fill-rule="evenodd" clip-rule="evenodd" d="M22.292 15.7l-4.96-11.97a2.013 2.013 0 00-1.81-1.23c-.26 0-.53.04-.79.15L7.362 5.7a1.999 1.999 0 00-1.08 2.6l4.96 11.97a1.998 1.998 0 002.6 1.08l7.36-3.05a1.994 1.994 0 001.09-2.6zm-19.5 3.7l1.34.56v-9.03l-2.43 5.86c-.41 1.02.08 2.19 1.09 2.61zm5.34-11.86l4.96 11.96 7.35-3.05-4.95-11.95h-.01l-7.35 3.04zm3.13.21a1 1 0 100 2 1 1 0 000-2zM8.142 21.5c-1.1 0-2-.9-2-2v-6.34l3.45 8.34h-1.45z"/></svg>