<svg width="18" height="18" viewBox="0 0 18 18" xmlns="http://www.w3.org/2000/svg"><path fill-rule="evenodd" clip-rule="evenodd" d="M11.47 8.236c0-1.82-1.129-3.302-2.99-3.302-.108 0-.21.013-.313.026l-.098.011-1.226-1.203.078-.028c.14-.051.287-.104.438-.14v-.5c0-.608.5-1.1 1.121-1.1.62 0 1.121.492 1.121 1.1v.5c2.146.498 3.364 2.384 3.364 4.636v1.54L11.47 8.31zm-1.473 6.297c0 .978-.673 1.467-1.495 1.467s-1.495-.49-1.495-1.467zM3.554 2.623 2.5 3.659l2.1 2.061a5.36 5.36 0 0 0-.605 2.517v3.668L2.5 13.37v.672h10.487l1.459 1.338 1.054-1.034zM5.49 12.639h5.98v-.176l-5.726-5.62a3.9 3.9 0 0 0-.254 1.394z"/></svg>
