<svg width="18" height="18" viewBox="0 0 18 18" xmlns="http://www.w3.org/2000/svg"><path fill-rule="evenodd" clip-rule="evenodd" d="M13.5 11.813v-3.75c0-2.303-1.223-4.23-3.375-4.74v-.51c0-.623-.503-1.126-1.125-1.126-.623 0-1.125.503-1.125 1.125v.51C5.73 3.832 4.5 5.752 4.5 8.063v3.75l-1.5 1.5V14h12v-.688l-1.5-1.5zM9 16c1 0 1.5-.871 1.5-1.5h-3c0 .629.5 1.5 1.5 1.5zm-3-3.438h6v-4.5c0-1.86-1.133-3.374-3-3.374-1.868 0-3 1.514-3 3.375v4.5zm-.315-9.69L4.612 1.8a7.819 7.819 0 0 0-3.09 5.888h1.5a6.334 6.334 0 0 1 2.663-4.815zm10.793 4.816h-1.5a6.371 6.371 0 0 0-2.655-4.815L13.386 1.8a7.866 7.866 0 0 1 3.09 5.888z"/></svg>