<svg style="display: none;" xmlns="http://www.w3.org/2000/svg" xmlns:xlink="http://www.w3.org/1999/xlink">
<style>
use,use:target~use:last-child { display: none; }
use:target,use:last-child { display: inline; }
</style>
<defs><symbol id="notifications_active" viewBox="0 0 24 24"><path fill-rule="evenodd" clip-rule="evenodd" d="M18 15.75v-5c0-3.07-1.63-5.64-4.5-6.32v-.68c0-.83-.67-1.5-1.5-1.5s-1.5.67-1.5 1.5v.68C7.64 5.11 6 7.67 6 10.75v5l-2 2v1h16v-1l-2-2zm-6 6c1.1 0 2-.9 2-2h-4c0 1.1.9 2 2 2zm-4-5h8v-6c0-2.48-1.51-4.5-4-4.5s-4 2.02-4 4.5v6zM7.58 3.83 6.15 2.4c-2.4 1.83-3.98 4.65-4.12 7.85h2a8.445 8.445 0 0 1 3.55-6.42zm14.39 6.42h-2a8.495 8.495 0 0 0-3.54-6.42l1.42-1.43c2.39 1.83 3.97 4.65 4.12 7.85z"/></symbol><symbol id="notifications_active_small" viewBox="0 0 18 18"><path fill-rule="evenodd" clip-rule="evenodd" d="M13.5 11.813v-3.75c0-2.303-1.223-4.23-3.375-4.74v-.51c0-.623-.503-1.126-1.125-1.126-.623 0-1.125.503-1.125 1.125v.51C5.73 3.832 4.5 5.752 4.5 8.063v3.75l-1.5 1.5V14h12v-.688l-1.5-1.5zM9 16c1 0 1.5-.871 1.5-1.5h-3c0 .629.5 1.5 1.5 1.5zm-3-3.438h6v-4.5c0-1.86-1.133-3.374-3-3.374-1.868 0-3 1.514-3 3.375v4.5zm-.315-9.69L4.612 1.8a7.819 7.819 0 0 0-3.09 5.888h1.5a6.334 6.334 0 0 1 2.663-4.815zm10.793 4.816h-1.5a6.371 6.371 0 0 0-2.655-4.815L13.386 1.8a7.866 7.866 0 0 1 3.09 5.888z"/></symbol></defs><use id="small" xlink:href="#notifications_active_small" /><use id="medium" xlink:href="#notifications_active" />
</svg>
