<svg style="display: none;" xmlns="http://www.w3.org/2000/svg" xmlns:xlink="http://www.w3.org/1999/xlink">
<style>
use,use:target~use:last-child { display: none; }
use:target,use:last-child { display: inline; }
</style>
<defs><symbol height="24" width="24" id="notifications_off" viewBox="0 0 24 24"><path fill-rule="evenodd" clip-rule="evenodd" d="M15.305 10.75c0-2.48-1.51-4.5-4-4.5-.144 0-.282.017-.42.034l-.13.016-1.64-1.64.105-.038c.188-.07.383-.141.585-.192v-.68c0-.83.67-1.5 1.5-1.5s1.5.67 1.5 1.5v.68c2.87.68 4.5 3.25 4.5 6.32v2.1l-2-2v-.1zm-2 9c0 1.1-.9 2-2 2s-2-.9-2-2h4zM4.715 3.1l-1.41 1.41 2.81 2.81c-.52 1-.81 2.17-.81 3.43v5l-2 2v1h14.24l1.74 1.74 1.41-1.41L4.715 3.1zm2.59 13.65h8v-.24l-7.66-7.66c-.22.58-.34 1.22-.34 1.9v6z"/></symbol><symbol height="18" width="18" id="notifications_off_small" viewBox="0 0 18 18"><path fill-rule="evenodd" clip-rule="evenodd" d="M11.47 8.236c0-1.82-1.129-3.302-2.99-3.302-.108 0-.21.013-.313.026l-.098.011-1.226-1.203.078-.028c.14-.051.287-.104.438-.14v-.5c0-.608.5-1.1 1.121-1.1.62 0 1.121.492 1.121 1.1v.5c2.146.498 3.364 2.384 3.364 4.636v1.54L11.47 8.31v-.073zm-1.473 6.297c0 .978-.673 1.467-1.495 1.467-.822 0-1.495-.49-1.495-1.467h2.99zM3.554 2.623 2.5 3.659l2.1 2.061a5.36 5.36 0 0 0-.605 2.517v3.668L2.5 13.37v.672h10.487l1.459 1.338 1.054-1.034L3.554 2.624zM5.49 12.639h5.98v-.176l-5.726-5.62a3.856 3.856 0 0 0-.254 1.394v4.402z"/></symbol></defs><use id="small" xlink:href="#notifications_off_small" /><use id="medium" xlink:href="#notifications_off" />
</svg>
