<svg width="574" height="502" viewBox="0 0 574 502" fill="none" xmlns="http://www.w3.org/2000/svg">
<path d="M572 285C572 364.71 539.277 436.777 486.531 488.5L86.5 487.546C34.3229 435.892 2 364.221 2 285C2 127.599 129.599 0 287 0C444.401 0 572 127.599 572 285Z" fill="#B1D6DA"/>
<path d="M292.439 500.666C412.775 500.666 510.326 494.971 510.326 487.945C510.326 480.92 412.775 475.224 292.439 475.224C172.104 475.224 74.5527 480.92 74.5527 487.945C74.5527 494.971 172.104 500.666 292.439 500.666Z" fill="#EAEAEA"/>
<path d="M258.749 197.518H148.879V453.917H258.749V197.518Z" fill="#DCDCDC"/>
<path d="M242.119 197.518H132.248V453.917H242.119V197.518Z" fill="#EAEAEA"/>
<path d="M232.298 392.728H142.902V439.139H232.298V392.728Z" fill="#DCDCDC"/>
<path d="M232.298 331.854H142.902V378.276H232.298V331.854Z" fill="#DCDCDC"/>
<path d="M232.298 270.99H142.902V317.413H232.298V270.99Z" fill="#DCDCDC"/>
<path d="M232.298 210.127H142.902V256.55H232.298V210.127Z" fill="#DCDCDC"/>
<path opacity="0.05" d="M161.579 210.127H142.902V256.55H161.579V210.127Z" fill="#3D3D3D"/>
<path opacity="0.05" d="M161.579 270.99H142.902V317.413H161.579V270.99Z" fill="#3D3D3D"/>
<path opacity="0.05" d="M161.579 331.854H142.902V378.276H161.579V331.854Z" fill="#3D3D3D"/>
<path opacity="0.05" d="M161.579 392.728H142.902V439.139H161.579V392.728Z" fill="#3D3D3D"/>
<path d="M512.25 333.539H353.068V454.85H512.25V333.539Z" fill="#DCDCDC"/>
<path d="M472.615 333.539H313.434V454.85H472.615V333.539Z" fill="#EAEAEA"/>
<path d="M464.692 344.765H319.119V389.705H464.692V344.765Z" stroke="#DCDCDC" stroke-miterlimit="10"/>
<path d="M464.692 397.189H319.119V442.129H464.692V397.189Z" stroke="#DCDCDC" stroke-miterlimit="10"/>
<path d="M391.905 371.309C394.158 371.309 395.985 369.483 395.985 367.23C395.985 364.977 394.158 363.151 391.905 363.151C389.653 363.151 387.826 364.977 387.826 367.23C387.826 369.483 389.653 371.309 391.905 371.309Z" fill="#DCDCDC"/>
<path d="M391.905 427.16C394.158 427.16 395.985 425.334 395.985 423.081C395.985 420.828 394.158 419.001 391.905 419.001C389.653 419.001 387.826 420.828 387.826 423.081C387.826 425.334 389.653 427.16 391.905 427.16Z" fill="#DCDCDC"/>
<path d="M518.171 327.066H306.42V333.539H518.171V327.066Z" fill="#DCDCDC"/>
<path opacity="0.05" d="M518.172 327.066H478.627V333.539H518.172V327.066Z" fill="#3D3D3D"/>
<path d="M343.618 153.669H341.854V238.772H343.618V153.669Z" fill="#DCDCDC"/>
<path d="M375.825 136.88V271.496C375.826 273.683 375.397 275.848 374.561 277.868C373.725 279.889 372.5 281.725 370.954 283.272C369.409 284.818 367.573 286.045 365.553 286.882C363.533 287.719 361.368 288.15 359.182 288.15H345.82V136.88H375.825Z" fill="#458C83"/>
<path opacity="0.8" d="M375.825 136.88V271.496C375.826 273.683 375.397 275.848 374.561 277.868C373.725 279.889 372.5 281.725 370.954 283.272C369.409 284.818 367.573 286.045 365.553 286.882C363.533 287.719 361.368 288.15 359.182 288.15H345.82V136.88H375.825Z" fill="white"/>
<path d="M375.824 126.654V271.496C375.825 273.683 375.396 275.848 374.56 277.869C373.725 279.889 372.499 281.725 370.953 283.272C369.408 284.818 367.572 286.045 365.553 286.882C363.533 287.72 361.367 288.15 359.181 288.15H123.943C119.526 288.15 115.29 286.396 112.167 283.273C109.044 280.149 107.289 275.913 107.289 271.496V126.654C107.288 124.467 107.717 122.3 108.554 120.279C109.39 118.258 110.617 116.421 112.164 114.875C113.71 113.328 115.547 112.101 117.568 111.265C119.589 110.428 121.756 109.999 123.943 110H359.181C361.367 110 363.533 110.431 365.553 111.268C367.572 112.105 369.408 113.332 370.953 114.879C372.499 116.425 373.725 118.261 374.56 120.282C375.396 122.302 375.825 124.468 375.824 126.654Z" fill="white" stroke="#458C83" stroke-miterlimit="10"/>
<path d="M375.059 121.653H108.053C109.117 118.273 111.232 115.32 114.089 113.224C116.947 111.129 120.399 109.999 123.943 110H359.18C362.722 110.001 366.172 111.132 369.027 113.228C371.883 115.323 373.996 118.275 375.059 121.653Z" fill="#458C83"/>
<path d="M141.227 118.192C142.53 118.192 143.587 117.136 143.587 115.832C143.587 114.529 142.53 113.472 141.227 113.472C139.924 113.472 138.867 114.529 138.867 115.832C138.867 117.136 139.924 118.192 141.227 118.192Z" fill="white"/>
<path d="M149.655 118.192C150.958 118.192 152.015 117.136 152.015 115.832C152.015 114.529 150.958 113.472 149.655 113.472C148.351 113.472 147.295 114.529 147.295 115.832C147.295 117.136 148.351 118.192 149.655 118.192Z" fill="white"/>
<path d="M160.432 115.832C160.432 116.302 160.292 116.76 160.031 117.151C159.77 117.541 159.399 117.845 158.965 118.024C158.531 118.203 158.054 118.249 157.594 118.157C157.134 118.064 156.711 117.837 156.38 117.505C156.049 117.172 155.824 116.748 155.734 116.288C155.643 115.827 155.692 115.35 155.873 114.917C156.054 114.484 156.36 114.114 156.751 113.855C157.143 113.596 157.602 113.459 158.072 113.461C158.383 113.461 158.69 113.522 158.978 113.642C159.265 113.761 159.525 113.936 159.745 114.156C159.964 114.376 160.137 114.638 160.255 114.926C160.373 115.213 160.433 115.521 160.432 115.832Z" fill="white"/>
<path d="M375.824 126.654V136.88H107.244V126.654C107.244 124.958 107.502 123.272 108.008 121.653H375.015C375.537 123.269 375.81 124.956 375.824 126.654Z" fill="#458C83"/>
<path opacity="0.5" d="M375.824 126.654V136.88H107.244V126.654C107.244 124.958 107.502 123.272 108.008 121.653H375.015C375.537 123.269 375.81 124.956 375.824 126.654Z" fill="white"/>
<path d="M138.878 136.88V288.15H123.572C119.973 288.18 116.457 287.066 113.531 284.97C110.604 282.874 108.419 279.903 107.289 276.486V136.88H138.878Z" fill="#458C83"/>
<path opacity="0.1" d="M138.878 136.88V288.15H123.572C119.973 288.18 116.457 287.066 113.531 284.97C110.604 282.874 108.419 279.903 107.289 276.486V136.88H138.878Z" fill="#3D3D3D"/>
<path opacity="0.1" d="M335.289 147.601H149.654V272.89H335.289V147.601Z" fill="#458C83"/>
<path opacity="0.2" d="M120.11 153.917H112.131V161.895H120.11V153.917Z" fill="#3D3D3D"/>
<path opacity="0.2" d="M132.192 153.917H124.213V161.895H132.192V153.917Z" fill="#3D3D3D"/>
<path d="M261.042 209.745C267.84 200.935 272.279 189.371 271.358 178.078C270.493 167.481 261.941 161.019 251.557 163.559C247.174 164.682 243.163 166.818 239.117 168.829C232.374 172.2 225.272 175.077 217.766 175.987C210.259 176.898 202.831 175.987 195.515 178.853C182.783 183.82 179.243 200.092 184.154 211.892C188.514 222.365 198.898 230.456 209.944 232.704" stroke="#3D3D3D" stroke-linecap="round" stroke-linejoin="round"/>
<path opacity="0.2" d="M120.11 166.57H112.131V174.549H120.11V166.57Z" fill="#3D3D3D"/>
<path opacity="0.2" d="M132.192 166.57H124.213V174.549H132.192V166.57Z" fill="#3D3D3D"/>
<path opacity="0.2" d="M120.11 179.224H112.131V187.203H120.11V179.224Z" fill="#3D3D3D"/>
<path opacity="0.2" d="M132.192 179.224H124.213V187.203H132.192V179.224Z" fill="#3D3D3D"/>
<path opacity="0.2" d="M120.11 191.877H112.131V199.856H120.11V191.877Z" fill="#3D3D3D"/>
<path opacity="0.2" d="M132.192 191.877H124.213V199.856H132.192V191.877Z" fill="#3D3D3D"/>
<path opacity="0.2" d="M120.11 204.52H112.131V212.499H120.11V204.52Z" fill="#3D3D3D"/>
<path opacity="0.2" d="M132.192 204.52H124.213V212.499H132.192V204.52Z" fill="#3D3D3D"/>
<path opacity="0.2" d="M120.11 217.173H112.131V225.152H120.11V217.173Z" fill="#3D3D3D"/>
<path opacity="0.2" d="M132.192 217.173H124.213V225.152H132.192V217.173Z" fill="#3D3D3D"/>
<path d="M119.852 229.467C119.852 229.648 119.798 229.824 119.698 229.974C119.597 230.124 119.454 230.241 119.287 230.309C119.12 230.378 118.937 230.395 118.76 230.359C118.583 230.323 118.421 230.235 118.294 230.107C118.167 229.979 118.081 229.815 118.047 229.638C118.014 229.461 118.033 229.277 118.104 229.111C118.174 228.945 118.293 228.804 118.444 228.705C118.595 228.606 118.772 228.555 118.953 228.557C119.072 228.557 119.19 228.581 119.299 228.627C119.409 228.673 119.509 228.74 119.592 228.824C119.676 228.909 119.742 229.01 119.787 229.12C119.831 229.23 119.853 229.348 119.852 229.467Z" fill="#3D3D3D"/>
<path d="M123.123 229.467C123.123 229.647 123.07 229.823 122.97 229.973C122.87 230.123 122.728 230.24 122.561 230.308C122.395 230.377 122.212 230.395 122.035 230.36C121.859 230.325 121.697 230.238 121.569 230.111C121.442 229.984 121.355 229.822 121.32 229.645C121.285 229.468 121.303 229.285 121.372 229.119C121.441 228.953 121.558 228.811 121.707 228.711C121.857 228.611 122.033 228.557 122.213 228.557C122.333 228.556 122.452 228.578 122.563 228.623C122.674 228.669 122.775 228.736 122.86 228.82C122.945 228.905 123.012 229.006 123.057 229.117C123.102 229.228 123.125 229.347 123.123 229.467Z" fill="#3D3D3D"/>
<path d="M126.381 229.467C126.381 229.648 126.327 229.824 126.227 229.974C126.126 230.124 125.983 230.241 125.816 230.309C125.65 230.378 125.466 230.395 125.289 230.359C125.112 230.323 124.95 230.235 124.823 230.107C124.696 229.979 124.611 229.815 124.577 229.638C124.543 229.461 124.562 229.277 124.633 229.111C124.704 228.945 124.822 228.804 124.973 228.705C125.124 228.606 125.302 228.555 125.482 228.557C125.601 228.557 125.719 228.581 125.829 228.627C125.938 228.673 126.038 228.74 126.122 228.824C126.205 228.909 126.271 229.01 126.316 229.12C126.36 229.23 126.383 229.348 126.381 229.467Z" fill="#3D3D3D"/>
<path d="M237.488 220.938L236.061 221.938L235.207 215.701L240.41 218.87L239.118 219.747L241.129 222.713L239.545 224.017L237.488 220.938Z" fill="#3D3D3D"/>
<path d="M346.493 289.499C346.493 289.499 340.762 317.166 336.885 324.234C333.008 331.303 310.78 330.977 310.78 330.977L285.045 329.696C285.045 329.696 280.146 313.66 301.127 321.976C301.127 321.976 318.826 318.604 325.58 312.985L332.659 283.959L346.493 289.499Z" fill="#BC928F"/>
<path d="M423.078 495.755H416.212L397.58 394.402L396.939 390.907L403.57 389.682L404.435 394.402L423.078 495.755Z" fill="#458C83"/>
<path opacity="0.5" d="M423.078 495.755H416.212L397.58 394.402L396.939 390.907L403.57 389.682L404.435 394.402L423.078 495.755Z" fill="white"/>
<path d="M393.467 495.755H386.69L377.386 394.402L376.397 383.614L376.172 381.221L382.881 380.603L383.162 383.614L384.151 394.402L393.467 495.755Z" fill="#458C83"/>
<path opacity="0.5" d="M393.467 495.755H386.69L377.386 394.402L376.397 383.614L376.172 381.221L382.881 380.603L383.162 383.614L384.151 394.402L393.467 495.755Z" fill="white"/>
<path d="M324.176 384.895L323.457 394.402L315.747 495.754H308.982L316.68 394.402L317.444 384.389L324.176 384.895Z" fill="#458C83"/>
<path opacity="0.5" d="M324.176 384.895L323.457 394.402L315.747 495.754H308.982L316.68 394.402L317.444 384.389L324.176 384.895Z" fill="white"/>
<path d="M304.632 385.198L303.115 394.402L286.405 495.754H279.572L296.294 394.402L297.991 384.097L304.632 385.198Z" fill="#458C83"/>
<path opacity="0.5" d="M304.632 385.198L303.115 394.402L286.405 495.754H279.572L296.294 394.402L297.991 384.097L304.632 385.198Z" fill="white"/>
<path d="M414.841 382.029L414.223 383.614L411.268 391.087C410.888 392.067 410.219 392.909 409.35 393.501C408.481 394.093 407.453 394.407 406.402 394.402H295.082C294.001 394.404 292.947 394.073 292.062 393.453C291.177 392.834 290.505 391.957 290.137 390.941L287.519 383.614L286.901 381.872C286.617 381.082 286.528 380.236 286.641 379.404C286.754 378.572 287.066 377.78 287.55 377.095C288.034 376.409 288.676 375.85 289.422 375.465C290.167 375.08 290.995 374.88 291.834 374.882H409.975C410.828 374.881 411.668 375.089 412.422 375.487C413.176 375.885 413.821 376.462 414.301 377.167C414.781 377.872 415.081 378.684 415.175 379.531C415.27 380.379 415.155 381.236 414.841 382.029Z" fill="#458C83"/>
<path opacity="0.3" d="M414.222 383.614L411.267 391.087C410.887 392.067 410.218 392.909 409.349 393.501C408.48 394.093 407.452 394.407 406.401 394.402H295.081C294 394.404 292.946 394.073 292.061 393.453C291.176 392.834 290.504 391.956 290.136 390.941L287.518 383.614H414.222Z" fill="#3D3D3D"/>
<path d="M301.487 448.231L306.746 436.285C307.051 435.589 307.599 435.027 308.288 434.705C308.976 434.382 309.758 434.321 310.488 434.532L318.804 436.892C319.239 437.016 319.642 437.233 319.986 437.527C320.33 437.821 320.607 438.186 320.797 438.596C320.988 439.006 321.089 439.453 321.092 439.905C321.095 440.358 321.001 440.805 320.816 441.218C318.568 446.298 314.298 455.76 312.949 459.142C311.118 463.851 309.578 469.526 307.128 471.11C306.978 471.209 306.82 471.296 306.656 471.369C306.14 471.581 305.577 471.651 305.025 471.57C304.473 471.49 303.952 471.263 303.518 470.912C303.084 470.562 302.752 470.101 302.556 469.579C302.361 469.056 302.31 468.491 302.409 467.941C303.06 463.986 303.768 456.591 301.386 450.624C301.241 450.239 301.175 449.828 301.192 449.417C301.21 449.006 301.31 448.602 301.487 448.231Z" fill="#3D3D3D"/>
<path d="M346.896 334.685C346.896 334.685 290.09 326.931 272.93 343.069C272.93 343.069 262.299 357.576 267.412 385.974C270.756 403.5 278.021 420.042 288.663 434.363L303.575 421.687C303.575 421.687 290.303 388.997 294.798 368.769L315.431 367.544L345.019 347.317L348.121 338.933L346.896 334.685Z" fill="#3D3D3D"/>
<path d="M290.035 440.072L284.473 433.318L304.858 416.551L308.712 420.563L290.035 440.072Z" fill="#458C83"/>
<path d="M402.737 334.067C402.737 334.067 404.311 350.25 399.175 362.094C394.04 373.939 375.891 378.276 363.653 377.49C351.415 376.703 335.626 375.692 328.917 377.58C328.917 377.58 320.231 426.834 305.228 462.75L287.068 461.176C287.068 461.176 296.935 391.66 298.52 375.512C300.104 359.363 299.306 356.959 309.173 349.07C319.039 341.181 369.575 330.516 402.737 334.067Z" fill="#3D3D3D"/>
<path d="M300.61 469.256L298.891 476.774L284.473 481.82L288.664 465.806L300.61 469.256Z" fill="#BC928F"/>
<path d="M284.282 481.348L296.531 476.796C297.244 476.533 298.029 476.537 298.739 476.808C299.45 477.079 300.039 477.598 300.396 478.269L304.487 485.877C304.709 486.277 304.841 486.721 304.874 487.178C304.907 487.634 304.839 488.093 304.677 488.521C304.514 488.949 304.26 489.336 303.932 489.656C303.604 489.975 303.211 490.22 302.779 490.372C297.553 492.271 287.81 495.822 284.473 497.238C279.82 499.216 274.673 502.059 271.83 501.396C271.655 501.359 271.482 501.31 271.313 501.25C270.801 501.025 270.359 500.668 270.032 500.214C269.706 499.76 269.507 499.227 269.456 498.671C269.406 498.114 269.505 497.554 269.745 497.049C269.985 496.544 270.356 496.112 270.819 495.799C274.112 493.552 279.91 488.877 282.529 483.011C282.693 482.629 282.933 482.285 283.234 481.999C283.536 481.714 283.892 481.492 284.282 481.348Z" fill="#3D3D3D"/>
<path d="M346.494 338.405C346.494 338.405 339.099 289.499 337.503 277.598C335.908 265.698 337.503 259.618 341.999 255.719C346.494 251.819 367.103 243.492 380.937 245.74C394.77 247.987 401.524 259.573 403.412 272.71L400.198 274.317C400.198 274.317 404.311 319.897 402.817 335.663L346.494 338.405Z" fill="#458C83"/>
<path d="M341.987 255.685C341.987 255.685 331.053 265.338 331.053 283.992L348.1 290.521L341.987 255.685Z" fill="#458C83"/>
<path d="M400.457 274.137C400.457 274.137 406.649 296.028 404.952 305.074C403.255 314.121 387.848 326.257 366.429 330.303C366.429 330.303 356.911 331.966 351.427 327.448L343.1 325.066L345.482 317.683C351.828 317.795 358.078 319.263 363.811 321.987C363.811 321.987 384.274 312.705 390.702 305.569C390.702 305.569 389.983 291.05 386.421 280.846L400.457 274.137Z" fill="#BC928F"/>
<path d="M307.756 462.75L283.854 459.153L282.988 466.671L304.677 471.099L307.756 462.75Z" fill="#458C83"/>
<path d="M330.008 225.545C328.528 229.865 328.712 234.581 330.525 238.772C329.683 235.429 329.839 231.913 330.974 228.658C332.098 225.579 333.952 222.871 335.391 219.949C336.829 217.027 337.807 213.622 336.852 210.509C336.649 209.891 336.2 209.172 335.559 209.273C334.919 209.374 334.784 209.914 334.604 210.397C333.984 211.677 333.509 213.023 333.188 214.409C333.031 215.476 333.188 216.533 333.031 217.623C332.503 220.365 330.941 222.859 330.008 225.545Z" fill="#7F5053"/>
<path d="M336.627 216.072C335.764 216.398 335.009 216.959 334.449 217.692C333.889 218.425 333.545 219.3 333.458 220.219C331.783 219.139 330.537 217.509 329.936 215.609C329.334 213.709 329.416 211.659 330.165 209.813C332.761 203.07 336.278 193.507 346.752 194.9C357.225 196.294 379.184 199.395 371.317 222.792C363.451 246.189 355.652 217.612 355.652 217.612L336.627 216.072Z" fill="#7F5053"/>
<path d="M359.541 259.798C350 259.202 354.046 250.976 354.484 247.931C354.6 246.602 354.31 245.27 353.652 244.11C353.208 243.248 352.665 242.441 352.034 241.705C347.854 241.705 343.224 241.143 339.909 238.334C336.2 235.243 334.728 229.478 334.121 224.905C333.645 220.674 333.563 216.408 333.874 212.161C333.874 211.532 333.964 210.914 333.987 210.296C334.133 207.857 334.29 205.43 334.38 203.048C334.38 203.048 343.628 201.014 351.888 202.901C358.001 204.295 362.294 209.374 364.148 217.364C364.831 220.407 365.174 223.517 365.171 226.635C365.34 239.918 370.543 242.244 372.577 246.144C374.611 250.043 369.104 260.36 359.541 259.798Z" fill="#BC928F"/>
<path d="M342.492 227.782L340.245 219.23L338.705 228.22C338.705 228.22 339.952 229.243 342.492 227.782Z" fill="#BC928F"/>
<path d="M333.705 210.431C337.309 209.607 340.694 208.016 343.628 205.767C346.932 216.69 361.001 217.083 364.519 217.083C362.676 209.093 358.248 203.542 352.157 202.149C343.909 200.261 334.177 202.441 334.177 202.441C334.087 204.834 333.84 208.003 333.705 210.431Z" fill="#7F5053"/>
<path d="M366.868 196.646C368.014 191.898 364.903 187.074 359.919 185.871C354.936 184.668 349.967 187.542 348.821 192.29C347.675 197.038 350.786 201.862 355.769 203.065C360.753 204.268 365.721 201.394 366.868 196.646Z" fill="#7F5053"/>
<path d="M340.615 207.363L338.75 209.813C338.75 209.813 343.683 208.959 344.773 205.587C345.863 202.216 341.75 204.857 341.75 204.857L340.615 207.363Z" fill="#7F5053"/>
<path opacity="0.1" d="M358.338 239.031C357.129 241.019 355.536 242.746 353.651 244.11C353.207 243.249 352.664 242.442 352.033 241.705C354.256 241.134 356.382 240.232 358.338 239.031Z" fill="#3D3D3D"/>
<path d="M361.642 218.454C361.949 217.996 362.299 217.567 362.687 217.173C364.002 215.836 366.148 214.083 368.137 215.061C370.542 216.184 370.036 219.612 369.362 221.68C368.819 223.53 367.578 225.098 365.901 226.051C363.53 227.276 360.001 226.624 360.024 223.433C360.061 221.65 360.624 219.918 361.642 218.454Z" fill="#BC928F"/>
<path d="M364.148 214.78C364.148 214.78 360.214 221.41 361.821 227.276C363.428 233.142 362.541 235.906 361.428 239.019C361.428 239.019 361.866 230.108 360.023 226.894C357.214 221.983 361.147 214.757 361.147 214.757L364.148 214.78Z" fill="#7F5053"/>
<path d="M348.953 195.001C348.953 195.001 359.134 196.215 365.259 200.395C365.259 200.339 359.944 193.271 348.953 195.001Z" fill="#458C83"/>
<path d="M223.262 327.066H287.316C287.967 327.067 288.609 326.919 289.194 326.634C289.779 326.349 290.291 325.935 290.692 325.423C291.092 324.91 291.371 324.313 291.507 323.677C291.642 323.041 291.631 322.382 291.474 321.751L280.079 276.34C279.848 275.412 279.313 274.588 278.56 273.999C277.806 273.411 276.877 273.091 275.921 273.092H211.867C211.216 273.091 210.574 273.239 209.989 273.524C209.404 273.809 208.892 274.223 208.491 274.735C208.09 275.248 207.812 275.845 207.676 276.481C207.54 277.117 207.552 277.776 207.709 278.407L219.036 323.819C219.27 324.758 219.815 325.59 220.582 326.18C221.349 326.77 222.294 327.082 223.262 327.066Z" fill="#3D3D3D"/>
<path d="M328.636 326.909H285.101V323.538H326.411C327.007 323.538 327.578 323.774 328 324.196C328.421 324.617 328.658 325.189 328.658 325.785V326.976L328.636 326.909Z" fill="#3D3D3D"/>
<path opacity="0.3" d="M223.262 327.066H287.316C287.967 327.067 288.609 326.919 289.194 326.634C289.779 326.349 290.291 325.935 290.692 325.423C291.092 324.91 291.371 324.313 291.507 323.677C291.642 323.041 291.631 322.382 291.474 321.751L280.079 276.34C279.848 275.412 279.313 274.588 278.56 273.999C277.806 273.411 276.877 273.091 275.921 273.092H211.867C211.216 273.091 210.574 273.239 209.989 273.524C209.404 273.809 208.892 274.223 208.491 274.735C208.09 275.248 207.812 275.845 207.676 276.481C207.54 277.117 207.552 277.776 207.709 278.407L219.036 323.819C219.27 324.758 219.815 325.59 220.582 326.18C221.349 326.77 222.294 327.082 223.262 327.066Z" fill="#3D3D3D"/>
<path d="M219.902 327.066H283.956C284.607 327.067 285.249 326.919 285.834 326.634C286.419 326.349 286.931 325.935 287.332 325.423C287.733 324.91 288.011 324.313 288.147 323.677C288.283 323.041 288.271 322.382 288.114 321.751L276.708 276.34C276.477 275.412 275.942 274.588 275.189 273.999C274.435 273.411 273.506 273.091 272.55 273.092H208.496C207.845 273.091 207.203 273.239 206.618 273.524C206.033 273.809 205.521 274.223 205.12 274.735C204.719 275.248 204.441 275.845 204.305 276.481C204.169 277.117 204.181 277.776 204.338 278.407L215.665 323.819C215.901 324.759 216.448 325.591 217.217 326.181C217.987 326.771 218.933 327.083 219.902 327.066Z" fill="#3D3D3D"/>
<path opacity="0.2" d="M219.902 327.066H283.956C284.607 327.067 285.249 326.919 285.834 326.634C286.419 326.349 286.931 325.935 287.332 325.423C287.733 324.91 288.011 324.313 288.147 323.677C288.283 323.041 288.271 322.382 288.114 321.751L276.708 276.34C276.477 275.412 275.942 274.588 275.189 273.999C274.435 273.411 273.506 273.091 272.55 273.092H208.496C207.845 273.091 207.203 273.239 206.618 273.524C206.033 273.809 205.521 274.223 205.12 274.735C204.719 275.248 204.441 275.845 204.305 276.481C204.169 277.117 204.181 277.776 204.338 278.407L215.665 323.819C215.901 324.759 216.448 325.591 217.217 326.181C217.987 326.771 218.933 327.083 219.902 327.066Z" fill="white"/>
<path opacity="0.3" d="M249.076 298.747C249.964 302.534 248.177 306.209 245.075 306.94C241.974 307.67 238.715 305.198 237.816 301.411C236.917 297.624 238.715 293.949 241.816 293.218C244.918 292.488 248.177 295.016 249.076 298.747Z" fill="#3D3D3D"/>
<path d="M204.36 331.011L180.727 477.572H175.49L199.258 330.179L204.36 331.011Z" fill="#458C83"/>
<path opacity="0.5" d="M204.36 331.011L180.727 477.572H175.49L199.258 330.179L204.36 331.011Z" fill="white"/>
<path d="M239.128 477.572H233.88L211.045 330.999L216.158 330.201L239.128 477.572Z" fill="#458C83"/>
<path opacity="0.5" d="M239.128 477.572H233.88L211.045 330.999L216.158 330.201L239.128 477.572Z" fill="white"/>
<path d="M293.654 331.011L270.021 477.572H264.773L288.541 330.179L293.654 331.011Z" fill="#458C83"/>
<path opacity="0.5" d="M293.654 331.011L270.021 477.572H264.773L288.541 330.179L293.654 331.011Z" fill="white"/>
<path d="M372.53 477.572H367.293L344.447 330.999L349.56 330.201L372.53 477.572Z" fill="#458C83"/>
<path opacity="0.5" d="M372.53 477.572H367.293L344.447 330.999L349.56 330.201L372.53 477.572Z" fill="white"/>
<path d="M378.97 326.01H161.803V332.831H378.97V326.01Z" fill="#458C83"/>
<path opacity="0.3" d="M379.071 326.01H291.541V332.831H379.071V326.01Z" fill="#3D3D3D"/>
<path d="M371.181 326.01H335.311C335.311 325.479 335.521 324.971 335.896 324.595C336.272 324.22 336.78 324.01 337.311 324.01H369.17C369.701 324.01 370.211 324.22 370.588 324.595C370.965 324.97 371.178 325.478 371.181 326.01Z" fill="#3D3D3D"/>
<path d="M358.158 306.895L353.326 318.492C352.438 318.312 351.64 318.189 351.078 318.11L356.113 306.029C356.227 305.754 356.447 305.535 356.723 305.421C356.999 305.307 357.309 305.308 357.585 305.423C357.86 305.537 358.079 305.757 358.193 306.033C358.307 306.309 358.306 306.619 358.192 306.895H358.158Z" fill="#3D3D3D"/>
<path d="M361.574 297.815C367.78 297.815 372.811 291.988 372.811 284.801C372.811 277.614 367.78 271.788 361.574 271.788C355.367 271.788 350.336 277.614 350.336 284.801C350.336 291.988 355.367 297.815 361.574 297.815Z" fill="#85B7A5"/>
<path d="M386.42 280.801L385.656 278.093L402.861 269.518L403.445 272.766L386.42 280.801Z" fill="#3D3D3D"/>
<path opacity="0.1" d="M385.656 278.093L380.441 270.282L388.724 289.634L385.656 278.093Z" fill="#3D3D3D"/>
<path d="M338.818 286.959L338.346 284.026L331.053 281.25V284.026L338.818 286.959Z" fill="#3D3D3D"/>
<path opacity="0.1" d="M338.818 286.959C338.672 286.397 336.885 274.137 336.885 274.137V286.229L338.818 286.959Z" fill="#3D3D3D"/>
<path d="M353.348 249.998C353.348 249.998 348.426 260.989 360.023 260.64C371.62 260.292 374.542 251.729 375.127 245.357L371.508 244.11C371.508 244.11 369.418 253.1 361.574 254.887C353.73 256.674 354.382 248.493 354.382 248.493L353.348 249.998Z" fill="#3D3D3D"/>
<path opacity="0.1" d="M287.449 470.425L299.687 473.302L300.384 470.234L288.157 467.728L287.449 470.425Z" fill="#3D3D3D"/>
</svg>
