<svg width="574" height="502" viewBox="0 0 574 502" fill="none" xmlns="http://www.w3.org/2000/svg">
<path d="M572 285C572 364.71 539.277 436.777 486.531 488.5L86.5 487.546C34.3229 435.892 2 364.221 2 285C2 127.599 129.599 0 287 0C444.401 0 572 127.599 572 285Z" fill="#B1D6DA"/>
<g clip-path="url(#clip0_154_5643)">
<path d="M418.35 374.863L366.11 374.621C364.614 374.617 363.135 374.318 361.755 373.742C360.376 373.165 359.124 372.321 358.072 371.259C357.019 370.197 356.187 368.937 355.623 367.553C355.058 366.168 354.773 364.686 354.783 363.19L355.338 232.585C355.346 231.092 355.648 229.615 356.226 228.24C356.805 226.864 357.65 225.615 358.711 224.566C359.773 223.516 361.03 222.686 362.413 222.123C363.795 221.56 365.275 221.275 366.768 221.284L419.008 221.518C422.022 221.53 424.907 222.736 427.032 224.872C429.157 227.008 430.348 229.9 430.343 232.914L429.789 363.528C429.784 365.024 429.485 366.505 428.907 367.884C428.329 369.264 427.485 370.517 426.422 371.57C425.36 372.623 424.1 373.456 422.714 374.021C421.329 374.586 419.846 374.872 418.35 374.863Z" fill="#458C83"/>
<path d="M418.938 226.064H408.807C408.478 226.069 408.152 226.138 407.85 226.269C407.547 226.399 407.274 226.588 407.044 226.825C406.815 227.061 406.635 227.341 406.514 227.647C406.393 227.954 406.333 228.281 406.339 228.61V230.446C406.346 231.111 406.091 231.751 405.629 232.229C405.167 232.707 404.536 232.984 403.871 233L384.12 232.905C383.788 232.897 383.461 232.824 383.158 232.688C382.855 232.553 382.582 232.359 382.355 232.117C382.128 231.876 381.951 231.591 381.835 231.28C381.719 230.97 381.665 230.639 381.678 230.307V228.454C381.689 228.123 381.635 227.793 381.519 227.483C381.402 227.172 381.225 226.888 380.998 226.647C380.771 226.405 380.498 226.211 380.196 226.076C379.894 225.94 379.567 225.865 379.236 225.857H375.668H366.802C365.756 225.851 364.721 226.051 363.753 226.446C362.785 226.84 361.905 227.422 361.162 228.157C360.419 228.892 359.828 229.766 359.423 230.729C359.018 231.692 358.806 232.726 358.8 233.771L358.255 361.26C358.25 363.371 359.084 365.398 360.573 366.895C362.062 368.392 364.084 369.236 366.195 369.243L418.332 369.486C420.443 369.495 422.471 368.667 423.972 367.184C425.474 365.7 426.326 363.682 426.342 361.571L426.879 234.083C426.887 233.034 426.687 231.994 426.292 231.023C425.897 230.051 425.313 229.168 424.576 228.423C423.838 227.677 422.96 227.086 421.992 226.681C421.025 226.276 419.987 226.067 418.938 226.064Z" fill="white"/>
<path d="M418.081 312.812H366.49V316.267H418.081V312.812Z" fill="#458C83"/>
<path d="M416.246 326.397C416.246 326.519 405.232 326.623 391.654 326.623C378.077 326.623 367.054 326.519 367.054 326.397C367.054 326.276 378.068 326.172 391.654 326.172C405.241 326.172 416.246 326.276 416.246 326.397Z" fill="#458C83"/>
<path d="M416.246 244.561C416.246 244.691 405.232 244.786 391.654 244.786C378.077 244.786 367.054 244.691 367.054 244.561C367.054 244.431 378.068 244.335 391.654 244.335C405.241 244.335 416.246 244.413 416.246 244.561Z" fill="#458C83"/>
<path d="M416.246 332.685C416.246 332.806 405.232 332.91 391.654 332.91C378.077 332.91 367.054 332.806 367.054 332.685C367.054 332.563 378.068 332.459 391.654 332.459C405.241 332.459 416.246 332.555 416.246 332.685Z" fill="#458C83"/>
<path d="M416.246 338.945C416.246 339.066 405.232 339.17 391.654 339.17C378.077 339.17 367.054 339.066 367.054 338.945C367.054 338.824 378.068 338.72 391.654 338.72C405.241 338.72 416.246 338.841 416.246 338.945Z" fill="#458C83"/>
<path d="M416.246 345.249C416.246 345.37 405.232 345.474 391.654 345.474C378.077 345.474 367.054 345.37 367.054 345.249C367.054 345.128 378.068 345.024 391.654 345.024C405.241 345.024 416.246 345.119 416.246 345.249Z" fill="#458C83"/>
<path d="M416.246 351.526C416.246 351.656 405.232 351.752 391.654 351.752C378.077 351.752 367.054 351.656 367.054 351.526C367.054 351.397 378.068 351.301 391.654 351.301C405.241 351.301 416.246 351.405 416.246 351.526Z" fill="#458C83"/>
<path d="M416.947 358.653C416.947 358.775 405.933 358.878 392.356 358.878C378.778 358.878 367.755 358.775 367.755 358.653C367.755 358.532 378.769 358.428 392.356 358.428C405.942 358.428 416.947 358.523 416.947 358.653Z" fill="#458C83"/>
<path d="M418.775 251.704H367.054V301.745H418.775V251.704Z" fill="#E0E0E0"/>
<path d="M371.062 297.459L385.376 271.707L397.075 288.168L404.184 279.422L414.765 297.459H371.062Z" fill="#007079"/>
<path d="M402.062 266.702C402.062 267.438 401.844 268.158 401.435 268.77C401.025 269.382 400.444 269.86 399.764 270.141C399.083 270.423 398.335 270.497 397.612 270.353C396.89 270.21 396.227 269.855 395.706 269.334C395.185 268.814 394.83 268.15 394.687 267.428C394.543 266.706 394.617 265.957 394.899 265.277C395.18 264.596 395.658 264.015 396.27 263.606C396.882 263.196 397.602 262.978 398.339 262.978C399.325 262.98 400.271 263.373 400.969 264.071C401.667 264.769 402.06 265.715 402.062 266.702Z" fill="#007079"/>
<path d="M414.765 297.597C414.765 297.597 414.765 297.528 414.765 297.389C414.765 297.251 414.765 297.052 414.765 296.809C414.765 296.272 414.765 295.528 414.765 294.558C414.765 292.575 414.765 289.7 414.705 286.055C414.705 278.746 414.644 268.338 414.601 255.843L414.809 256.051H371.115C371.054 256.103 371.573 255.583 371.357 255.808V267.065C371.357 270.745 371.357 274.347 371.357 277.846C371.357 284.86 371.357 291.484 371.357 297.58L371.14 297.363L402.738 297.476L411.657 297.528H414.021H414.627H414.843H414.653H414.064H411.743L402.876 297.58L371.14 297.692H370.924V297.476C370.924 291.415 370.924 284.756 370.924 277.742C370.924 274.278 370.924 270.641 370.924 266.961V255.704C370.699 255.921 371.218 255.393 371.175 255.453H414.869H414.956V255.817C414.904 268.373 414.869 278.824 414.843 286.167C414.843 289.787 414.843 292.644 414.791 294.618C414.791 295.571 414.791 296.307 414.791 296.827C414.791 297.06 414.791 297.242 414.791 297.389C414.793 297.46 414.784 297.53 414.765 297.597Z" fill="#458C83"/>
<path d="M146.903 177.001V292.359C146.903 297.882 151.381 302.36 156.905 302.36H331.161C336.685 302.36 341.163 297.882 341.163 292.359V177.001C341.163 171.478 336.685 167 331.161 167H156.905C151.381 167 146.903 171.478 146.903 177.001Z" fill="#458C83"/>
<path d="M160.187 171.269V298.091H322.416V171.269H160.187Z" fill="white"/>
<path d="M331.395 229.485C332.422 229.485 333.427 229.79 334.281 230.36C335.136 230.931 335.801 231.743 336.195 232.692C336.588 233.641 336.691 234.686 336.49 235.694C336.29 236.702 335.795 237.627 335.068 238.354C334.342 239.081 333.416 239.575 332.408 239.776C331.4 239.976 330.356 239.874 329.406 239.48C328.457 239.087 327.646 238.421 327.075 237.567C326.504 236.712 326.199 235.708 326.199 234.68C326.199 233.302 326.747 231.981 327.721 231.007C328.695 230.032 330.017 229.485 331.395 229.485Z" fill="#263238"/>
<path d="M152.497 215.353V254.007C152.497 254.59 152.97 255.063 153.553 255.063H153.588C154.172 255.063 154.644 254.59 154.644 254.007V215.353C154.644 214.769 154.172 214.296 153.588 214.296H153.553C152.97 214.296 152.497 214.769 152.497 215.353Z" fill="#263238"/>
<path d="M285.779 180.794H234.188V184.249H285.779V180.794Z" fill="#458C83"/>
<path d="M218.575 240.135H166.983V243.59H218.575V240.135Z" fill="#458C83"/>
<path d="M298.343 193.644C298.343 193.774 283.986 193.869 266.304 193.869C248.622 193.869 234.222 193.774 234.222 193.644C234.222 193.514 248.579 193.419 266.304 193.419C284.029 193.419 298.343 193.523 298.343 193.644Z" fill="#458C83"/>
<path d="M298.343 201.186C298.343 201.307 283.986 201.411 266.304 201.411C248.622 201.411 234.222 201.307 234.222 201.186C234.222 201.065 248.579 200.961 266.304 200.961C284.029 200.961 298.343 201.056 298.343 201.186Z" fill="#458C83"/>
<path d="M298.343 208.72C298.343 208.841 283.986 208.945 266.304 208.945C248.622 208.945 234.222 208.841 234.222 208.72C234.222 208.599 248.579 208.495 266.304 208.495C284.029 208.495 298.343 208.599 298.343 208.72Z" fill="#458C83"/>
<path d="M298.343 216.253C298.343 216.383 283.986 216.478 266.304 216.478C248.622 216.478 234.222 216.383 234.222 216.253C234.222 216.123 248.579 216.028 266.304 216.028C284.029 216.028 298.343 216.132 298.343 216.253Z" fill="#458C83"/>
<path d="M298.343 223.778C298.343 223.899 283.986 224.003 266.304 224.003C248.622 224.003 234.222 223.899 234.222 223.778C234.222 223.657 248.579 223.553 266.304 223.553C284.029 223.553 298.343 223.665 298.343 223.778Z" fill="#458C83"/>
<path d="M284.272 231.329C284.272 231.45 273.058 231.554 259.23 231.554C245.401 231.554 234.188 231.45 234.188 231.329C234.188 231.207 245.392 231.104 259.23 231.104C273.067 231.104 284.272 231.207 284.272 231.329Z" fill="#458C83"/>
<path d="M251.714 253.722C251.714 253.843 232.871 253.947 209.63 253.947C186.389 253.947 167.547 253.843 167.547 253.722C167.547 253.6 186.389 253.497 209.63 253.497C232.871 253.497 251.714 253.592 251.714 253.722Z" fill="#458C83"/>
<path d="M251.714 259.999C251.714 260.129 232.871 260.224 209.63 260.224C186.389 260.224 167.547 260.129 167.547 259.999C167.547 259.869 186.389 259.774 209.63 259.774C232.871 259.774 251.714 259.878 251.714 259.999Z" fill="#458C83"/>
<path d="M251.714 266.286C251.714 266.407 232.871 266.511 209.63 266.511C186.389 266.511 167.547 266.407 167.547 266.286C167.547 266.165 186.389 266.061 209.63 266.061C232.871 266.061 251.714 266.156 251.714 266.286Z" fill="#458C83"/>
<path d="M251.714 272.564C251.714 272.693 232.871 272.789 209.63 272.789C186.389 272.789 167.547 272.693 167.547 272.564C167.547 272.434 186.389 272.338 209.63 272.338C232.871 272.338 251.714 272.442 251.714 272.564Z" fill="#458C83"/>
<path d="M251.714 278.85C251.714 278.971 232.871 279.075 209.63 279.075C186.389 279.075 167.547 278.971 167.547 278.85C167.547 278.729 186.389 278.625 209.63 278.625C232.871 278.625 251.714 278.729 251.714 278.85Z" fill="#458C83"/>
<path d="M219.268 179.019H167.547V229.06H219.268V179.019Z" fill="#007079"/>
<path d="M171.556 224.783L185.869 199.03L197.568 215.483L204.677 206.746L215.258 224.783H171.556Z" fill="#E0E0E0"/>
<path d="M202.555 194.016C202.557 194.753 202.34 195.474 201.932 196.087C201.524 196.701 200.943 197.18 200.263 197.463C199.583 197.746 198.834 197.821 198.111 197.678C197.388 197.535 196.724 197.181 196.202 196.661C195.68 196.141 195.325 195.477 195.181 194.755C195.036 194.032 195.109 193.283 195.391 192.602C195.673 191.921 196.15 191.339 196.762 190.93C197.375 190.52 198.095 190.302 198.832 190.302C199.818 190.302 200.764 190.693 201.462 191.389C202.16 192.086 202.553 193.03 202.555 194.016Z" fill="#E0E0E0"/>
<path d="M215.259 224.921C215.259 224.921 215.259 224.843 215.259 224.713C215.259 224.583 215.259 224.376 215.259 224.133C215.259 223.596 215.259 222.843 215.259 221.882C215.259 219.89 215.259 217.024 215.207 213.378C215.207 206.07 215.146 195.662 215.103 183.167L215.311 183.374H171.616C171.556 183.426 172.075 182.916 171.859 183.141V188.795C171.859 190.665 171.859 192.527 171.859 194.363V205.144C171.859 212.157 171.859 218.782 171.859 224.878L171.642 224.661L203.24 224.765L212.15 224.826H214.514H215.129H215.345H215.155H214.566H212.245L203.378 224.886L171.642 224.99H171.426V224.774C171.426 218.712 171.426 212.054 171.426 205.04C171.426 201.536 171.426 197.942 171.426 194.259V183.002C171.201 183.219 171.72 182.69 171.677 182.742H215.371H215.588V182.959C215.544 195.506 215.51 205.966 215.484 213.309C215.484 216.929 215.44 219.786 215.432 221.76C215.432 222.704 215.432 223.492 215.432 223.969C215.432 224.202 215.432 224.384 215.432 224.531C215.426 224.679 215.364 224.818 215.259 224.921Z" fill="#458C83"/>
<path d="M299.927 246.768H263.325V282.184H299.927V246.768Z" fill="#007079"/>
<path d="M266.166 279.153L276.289 260.935L284.575 272.581L289.606 266.39L297.088 279.153H266.166Z" fill="#E0E0E0"/>
<path d="M288.099 257.384C288.099 257.898 287.946 258.4 287.661 258.827C287.376 259.254 286.97 259.587 286.495 259.784C286.02 259.981 285.498 260.032 284.994 259.932C284.49 259.832 284.027 259.584 283.664 259.221C283.301 258.858 283.053 258.395 282.953 257.891C282.853 257.387 282.904 256.864 283.101 256.39C283.298 255.915 283.631 255.509 284.058 255.224C284.485 254.939 284.987 254.786 285.501 254.786C286.19 254.786 286.851 255.06 287.338 255.547C287.825 256.034 288.099 256.695 288.099 257.384Z" fill="#E0E0E0"/>
<path d="M297.088 279.248C297.088 279.248 297.088 279.196 297.088 279.11C297.088 279.023 297.088 278.867 297.088 278.694C297.088 278.313 297.088 277.828 297.088 277.101C297.088 275.698 297.088 273.637 297.088 271.039C297.088 265.844 297.045 258.501 297.01 249.66L297.157 249.807H266.235C266.192 249.807 266.564 249.478 266.408 249.643V257.592C266.408 260.189 266.408 262.732 266.408 265.22C266.408 270.182 266.408 274.867 266.408 279.179L266.261 279.032L288.533 279.196H294.836H296.516H297.096C297.096 279.196 297.053 279.196 296.967 279.196H296.551H294.906L288.628 279.24L266.175 279.318H266.019V279.162C266.019 274.832 266.019 270.165 266.019 265.203V249.755C265.863 249.902 266.235 249.53 266.201 249.573H297.122H297.278V249.721C297.278 258.605 297.218 266 297.2 271.195C297.2 273.793 297.2 275.785 297.157 277.179C297.157 277.854 297.157 278.374 297.157 278.746C297.157 278.911 297.157 279.04 297.157 279.144C297.157 279.248 297.096 279.257 297.088 279.248Z" fill="#458C83"/>
<path d="M326.277 316.041H79.9679C73.0001 316.041 67.3516 321.69 67.3516 328.657V482.989C67.3516 489.957 73.0001 495.606 79.9679 495.606H326.277C333.245 495.606 338.894 489.957 338.894 482.989V328.657C338.894 321.69 333.245 316.041 326.277 316.041Z" fill="#263238"/>
<path d="M56 482.331H350.195V482.634C350.195 486.722 348.571 490.642 345.68 493.533C342.79 496.424 338.869 498.047 334.781 498.047H71.4133C67.3254 498.047 63.405 496.424 60.5144 493.533C57.6239 490.642 56 486.722 56 482.634V482.331Z" fill="#263238"/>
<path d="M330.849 323.176H74.6426V474.815H330.849V323.176Z" fill="#E0E0E0"/>
<path d="M176.354 482.331L180.008 488.141H231.374L234.768 482.331H176.354Z" fill="#458C83"/>
<path d="M319.073 333.281H83.1895V474.763H319.073V333.281Z" fill="#FAFAFA"/>
<path d="M93.2598 340.252C93.2615 340.644 93.1467 341.028 92.9298 341.356C92.713 341.683 92.4039 341.938 92.0417 342.09C91.6796 342.241 91.2806 342.282 90.8954 342.206C90.5101 342.131 90.156 341.942 89.8778 341.666C89.5996 341.389 89.4099 341.035 89.3327 340.65C89.2555 340.265 89.2942 339.866 89.4441 339.503C89.5939 339.141 89.848 338.83 90.1743 338.612C90.5006 338.394 90.8843 338.277 91.2769 338.277C91.8013 338.277 92.3044 338.485 92.676 338.855C93.0476 339.225 93.2575 339.727 93.2598 340.252Z" fill="#458C83"/>
<path d="M101.33 340.252C101.332 340.645 101.217 341.029 101 341.357C100.782 341.684 100.473 341.939 100.11 342.091C99.7473 342.242 99.3479 342.282 98.9625 342.206C98.577 342.129 98.2229 341.94 97.945 341.662C97.6672 341.385 97.4782 341.03 97.4019 340.645C97.3257 340.26 97.3657 339.86 97.5169 339.497C97.668 339.135 97.9235 338.825 98.2509 338.608C98.5783 338.391 98.9629 338.276 99.3558 338.277C99.8795 338.277 100.382 338.485 100.752 338.856C101.122 339.226 101.33 339.728 101.33 340.252Z" fill="#458C83"/>
<path d="M109.409 340.252C109.411 340.644 109.296 341.028 109.079 341.356C108.862 341.683 108.553 341.938 108.191 342.09C107.829 342.241 107.43 342.282 107.045 342.206C106.66 342.131 106.305 341.942 106.027 341.666C105.749 341.389 105.559 341.035 105.482 340.65C105.405 340.265 105.444 339.866 105.593 339.503C105.743 339.141 105.997 338.83 106.324 338.612C106.65 338.394 107.034 338.277 107.426 338.277C107.686 338.276 107.944 338.326 108.185 338.425C108.425 338.524 108.644 338.669 108.828 338.853C109.012 339.036 109.158 339.254 109.258 339.494C109.358 339.734 109.409 339.992 109.409 340.252Z" fill="#458C83"/>
<path d="M319.073 348.911C319.073 349.041 266.253 349.136 201.136 349.136C136.019 349.136 83.1895 349.041 83.1895 348.911C83.1895 348.781 136.01 348.686 201.136 348.686C266.261 348.686 319.073 348.79 319.073 348.911Z" fill="#458C83"/>
<path d="M338.894 482.453H67.3516V483.319H338.894V482.453Z" fill="#458C83"/>
<path d="M154.117 417.656H102.525V421.111H154.117V417.656Z" fill="#458C83"/>
<path d="M220.757 369.736H169.166V373.191H220.757V369.736Z" fill="#458C83"/>
<path d="M297.495 382.595C297.495 382.716 268.764 382.82 233.33 382.82C197.897 382.82 169.166 382.716 169.166 382.595C169.166 382.474 197.888 382.361 233.33 382.361C268.772 382.361 297.495 382.465 297.495 382.595Z" fill="#458C83"/>
<path d="M297.495 390.128C297.495 390.25 268.764 390.354 233.33 390.354C197.897 390.354 169.166 390.25 169.166 390.128C169.166 390.007 197.888 389.903 233.33 389.903C268.772 389.903 297.495 390.033 297.495 390.128Z" fill="#458C83"/>
<path d="M297.495 397.662C297.495 397.792 268.764 397.887 233.33 397.887C197.897 397.887 169.166 397.792 169.166 397.662C169.166 397.532 197.888 397.437 233.33 397.437C268.772 397.437 297.495 397.541 297.495 397.662Z" fill="#458C83"/>
<path d="M297.495 405.204C297.495 405.326 268.764 405.43 233.33 405.43C197.897 405.43 169.166 405.326 169.166 405.204C169.166 405.083 197.888 404.971 233.33 404.971C268.772 404.971 297.495 405.075 297.495 405.204Z" fill="#458C83"/>
<path d="M297.495 412.738C297.495 412.859 268.764 412.963 233.33 412.963C197.897 412.963 169.166 412.859 169.166 412.738C169.166 412.617 197.888 412.513 233.33 412.513C268.772 412.513 297.495 412.608 297.495 412.738Z" fill="#458C83"/>
<path d="M219.259 420.271C219.259 420.392 208.046 420.496 194.217 420.496C180.388 420.496 169.166 420.392 169.166 420.271C169.166 420.15 180.423 420.046 194.217 420.046C208.011 420.046 219.259 420.15 219.259 420.271Z" fill="#458C83"/>
<path d="M296.551 434.897C296.551 435.026 277.665 435.122 254.381 435.122C231.097 435.122 212.211 435.026 212.211 434.897C212.211 434.767 231.088 434.671 254.381 434.671C277.674 434.671 296.551 434.775 296.551 434.897Z" fill="#458C83"/>
<path d="M296.551 442.897C296.551 443.019 277.665 443.123 254.381 443.123C231.097 443.123 212.211 443.019 212.211 442.897C212.211 442.776 231.088 442.672 254.381 442.672C277.674 442.672 296.551 442.776 296.551 442.897Z" fill="#458C83"/>
<path d="M296.551 450.899C296.551 451.02 277.665 451.124 254.381 451.124C231.097 451.124 212.211 451.02 212.211 450.899C212.211 450.778 231.088 450.674 254.381 450.674C277.674 450.674 296.551 450.769 296.551 450.899Z" fill="#458C83"/>
<path d="M296.551 458.9C296.551 459.021 277.665 459.125 254.381 459.125C231.097 459.125 212.211 459.021 212.211 458.9C212.211 458.779 231.088 458.675 254.381 458.675C277.674 458.675 296.551 458.77 296.551 458.9Z" fill="#458C83"/>
<path d="M154.247 434.134C154.247 434.256 142.99 434.359 129.135 434.359C115.28 434.359 104.023 434.256 104.023 434.134C104.023 434.013 115.28 433.909 129.135 433.909C142.99 433.909 154.247 434.004 154.247 434.134Z" fill="#458C83"/>
<path d="M154.247 440.413C154.247 440.543 142.99 440.638 129.135 440.638C115.28 440.638 104.023 440.543 104.023 440.413C104.023 440.283 115.28 440.188 129.135 440.188C142.99 440.188 154.247 440.257 154.247 440.413Z" fill="#458C83"/>
<path d="M154.247 446.699C154.247 446.82 142.99 446.924 129.135 446.924C115.28 446.924 104.023 446.82 104.023 446.699C104.023 446.578 115.28 446.474 129.135 446.474C142.99 446.474 154.247 446.578 154.247 446.699Z" fill="#458C83"/>
<path d="M154.247 452.977C154.247 453.107 142.99 453.202 129.135 453.202C115.28 453.202 104.023 453.107 104.023 452.977C104.023 452.847 115.28 452.752 129.135 452.752C142.99 452.752 154.247 452.856 154.247 452.977Z" fill="#458C83"/>
<path d="M154.247 459.307C154.247 459.428 142.99 459.532 129.135 459.532C115.28 459.532 104.023 459.428 104.023 459.307C104.023 459.185 115.28 459.082 129.135 459.082C142.99 459.082 154.247 459.142 154.247 459.307Z" fill="#458C83"/>
<path d="M154.246 358.462H102.525V408.503H154.246V358.462Z" fill="#E0E0E0"/>
<path d="M106.534 404.217L120.848 378.465L132.546 394.926L139.664 386.189L150.237 404.217H106.534Z" fill="#007079"/>
<path d="M137.534 373.46C137.534 374.196 137.315 374.916 136.906 375.528C136.497 376.141 135.916 376.618 135.235 376.9C134.555 377.182 133.806 377.255 133.084 377.112C132.362 376.968 131.698 376.613 131.177 376.093C130.657 375.572 130.302 374.908 130.158 374.186C130.015 373.464 130.088 372.715 130.37 372.035C130.652 371.354 131.129 370.773 131.742 370.364C132.354 369.955 133.074 369.736 133.81 369.736C134.798 369.736 135.745 370.129 136.443 370.827C137.141 371.525 137.534 372.472 137.534 373.46Z" fill="#007079"/>
<path d="M150.237 404.355C150.233 404.289 150.233 404.222 150.237 404.156C150.237 404 150.237 403.81 150.237 403.567C150.237 403.039 150.237 402.286 150.237 401.316C150.237 399.333 150.237 396.467 150.176 392.821C150.176 385.513 150.116 375.105 150.072 362.601L150.28 362.817H106.586C106.525 362.869 107.045 362.35 106.829 362.575V373.832C106.829 377.503 106.829 381.105 106.829 384.612C106.829 391.618 106.829 398.242 106.829 404.338L106.612 404.13L138.209 404.234L147.128 404.295H149.492H150.315C150.315 404.295 150.254 404.295 150.124 404.295H149.535H147.215L138.348 404.355L106.612 404.459H106.404V404.243C106.404 398.181 106.404 391.522 106.404 384.517C106.404 381.01 106.404 377.408 106.404 373.737V362.48L106.655 362.229H150.349H150.566V362.436C150.566 374.992 150.479 385.444 150.453 392.787C150.453 396.415 150.453 399.264 150.401 401.238C150.401 402.19 150.401 402.926 150.401 403.455C150.401 403.688 150.401 403.87 150.401 404.009C150.401 404.147 150.246 404.364 150.237 404.355Z" fill="#458C83"/>
<path d="M205.734 431.078H169.132V466.494H205.734V431.078Z" fill="#E0E0E0"/>
<path d="M171.972 463.463L182.094 445.244L190.381 456.891L195.412 450.699L202.902 463.463H171.972Z" fill="#007079"/>
<path d="M193.904 441.694C193.904 442.208 193.752 442.71 193.467 443.137C193.181 443.564 192.776 443.897 192.301 444.094C191.826 444.291 191.304 444.342 190.8 444.242C190.296 444.142 189.833 443.894 189.47 443.531C189.107 443.168 188.859 442.705 188.759 442.201C188.659 441.697 188.71 441.175 188.907 440.7C189.103 440.225 189.436 439.819 189.863 439.534C190.291 439.249 190.793 439.096 191.307 439.096C191.996 439.096 192.656 439.37 193.144 439.857C193.631 440.344 193.904 441.005 193.904 441.694Z" fill="#007079"/>
<path d="M202.902 463.567C202.899 463.518 202.899 463.469 202.902 463.42C202.902 463.316 202.902 463.177 202.902 463.004C202.902 462.632 202.902 462.138 202.902 461.411C202.902 460.008 202.902 457.947 202.859 455.392C202.859 450.197 202.859 442.854 202.79 434.013L202.937 434.16H172.006C172.006 434.16 172.335 433.831 172.179 433.996V449.582C172.179 454.544 172.179 459.228 172.179 463.549L172.024 463.394L194.39 463.471L200.694 463.515H202.365H200.72H194.451L171.989 463.593H171.842V463.445C171.842 459.116 171.842 454.44 171.842 449.478C171.842 447.002 171.842 444.447 171.842 441.85V433.918C171.686 434.065 172.05 433.693 172.015 433.736H202.945H203.093V433.883C203.093 442.767 203.032 450.162 203.015 455.367C203.015 457.964 203.015 459.947 203.015 461.341C203.015 462.017 203.015 462.536 203.015 462.909C203.015 463.073 203.015 463.203 203.015 463.307C202.994 463.4 202.956 463.488 202.902 463.567Z" fill="#458C83"/>
<path d="M511.66 482.876L503.001 481.846L500.966 498.073L513.634 499.71L513.825 498.714C514.639 494.263 517.626 476.044 517.089 472.936C516.492 469.472 511.66 482.876 511.66 482.876Z" fill="#007079"/>
<path d="M513.462 482.114C513.375 482.236 512.925 482.062 512.509 481.664C512.094 481.266 511.921 480.798 512.042 480.72C512.163 480.642 512.527 480.893 512.908 481.266C513.289 481.638 513.557 482.01 513.462 482.114Z" fill="#263238"/>
<path d="M511.841 481.872C511.98 481.811 512.257 482.131 512.361 482.608C512.465 483.084 512.361 483.474 512.205 483.474C512.049 483.474 511.911 483.127 511.815 482.703C511.72 482.279 511.694 481.932 511.841 481.872Z" fill="#263238"/>
<path d="M510.976 482.01C511.123 482.01 511.201 482.461 511.149 483.015C511.097 483.569 510.915 483.985 510.768 483.95C510.621 483.915 510.534 483.474 510.595 482.954C510.655 482.435 510.82 482.01 510.976 482.01Z" fill="#263238"/>
<path d="M506.378 499.363L458.381 494.497L358.853 496.722L385.315 475.386L451.739 472.2L509.816 480.201L506.378 499.363Z" fill="#007079"/>
<path d="M420.609 473.689L424.021 495.155H430.567L425.588 473.455L420.609 473.689Z" fill="black"/>
<path d="M445.946 495.44L444.977 486.781L428.706 488.513L429.962 501.19H430.975C435.495 500.965 453.913 499.735 456.814 498.506C460.087 497.094 445.946 495.44 445.946 495.44Z" fill="#007079"/>
<path d="M446.414 497.181C446.266 497.12 446.336 496.644 446.63 496.151C446.924 495.657 447.331 495.38 447.444 495.475C447.557 495.57 447.383 495.986 447.115 496.436C446.847 496.887 446.569 497.242 446.414 497.181Z" fill="#263238"/>
<path d="M447.53 497.597C447.383 497.597 447.4 497.034 447.66 496.454C447.92 495.873 448.301 495.51 448.431 495.588C448.561 495.666 448.431 496.133 448.171 496.67C447.911 497.207 447.677 497.674 447.53 497.597Z" fill="#263238"/>
<path d="M446.292 495.545C446.388 495.666 446.137 496.004 445.695 496.22C445.253 496.437 444.829 496.419 444.829 496.272C444.829 496.125 445.098 495.908 445.487 495.718C445.877 495.527 446.206 495.415 446.292 495.545Z" fill="#263238"/>
<path d="M445.946 494.73C445.946 494.886 445.556 495.059 445.01 495.129C444.465 495.198 444.015 495.129 444.006 494.973C443.997 494.817 444.422 494.644 444.941 494.574C445.461 494.505 445.911 494.583 445.946 494.73Z" fill="#263238"/>
<path d="M350.747 396.389L364.602 396.137C364.793 394.536 365.061 388.292 365.061 388.292C365.061 388.292 370.863 387.747 371.287 382.014C371.711 376.282 371.529 363.016 371.529 363.016C368.35 361.411 364.8 360.684 361.246 360.909C357.691 361.135 354.262 362.304 351.31 364.298L350.444 364.904L350.747 396.389Z" fill="#BC928F"/>
<path d="M365.096 388.206C362.439 388.089 359.877 387.185 357.735 385.608C357.735 385.608 359.251 389.851 365.018 389.686L365.096 388.206Z" fill="#A7797A"/>
<path d="M371.945 360.947C372.274 360.936 372.597 360.85 372.887 360.695C373.178 360.54 373.43 360.32 373.622 360.053C373.815 359.785 373.944 359.478 373.999 359.153C374.054 358.828 374.034 358.495 373.941 358.179C373.847 357.863 373.682 357.573 373.459 357.33C373.235 357.088 372.96 356.9 372.652 356.781C372.345 356.662 372.015 356.615 371.686 356.644C371.358 356.672 371.041 356.776 370.759 356.946C371.447 356.38 372.007 355.675 372.404 354.877C372.595 354.476 372.658 354.026 372.585 353.587C372.512 353.149 372.307 352.744 371.997 352.426C371.635 352.178 371.213 352.032 370.776 352.005C370.338 351.977 369.901 352.069 369.512 352.27C368.291 352.798 367.33 353.829 366.048 354.262C364.767 354.695 363.398 354.478 362.056 354.539C360.56 354.567 359.112 355.067 357.917 355.968C357.329 356.422 356.856 357.009 356.536 357.679C356.215 358.35 356.057 359.087 356.073 359.83C354.194 359.605 352.116 359.579 350.635 360.748C350.039 361.278 349.568 361.933 349.255 362.667C348.942 363.4 348.795 364.194 348.825 364.991C348.969 366.582 349.349 368.143 349.951 369.623C350.056 370.057 350.25 370.464 350.522 370.818L351.224 374.94L353.778 374.888L353.614 366.315C353.614 366.315 353.354 362.696 356.471 363.016C359.588 363.337 363.805 366.844 369.858 365.952C370.848 365.9 371.813 365.624 372.681 365.146C373.102 364.882 373.444 364.509 373.672 364.068C373.901 363.626 374.007 363.132 373.98 362.635C373.927 362.144 373.685 361.693 373.305 361.378C372.925 361.062 372.437 360.908 371.945 360.947Z" fill="#263238"/>
<path d="M351.544 369.996C351.414 369.952 347.275 369.416 347.665 374.325C348.054 379.235 352.86 377.2 352.86 377.062C352.86 376.923 351.544 369.996 351.544 369.996Z" fill="#BC928F"/>
<path d="M339.508 482.01C342.106 485.881 357.857 509.589 376.664 492.349C400.624 470.407 419.57 451.183 419.57 451.183L426.688 494.609L448.994 493.397C448.994 493.397 440.335 428.739 434.81 422.859C428.671 416.296 423.025 416.85 374.811 454.898L339.508 482.01Z" fill="#007079"/>
<path d="M419.293 408.373L440.127 393.167L441.149 394.804L420.453 410.191L419.293 408.373Z" fill="#263238"/>
<path d="M424.445 407.906C424.445 407.906 427.234 400.632 427.909 399.082C428.584 397.532 429.597 394.83 429.996 394.753C430.394 394.675 431.849 394.926 429.996 399.55C428.143 404.174 432.247 401.351 432.247 401.351L436.256 398.476C436.256 398.476 439.426 407.949 437.625 410.807C436.209 412.94 434.618 414.953 432.871 416.825L424.445 407.906Z" fill="#BC928F"/>
<path d="M424.679 407.057C424.263 406.113 397.766 429.51 392.493 430.307L377.045 410.192C377.045 410.192 373.841 405.1 366.957 396.389C362.506 390.769 350.245 391.938 347.041 398.787C341.568 410.425 341.499 423.362 338.581 448.534L337.308 465.558C337.034 469.181 337.089 472.821 337.473 476.434C337.94 480.651 338.893 485.093 340.85 484.461L376.188 455.254L377.322 441.988C384.752 449.521 387.064 451.097 390.926 450.491C400.65 448.984 434.689 418.374 434.689 418.374C434.689 418.374 425.086 408.009 424.679 407.057Z" fill="#007079"/>
<path d="M356.116 413.724C356.433 414.074 356.723 414.447 356.982 414.841L359.285 417.976C361.234 420.617 363.953 424.254 366.992 428.228L374.829 438.394L377.193 441.485C377.512 441.851 377.802 442.242 378.058 442.654C377.711 442.325 377.39 441.969 377.097 441.589C376.5 440.888 375.66 439.857 374.621 438.593C372.551 436.039 369.72 432.488 366.68 428.505C363.641 424.522 360.957 420.851 359.078 418.158C358.134 416.815 357.346 415.716 356.878 414.945C356.592 414.559 356.337 414.151 356.116 413.724Z" fill="#007079"/>
<path d="M425.762 444.412C423.79 447.622 421.221 450.423 418.193 452.665C418.107 452.561 419.925 450.872 422.038 448.595C424.151 446.317 425.632 444.334 425.762 444.412Z" fill="#263238"/>
<path d="M426.602 447.045C425.435 447.936 424.202 448.738 422.914 449.444C421.702 450.285 420.429 451.031 419.104 451.678C420.175 450.661 421.374 449.787 422.671 449.08C423.888 448.235 425.21 447.551 426.602 447.045Z" fill="#263238"/>
</g>
<defs>
<clipPath id="clip0_154_5643">
<rect width="462" height="335" fill="white" transform="translate(56 167)"/>
</clipPath>
</defs>
</svg>
