<svg width="574" height="502" viewBox="0 0 574 502" fill="none" xmlns="http://www.w3.org/2000/svg">
<path d="M572 285C572 364.71 539.277 436.777 486.531 488.5L86.5 487.546C34.3229 435.892 2 364.221 2 285C2 127.599 129.599 0 287 0C444.401 0 572 127.599 572 285Z" fill="#B1D6DA"/>
<path d="M290.671 501.189C428.175 501.189 539.643 494.672 539.643 486.633C539.643 478.594 428.175 472.077 290.671 472.077C153.167 472.077 41.6982 478.594 41.6982 486.633C41.6982 494.672 153.167 501.189 290.671 501.189Z" fill="#F5F5F5"/>
<path d="M471.431 120.418C468.941 119.89 465.744 116.354 465.384 110.349C464.947 102.634 473.28 102.197 477.312 104.036C481.345 105.874 479.11 116.161 471.431 120.418Z" fill="#263238"/>
<path d="M534.66 456.916L525.067 460.17L516.104 438.104L525.683 434.851L534.66 456.916Z" fill="#BC928F"/>
<path d="M523.552 459.437L535.224 455.476C535.407 455.407 535.61 455.409 535.791 455.482C535.972 455.557 536.119 455.697 536.201 455.875L540.181 464.169C540.273 464.381 540.322 464.611 540.321 464.843C540.321 465.075 540.273 465.305 540.18 465.517C540.087 465.729 539.952 465.92 539.782 466.078C539.611 466.235 539.411 466.356 539.192 466.432C535.417 467.641 532.617 468.348 527.893 469.956C524.977 470.946 519.161 473.067 515.141 474.43C511.122 475.794 509.62 471.859 511.173 470.868C518.172 466.664 520.291 463.616 522.14 460.582C522.463 460.047 522.963 459.642 523.552 459.437Z" fill="#263238"/>
<path opacity="0.2" d="M525.683 434.851L516.104 438.104L520.727 449.484L530.319 446.231L525.683 434.851Z" fill="black"/>
<path d="M473.949 157.567H481.653C479.085 159.752 479.316 218.542 481.486 246.767C475.336 247.152 464.061 245.005 464.061 245.005C464.061 245.005 462.982 201.003 473.949 157.567Z" fill="#007079"/>
<path opacity="0.4" d="M473.949 157.567H481.653C479.085 159.752 479.316 218.542 481.486 246.767C475.336 247.152 464.061 245.005 464.061 245.005C464.061 245.005 462.982 201.003 473.949 157.567Z" fill="black"/>
<path d="M469.852 476.218H459.656L458.127 452.583H468.311L469.852 476.218Z" fill="#BC928F"/>
<path opacity="0.2" d="M468.311 452.596H458.127L458.924 464.774H469.107L468.311 452.596Z" fill="black"/>
<path d="M453.158 460.607L471.342 460.453C471.342 460.453 468.285 393.935 470.212 362.264C470.802 352.62 470.687 339.26 473.396 324.883C476.837 306.766 481.242 287.156 484.876 271.816C488.728 255.64 486.699 244.195 486.699 244.195L450.887 242.074C450.887 242.074 441.627 326.941 441.615 358.033C441.59 390.45 453.158 460.607 453.158 460.607Z" fill="#263238"/>
<path d="M458.437 475.035H470.854C471.051 475.027 471.244 475.094 471.394 475.223C471.544 475.352 471.64 475.532 471.663 475.729L472.819 484.794C472.838 485.025 472.809 485.258 472.735 485.477C472.659 485.697 472.539 485.898 472.382 486.068C472.226 486.239 472.035 486.376 471.822 486.468C471.61 486.561 471.381 486.608 471.15 486.607C467.155 486.543 464.266 486.312 459.232 486.312C456.138 486.312 444.953 486.633 440.677 486.633C436.402 486.633 436.248 482.403 438.033 482.016C446.045 480.293 453.994 477.927 456.729 475.665C457.206 475.259 457.811 475.036 458.437 475.035Z" fill="#263238"/>
<path d="M451.707 462.819H475.103L474.962 456.248L450.475 455.823L451.707 462.819Z" fill="#007079"/>
<path d="M454.893 476.809C454.218 476.868 453.545 476.686 452.991 476.294C452.815 476.137 452.687 475.933 452.618 475.706C452.55 475.48 452.546 475.238 452.606 475.009C452.621 474.864 452.672 474.725 452.755 474.606C452.838 474.486 452.951 474.39 453.081 474.328C454.263 473.735 457.357 475.767 457.717 475.999C457.754 476.026 457.781 476.065 457.796 476.108C457.809 476.152 457.809 476.2 457.795 476.243C457.78 476.289 457.755 476.329 457.721 476.363C457.688 476.397 457.647 476.421 457.602 476.436C456.715 476.657 455.806 476.782 454.893 476.809ZM453.608 474.701C453.497 474.699 453.389 474.721 453.287 474.765C453.236 474.794 453.194 474.834 453.163 474.884C453.131 474.933 453.112 474.989 453.107 475.047C453.071 475.201 453.075 475.363 453.117 475.516C453.16 475.669 453.24 475.809 453.351 475.921C453.865 476.397 455.2 476.462 456.96 476.114C455.94 475.432 454.79 474.968 453.583 474.752L453.608 474.701Z" fill="#007079"/>
<path d="M457.601 476.462C457.568 476.475 457.531 476.475 457.498 476.462C456.497 475.896 454.661 473.659 454.995 472.515C455.048 472.336 455.157 472.179 455.304 472.066C455.452 471.954 455.631 471.89 455.817 471.884C455.996 471.863 456.178 471.878 456.35 471.931C456.523 471.985 456.683 472.074 456.818 472.193C457.91 473.17 457.871 476.05 457.871 476.231C457.872 476.275 457.86 476.319 457.837 476.358C457.815 476.396 457.782 476.427 457.742 476.449C457.699 476.469 457.648 476.474 457.601 476.462ZM455.945 472.321H455.829C455.508 472.321 455.47 472.515 455.457 472.566C455.264 473.247 456.407 474.931 457.371 475.729C457.418 474.593 457.104 473.472 456.472 472.527C456.393 472.453 456.3 472.395 456.198 472.361C456.096 472.325 455.988 472.311 455.88 472.321H455.945Z" fill="#007079"/>
<path opacity="0.2" d="M473.397 324.935C476.838 306.817 481.242 287.207 484.876 271.868L480.908 263.869C472.395 274.542 471.098 307.216 473.397 324.935Z" fill="black"/>
<path d="M470.212 243.295C470.212 243.295 481.936 330.593 487.213 360.129C493.004 392.469 515.257 448.855 515.257 448.855L532.811 442.888C532.811 442.888 518.982 396.107 514.127 364.45C508.594 328.445 505.357 245.353 505.357 245.353L470.212 243.295Z" fill="#263238"/>
<path d="M513.332 449.921L535.341 442.451L533.107 436.215L509.941 443.634L513.332 449.921Z" fill="#007079"/>
<path d="M520.791 462.266C520.173 462.542 519.474 462.584 518.827 462.381C518.611 462.288 518.425 462.136 518.289 461.943C518.153 461.75 518.072 461.524 518.057 461.288C518.026 461.145 518.032 460.996 518.071 460.855C518.112 460.714 518.187 460.585 518.288 460.478C519.212 459.553 522.769 460.478 523.18 460.607C523.227 460.617 523.268 460.643 523.297 460.681C523.325 460.718 523.338 460.766 523.334 460.812C523.338 460.862 523.328 460.91 523.305 460.954C523.283 460.997 523.248 461.032 523.206 461.057C522.452 461.554 521.641 461.96 520.791 462.266ZM518.878 460.671C518.771 460.7 518.673 460.758 518.596 460.839C518.556 460.881 518.528 460.933 518.515 460.989C518.501 461.045 518.503 461.104 518.518 461.16C518.53 461.32 518.583 461.475 518.674 461.609C518.764 461.742 518.888 461.848 519.032 461.919C519.662 462.202 520.933 461.842 522.474 460.941C521.306 460.606 520.083 460.514 518.878 460.671Z" fill="#007079"/>
<path d="M523.154 461.083H523.089C521.973 460.851 519.546 459.295 519.481 458.113C519.474 457.925 519.527 457.739 519.63 457.582C519.734 457.426 519.884 457.305 520.06 457.238C520.223 457.165 520.4 457.128 520.579 457.128C520.758 457.128 520.935 457.165 521.099 457.238C522.384 457.816 523.334 460.646 523.372 460.761C523.393 460.801 523.405 460.845 523.405 460.89C523.405 460.935 523.393 460.979 523.372 461.019C523.348 461.051 523.313 461.075 523.273 461.087C523.234 461.098 523.193 461.096 523.154 461.083ZM520.277 457.662H520.175C519.892 457.804 519.892 457.958 519.892 458.023C519.892 458.717 521.536 459.977 522.704 460.427C522.397 459.617 521.703 458.023 520.843 457.662C520.753 457.625 520.657 457.605 520.56 457.605C520.463 457.605 520.367 457.625 520.277 457.662Z" fill="#007079"/>
<path d="M460.876 169.641C456.356 175.401 451.707 180.763 446.751 186.062C441.774 191.407 436.496 196.464 430.944 201.209C429.48 202.391 428.055 203.588 426.476 204.719C424.656 206.157 422.657 207.35 420.53 208.268C416.181 209.961 411.454 210.441 406.854 209.657C402.832 209.008 398.934 207.742 395.298 205.902C393.571 205.055 391.899 204.102 390.29 203.047C388.686 201.987 387.152 200.827 385.692 199.576L389.878 193.147C395.76 195.564 402.424 197.492 407.984 197.455C410.406 197.526 412.806 196.963 414.944 195.821C415.968 195.178 416.927 194.438 417.808 193.61C419.028 192.593 420.222 191.436 421.416 190.331C423.818 188.029 426.193 185.662 428.504 183.156C430.815 180.648 433.14 178.153 435.413 175.581C439.946 170.438 444.491 165.153 448.805 159.945L460.876 169.641Z" fill="#BC928F"/>
<path d="M459.721 177.601C455.679 182.206 451.259 186.465 446.507 190.33L443.104 187.167L430.957 175.89C434.323 169.473 438.842 163.732 444.286 158.955C453.84 150.43 465.165 153.143 466.462 163.79C466.95 167.75 463.714 172.894 459.721 177.601Z" fill="#007079"/>
<path opacity="0.2" d="M459.72 177.601C455.679 182.206 451.259 186.465 446.507 190.331L443.104 187.167C446.315 180.48 457.602 168.715 459.72 177.601Z" fill="black"/>
<path d="M446.867 257.157C451.696 259.189 459.079 260.539 465.384 258.584C464.96 249.03 465.101 195.152 474.603 157.515H480.228C477.66 159.611 469.827 230.013 472.395 259.304C483.168 261.554 504.343 259.831 507.681 256.527C507.258 251.924 504.934 228.932 505.254 212.884C505.396 206.043 505.704 198.495 506.411 190.575C507.352 179.247 509.146 168.006 511.778 156.949C511.778 156.949 505.358 155.239 497.999 154.133C496.549 153.915 495.072 153.722 493.621 153.567C485.948 152.667 478.232 152.207 470.507 152.191C469.557 152.191 468.619 152.269 467.708 152.333C463.361 152.649 459.039 153.233 454.764 154.082C454.764 154.082 441.011 200.361 446.867 257.157Z" fill="#007079"/>
<path opacity="0.2" d="M504.111 172.907C501.428 181.046 501.543 192.324 505.395 197.634C505.55 197.853 505.717 198.058 505.87 198.238C506.025 195.744 506.218 193.207 506.448 190.626C506.796 186.679 507.245 182.629 507.797 178.526L504.111 172.907Z" fill="black"/>
<path d="M492.272 127.4C490.538 134.768 488.587 148.334 493.556 153.619C491.156 155.88 488.294 157.592 485.167 158.636C482.041 159.679 478.726 160.03 475.45 159.662C469.03 159.135 468.889 154.635 470.404 152.243C478.789 150.751 478.802 144.528 477.556 138.703L492.272 127.4Z" fill="#BC928F"/>
<path opacity="0.2" d="M486.289 132.016L477.621 138.69C477.926 140.056 478.116 141.445 478.186 142.843C481.371 142.573 485.89 139.346 486.314 136.041C486.552 134.709 486.544 133.345 486.289 132.016Z" fill="black"/>
<path d="M493.556 115.12C492.695 125.227 492.695 131.18 487.494 136.144C479.662 143.602 467.36 138.381 465.203 128.172C463.264 118.965 464.997 103.997 474.949 100.435C477.179 99.6776 479.561 99.4898 481.88 99.8888C484.201 100.288 486.385 101.261 488.233 102.72C490.082 104.179 491.537 106.078 492.466 108.243C493.396 110.409 493.77 112.773 493.556 115.12Z" fill="#BC928F"/>
<path d="M492.978 121.498C490.488 120.983 487.277 117.434 486.931 111.429C486.481 103.714 494.827 103.277 498.847 105.116C502.865 106.955 500.645 117.28 492.978 121.498Z" fill="#263238"/>
<path d="M488.253 108.202C483.631 110.028 465.64 109.372 462.815 104.756C459.99 100.139 497.409 104.589 488.253 108.202Z" fill="#263238"/>
<path d="M490.076 106.993C485.325 108.408 467.45 106.222 465.037 101.387C462.623 96.5519 499.527 104.1 490.076 106.993Z" fill="#263238"/>
<path d="M492.478 106.247C487.624 107.225 470.019 103.431 468.08 98.3909C466.141 93.3503 502.147 104.293 492.478 106.247Z" fill="#263238"/>
<path d="M495.611 106.736C490.693 107.353 473.204 100.757 471.611 95.5877C470.019 90.4185 505.395 105.515 495.611 106.736Z" fill="#263238"/>
<path d="M497.525 105.707C492.568 105.823 475.901 98.9951 474.834 93.6973C473.769 88.3995 507.386 105.424 497.525 105.707Z" fill="#263238"/>
<path d="M498.089 105.617C494.006 104.833 479.393 95.9861 479.843 91.4727C480.343 86.4193 506.295 107.186 498.089 105.617Z" fill="#263238"/>
<path d="M497.755 123.041C497.454 124.254 496.912 125.393 496.162 126.392C495.413 127.39 494.469 128.227 493.389 128.853C490.487 130.512 488.137 128.094 488.253 124.918C488.253 122.051 489.896 117.743 493.171 117.383C493.886 117.324 494.604 117.44 495.264 117.722C495.922 118.003 496.503 118.442 496.955 119C497.407 119.557 497.715 120.217 497.855 120.921C497.995 121.625 497.96 122.353 497.755 123.041Z" fill="#BC928F"/>
<path d="M517.569 163.777C519.148 167.339 520.381 170.734 521.653 174.244C522.924 177.755 524.015 181.29 525.043 184.891C527.19 192.226 528.614 199.755 529.293 207.368L529.434 210.377V211.239V212.421C529.434 213.193 529.268 213.848 529.165 214.543C528.686 216.827 527.927 219.043 526.905 221.14C525.179 224.7 523.118 228.088 520.754 231.26C516.324 237.256 511.346 242.827 505.884 247.899L500.067 242.909C503.804 237.007 507.541 230.925 510.725 224.907C512.269 222.059 513.603 219.102 514.719 216.06C515.139 214.866 515.428 213.628 515.579 212.37C515.579 212.177 515.579 211.945 515.579 211.817C515.573 211.766 515.573 211.714 515.579 211.662V211.47V211.174L515.284 208.821C514.17 202.191 512.547 195.656 510.43 189.276C509.403 185.997 508.26 182.718 507.104 179.452C505.948 176.186 504.664 172.881 503.47 169.833L517.569 163.777Z" fill="#BC928F"/>
<path d="M514.808 158.492C523.039 163.88 526.852 185.83 526.852 185.83L507.462 194.213C502.855 187.789 499.628 180.477 497.986 172.739C495.238 158.762 506.397 152.963 514.808 158.492Z" fill="#007079"/>
<path d="M504.985 241.418L493.03 240.955L499.322 252.528C499.322 252.528 507.99 250.136 507.129 245.391L504.985 241.418Z" fill="#BC928F"/>
<path d="M486.662 246.484L492.299 255.768L499.323 252.477L493.03 240.955L486.662 246.484Z" fill="#BC928F"/>
<path d="M390.303 193.532L381.442 187.977L379.966 200.836C379.966 200.836 388.518 203.909 390.547 199.55L390.303 193.532Z" fill="#BC928F"/>
<path d="M372.711 189.829L370.258 199.473L379.966 200.888L381.443 187.977L372.711 189.829Z" fill="#BC928F"/>
<path d="M305.848 124.198C298.452 132.029 287.37 152.359 295.871 159.495C298.832 160.773 302.017 161.45 305.242 161.488C308.466 161.525 311.666 160.922 314.657 159.714L312.667 130.357C312.667 130.357 311.627 119.055 305.848 124.198Z" fill="#263238"/>
<path d="M299.955 191.5C298.948 195.52 297.74 199.485 296.334 203.382C294.947 207.239 293.354 211.033 291.608 214.775C289.868 218.558 287.874 222.218 285.637 225.73C284.507 227.505 283.287 229.24 282.003 230.951C281.361 231.799 280.719 232.648 280 233.522C279.653 233.934 279.281 234.333 278.921 234.744L278.382 235.361C278.024 235.754 277.637 236.119 277.226 236.454C276.287 237.201 275.202 237.745 274.042 238.049C272.985 238.314 271.889 238.387 270.806 238.267C269.219 238.073 267.684 237.576 266.286 236.801C264.211 235.642 262.291 234.226 260.571 232.584C257.532 229.706 254.728 226.588 252.186 223.262C247.286 216.849 242.857 210.089 238.935 203.035L243.622 199.988C246.01 203.009 248.463 206.095 250.967 209.066C253.471 212.036 255.988 214.993 258.671 217.771C261.167 220.532 263.858 223.111 266.723 225.486C267.932 226.5 269.26 227.363 270.677 228.057C271.021 228.233 271.397 228.333 271.781 228.354C271.781 228.354 271.705 228.354 271.486 228.354C271.277 228.401 271.078 228.484 270.896 228.598C270.878 228.627 270.851 228.649 270.819 228.662L271.23 228.135C271.512 227.788 271.795 227.454 272.064 227.093C272.604 226.373 273.13 225.653 273.644 224.895C274.658 223.402 275.634 221.86 276.546 220.24C278.369 217.038 280 213.656 281.541 210.223C283.082 206.79 284.418 203.228 285.675 199.64C286.934 196.053 288.09 192.337 289.052 188.877L299.955 191.5Z" fill="#D4ACA4"/>
<path d="M308.006 194.355C306.812 197.711 302.755 203.729 299.57 208.178C297.245 211.393 295.397 213.784 295.397 213.784L293.561 212.499L278.356 202.147C281.221 193.442 285.021 184.145 295.627 181.573C302.305 179.978 310.138 188.363 308.006 194.355Z" fill="#007079"/>
<g opacity="0.5">
<path d="M308.006 194.355C306.812 197.711 302.755 203.729 299.57 208.178C297.245 211.393 295.397 213.784 295.397 213.784L293.561 212.499L278.356 202.147C281.221 193.442 285.021 184.145 295.627 181.573C302.305 179.978 310.138 188.363 308.006 194.355Z" fill="white"/>
</g>
<path opacity="0.3" d="M299.569 208.178C297.245 211.393 295.396 213.784 295.396 213.784L293.56 212.499C294.472 209.027 296.128 203.587 298.542 201.427C299.36 203.578 299.71 205.881 299.569 208.178Z" fill="black"/>
<path d="M244.636 202.353L245.137 192.786L233.708 194.381C233.708 194.381 236.932 201.723 240.334 204.796L244.636 202.353Z" fill="#D4ACA4"/>
<path d="M241.438 188.8L233.168 191.564L233.708 194.381L245.136 192.786L241.438 188.8Z" fill="#D4ACA4"/>
<path d="M336.512 475.934L325.687 476.989L318.483 451.568L329.308 450.526L336.512 475.934Z" fill="#D4ACA4"/>
<path d="M414.636 451.49L404.607 456.106L390.701 434.337L400.729 429.721L414.636 451.49Z" fill="#D4ACA4"/>
<path d="M401.616 452.725L412.659 446.977C412.849 446.878 413.066 446.851 413.274 446.9C413.482 446.95 413.664 447.073 413.789 447.247L419.58 455.296C419.718 455.505 419.811 455.741 419.851 455.988C419.893 456.235 419.881 456.489 419.818 456.731C419.756 456.973 419.642 457.2 419.487 457.396C419.33 457.592 419.134 457.753 418.913 457.868C415.061 459.797 413.083 460.543 408.242 463.011C405.275 464.567 398.919 468.451 394.81 470.585C390.701 472.72 388.39 468.785 389.879 467.524C396.698 461.867 398.868 457.65 400.332 454.126C400.596 453.531 401.047 453.039 401.616 452.725Z" fill="#263238"/>
<path d="M323.749 473.684H336.898C337.132 473.687 337.36 473.766 337.545 473.911C337.73 474.054 337.864 474.255 337.926 474.482L340.776 484.858C340.847 485.103 340.859 485.36 340.811 485.61C340.765 485.861 340.659 486.096 340.504 486.297C340.349 486.5 340.148 486.661 339.919 486.771C339.69 486.88 339.438 486.935 339.184 486.929C334.561 486.929 332.378 486.929 326.612 486.929H308.956C304.179 486.929 303.178 482.081 305.104 481.644C313.977 479.676 319.101 476.963 321.797 474.379C322.06 474.138 322.367 473.953 322.703 473.833C323.038 473.714 323.394 473.663 323.749 473.684Z" fill="#263238"/>
<path opacity="0.2" d="M318.483 451.568L322.208 464.67H333.328L329.322 450.526L318.483 451.568Z" fill="black"/>
<path opacity="0.2" d="M400.743 429.721L390.701 434.337L397.878 445.562L407.908 440.946L400.743 429.721Z" fill="black"/>
<path d="M351.151 242.177L306.683 247.873C287.987 184.865 292.687 182.576 292.687 182.576C292.687 182.576 300.108 180.005 307.685 178.024C308.828 177.729 309.983 177.446 311.113 177.189C317.777 175.857 324.527 174.997 331.312 174.617L334.304 174.424C339.71 174.186 345.126 174.272 350.522 174.681C349.7 182.795 349.109 189.661 348.737 195.667C348.236 203.484 348.082 209.811 348.198 215.289C348.469 224.316 349.456 233.307 351.151 242.177Z" fill="#007079"/>
<g opacity="0.5">
<path d="M351.151 242.177L306.683 247.873C287.987 184.865 292.687 182.576 292.687 182.576C292.687 182.576 300.108 180.005 307.685 178.024C308.828 177.729 309.983 177.446 311.113 177.189C317.777 175.857 324.527 174.997 331.312 174.617L334.304 174.424C339.71 174.186 345.126 174.272 350.522 174.681C349.7 182.795 349.109 189.661 348.737 195.667C348.236 203.484 348.082 209.811 348.198 215.289C348.469 224.316 349.456 233.307 351.151 242.177Z" fill="white"/>
</g>
<path opacity="0.3" d="M348.197 215.263C345.193 208.834 343.729 194.806 345.629 189.996L348.737 195.641C348.236 203.433 348.082 209.759 348.197 215.263Z" fill="black"/>
<path d="M326.42 161.128C326.831 166.632 328.128 172.238 331.312 174.591C326.327 176.085 321.7 178.583 317.713 181.934C312.256 179.053 311.126 177.189 311.126 177.189C318.15 174.527 317.662 169.692 314.683 161.925L320.166 158.968C320.639 158.444 321.255 158.071 321.938 157.895C322.62 157.72 323.34 157.749 324.005 157.979C324.672 158.209 325.256 158.63 325.685 159.19C326.115 159.75 326.369 160.424 326.42 161.128Z" fill="#D4ACA4"/>
<path d="M312.5 172.791C310.561 171.903 306.926 176.713 306.438 177.999C305.951 179.285 307.929 179.683 307.722 181.381C307.517 183.078 308.648 184.582 311.998 185.907C315.35 187.231 321.989 186.434 324.197 183.142C326.406 179.851 340.172 177.214 338.245 173.935C336.32 170.656 334.829 172.495 333.469 169.216C332.107 165.937 326.342 169.075 324.48 170.785C322.618 172.495 320.666 176.507 312.5 172.791Z" fill="#007079"/>
<path opacity="0.2" d="M320.204 158.955C320.647 158.464 321.218 158.106 321.852 157.919C322.486 157.733 323.159 157.726 323.797 157.899C324.435 158.072 325.013 158.418 325.467 158.9C325.92 159.381 326.232 159.979 326.367 160.627C324.287 164.838 320.929 168.281 316.775 170.463C316.628 167.51 315.932 164.61 314.72 161.912L320.204 158.955Z" fill="black"/>
<path d="M334.945 143.872C332.224 154.506 331.298 159.058 324.814 163.532C315.055 170.258 302.612 164.588 302.111 153.362C301.662 143.255 306.195 127.567 317.521 125.317C320.018 124.806 322.604 124.943 325.033 125.715C327.463 126.487 329.655 127.868 331.401 129.728C333.148 131.587 334.389 133.863 335.01 136.338C335.631 138.814 335.608 141.407 334.945 143.872Z" fill="#D4ACA4"/>
<path d="M335.461 154.339C335.021 155.294 334.398 156.152 333.627 156.865C332.856 157.578 331.951 158.131 330.966 158.492C328.32 159.457 326.793 157.129 327.358 154.532C327.871 152.191 329.861 148.861 332.596 149.041C333.191 149.091 333.764 149.289 334.264 149.616C334.764 149.943 335.174 150.389 335.458 150.915C335.742 151.441 335.891 152.029 335.891 152.627C335.892 153.224 335.743 153.813 335.461 154.339Z" fill="#D4ACA4"/>
<path d="M308.146 131.669C313.36 130.602 325.88 131.489 326.971 136.62C322.515 140.786 324.66 154.21 320.024 158.145C326.791 164.574 340.21 164.639 340.21 164.639C340.21 164.639 353.474 128.544 337.282 126.783C333.879 117.653 315.453 116.83 305.848 124.211" fill="#263238"/>
<path d="M333.045 137.121H326.625C326.4 137.121 326.185 137.031 326.026 136.872C325.866 136.713 325.777 136.497 325.777 136.272C325.781 136.048 325.871 135.834 326.03 135.676C326.188 135.517 326.401 135.427 326.625 135.424H333.045C333.271 135.424 333.485 135.513 333.645 135.672C333.804 135.831 333.893 136.047 333.893 136.272C333.895 136.384 333.874 136.495 333.832 136.599C333.79 136.703 333.727 136.797 333.649 136.876C333.57 136.955 333.476 137.018 333.372 137.06C333.269 137.102 333.157 137.123 333.045 137.121Z" fill="#007079"/>
<path d="M306.682 247.886C306.682 247.886 289.604 333.949 295.293 367.189C300.75 399.052 317.533 460.877 317.533 460.877L336.576 460.388C336.576 460.388 324.621 388.753 324.39 362.122C323.992 317.953 339.247 243.707 339.247 243.707L306.682 247.886Z" fill="#007079"/>
<path d="M316.339 461.867L338.374 461.263L337.013 454.023L313.142 455.245L316.339 461.867Z" fill="#263238"/>
<path opacity="0.3" d="M322.194 258.314L329.809 244.915L339.247 243.707C339.247 243.707 332.3 277.474 327.909 313.002C322.631 296.016 320.769 266.132 322.194 258.314Z" fill="black"/>
<path d="M316.353 246.767C316.353 246.767 329.848 319.572 341.88 361.145C351.588 394.719 392.345 440.47 392.345 440.47L406.752 433.231C406.752 433.231 379.402 382.542 372.622 359.731C350.933 286.745 367.896 260.217 351.1 242.177L316.353 246.767Z" fill="#007079"/>
<path d="M392.499 444.92L409.462 436.15L406.919 428.911L388.184 439.326L392.499 444.92Z" fill="#263238"/>
<path d="M351.484 239.438L354.053 243.166C354.246 243.449 353.925 243.822 353.411 243.887L306.76 249.879C306.361 249.879 306.002 249.776 305.951 249.519L305.04 245.584C305.04 245.314 305.296 245.031 305.732 244.98L350.765 239.193C350.896 239.172 351.03 239.183 351.155 239.225C351.281 239.268 351.394 239.341 351.484 239.438Z" fill="#007079"/>
<path opacity="0.4" d="M351.484 239.438L354.053 243.166C354.246 243.449 353.925 243.822 353.411 243.887L306.76 249.879C306.361 249.879 306.002 249.776 305.951 249.519L305.04 245.584C305.04 245.314 305.296 245.031 305.732 244.98L350.765 239.193C350.896 239.172 351.03 239.183 351.155 239.225C351.281 239.268 351.394 239.341 351.484 239.438Z" fill="white"/>
<path d="M346.078 245.301L347.286 245.134C347.529 245.134 347.696 244.967 347.658 244.812L346.374 239.669C346.374 239.515 346.117 239.425 345.873 239.45L344.666 239.604C344.435 239.604 344.268 239.785 344.294 239.939L345.578 245.083C345.616 245.224 345.885 245.327 346.078 245.301Z" fill="#263238"/>
<path d="M310.162 249.904L311.37 249.75C311.601 249.75 311.767 249.57 311.742 249.429L310.457 244.285C310.457 244.131 310.188 244.029 309.957 244.066L308.749 244.221C308.505 244.221 308.339 244.401 308.378 244.542L309.662 249.686C309.687 249.84 309.931 249.943 310.162 249.904Z" fill="#263238"/>
<path d="M328.114 247.603L329.321 247.448C329.566 247.448 329.732 247.269 329.693 247.114L328.474 241.971C328.474 241.829 328.204 241.726 327.973 241.752L326.766 241.907C326.521 241.907 326.355 242.087 326.394 242.241L327.613 247.384C327.652 247.538 327.909 247.628 328.114 247.603Z" fill="#263238"/>
<path d="M355.094 185.907C356.558 187.489 357.777 188.929 359.023 190.498C360.268 192.066 361.462 193.596 362.631 195.178C364.929 198.367 367.1 201.608 369.051 205.067C371.082 208.489 372.897 212.037 374.483 215.688C374.906 216.6 375.254 217.552 375.639 218.478C376.024 219.403 376.384 220.342 376.704 221.307C377.026 222.272 377.359 223.172 377.693 224.239L378.156 225.961L378.49 227.672C379.062 231.953 378.91 236.3 378.04 240.531C377.238 244.478 376.101 248.35 374.637 252.104C373.204 255.753 371.588 259.327 369.796 262.815C367.998 266.269 366.018 269.626 363.864 272.871L359.036 270.015C360.551 266.75 362.04 263.291 363.311 259.857C364.639 256.455 365.792 252.988 366.766 249.467C367.737 246.063 368.446 242.59 368.884 239.077C369.078 237.409 369.173 235.729 369.167 234.05C369.137 232.491 368.969 230.937 368.666 229.408L368.409 228.354L368.089 227.351C367.831 226.63 367.446 225.743 367.125 224.959C366.805 224.175 366.445 223.338 366.06 222.528C365.674 221.718 365.341 220.921 364.917 220.137C363.338 216.948 361.475 213.875 359.601 210.801C357.725 207.729 355.62 204.784 353.45 201.891C352.384 200.425 351.279 198.985 350.15 197.57C349.02 196.155 347.838 194.728 346.772 193.506L355.094 185.907Z" fill="#D4ACA4"/>
<path d="M361.296 266.929L352.435 271.263L361.527 278.373C361.527 278.373 365.469 273.616 365.301 269.026L361.296 266.929Z" fill="#D4ACA4"/>
<path d="M348.222 280.058L355.952 284.07L361.462 278.373L352.37 271.263L348.222 280.058Z" fill="#D4ACA4"/>
<path d="M350.521 174.655C356.03 175.401 364.352 190.806 364.352 190.806L350.341 204.59C350.341 204.59 339.607 192.337 339.889 185.174C340.146 179.092 343.498 173.717 350.521 174.655Z" fill="#007079"/>
<g opacity="0.5">
<path d="M350.521 174.655C356.03 175.401 364.352 190.806 364.352 190.806L350.341 204.59C350.341 204.59 339.607 192.337 339.889 185.174C340.146 179.092 343.498 173.717 350.521 174.655Z" fill="white"/>
</g>
<path d="M397.25 456.75C397.191 456.756 397.13 456.756 397.071 456.75C396.825 456.681 396.601 456.55 396.421 456.37C396.241 456.19 396.111 455.966 396.043 455.721C395.982 455.575 395.961 455.417 395.981 455.261C396.001 455.105 396.062 454.958 396.158 454.833C397.032 453.715 401.013 454.088 401.462 454.126C401.514 454.133 401.562 454.154 401.601 454.189C401.64 454.223 401.668 454.268 401.68 454.319C401.693 454.367 401.693 454.417 401.679 454.465C401.666 454.512 401.64 454.555 401.603 454.589C400.499 455.464 398.534 456.878 397.25 456.75ZM400.769 454.564C399.176 454.46 397.032 454.564 396.569 455.116C396.536 455.175 396.518 455.241 396.518 455.309C396.518 455.377 396.536 455.444 396.569 455.502C396.609 455.668 396.692 455.82 396.809 455.944C396.926 456.068 397.074 456.16 397.237 456.209C397.892 456.338 399.215 455.733 400.73 454.499L400.769 454.564Z" fill="#007079"/>
<path d="M401.102 454.525C399.818 454.332 397.25 453.239 396.955 452.107C396.894 451.908 396.904 451.695 396.985 451.502C397.064 451.31 397.207 451.151 397.391 451.053C397.552 450.931 397.739 450.849 397.938 450.814C398.136 450.778 398.34 450.79 398.534 450.847C400.088 451.233 401.577 454.049 401.641 454.165C401.664 454.206 401.676 454.253 401.676 454.3C401.676 454.347 401.664 454.393 401.641 454.435C401.616 454.472 401.581 454.502 401.54 454.522C401.499 454.542 401.455 454.552 401.41 454.55L401.102 454.525ZM398.302 451.336C398.195 451.318 398.086 451.321 397.98 451.345C397.875 451.369 397.774 451.415 397.686 451.478C397.416 451.67 397.416 451.837 397.455 451.953C397.674 452.698 399.599 453.702 400.922 453.972C400.383 453.059 399.343 451.58 398.354 451.4L398.302 451.336Z" fill="#007079"/>
<path d="M317.931 475.845C317.034 475.91 316.137 475.699 315.363 475.24C315.164 475.09 315.001 474.895 314.887 474.673C314.774 474.45 314.713 474.205 314.708 473.955C314.688 473.816 314.709 473.675 314.766 473.549C314.822 473.421 314.914 473.312 315.029 473.235C316.223 472.437 320.679 474.52 321.565 474.88C321.613 474.902 321.653 474.939 321.679 474.986C321.704 475.031 321.713 475.085 321.707 475.138C321.702 475.193 321.679 475.245 321.642 475.288C321.605 475.33 321.556 475.358 321.5 475.369C320.33 475.647 319.134 475.807 317.931 475.845ZM315.851 473.582C315.672 473.569 315.494 473.61 315.337 473.697C315.299 473.725 315.27 473.762 315.252 473.805C315.234 473.848 315.227 473.895 315.234 473.941C315.238 474.113 315.283 474.281 315.363 474.433C315.442 474.585 315.557 474.716 315.697 474.816C316.467 475.394 318.265 475.472 320.615 475.048C319.112 474.313 317.505 473.819 315.851 473.582Z" fill="#007079"/>
<path d="M321.488 475.394H321.385C319.909 474.79 316.929 472.398 317.097 471.151C317.097 470.881 317.314 470.547 317.996 470.47C320.564 470.161 321.694 474.893 321.745 475.086C321.757 475.135 321.754 475.186 321.738 475.233C321.722 475.281 321.694 475.324 321.655 475.356C321.605 475.388 321.547 475.401 321.488 475.394ZM318.226 470.958H318.059C317.777 470.958 317.636 471.074 317.609 471.203C317.52 471.923 319.575 473.774 321.09 474.636C320.717 473.466 319.767 470.958 318.201 470.958H318.226Z" fill="#007079"/>
<path d="M119.68 476.05L129.991 475.896L132.354 451.953L122.056 452.107L119.68 476.05Z" fill="#A7797A"/>
<path d="M68.6499 476.089H78.9611L83.006 452.185H72.7076L68.6499 476.089Z" fill="#A7797A"/>
<path d="M80.387 474.892H67.8158C67.6116 474.894 67.414 474.964 67.2553 475.093C67.0966 475.222 66.9863 475.4 66.9426 475.6L64.9009 484.782C64.8545 485.005 64.859 485.235 64.9141 485.457C64.9691 485.678 65.0733 485.884 65.219 486.06C65.3646 486.235 65.5479 486.376 65.7551 486.471C65.9624 486.565 66.1883 486.612 66.4161 486.607C70.461 486.543 73.4015 486.299 78.4993 486.299C81.6326 486.299 91.0835 486.633 95.4109 486.633C99.7383 486.633 100.303 482.351 98.5312 481.952C90.5827 480.216 84.5988 477.825 82.0563 475.523C81.5929 475.12 81.0007 474.896 80.387 474.892Z" fill="#263238"/>
<path d="M129.901 474.752L118.64 474.931C118.437 474.931 118.24 475.001 118.083 475.13C117.925 475.259 117.818 475.439 117.779 475.639L115.879 484.846C115.83 485.068 115.832 485.3 115.886 485.522C115.94 485.744 116.045 485.95 116.191 486.126C116.337 486.301 116.522 486.44 116.731 486.533C116.939 486.625 117.166 486.668 117.394 486.659C121.452 486.53 127.32 486.195 132.418 486.119C138.389 486.029 143.551 486.273 150.537 486.119C154.774 486.054 155.879 481.759 154.106 481.399C146.017 479.754 139.429 479.664 132.393 475.472C131.644 475.008 130.782 474.759 129.901 474.752Z" fill="#263238"/>
<path d="M137.644 161.719C140.957 167.93 144.463 174.321 147.994 180.507C151.526 186.691 155.211 192.837 159.14 198.508C159.615 199.241 160.129 199.91 160.63 200.591L161.374 201.608L161.708 202.07L161.837 202.25C162.158 202.715 162.602 203.08 163.121 203.304C164.507 203.909 167.435 203.831 170.388 203.125C173.582 202.314 176.698 201.221 179.699 199.859C181.265 199.151 182.857 198.444 184.411 197.646C185.965 196.849 187.557 196.001 188.996 195.229L193.784 201.325C192.321 202.777 190.921 203.999 189.406 205.182C187.891 206.365 186.389 207.612 184.771 208.718C181.456 211.07 177.885 213.037 174.125 214.582C172.052 215.41 169.902 216.031 167.705 216.434C165.101 216.887 162.436 216.848 159.846 216.317C156.797 215.679 153.995 214.18 151.769 211.997C151.487 211.727 151.23 211.444 150.973 211.161L150.447 210.557L149.484 209.425C148.841 208.679 148.2 207.92 147.596 207.163C142.883 201.191 138.543 194.934 134.601 188.427C130.749 181.998 127.076 175.569 123.699 168.74L137.644 161.719Z" fill="#BC928F"/>
<path d="M119.282 162.029C116.495 171.492 136.065 197.3 136.065 197.3L155.84 184.595C152.127 176.412 147.548 168.651 142.177 161.449C134.011 151.072 122.325 151.638 119.282 162.029Z" fill="#007079"/>
<path opacity="0.2" d="M119.282 162.029C116.495 171.492 136.065 197.3 136.065 197.3L155.84 184.595C152.127 176.412 147.548 168.651 142.177 161.449C134.011 151.072 122.325 151.638 119.282 162.029Z" fill="white"/>
<path opacity="0.2" d="M131.301 173.139C135.359 174.874 141.33 184.711 144.437 191.912L136.065 197.3C131.388 191.037 127.181 184.436 123.481 177.548C126.126 174.642 129.157 172.225 131.301 173.139Z" fill="black"/>
<path d="M188.148 195.718L195.338 191.436L201.502 202.16C201.502 202.16 193.503 206.853 188.328 201.401L188.148 195.718Z" fill="#A7797A"/>
<path d="M205.393 191.539L208.616 199.807L201.502 202.16L195.338 191.436L205.393 191.539Z" fill="#A7797A"/>
<path opacity="0.2" d="M132.354 451.953L131.134 464.298L120.823 464.465L122.043 452.12L132.354 451.953Z" fill="black"/>
<path opacity="0.2" d="M72.6951 452.198H83.0063L80.9133 464.516H70.6021L72.6951 452.198Z" fill="black"/>
<path d="M73.3374 157.836C84.4319 197.004 82.6471 238.64 83.3148 247.152L138.403 245.083C147.763 186.64 130.955 154.107 130.955 154.107C130.955 154.107 127.423 153.426 122.621 152.924C121.106 152.77 119.488 152.641 117.793 152.551C116.855 152.551 115.905 152.461 114.942 152.448C107.148 152.567 99.3663 153.129 91.6358 154.133C90.159 154.313 88.6694 154.544 87.2312 154.776C85.7931 155.007 84.5732 155.252 83.379 155.496C77.6648 156.615 73.3374 157.836 73.3374 157.836Z" fill="#007079"/>
<path opacity="0.2" d="M73.3374 157.836C84.4319 197.004 82.6471 238.64 83.3148 247.152L138.403 245.083C147.763 186.64 130.955 154.107 130.955 154.107C130.955 154.107 127.423 153.426 122.621 152.924C121.106 152.77 119.488 152.641 117.793 152.551C116.855 152.551 115.905 152.461 114.942 152.448C107.148 152.567 99.3663 153.129 91.6358 154.133C90.159 154.313 88.6694 154.544 87.2312 154.776C85.7931 155.007 84.5732 155.252 83.379 155.496C77.6648 156.615 73.3374 157.836 73.3374 157.836Z" fill="white"/>
<path opacity="0.2" d="M85.0608 174.655C86.0495 178.448 84.9195 195.756 80.9645 200.025C80.4252 194.484 79.6804 188.697 78.7559 182.782L85.0608 174.655Z" fill="black"/>
<path d="M118.178 152.526H117.78C116.843 152.526 115.892 152.435 114.929 152.423C107.113 152.556 99.3097 153.136 91.5588 154.158C90.4288 154.3 89.2989 154.467 88.1816 154.647L89.8895 156.113C94.9488 160.446 100.843 164.459 109.575 164.459H110.692C115.148 164.278 117.998 162.825 119.192 160.112C119.64 158.858 119.782 157.515 119.605 156.195C119.429 154.876 118.939 153.617 118.178 152.526Z" fill="white"/>
<path d="M91.9309 127.567C93.9598 134.987 96.4509 148.681 91.5713 154.094C95.9629 157.862 101.651 162.156 110.602 161.81C119.552 161.463 117.536 155.38 114.942 152.359C106.403 150.97 106.159 144.72 107.237 138.767L91.9309 127.567Z" fill="#A7797A"/>
<path opacity="0.2" d="M98.1453 132.183L107.134 138.805C106.878 140.193 106.74 141.599 106.723 143.01C103.487 142.779 98.8259 139.59 98.2352 136.259C97.9561 134.918 97.9256 133.536 98.1453 132.183Z" fill="black"/>
<path d="M113.696 120.405C116.624 123.388 122.004 107.122 116.265 103.174C110.525 99.2263 99.3403 105.707 113.696 120.405Z" fill="#263238"/>
<path d="M90.1841 116.341C91.5709 126.487 91.8662 132.505 97.4007 137.352C105.722 144.643 117.946 139.037 119.615 128.686C121.118 119.363 118.601 104.331 108.341 101.014C106.08 100.271 103.667 100.12 101.331 100.574C98.9956 101.028 96.8145 102.073 94.9953 103.609C93.176 105.144 91.7791 107.12 90.937 109.349C90.095 111.577 89.8357 113.984 90.1841 116.341Z" fill="#A7797A"/>
<path d="M91.5073 125.535C94.8331 128.107 97.748 111.172 91.5073 108.125C85.2665 105.077 75.0708 113.152 91.5073 125.535Z" fill="#263238"/>
<path d="M87.6034 110.426C97.3754 113.782 124.842 110.658 119.988 90.6368C117.921 81.9957 108.573 89.3509 107.931 94.1343C103.154 90.1996 94.2807 91.0611 95.3208 97.349C90.1716 95.8445 70.7048 100.564 87.6034 110.426Z" fill="#263238"/>
<path d="M86.4222 127.927C87.1845 128.963 88.1445 129.837 89.2465 130.499C90.3487 131.162 91.5709 131.598 92.8426 131.784C96.2198 132.273 97.4653 129.136 96.1555 126.178C94.9742 123.516 91.8025 120.057 88.5922 120.932C85.382 121.806 84.573 125.368 86.4222 127.927Z" fill="#A7797A"/>
<path d="M134.961 461.893L117.51 462.162C117.51 462.162 123.327 393.124 121.76 361.003C121.285 351.231 119.32 337.562 116.739 322.916C113.49 304.451 111.924 297.095 107.751 273.77C104.746 257.131 102.229 246.433 102.229 246.433L138.44 245.069C138.44 245.069 149.599 326.234 149.252 357.724C148.855 390.437 134.961 461.893 134.961 461.893Z" fill="#263238"/>
<path opacity="0.2" d="M114.749 267.726C121.247 283.928 121.375 321.887 118.383 332.573C117.869 329.41 117.317 326.144 116.739 322.877C113.478 304.412 111.911 297.058 107.751 273.732C107.674 273.269 107.584 272.818 107.507 272.369C109.636 270.414 112.086 268.844 114.749 267.726Z" fill="black"/>
<path d="M118.871 245.764C118.871 245.764 112.297 331.313 107.456 361.171C102.165 393.858 85.7033 462.124 85.7033 462.124H66.8271C66.8271 462.124 73.0549 400.403 76.9201 368.256C81.3117 331.738 83.3405 247.062 83.3405 247.062L118.871 245.764Z" fill="#263238"/>
<path d="M87.9634 462.535H65.7358V455.887L90.5829 455.45L87.9634 462.535Z" fill="#007079"/>
<path opacity="0.5" d="M87.9634 462.535H65.7358V455.887L90.5829 455.45L87.9634 462.535Z" fill="white"/>
<path d="M137.156 462.227L116.367 462.549L116.251 455.823L139.493 455.103L137.156 462.227Z" fill="#007079"/>
<path opacity="0.5" d="M137.156 462.227L116.367 462.549L116.251 455.823L139.493 455.103L137.156 462.227Z" fill="white"/>
<path d="M83.79 476.706C82.8803 476.68 81.9761 476.555 81.0934 476.333C81.0464 476.321 81.0042 476.294 80.9721 476.258C80.9401 476.221 80.9197 476.175 80.9137 476.127C80.9067 476.079 80.9141 476.031 80.9346 475.987C80.9552 475.944 80.9881 475.908 81.0292 475.883C81.4016 475.651 84.7274 473.607 85.8702 474.185C85.9934 474.255 86.0961 474.356 86.1683 474.478C86.2403 474.6 86.2792 474.738 86.2812 474.88C86.3095 475.119 86.2787 475.361 86.1914 475.585C86.104 475.81 85.9628 476.009 85.7803 476.166C85.1946 476.561 84.4948 476.751 83.79 476.706ZM81.7996 476.037C83.5589 476.385 84.8944 476.32 85.4594 475.844C85.5855 475.739 85.6826 475.605 85.741 475.451C85.7996 475.297 85.8175 475.132 85.7932 474.97C85.797 474.911 85.7846 474.853 85.7575 474.8C85.7303 474.748 85.6894 474.704 85.6391 474.674C85.0484 474.314 83.1608 475.201 81.7996 476.037Z" fill="#007079"/>
<path d="M81.1575 476.333C81.1113 476.346 81.0623 476.346 81.0162 476.333C80.9795 476.311 80.9502 476.278 80.9319 476.239C80.9136 476.201 80.9072 476.157 80.9134 476.114C80.9134 475.986 81.1702 473.003 82.3645 472.025C82.5049 471.901 82.6707 471.809 82.8504 471.756C83.0301 471.703 83.2193 471.689 83.4046 471.717C83.586 471.716 83.762 471.779 83.9025 471.894C84.043 472.009 84.1394 472.169 84.1751 472.347C84.3934 473.504 82.3388 475.767 81.273 476.346L81.1575 476.333ZM83.2377 472.179C83.0285 472.178 82.8263 472.256 82.6727 472.398C81.9288 473.32 81.4812 474.445 81.3885 475.626C82.4544 474.816 83.7641 473.054 83.6357 472.437C83.6357 472.372 83.6357 472.218 83.2762 472.179H83.1735H83.2377Z" fill="#007079"/>
<path d="M130.929 476.114C130.887 476.097 130.851 476.069 130.824 476.032C130.797 475.996 130.78 475.953 130.775 475.909C130.763 475.86 130.769 475.811 130.79 475.766C130.811 475.722 130.847 475.686 130.89 475.665C131.365 475.407 135.475 473.247 136.733 473.916C136.852 473.981 136.951 474.076 137.023 474.19C137.095 474.305 137.136 474.436 137.144 474.572C137.174 474.791 137.15 475.015 137.073 475.224C136.998 475.432 136.872 475.618 136.707 475.767C135.59 476.783 132.637 476.423 130.967 476.114H130.929ZM136.411 474.314C135.629 474.057 133.394 474.944 131.776 475.755C134.062 476.102 135.757 475.973 136.374 475.407C136.483 475.308 136.566 475.184 136.615 475.044C136.665 474.905 136.678 474.756 136.656 474.609C136.657 474.557 136.643 474.505 136.615 474.459C136.588 474.414 136.549 474.377 136.501 474.353L136.411 474.314Z" fill="#007079"/>
<path d="M130.928 476.114C130.892 476.091 130.863 476.058 130.843 476.02C130.822 475.982 130.812 475.939 130.813 475.896C130.813 475.78 131.056 472.989 132.353 471.896C132.528 471.742 132.731 471.624 132.952 471.55C133.173 471.474 133.405 471.444 133.638 471.459C134.306 471.459 134.511 471.845 134.562 472.128C134.767 473.286 132.34 475.562 131.095 476.14C131.038 476.149 130.98 476.139 130.928 476.114ZM133.856 471.949H133.612C133.433 471.931 133.252 471.953 133.082 472.011C132.911 472.068 132.756 472.161 132.623 472.283C131.876 473.192 131.428 474.31 131.339 475.484C132.623 474.7 134.241 472.913 134.113 472.218C134.087 472.179 134.01 472.013 133.856 471.949Z" fill="#007079"/>
<path d="M84.7402 171.093L75.0581 192.22C73.4786 195.756 71.8607 199.267 70.3584 202.816C69.6136 204.577 68.8174 206.339 68.1112 208.101L67.559 209.386C67.3792 209.837 67.2765 210.145 67.1352 210.518C66.8399 211.238 66.6472 212.035 66.4033 212.794C65.5341 216.082 65.06 219.463 64.9908 222.863C64.876 226.494 65.0219 230.13 65.4274 233.741C65.8254 237.418 66.4289 241.135 67.1995 244.838C67.9699 248.541 68.8944 252.322 69.896 255.832L62.7951 258.918C61.7549 256.989 60.8946 255.203 60.0599 253.3C59.2252 251.396 58.4548 249.531 57.7228 247.603C56.2616 243.724 55.0521 239.755 54.1017 235.722C51.917 227.225 51.5191 218.367 52.9332 209.708C53.19 208.576 53.4083 207.432 53.7678 206.288L54.2558 204.616L54.7309 203.163C55.3473 201.222 56.015 199.305 56.6571 197.402C58.0182 193.545 59.405 189.841 60.9074 186.138C63.8737 178.68 67.0967 171.454 70.6922 164.278L84.7402 171.093Z" fill="#BC928F"/>
<path d="M73.3369 157.836C63.9373 160.794 54.6919 192.722 54.6919 192.722L76.4444 202.25C76.4444 202.25 83.4812 186.819 87.5261 174.733C91.9434 161.552 84.7268 154.262 73.3369 157.836Z" fill="#007079"/>
<path opacity="0.2" d="M73.3369 157.836C63.9373 160.794 54.6919 192.722 54.6919 192.722L76.4444 202.25C76.4444 202.25 83.4812 186.819 87.5261 174.733C91.9434 161.552 84.7268 154.262 73.3369 157.836Z" fill="white"/>
<path d="M69.3187 254.083L74.3909 263.252L62.436 266.364C62.436 266.364 58.8149 257.479 63.0909 254.649L69.3187 254.083Z" fill="#A7797A"/>
<path d="M75.276 273.654L64.297 274.567L62.4351 266.364L74.39 263.252L75.276 273.654Z" fill="#A7797A"/>
<path d="M290.67 314.468C290.577 317.651 289.25 320.672 286.97 322.893C284.691 325.113 281.639 326.357 278.459 326.363H246.151C248.818 330.062 250.413 334.428 250.76 338.978C251.106 343.528 250.192 348.086 248.117 352.148C246.042 356.211 242.886 359.62 239 362.002C235.113 364.383 230.644 365.643 226.087 365.643C221.53 365.643 217.062 364.383 213.175 362.002C209.287 359.62 206.132 356.211 204.057 352.148C201.982 348.086 201.068 343.528 201.414 338.978C201.762 334.428 203.356 330.062 206.023 326.363H173.703C170.469 326.356 167.371 325.066 165.084 322.777C162.798 320.488 161.511 317.384 161.504 314.147V209.246C161.511 206.007 162.798 202.902 165.083 200.61C167.37 198.319 170.468 197.027 173.703 197.017H278.459C281.639 197.025 284.69 198.273 286.967 200.496C289.244 202.719 290.568 205.741 290.658 208.924V241.598C286.963 238.935 282.607 237.344 278.068 237.001C273.529 236.658 268.983 237.575 264.932 239.654C260.88 241.732 257.48 244.89 255.106 248.778C252.731 252.668 251.475 257.138 251.475 261.696C251.475 266.254 252.731 270.724 255.106 274.614C257.48 278.503 260.88 281.66 264.932 283.738C268.983 285.817 273.529 286.734 278.068 286.391C282.607 286.048 286.963 284.457 290.658 281.795V314.147C290.656 314.254 290.66 314.361 290.67 314.468Z" fill="#007079"/>
<path opacity="0.3" d="M226.081 361.865C222.208 361.875 218.41 360.812 215.102 358.794C211.796 356.776 209.111 353.881 207.345 350.431C205.579 346.979 204.8 343.107 205.095 339.24C205.389 335.374 206.747 331.665 209.015 328.523L213.227 322.672H173.703C171.448 322.665 169.288 321.764 167.695 320.166C166.102 318.569 165.205 316.404 165.202 314.146V209.246C165.202 206.985 166.097 204.818 167.69 203.217C169.284 201.616 171.446 200.714 173.703 200.707H278.459C280.675 200.723 282.799 201.596 284.386 203.144C285.973 204.693 286.9 206.796 286.972 209.014V235.104C286.97 235.131 286.962 235.155 286.949 235.178C286.935 235.2 286.917 235.219 286.896 235.232C286.872 235.245 286.845 235.252 286.818 235.252C286.791 235.252 286.765 235.245 286.742 235.232C283.406 233.892 279.845 233.207 276.25 233.214C272.467 233.134 268.705 233.81 265.186 235.204C261.668 236.599 258.462 238.682 255.758 241.333C253.054 243.984 250.905 247.15 249.438 250.643C247.972 254.136 247.217 257.888 247.217 261.677C247.217 265.466 247.972 269.218 249.438 272.711C250.905 276.205 253.054 279.369 255.758 282.02C258.462 284.671 261.668 286.755 265.186 288.149C268.705 289.543 272.467 290.22 276.25 290.139C279.845 290.15 283.407 289.465 286.742 288.121C286.765 288.108 286.791 288.102 286.818 288.102C286.845 288.102 286.872 288.108 286.896 288.121C286.917 288.135 286.935 288.153 286.949 288.176C286.962 288.198 286.97 288.223 286.972 288.249V314.48C286.852 316.668 285.905 318.727 284.325 320.242C282.744 321.755 280.647 322.61 278.459 322.633H238.973L243.147 328.471C243.177 328.502 243.193 328.544 243.193 328.587C243.193 328.63 243.177 328.672 243.147 328.703C243.132 328.717 243.115 328.728 243.096 328.736C243.078 328.744 243.058 328.748 243.037 328.748C243.017 328.748 242.997 328.744 242.978 328.736C242.96 328.728 242.943 328.717 242.928 328.703L238.562 322.595C238.547 322.569 238.538 322.541 238.538 322.511C238.538 322.481 238.547 322.452 238.562 322.428C238.578 322.404 238.598 322.384 238.623 322.371C238.647 322.357 238.675 322.35 238.703 322.35H278.51C280.612 322.325 282.626 321.503 284.146 320.049C285.666 318.597 286.579 316.62 286.703 314.519V288.519C283.388 289.816 279.86 290.478 276.302 290.474C272.074 290.48 267.897 289.553 264.068 287.758C260.239 285.963 256.852 283.345 254.15 280.089C251.447 276.834 249.494 273.022 248.431 268.924C247.368 264.826 247.219 260.544 247.997 256.384C248.776 252.222 250.461 248.284 252.933 244.849C255.406 241.415 258.604 238.568 262.299 236.513C265.995 234.458 270.099 233.244 274.317 232.958C278.535 232.672 282.764 233.322 286.703 234.86V209.027C286.633 206.892 285.741 204.867 284.214 203.376C282.688 201.886 280.643 201.045 278.51 201.029H173.703C172.627 201.03 171.562 201.244 170.569 201.658C169.576 202.072 168.673 202.677 167.913 203.441C167.154 204.203 166.552 205.109 166.142 206.104C165.731 207.101 165.521 208.168 165.523 209.246V314.146C165.523 316.321 166.385 318.405 167.918 319.943C169.452 321.481 171.532 322.347 173.703 322.35H213.51C213.539 322.347 213.567 322.353 213.593 322.367C213.618 322.38 213.638 322.402 213.651 322.428C213.667 322.452 213.675 322.481 213.675 322.511C213.675 322.541 213.667 322.569 213.651 322.595L209.26 328.715C206.708 332.228 205.333 336.459 205.33 340.802C205.33 346.307 207.513 351.586 211.4 355.478C215.287 359.37 220.559 361.556 226.056 361.556C231.552 361.556 236.823 359.37 240.71 355.478C244.597 351.586 246.78 346.307 246.78 340.802C246.78 340.762 246.797 340.723 246.826 340.694C246.855 340.665 246.893 340.648 246.935 340.648C246.956 340.646 246.978 340.649 246.998 340.656C247.017 340.663 247.037 340.674 247.052 340.689C247.068 340.703 247.08 340.721 247.089 340.74C247.098 340.76 247.101 340.781 247.101 340.802C247.092 346.383 244.874 351.733 240.934 355.681C236.995 359.628 231.654 361.852 226.081 361.865Z" fill="white"/>
<path d="M407.639 197.004H375.343C378.001 200.705 379.588 205.07 379.929 209.617C380.27 214.163 379.35 218.716 377.274 222.773C375.196 226.83 372.042 230.235 368.157 232.613C364.272 234.991 359.807 236.249 355.254 236.249C350.7 236.249 346.235 234.991 342.35 232.613C338.466 230.235 335.311 226.83 333.234 222.773C331.157 218.716 330.238 214.163 330.578 209.617C330.919 205.07 332.506 200.705 335.164 197.004H302.869C299.636 197.014 296.538 198.304 294.25 200.592C291.963 202.881 290.671 205.981 290.657 209.22V241.585C286.963 238.921 282.607 237.33 278.068 236.987C273.529 236.644 268.983 237.563 264.931 239.641C260.88 241.719 257.48 244.876 255.105 248.766C252.732 252.655 251.475 257.125 251.475 261.683C251.475 266.242 252.732 270.712 255.105 274.601C257.48 278.489 260.88 281.647 264.931 283.726C268.983 285.803 273.529 286.722 278.068 286.379C282.607 286.036 286.963 284.445 290.657 281.781V314.146C290.668 317.386 291.958 320.491 294.245 322.782C296.534 325.073 299.634 326.365 302.869 326.375H407.639C410.872 326.365 413.972 325.073 416.257 322.782C418.544 320.49 419.831 317.385 419.837 314.146V209.232C419.831 205.994 418.544 202.889 416.257 200.598C413.972 198.306 410.872 197.014 407.639 197.004Z" fill="#263238"/>
<path opacity="0.3" d="M407.637 322.672H302.868C300.61 322.672 298.445 321.774 296.848 320.175C295.252 318.576 294.355 316.408 294.355 314.146V274.567L288.512 278.785C285.373 281.052 281.669 282.407 277.81 282.7C273.95 282.992 270.086 282.212 266.641 280.444C263.196 278.677 260.307 275.991 258.291 272.682C256.275 269.374 255.211 265.571 255.215 261.696C255.213 261.674 255.216 261.653 255.223 261.633C255.23 261.613 255.242 261.594 255.256 261.578C255.271 261.563 255.288 261.55 255.307 261.541C255.327 261.533 255.348 261.529 255.369 261.529C255.414 261.529 255.456 261.546 255.487 261.577C255.519 261.609 255.537 261.652 255.537 261.696C255.532 265.512 256.579 269.255 258.564 272.513C260.549 275.771 263.394 278.416 266.784 280.157C270.176 281.897 273.981 282.667 277.781 282.38C281.581 282.092 285.228 280.76 288.32 278.528L294.419 274.13C294.443 274.115 294.471 274.106 294.5 274.104C294.529 274.102 294.558 274.109 294.584 274.121C294.609 274.134 294.631 274.153 294.648 274.178C294.664 274.202 294.673 274.23 294.676 274.259V314.121C294.676 316.296 295.539 318.383 297.075 319.922C298.611 321.46 300.695 322.324 302.868 322.324H407.637C409.81 322.324 411.893 321.46 413.43 319.922C414.966 318.383 415.83 316.296 415.83 314.121V209.232C415.827 207.058 414.962 204.973 413.426 203.435C411.89 201.897 409.809 201.032 407.637 201.029H382.058C383.747 205.391 384.35 210.1 383.813 214.749C383.276 219.398 381.615 223.844 378.975 227.705C376.335 231.566 372.795 234.725 368.661 236.907C364.527 239.089 359.925 240.23 355.253 240.23C350.58 240.23 345.977 239.089 341.843 236.907C337.71 234.725 334.17 231.566 331.531 227.705C328.89 223.844 327.23 219.398 326.692 214.749C326.155 210.1 326.757 205.391 328.447 201.029H302.868C300.696 201.032 298.614 201.897 297.078 203.435C295.543 204.973 294.679 207.058 294.676 209.232V249.094C294.674 249.125 294.665 249.156 294.65 249.182C294.634 249.21 294.612 249.232 294.586 249.248C294.56 249.261 294.531 249.268 294.502 249.268C294.474 249.268 294.445 249.261 294.419 249.248L288.32 244.851C284.81 242.301 280.584 240.928 276.249 240.929C276.208 240.929 276.168 240.913 276.14 240.884C276.111 240.855 276.095 240.815 276.095 240.775C276.093 240.753 276.096 240.732 276.102 240.712C276.109 240.691 276.121 240.673 276.135 240.658C276.15 240.642 276.167 240.629 276.187 240.621C276.206 240.612 276.227 240.608 276.249 240.608C280.652 240.605 284.945 241.996 288.512 244.581L294.355 248.799V209.232C294.358 206.973 295.256 204.806 296.852 203.208C298.448 201.61 300.611 200.71 302.868 200.707H328.678C328.706 200.708 328.733 200.716 328.758 200.729C328.783 200.742 328.804 200.762 328.819 200.784C328.829 200.807 328.834 200.83 328.834 200.855C328.834 200.879 328.829 200.903 328.819 200.925C327.485 204.275 326.805 207.851 326.816 211.457C326.974 218.902 330.039 225.987 335.352 231.196C340.665 236.404 347.804 239.321 355.24 239.321C362.675 239.321 369.814 236.404 375.128 231.196C380.441 225.987 383.505 218.902 383.663 211.457C383.675 207.851 382.994 204.275 381.66 200.925C381.647 200.904 381.641 200.88 381.641 200.855C381.641 200.83 381.647 200.806 381.66 200.784C381.675 200.761 381.696 200.741 381.721 200.728C381.745 200.714 381.773 200.707 381.801 200.707H407.612C409.868 200.71 412.032 201.61 413.627 203.208C415.224 204.806 416.122 206.973 416.125 209.232V314.146C416.122 316.402 415.227 318.565 413.637 320.162C412.046 321.759 409.889 322.661 407.637 322.672Z" fill="white"/>
</svg>
