<svg width="24" height="24" viewBox="0 0 24 24" xmlns="http://www.w3.org/2000/svg"><path fill-rule="evenodd" clip-rule="evenodd" d="M20.13 8.17c1.45.43 2.56 1.66 2.81 3.17q.06.315.06.66t-.06.66a4 4 0 0 1-2.8 3.17 9.1 9.1 0 0 1-2.17 2.89A8.93 8.93 0 0 1 12 21c-2.29 0-4.38-.86-5.96-2.28-.9-.8-1.65-1.78-2.17-2.89a4.01 4.01 0 0 1-2.81-3.17Q1 12.345 1 12t.06-.66a3.99 3.99 0 0 1 2.81-3.17c.52-1.11 1.27-2.1 2.19-2.91A8.89 8.89 0 0 1 12 3c2.28 0 4.36.85 5.94 2.26.91.81 1.66 1.79 2.19 2.91M9.5 9.25a1.25 1.25 0 1 0 0 2.5 1.25 1.25 0 0 0 0-2.5m5 0a1.25 1.25 0 1 0 0 2.5 1.25 1.25 0 0 0 0-2.5M19 14a1.3 1.3 0 0 1-.189-.017q-.049-.008-.101-.013c-.2.67-.49 1.29-.86 1.86A6.98 6.98 0 0 1 12 19c-2.45 0-4.6-1.26-5.85-3.17-.37-.57-.66-1.19-.86-1.86q-.052.005-.101.013A1.3 1.3 0 0 1 5 14c-1.1 0-2-.9-2-2s.9-2 2-2q.096.002.189.017.049.008.101.013c.2-.67.49-1.29.86-1.86A6.98 6.98 0 0 1 12 5c2.45 0 4.6 1.26 5.85 3.17.37.57.66 1.19.86 1.86q.052-.005.101-.013A1.3 1.3 0 0 1 19 10c1.1 0 2 .9 2 2s-.9 2-2 2m-2.5 0c-.76 1.77-2.49 3-4.5 3s-3.74-1.23-4.5-3z"/></svg>
