<svg width="24" height="24" viewBox="0 0 24 24" xmlns="http://www.w3.org/2000/svg"><path d="M7.175 10.825Q6 9.65 6 8t1.175-2.825T10 4t2.825 1.175T14 8t-1.175 2.825T10 12t-2.825-1.175M2 20v-2.8q0-.825.425-1.55t1.175-1.1q1.275-.65 2.875-1.1T10 13h.35q.15 0 .3.05a7 7 0 0 0-.338.938A8 8 0 0 0 10.1 15H10q-1.775 0-3.187.45-1.413.45-2.313.9a.97.97 0 0 0-.5.85v.8h6.3q.15.525.4 1.038.25.512.55.962zm14 1-.3-1.5q-.3-.124-.562-.262a4.4 4.4 0 0 1-.538-.338l-1.45.45-1-1.7 1.15-1a5 5 0 0 1-.05-.65q0-.3.05-.65l-1.15-1 1-1.7 1.45.45q.275-.2.537-.338.263-.137.563-.262L16 11h2l.3 1.5q.3.125.563.275t.537.375l1.45-.5 1 1.75-1.15 1q.05.3.05.625a4 4 0 0 1-.05.625l1.15 1-1 1.7-1.45-.45a4.4 4.4 0 0 1-.537.338q-.263.137-.563.262L18 21zm2.413-3.587Q19 16.825 19 16t-.587-1.412A1.93 1.93 0 0 0 17 14q-.825 0-1.412.588A1.93 1.93 0 0 0 15 16q0 .824.588 1.413Q16.175 18 17 18q.824 0 1.413-.587m-7-8Q12 8.825 12 8q0-.824-.588-1.412A1.93 1.93 0 0 0 10 6q-.825 0-1.412.588A1.93 1.93 0 0 0 8 8q0 .825.588 1.412Q9.175 10 10 10t1.412-.588"/></svg>
