<svg width="24" height="24" viewBox="0 0 24 24" xmlns="http://www.w3.org/2000/svg"><path fill-rule="evenodd" clip-rule="evenodd" d="M22 12c0 5.52-4.48 10-10 10S2 17.52 2 12 6.48 2 12 2s10 4.48 10 10zM9 14.25a1.25 1.25 0 100-2.5 1.25 1.25 0 000 2.5zM13.75 13a1.25 1.25 0 112.5 0 1.25 1.25 0 01-2.5 0zm3.75-5c-2.9 0-5.44-1.56-6.84-3.88.43-.07.88-.12 1.34-.12 2.9 0 5.44 1.56 6.84 3.88-.43.07-.88.12-1.34.12zM4.42 9.47a8.046 8.046 0 003.66-4.44 8.046 8.046 0 00-3.66 4.44zm15.25.29c.21.71.33 1.46.33 2.24 0 4.41-3.59 8-8 8s-8-3.59-8-8l.002-.05c.002-.033.005-.064-.002-.09 2.6-.98 4.69-2.99 5.74-5.55A10 10 0 0017.5 10c.75 0 1.47-.09 2.17-.24z"/></svg>