<svg width="24" height="24" viewBox="0 0 24 24" xmlns="http://www.w3.org/2000/svg"><path fill-rule="evenodd" clip-rule="evenodd" d="M12 12c1.93 0 3.5-1.57 3.5-3.5S13.93 5 12 5 8.5 6.57 8.5 8.5 10.07 12 12 12zm-7 3v-3h3v-2H5V7H3v3H0v2h3v3h2zm7-1.25c-2.34 0-7 1.17-7 3.5V19h14v-1.75c0-2.33-4.66-3.5-7-3.5zm0 2c-1.79 0-3.82.67-4.66 1.25h9.32c-.84-.58-2.87-1.25-4.66-1.25zm1.5-7.25c0-.83-.67-1.5-1.5-1.5s-1.5.67-1.5 1.5.67 1.5 1.5 1.5 1.5-.67 1.5-1.5zM17 12c1.93 0 3.5-1.57 3.5-3.5S18.93 5 17 5c-.24 0-.48.02-.71.07a5.416 5.416 0 01-.02 6.85c.24.05.48.08.73.08zm4 5.25c0-1.36-.68-2.42-1.68-3.23 2.24.47 4.68 1.54 4.68 3.23V19h-3v-1.75z"/></svg>