<svg width="24" height="24" viewBox="0 0 24 24" xmlns="http://www.w3.org/2000/svg"><path fill-rule="evenodd" clip-rule="evenodd" d="M16.43 14.93c1.12.37 2.32.57 3.57.57.55 0 1 .45 1 1V20c0 .55-.45 1-1 1-9.39 0-17-7.61-17-17 0-.55.45-1 1-1h3.5c.55 0 1 .45 1 1 0 1.25.2 2.45.57 3.57.11.35.03.74-.25 1l-2.2 2.21c1.44 2.84 3.76 5.15 6.59 6.59l2.2-2.2c.2-.19.45-.29.71-.29.1 0 .21.02.31.05zM6.98 7.58c-.23-.83-.38-1.7-.45-2.58h-1.5c.09 1.32.35 2.58.75 3.79l1.2-1.21zM19 18.97c-1.32-.09-2.6-.35-3.8-.76l1.2-1.2c.85.24 1.72.39 2.6.45v1.51zM18 3v3h3v2h-3v3h-2V8h-3V6h3V3h2z"/></svg>