<svg width="24" height="24" viewBox="0 0 24 24" xmlns="http://www.w3.org/2000/svg"><path fill-rule="evenodd" clip-rule="evenodd" d="M13.115 3.001c-2.58 0-5.16.98-7.14 2.95l-.01.01c-3.95 3.95-3.95 10.36 0 14.31l14.3-14.31a10.086 10.086 0 00-7.15-2.96zm7.882 16.57l-1.429 1.428-6.441-6.442 1.428-1.428 6.442 6.441zM4.995 13.12c0 1.49.4 2.91 1.14 4.15l1.39-1.38a11.285 11.285 0 01-2.07-5.44c-.3.85-.46 1.74-.46 2.67zm3.98 1.31c-1.35-2.05-1.86-4.5-1.38-6.83.58-.12 1.16-.18 1.75-.18 1.8 0 3.55.55 5.08 1.56l-5.45 5.45zm4.14-9.43c-.93 0-1.82.16-2.67.46 1.91.19 3.78.89 5.43 2.07l1.39-1.39a8.063 8.063 0 00-4.15-1.14z"/></svg>