<svg width="24" height="24" viewBox="0 0 24 24" xmlns="http://www.w3.org/2000/svg"><path fill-rule="evenodd" clip-rule="evenodd" d="M10 8l-3.25 3.25c.28.108.51.241.707.354l.063.036c.37.23.59.36 1.15.36.56 0 .78-.13 1.15-.36l.013-.007c.458-.27 1.077-.633 2.177-.633 1.11 0 1.73.37 2.18.64l.01.007c.365.216.595.353 1.14.353.55 0 .78-.13 1.15-.36.12-.07.26-.15.41-.23L10.48 5C8.93 3.45 7.5 2.99 5 3v2.5c1.82-.01 2.89.39 4 1.5l1 1zm-3.51 7.854c-.365-.217-.595-.354-1.14-.354-.55 0-.78.13-1.15.36l-.03.017c-.466.268-1.083.623-2.17.623v-2c.56 0 .78-.13 1.15-.36.45-.27 1.07-.64 2.18-.64s1.73.37 2.18.64l.01.007c.365.216.595.353 1.14.353.56 0 .78-.13 1.15-.36.45-.27 1.07-.64 2.18-.64s1.73.37 2.18.64l.01.007c.364.216.595.353 1.14.353.55 0 .78-.13 1.15-.36.45-.27 1.07-.64 2.18-.64s1.73.37 2.18.64l.01.007c.364.216.595.353 1.14.353v2c-1.1-.01-1.71-.37-2.16-.64l-.01-.006c-.364-.217-.595-.354-1.14-.354-.56 0-.78.13-1.15.36-.45.27-1.07.64-2.18.64s-1.73-.37-2.18-.64l-.01-.006c-.364-.217-.595-.354-1.14-.354-.56 0-.78.13-1.15.36-.45.27-1.07.64-2.18.64s-1.73-.37-2.18-.64l-.01-.006zM18.67 18c-1.11 0-1.73.37-2.18.64-.37.23-.6.36-1.15.36-.545 0-.775-.137-1.14-.353l-.01-.007c-.45-.27-1.07-.64-2.18-.64-1.1 0-1.719.363-2.177.633l-.013.007c-.37.23-.59.36-1.15.36-.56 0-.78-.13-1.15-.36-.45-.27-1.07-.64-2.18-.64-1.1 0-1.719.363-2.177.633l-.013.007c-.37.23-.59.36-1.15.36v2c1.1 0 1.719-.363 2.177-.632l.013-.008c.37-.23.6-.36 1.15-.36.55 0 .78.13 1.15.36.45.27 1.07.64 2.18.64 1.1 0 1.719-.363 2.177-.632l.013-.008c.37-.23.59-.36 1.15-.36.545 0 .776.137 1.14.354l.01.006c.45.27 1.07.64 2.18.64 1.09 0 1.698-.357 2.156-.625l.024-.015c.37-.23.59-.36 1.15-.36.545 0 .775.137 1.14.354l.01.006c.45.27 1.07.64 2.18.64v-2c-.56 0-.78-.13-1.15-.36-.45-.27-1.07-.64-2.18-.64zM14 5.5a2.5 2.5 0 115 0 2.5 2.5 0 01-5 0z"/></svg>