<svg class="svg" width="51" height="18" viewBox="0 0 51 18" xmlns="http://www.w3.org/2000/svg">
<path d="M0 0v14.048l1.807.006v-6.69h4.358V5.596H1.807V1.768h5.676V0H0zm10.736 2.852c.651 0 1.18-.527 1.18-1.178 0-.651-.529-1.18-1.18-1.18-.65 0-1.178.529-1.178 1.18 0 .65.527 1.178 1.178 1.178zm-.919 1.769v9.43h1.807v-9.43H9.817z" fill-rule="nonzero" fill-opacity="1" fill="#000" stroke="none"></path>
<path d="M18.328 4.346c-2.4 0-4.075 2.03-4.075 4.44 0 2.41 1.675 4.44 4.075 4.44 1.1 0 2.005-.426 2.664-1.118v1.255c0 1.563-1.227 2.869-2.829 2.869-.576 0-1.148-.223-1.604-.537l-.905 1.568c.723.466 1.584.737 2.509.737 2.56 0 4.637-2.076 4.637-4.637V4.621h-1.808v.843c-.659-.693-1.565-1.118-2.664-1.118zm-2.267 4.44c0-1.496 1.144-2.672 2.464-2.672 1.32 0 2.464 1.176 2.464 2.672 0 1.496-1.144 2.672-2.464 2.672-1.32 0-2.464-1.176-2.464-2.672z" fill-rule="evenodd" fill-opacity="1" fill="#000" stroke="none"></path>
<path d="M29.312 6.114c-1.068 0-1.935.905-1.935 1.974v5.963H25.57v-9.43h1.807v.864c.53-.685 1.31-1.14 2.328-1.14 1.267 0 2.239.63 2.802 1.592.626-.93 1.647-1.591 2.876-1.591 2.057 0 3.338 1.66 3.35 3.713v5.992h-1.807V8.088c0-1.069-.867-1.974-1.936-1.974-1.069 0-1.935.905-1.935 1.974v5.963h-1.807V8.088c0-1.069-.867-1.974-1.936-1.974z" fill-rule="nonzero" fill-opacity="1" fill="#000" stroke="none"></path>
<path d="M48.36 5.69c-.804-.83-1.905-1.344-3.183-1.344-2.689 0-4.597 2.276-4.597 4.99 0 2.713 1.908 4.99 4.597 4.99 1.278 0 2.379-.514 3.183-1.344v1.069h1.807v-9.43H48.36V5.69zm-5.973 3.646c0-1.8 1.379-3.222 2.987-3.222 1.607 0 2.986 1.422 2.986 3.222 0 1.8-1.379 3.222-2.986 3.222-1.608 0-2.987-1.422-2.987-3.222z" fill-rule="evenodd" fill-opacity="1" fill="#000" stroke="none"></path>
</svg>
