<svg width="24" height="24" viewBox="0 0 24 24" xmlns="http://www.w3.org/2000/svg"><path fill-rule="evenodd" clip-rule="evenodd" d="M13.5 1.335s.74 2.65.74 4.8c0 2.06-1.35 3.73-3.41 3.73-2.07 0-3.63-1.67-3.63-3.73l.03-.36C5.21 8.175 4 11.285 4 14.665c0 4.42 3.58 8 8 8s8-3.58 8-8c0-5.39-2.59-10.2-6.5-13.33zm-1.93 12.49c-1.36.28-2.17 1.16-2.17 2.41 0 1.34 1.11 2.42 2.49 2.42 2.05 0 3.71-1.66 3.71-3.71 0-1.07-.15-2.12-.46-3.12-.79 1.07-2.2 1.72-3.57 2zm-5.57.84c0 3.31 2.69 6 6 6s6-2.69 6-6c0-2.56-.66-5.03-1.89-7.23-.53 2.6-2.62 4.43-5.28 4.43-1.56 0-2.96-.62-3.97-1.63-.56 1.39-.86 2.9-.86 4.43z"/></svg>