<svg style="display: none;" xmlns="http://www.w3.org/2000/svg" xmlns:xlink="http://www.w3.org/1999/xlink">
<style>
use,use:target~use:last-child { display: none; }
use:target,use:last-child { display: inline; }
</style>
<defs><symbol id="business" viewBox="0 0 24 24"><path fill-rule="evenodd" clip-rule="evenodd" d="M12 7h10v14H2V3h10v4zM4 19h2v-2H4v2zm2-4H4v-2h2v2zm-2-4h2V9H4v2zm2-4H4V5h2v2zm2 12h2v-2H8v2zm2-4H8v-2h2v2zm-2-4h2V9H8v2zm2-4H8V5h2v2zm10 12V9h-8v2h2v2h-2v2h2v2h-2v2h8zm-2-8h-2v2h2v-2zm-2 4h2v2h-2v-2z"/></symbol></defs><use id="medium" xlink:href="#business" />
</svg>
