<svg style="display: none;" xmlns="http://www.w3.org/2000/svg" xmlns:xlink="http://www.w3.org/1999/xlink">
<style>
use,
use:target~use:last-child { display: none; }
use:target,
use:last-child { display: inline; }
</style><defs><symbol id="cafe" viewBox="0 0 24 24"><path fill-rule="evenodd" clip-rule="evenodd" d="M3 3h16c1.11 0 2 .89 2 2v3a2 2 0 0 1-2 2h-2v3c0 2.21-1.79 4-4 4H7c-2.21 0-4-1.79-4-4V3zm16 16H3v2h16v-2zm-4-6c0 1.1-.9 2-2 2H7c-1.1 0-2-.9-2-2V5h10v8zm2-5h2V5h-2v3z"/></symbol></defs><use id="medium" xlink:href="#cafe" /></svg>