<svg style="display: none;" xmlns="http://www.w3.org/2000/svg" xmlns:xlink="http://www.w3.org/1999/xlink">
<style>
use,use:target~use:last-child { display: none; }
use:target,use:last-child { display: inline; }
</style>
<defs><symbol id="city" viewBox="0 0 24 24"><path fill-rule="evenodd" clip-rule="evenodd" d="M15 5.5v6h6v10H3v-14h6v-2l3-3 3 3zm-10 14h2v-2H5v2zm2-4H5v-2h2v2zm-2-4h2v-2H5v2zm6 8v-2h2v2h-2zm0-6v2h2v-2h-2zm0-2v-2h2v2h-2zm0-6v2h2v-2h-2zm8 14h-2v-2h2v2zm-2-4h2v-2h-2v2z"/></symbol></defs><use id="medium" xlink:href="#city" />
</svg>
