<svg style="display: none;" xmlns="http://www.w3.org/2000/svg" xmlns:xlink="http://www.w3.org/1999/xlink">
<style>
use,use:target~use:last-child { display: none; }
use:target,use:last-child { display: inline; }
</style>
<defs><symbol id="border_horizontal" viewBox="0 0 24 24"><path fill-rule="evenodd" clip-rule="evenodd" d="M3 3h2v2H3V3zm2 4H3v2h2V7zM3 21h2v-2H3v2zm2-4H3v-2h2v2zm2 4h2v-2H7v2zM9 3H7v2h2V3zm6 0h2v2h-2V3zm-2 4h-2v2h2V7zm-2-4h2v2h-2V3zm8 14h2v-2h-2v2zm-6 4h-2v-2h2v2zM3 13h18v-2H3v2zm16-8V3h2v2h-2zm0 4h2V7h-2v2zm-6 8h-2v-2h2v2zm2 4h2v-2h-2v2zm6 0h-2v-2h2v2z"/></symbol></defs><use id="medium" xlink:href="#border_horizontal" />
</svg>
