<svg style="display: none;" xmlns="http://www.w3.org/2000/svg" xmlns:xlink="http://www.w3.org/1999/xlink">
<style>
use,use:target~use:last-child { display: none; }
use:target,use:last-child { display: inline; }
</style>
<defs><symbol id="border_left" viewBox="0 0 24 24"><path fill-rule="evenodd" clip-rule="evenodd" d="M5 21H3V3h2v18zm8-16h-2V3h2v2zm-2 12h2v-2h-2v2zm0 4h2v-2h-2v2zm0-12h2V7h-2v2zm2 4h-2v-2h2v2zm-6 8h2v-2H7v2zM9 5H7V3h2v2zm-2 8h2v-2H7v2zm12-4h2V7h-2v2zm-2 12h-2v-2h2v2zm2-4h2v-2h-2v2zm0-12V3h2v2h-2zm0 8h2v-2h-2v2zm2 8h-2v-2h2v2zm-6-8h2v-2h-2v2zm2-8h-2V3h2v2z"/></symbol></defs><use id="medium" xlink:href="#border_left" />
</svg>
