<svg style="display: none;" xmlns="http://www.w3.org/2000/svg" xmlns:xlink="http://www.w3.org/1999/xlink">
<style>
use,use:target~use:last-child { display: none; }
use:target,use:last-child { display: inline; }
</style>
<defs><symbol id="flip" viewBox="0 0 24 24"><path fill-rule="evenodd" clip-rule="evenodd" d="M13 23h-2V1h2v22zM3 19V5c0-1.1.9-2 2-2h4v2H5v14h4v2H5c-1.1 0-2-.9-2-2zM19 9h2V7h-2v2zm-4 12h2v-2h-2v2zm4-18v2h2c0-1.1-.9-2-2-2zm0 14h2v-2h-2v2zM17 5h-2V3h2v2zm2 8h2v-2h-2v2zm2 6c0 1.1-.9 2-2 2v-2h2z"/></symbol></defs><use id="medium" xlink:href="#flip" />
</svg>
