<svg style="display: none;" xmlns="http://www.w3.org/2000/svg" xmlns:xlink="http://www.w3.org/1999/xlink">
<style>
use,
use:target~use:last-child { display: none; }
use:target,
use:last-child { display: inline; }
</style><defs><symbol id="flip_to_front" viewBox="0 0 24 24"><path fill-rule="evenodd" clip-rule="evenodd" d="M19 3H9a2 2 0 0 0-2 2v10a2 2 0 0 0 2 2h10c1.1 0 2-.9 2-2V5c0-1.1-.9-2-2-2zM3 9h2V7H3v2zm0 4h2v-2H3v2zm0 4h2v-2H3v2zm2 2v2a2 2 0 0 1-2-2h2zm12 2h-2v-2h2v2zm-8-6h10V5H9v10zm2 6h2v-2h-2v2zm-2 0H7v-2h2v2z"/></symbol></defs><use id="medium" xlink:href="#flip_to_front" /></svg>