<svg width="24" height="24" viewBox="0 0 24 24" xmlns="http://www.w3.org/2000/svg"><path fill-rule="evenodd" clip-rule="evenodd" d="M6.85 8.575c0 .64.13 1.19.39 1.67.032.063.076.133.117.198l.033.052H12c-.64-.22-1.03-.45-1.41-.7-.49-.33-.74-.73-.74-1.21q0-.345.15-.66c.1-.21.25-.39.44-.55q.285-.225.72-.36c.29-.09.64-.13 1.03-.13.4 0 .76.06 1.06.16.3.11.55.25.75.44s.35.41.44.68c.1.26.15.54.15.85h3.01c0-.66-.13-1.26-.38-1.81s-.61-1.03-1.08-1.43a4.9 4.9 0 0 0-1.69-.94c-.67-.23-1.4-.34-2.21-.34-.79 0-1.52.1-2.18.29-.65.2-1.22.48-1.7.83q-.72.54-1.11 1.29c-.27.51-.4 1.06-.4 1.67M21 11.495v2.02h-3.87c.06.1.12.22.17.33.21.47.31 1.01.31 1.61 0 .64-.13 1.21-.38 1.71s-.61.93-1.07 1.27-1.02.6-1.67.79-1.38.28-2.18.28c-.48 0-.96-.05-1.44-.13q-.72-.135-1.38-.39a5.7 5.7 0 0 1-1.22-.65c-.38-.26-.7-.57-.98-.92-.28-.36-.49-.76-.65-1.21s-.24-1.03-.24-1.58h2.97c0 .45.11.9.25 1.21s.34.56.59.75.56.33.91.42.75.13 1.18.13c.38 0 .72-.05 1.01-.13.29-.09.52-.2.71-.35s.33-.33.42-.53c.09-.21.14-.43.14-.66 0-.26-.04-.49-.11-.69-.08-.21-.22-.4-.43-.57q-.315-.255-.87-.51a7 7 0 0 0-.269-.098c-.095-.033-.193-.067-.281-.102H3v-2z"/></svg>
