<svg style="display: none;" xmlns="http://www.w3.org/2000/svg" xmlns:xlink="http://www.w3.org/1999/xlink">
<style>
use,
use:target~use:last-child { display: none; }
use:target,
use:last-child { display: inline; }
</style><defs><symbol id="insert_link" viewBox="0 0 24 24"><path fill-rule="evenodd" clip-rule="evenodd" d="M3.9 12c0-1.71 1.39-3.1 3.1-3.1h4V7H7c-2.76 0-5 2.24-5 5s2.24 5 5 5h4v-1.9H7c-1.71 0-3.1-1.39-3.1-3.1zM8 13h8v-2H8v2zm5-6h4c2.76 0 5 2.24 5 5s-2.24 5-5 5h-4v-1.9h4c1.71 0 3.1-1.39 3.1-3.1 0-1.71-1.39-3.1-3.1-3.1h-4V7z"/></symbol></defs><use id="medium" xlink:href="#insert_link" /></svg>