<svg style="display: none;" xmlns="http://www.w3.org/2000/svg" xmlns:xlink="http://www.w3.org/1999/xlink">
<style>
use,use:target~use:last-child { display: none; }
use:target,use:last-child { display: inline; }
</style>
<defs><symbol id="rotate_90_degrees_ccw" viewBox="0 0 24 24"><path fill-rule="evenodd" clip-rule="evenodd" d="M13.57 4.62c2.3 0 4.61.88 6.36 2.64a8.98 8.98 0 0 1 0 12.72 8.95 8.95 0 0 1-6.36 2.64c-1.49 0-2.98-.38-4.33-1.12l1.49-1.49a6.973 6.973 0 0 0 7.79-1.44 7.007 7.007 0 0 0 0-9.9 6.973 6.973 0 0 0-4.95-2.05v3.24L9.33 5.62l4.24-4.24v3.24zM7.91 7.03l-6.48 6.49L7.92 20l6.49-6.48-6.5-6.49zm-3.65 6.49 3.66-3.66 3.65 3.66-3.66 3.66-3.65-3.66z"/></symbol></defs><use id="medium" xlink:href="#rotate_90_degrees_ccw" />
</svg>
