<svg width="24" height="24" viewBox="0 0 24 24" xmlns="http://www.w3.org/2000/svg"><path fill-rule="evenodd" clip-rule="evenodd" d="m11.345.03.66-.03c6.29 0 11.44 4.84 11.94 10.99h-1.5c-.35-3.76-2.69-6.93-5.96-8.48l-1.33 1.33zm-2.93 14.93c-.19 0-.37-.03-.52-.08a1.1 1.1 0 0 1-.4-.24c-.11-.1-.2-.22-.26-.37-.06-.14-.09-.3-.09-.47h-1.3c0 .36.07.68.21.95s.33.5.56.69c.24.18.51.32.82.41q.45.15.96.15c.37 0 .72-.05 1.03-.15.32-.1.6-.25.83-.44s.42-.43.55-.72.2-.61.2-.97c0-.19-.02-.38-.07-.56a1.7 1.7 0 0 0-.23-.51c-.1-.16-.24-.3-.4-.43-.17-.13-.37-.23-.61-.31a2.1 2.1 0 0 0 .89-.75c.1-.15.17-.3.22-.46s.07-.32.07-.48q0-.54-.18-.96a1.8 1.8 0 0 0-.51-.69c-.2-.19-.47-.33-.77-.43-.31-.09-.65-.14-1.02-.14-.36 0-.69.05-1 .16-.3.11-.57.26-.79.45-.21.19-.38.41-.51.67-.12.26-.18.54-.18.85h1.3q0-.255.09-.45a.94.94 0 0 1 .25-.34c.11-.09.23-.17.38-.22s.3-.08.48-.08c.4 0 .7.1.89.31.19.2.29.49.29.86 0 .18-.03.34-.08.49a.87.87 0 0 1-.25.37c-.11.1-.25.18-.41.24s-.36.09-.58.09h-.77v1.03h.77c.22 0 .42.02.6.07s.33.13.45.23c.12.11.22.24.29.4s.1.35.1.57c0 .41-.12.72-.35.93-.23.23-.55.33-.95.33m-.89 6.52A10.49 10.49 0 0 1 1.555 13h-1.5c.51 6.16 5.66 11 11.95 11l.66-.03-3.81-3.81zm8.3-13.21c.44.18.82.44 1.14.77s.57.73.74 1.2.26.99.26 1.57v.4c0 .58-.09 1.1-.26 1.57-.17.46-.42.86-.74 1.19s-.71.58-1.16.76-.96.27-1.51.27h-2.3V8h2.36q.81 0 1.47.27m.75 3.93c0 .42-.05.79-.14 1.13-.1.33-.24.62-.43.85s-.43.41-.71.53q-.435.18-.99.18h-.91V9.12h.97c.72 0 1.27.23 1.64.69.38.46.57 1.12.57 1.99z"/></svg>
