<svg width="24" height="24" viewBox="0 0 24 24" xmlns="http://www.w3.org/2000/svg"><path fill-rule="evenodd" clip-rule="evenodd" d="M20.13 8.17c1.45.43 2.56 1.66 2.81 3.17.04.21.06.43.06.66 0 .23-.02.45-.06.66a3.998 3.998 0 01-2.8 3.17 9.086 9.086 0 01-2.17 2.89A8.93 8.93 0 0112 21c-2.29 0-4.38-.86-5.96-2.28-.9-.8-1.65-1.78-2.17-2.89a4.008 4.008 0 01-2.81-3.17C1.02 12.45 1 12.23 1 12c0-.23.02-.45.06-.66a3.994 3.994 0 012.81-3.17c.52-1.11 1.27-2.1 2.19-2.91A8.885 8.885 0 0112 3c2.28 0 4.36.85 5.94 2.26.91.81 1.66 1.79 2.19 2.91zM9.5 9.25a1.25 1.25 0 100 2.5 1.25 1.25 0 000-2.5zm5 0a1.25 1.25 0 100 2.5 1.25 1.25 0 000-2.5zM19 14a1.34 1.34 0 01-.189-.017c-.033-.005-.066-.01-.101-.013-.2.67-.49 1.29-.86 1.86A6.976 6.976 0 0112 19c-2.45 0-4.6-1.26-5.85-3.17-.37-.57-.66-1.19-.86-1.86-.035.003-.068.008-.101.013A1.339 1.339 0 015 14c-1.1 0-2-.9-2-2s.9-2 2-2c.065 0 .126.008.189.017.033.005.066.01.101.013.2-.67.49-1.29.86-1.86A6.976 6.976 0 0112 5c2.45 0 4.6 1.26 5.85 3.17.37.57.66 1.19.86 1.86.035-.003.068-.008.101-.013A1.34 1.34 0 0119 10c1.1 0 2 .9 2 2s-.9 2-2 2zm-2.5 0c-.76 1.77-2.49 3-4.5 3s-3.74-1.23-4.5-3h9z"/></svg>