<svg width="24" height="24" viewBox="0 0 24 24" xmlns="http://www.w3.org/2000/svg"><path fill-rule="evenodd" clip-rule="evenodd" d="M.565 1.975l1.41-1.41 21.46 21.46-1.41 1.41-2.84-2.84c-.36.51-.95.84-1.62.84a1.997 1.997 0 01-1.16-3.62l-1.38-1.38h-7.46c-1.1 0-2-.9-2-2 0-.35.09-.68.25-.96l1.35-2.45-2.21-4.66-4.39-4.39zm8.1 10.46l-1.1 2h5.46l-2-2h-2.36zm11.9-9H7.685l2 2h9.19l-2.76 5h-1.44l1.94 1.94c.54-.14.99-.49 1.25-.97l3.58-6.49c.37-.66-.12-1.48-.88-1.48zm-14.99 16c0-1.1.89-2 1.99-2s2 .9 2 2-.9 2-2 2-1.99-.9-1.99-2z"/></svg>