<svg style="display: none;" xmlns="http://www.w3.org/2000/svg" xmlns:xlink="http://www.w3.org/1999/xlink">
<style>
use,
use:target~use:last-child { display: none; }
use:target,
use:last-child { display: inline; }
</style><defs><symbol id="alarm_add" viewBox="0 0 24 24"><path fill-rule="evenodd" clip-rule="evenodd" d="m6.664 1.905 1.281 1.536-4.607 3.844-1.281-1.536 4.607-3.844zm10.673 0 4.608 3.844-1.282 1.536-4.607-3.843 1.281-1.536zM3.001 13.096a9 9 0 1 1 18.001.001 9 9 0 0 1-18.001-.001zm9 7c-3.86 0-7-3.14-7-7s3.14-7 7-7 7 3.14 7 7-3.14 7-7 7zm-1-8v-3h2v3h3v2h-3v3h-2v-3H8v-2h3z"/></symbol></defs><use id="medium" xlink:href="#alarm_add" /></svg>