<svg style="display: none;" xmlns="http://www.w3.org/2000/svg" xmlns:xlink="http://www.w3.org/1999/xlink">
<style>
use,use:target~use:last-child { display: none; }
use:target,use:last-child { display: inline; }
</style>
<defs><symbol id="alarm" viewBox="0 0 24 24"><path fill-rule="evenodd" clip-rule="evenodd" d="M7.945 3.441 6.664 1.905 2.057 5.75l1.28 1.536L7.946 3.44zm9.392-1.535 4.608 3.843-1.282 1.536-4.607-3.843 1.281-1.536zm-4.836 6.189H11v6l4.75 2.85.75-1.23-4-2.37v-5.25zm-.5-4a9 9 0 1 0 .001 18.001 9 9 0 0 0-.001-18.001zm-7 9c0 3.86 3.14 7 7 7s7-3.14 7-7-3.14-7-7-7-7 3.14-7 7z"/></symbol></defs><use id="medium" xlink:href="#alarm" />
</svg>
