<svg width="24" height="24" viewBox="0 0 24 24" xmlns="http://www.w3.org/2000/svg"><path fill-rule="evenodd" clip-rule="evenodd" d="m8.164 3.445-.46.38-1.42-1.42.6-.5zm9.397-1.54 4.607 3.844-1.281 1.536-4.608-3.843zm-7.297 4.48c.62-.18 1.28-.29 1.96-.29 3.86 0 7 3.14 7 7 0 .68-.11 1.34-.29 1.96l1.56 1.56c.47-1.08.73-2.27.73-3.52a9 9 0 0 0-12.53-8.28zm-8.43-2.78 1.41-1.41 18.38 18.39-1.41 1.41-2.1-2.1a8.96 8.96 0 0 1-5.89 2.2 9 9 0 0 1-9-9c0-2.25.83-4.31 2.2-5.89l-.8-.8-1.06.88-1.28-1.54.92-.77zm10.39 16.49c-3.86 0-7-3.14-7-7 0-1.7.61-3.26 1.62-4.47l9.85 9.85a6.96 6.96 0 0 1-4.47 1.62"/></svg>
