<svg style="display: none;" xmlns="http://www.w3.org/2000/svg" xmlns:xlink="http://www.w3.org/1999/xlink">
<style>
use,
use:target~use:last-child { display: none; }
use:target,
use:last-child { display: inline; }
</style><defs><symbol id="calendar_reject" viewBox="0 0 24 24"><path fill-rule="evenodd" clip-rule="evenodd" d="M18 4h1c1.1 0 2 .9 2 2v14c0 1.1-.9 2-2 2H5c-1.1 0-2-.9-2-2V6c0-1.1.9-2 2-2h1V2h2v2h8V2h2v2zM5 20h14V10H5v10zM5 8V6h14v2H5zm4.29 10.47-1.06-1.06 2.44-2.44-2.44-2.44 1.06-1.06 2.44 2.44 2.44-2.44 1.06 1.06-2.44 2.44 2.44 2.44-1.06 1.06-2.44-2.44-2.44 2.44z"/></symbol></defs><use id="medium" xlink:href="#calendar_reject" /></svg>