<svg style="display: none;" xmlns="http://www.w3.org/2000/svg" xmlns:xlink="http://www.w3.org/1999/xlink">
<style>
use,use:target~use:last-child { display: none; }
use:target,use:last-child { display: inline; }
</style>
<defs><symbol height="24" width="24" id="calendar" viewBox="0 0 24 24"><path fill-rule="evenodd" clip-rule="evenodd" d="M19 4h-1V2h-2v2H8V2H6v2H5c-1.1 0-2 .9-2 2v14c0 1.1.9 2 2 2h14c1.1 0 2-.9 2-2V6c0-1.1-.9-2-2-2zm0 16H5V10h14v10zM5 6v2h14V6H5z"/></symbol><symbol height="18" width="18" id="calendar_small" viewBox="0 0 18 18"><path fill-rule="evenodd" clip-rule="evenodd" d="M13.5 3H13V2h-1v1H6V2H5v1h-.5C3.5 3 3 3.5 3 4.6v9.1c0 .715.6 1.3 1.333 1.3h9.334C14.4 15 15 14.415 15 13.7V4.6c0-1.1-.5-1.6-1.5-1.6zM13 13H5V8h8v5zM5 5v1h8V5H5z"/></symbol></defs><use id="small" xlink:href="#calendar_small" /><use id="medium" xlink:href="#calendar" />
</svg>
