<svg style="display: none;" xmlns="http://www.w3.org/2000/svg" xmlns:xlink="http://www.w3.org/1999/xlink">
<style>
use,
use:target~use:last-child { display: none; }
use:target,
use:last-child { display: inline; }
</style><defs><symbol id="time" viewBox="0 0 24 24"><path fill-rule="evenodd" clip-rule="evenodd" d="M12 2C6.5 2 2 6.5 2 12s4.5 10 10 10 10-4.5 10-10S17.5 2 12 2zm0 18c-4.41 0-8-3.59-8-8s3.59-8 8-8 8 3.59 8 8-3.59 8-8 8zM11 7h1.5v5.2l4.5 2.7-.8 1.3L11 13V7z"/></symbol><symbol id="time_small" viewBox="0 0 18 18"><path fill-rule="evenodd" clip-rule="evenodd" d="M9 2C5.15 2 2 5.15 2 9s3.15 7 7 7 7-3.15 7-7-3.15-7-7-7zm-.002 12.6a5.607 5.607 0 0 1-5.6-5.6c0-3.087 2.513-5.6 5.6-5.6 3.087 0 5.6 2.513 5.6 5.6 0 3.087-2.513 5.6-5.6 5.6zM8 6h1v3.391l3 1.761-.533.848L8 9.913V6z"/></symbol></defs><use id="small" xlink:href="#time_small" /><use id="medium" xlink:href="#time" /></svg>