<svg width="24" height="24" viewBox="0 0 24 24" xmlns="http://www.w3.org/2000/svg"><path fill-rule="evenodd" clip-rule="evenodd" d="M9.625 1h6v2h-6zm2 7v.86l2 2V8zm8 5c0-3.87-3.13-7-7-7-1.12 0-2.18.27-3.12.74l-1.47-1.47c1.34-.8 2.91-1.27 4.59-1.27 2.12 0 4.07.74 5.62 1.98l1.42-1.42c.51.42.98.9 1.41 1.41l-1.42 1.42a8.96 8.96 0 0 1 1.97 5.61c0 1.68-.47 3.25-1.27 4.59l-1.47-1.47c.47-.94.74-2 .74-3.12M3.785 3.86l-1.41 1.41 2.75 2.75a9.04 9.04 0 0 0-1.5 4.98c0 4.97 4.02 9 9 9 1.84 0 3.55-.55 4.98-1.5l2.5 2.5 1.41-1.41zM5.625 13c0 3.87 3.13 7 7 7 1.29 0 2.49-.35 3.53-.95l-9.57-9.57a6.9 6.9 0 0 0-.96 3.52"/></svg>
