<svg style="display: none;" xmlns="http://www.w3.org/2000/svg" xmlns:xlink="http://www.w3.org/1999/xlink">
<style>
use,use:target~use:last-child { display: none; }
use:target,use:last-child { display: inline; }
</style>
<defs><symbol id="tag" viewBox="0 0 24 24"><path fill-rule="evenodd" clip-rule="evenodd" d="m21.41 11.58-9-9C12.05 2.22 11.55 2 11 2H4c-1.1 0-2 .9-2 2v7c0 .55.22 1.05.59 1.42l9 9c.36.36.86.58 1.41.58.55 0 1.05-.22 1.41-.59l7-7c.37-.36.59-.86.59-1.41 0-.55-.23-1.06-.59-1.42zM13 20.01 4 11V4h7v-.01l9 9-7 7.02zM5 6.5a1.5 1.5 0 1 1 3 0 1.5 1.5 0 0 1-3 0z"/></symbol></defs><use id="medium" xlink:href="#tag" />
</svg>
