<svg width="24" height="24" viewBox="0 0 24 24" xmlns="http://www.w3.org/2000/svg"><path fill-rule="evenodd" clip-rule="evenodd" d="m21.41 11.58-9-9C12.05 2.22 11.55 2 11 2H4c-1.1 0-2 .9-2 2v7c0 .55.22 1.05.59 1.42l9 9c.36.36.86.58 1.41.58.55 0 1.05-.22 1.41-.59l7-7c.37-.36.59-.86.59-1.41 0-.55-.23-1.06-.59-1.42ZM13 20.01 4 11V4h7v-.01l9 9-7 7.02Z"/><path d="M6.657 6.657a1.358 1.358 0 0 1 1.914 0 1.358 1.358 0 0 1 0 1.914 1.358 1.358 0 0 1-1.914 0 1.358 1.358 0 0 1 0-1.914ZM12.4 12.4a1.358 1.358 0 0 1 1.913 0 1.358 1.358 0 0 1 0 1.914 1.358 1.358 0 0 1-1.914 0 1.358 1.358 0 0 1 0-1.914ZM11.442 9.528a1.357 1.357 0 0 0-1.914 0 1.358 1.358 0 0 0 0 1.915 1.358 1.358 0 0 0 1.914 0 1.358 1.358 0 0 0 0-1.915Z"/></svg>
