<svg width="24" height="24" viewBox="0 0 24 24" xmlns="http://www.w3.org/2000/svg"><path fill-rule="evenodd" clip-rule="evenodd" d="m21.4 11.6-9-9c-.3-.4-.8-.6-1.4-.6H4c-1.1 0-2 .9-2 2v7c0 .6.2 1.1.6 1.4l9 9c.3.4.8.6 1.4.6s1.1-.2 1.4-.6l7-7c.4-.4.6-.9.6-1.4s-.2-1.1-.6-1.4M13 20l-9-9V4h7l9 9zM5 6.5C5 5.7 5.7 5 6.5 5S8 5.7 8 6.5 7.3 8 6.5 8 5 7.3 5 6.5m6.4 3.8c-.6.3-1.4.7-1.8 1.2-.4.4-.6.8-.3 1.1.361.361.9.126 1.545-.155.961-.42 2.158-.942 3.355.255 1.3 1.3.8 3-.4 4.1-.6.6-1.3 1-2 1.3l-1.4-1.4c.7-.2 1.6-.7 2.1-1.2.4-.4.6-.9.2-1.2-.414-.414-.983-.16-1.649.14-.942.422-2.08.932-3.25-.24-1.3-1.3-.7-2.8.4-3.9.5-.5 1.2-1 1.8-1.2zm6.8 1.8-5.7-5.7L11 7.8l5.7 5.8z"/></svg>
