<svg width="24" height="24" viewBox="0 0 24 24" xmlns="http://www.w3.org/2000/svg"><path fill-rule="evenodd" clip-rule="evenodd" d="M20.5 11.5c0-4.41-3.59-8-8-8-1.41 0-2.73.37-3.87 1.01L7.17 3.05A9.9 9.9 0 0 1 12.5 1.5c5.52 0 10 4.48 10 10 0 1.96-.57 3.79-1.55 5.34l-1.46-1.46a7.95 7.95 0 0 0 1.01-3.88m-5.88-1h2.88v2h-.88zM2.91 1.63 1.5 3.04l2.78 2.78A9.9 9.9 0 0 0 2.5 11.5c0 5.52 4.48 10 10 10 2.11 0 4.07-.66 5.68-1.78l2.78 2.78 1.41-1.41zM4.5 11.5c0 4.41 3.59 8 8 8 1.56 0 3-.45 4.23-1.23l-5.77-5.77H7.5v-2h1.46L5.73 7.27A7.85 7.85 0 0 0 4.5 11.5"/></svg>
