<svg style="display: none;" xmlns="http://www.w3.org/2000/svg" xmlns:xlink="http://www.w3.org/1999/xlink">
<style>
use,use:target~use:last-child { display: none; }
use:target,use:last-child { display: inline; }
</style>
<defs><symbol id="lock_add" viewBox="0 0 24 24"><path fill-rule="evenodd" clip-rule="evenodd" d="M17 8.5h1c1.1 0 2 .9 2 2v10c0 1.1-.9 2-2 2H6c-1.1 0-2-.9-2-2v-10c0-1.1.9-2 2-2h1v-2c0-2.76 2.24-5 5-5s5 2.24 5 5v2zm-5-5.1c-1.71 0-3.1 1.39-3.1 3.1v2h6.2v-2c0-1.71-1.39-3.1-3.1-3.1zM6 20.5v-10h12v10H6zm5-6v-3h2v3h3v2h-3v3h-2v-3H8v-2h3z"/></symbol></defs><use id="medium" xlink:href="#lock_add" />
</svg>
