<svg width="24" height="24" viewBox="0 0 24 24" xmlns="http://www.w3.org/2000/svg"><path fill-rule="evenodd" clip-rule="evenodd" d="M.564 1.98L1.974.57l21.46 21.45-1.41 1.41-2.01-2.009H4.565c-1.1 0-2-.9-2-1.999V3.978l-2-1.999zm8 1.449v.89l2 1.998V3.43h4v3.998h-2.89l2 2h.89v.889l2 1.999V9.426h4v3.998h-2.89l2 2h.89v.89l2 1.998V3.43c0-1.1-.9-2-2-2H5.674l2 2h.89zm8 0h4v3.998h-4V3.429zm-6 8.546l1.45 1.45h-1.45v-1.45zm-4.55-4.548l-1.45-1.45v1.45h1.45zm2.55 11.995h-4v-3.998h4v3.998zm-4-5.998h4V9.976l-.55-.55h-3.45v3.998zm10 5.998h-4v-3.998h3.45l.55.55v3.448zm2-1.45v1.45h1.45l-1.45-1.45z"/></svg>