<svg width="24" height="24" viewBox="0 0 24 24" xmlns="http://www.w3.org/2000/svg"><path fill-rule="evenodd" clip-rule="evenodd" d="M11.82 23.995h6.55c2.21 0 4-1.79 4-4V6.145a2.5 2.5 0 00-3-2.45v-.28a2.5 2.5 0 00-2.5-2.5c-.33 0-.65.06-.94.18a2.48 2.48 0 00-2.06-1.09c-1.32 0-2.4 1.03-2.49 2.33a2.5 2.5 0 00-3.01 2.45v9.55l-2.41-1.28c-.73-.39-1.64-.28-2.26.27l-2.07 1.83 7.3 7.61c.75.78 1.81 1.23 2.89 1.23zm-1.45-2.62l-5.86-6.1.51-.45 5.35 2.83V4.785c0-.27.22-.5.5-.5s.5.22.5.5v7.21h2v-9.49c0-.28.22-.5.5-.5s.5.22.5.5v9.49h2v-8.58c0-.28.22-.5.5-.5s.5.22.5.5v8.58h2v-5.85c0-.28.22-.5.5-.5s.5.22.5.5v13.85c0 1.1-.9 2-2 2h-6.56c-.54 0-1.06-.23-1.44-.62z"/></svg>