<svg width="24" height="24" viewBox="0 0 24 24" xmlns="http://www.w3.org/2000/svg"><path fill-rule="evenodd" clip-rule="evenodd" d="M12 22c5.523 0 10-4.477 10-10S17.523 2 12 2 2 6.477 2 12s4.477 10 10 10zm0-2a8 8 0 100-16 8 8 0 000 16zm0-4a4 4 0 100-8 4 4 0 000 8zm0-2a2 2 0 100-4 2 2 0 000 4zm1-8a1 1 0 11-2 0 1 1 0 012 0zm4 2a1 1 0 11-2 0 1 1 0 012 0zm0 8a1 1 0 11-2 0 1 1 0 012 0zm-8 0a1 1 0 11-2 0 1 1 0 012 0zm0-8a1 1 0 11-2 0 1 1 0 012 0zm10 4a1 1 0 11-2 0 1 1 0 012 0zM7 12a1 1 0 11-2 0 1 1 0 012 0zm6 6a1 1 0 11-2 0 1 1 0 012 0z"/></svg>