<svg width="24" height="24" viewBox="0 0 24 24" xmlns="http://www.w3.org/2000/svg"><path fill-rule="evenodd" clip-rule="evenodd" d="M7 4.5a1 1 0 00-2 0v4a1 1 0 102 0v-4zm10.25-.75A4.75 4.75 0 0012.5 8.5v6.75a2.75 2.75 0 11-5.5 0V11.5a1 1 0 10-2 0v3.75a4.75 4.75 0 109.5 0V8.5a2.75 2.75 0 015.5 0V19a1 1 0 002 0V8.5a4.75 4.75 0 00-4.75-4.75zM1.293 7.793a1 1 0 011.414 0l1.414 1.414a1 1 0 11-1.414 1.414L1.293 9.207a1 1 0 010-1.414zm8 0a1 1 0 011.414 1.414l-1.414 1.414a1 1 0 01-1.415-1.414l1.415-1.414z"/></svg>