<svg width="24" height="24" viewBox="0 0 24 24" xmlns="http://www.w3.org/2000/svg"><path fill-rule="evenodd" clip-rule="evenodd" d="M13.205 13.636c.985 1.83 1.238 4.036 1.127 5.806-.093 1.49-.444 2.67-.832 3.058.75-.346 1.758-1.11 2.757-2.149C18.146 18.387 20 15.444 20 12.5c0-4.216-3.82-7.257-6.73-9.573-.186-.15-.37-.295-.548-.438C12.056 1.954 11.46 1.46 11 1c0 .645-.324 1.29-.832 1.96C9.672 3.615 9 4.292 8.284 5.016 6.316 7 4 9.336 4 12.5c0 3.012 1.942 5.8 3.876 7.765.955.97 1.908 1.74 2.624 2.235-.294-.765-.599-1.893-.727-3.175-.178-1.79-.013-3.882 1.004-5.707A7.33 7.33 0 0112 12l.001.001a6.984 6.984 0 011.204 1.635zM7.75 17.044c.17-2.146.909-4.532 2.835-6.458L12 9.172l1.414 1.414c1.875 1.875 2.641 4.4 2.866 6.583C17.325 15.65 18 13.996 18 12.5c0-1.919-1.131-3.674-2.953-5.438-.892-.863-1.87-1.652-2.832-2.42l-.217-.172-.29-.23c-.089.114-.178.224-.264.328-.518.623-1.186 1.297-1.811 1.927-.242.244-.477.482-.694.707C7.186 9.018 6 10.624 6 12.5c0 1.5.68 3.065 1.751 4.544z"/></svg>