<svg width="24" height="24" viewBox="0 0 24 24" xmlns="http://www.w3.org/2000/svg"><path fill-rule="evenodd" clip-rule="evenodd" d="M11.424 2a.5.5 0 00-.493.418l-.224 1.345a.52.52 0 01-.408.418 7.955 7.955 0 00-2.646 1.102.52.52 0 01-.586-.006L5.952 4.48a.5.5 0 00-.644.053l-.816.816a.5.5 0 00-.053.644l.804 1.126a.52.52 0 01.01.582 7.953 7.953 0 00-1.079 2.63.52.52 0 01-.419.41l-1.378.23a.5.5 0 00-.418.494v1.153a.5.5 0 00.418.493l1.397.233a.52.52 0 01.418.405c.209.936.581 1.81 1.086 2.59a.52.52 0 01-.007.586L4.44 18.09a.5.5 0 00.053.644l.816.815a.5.5 0 00.644.053l1.176-.84a.52.52 0 01.582-.009c.777.495 1.646.86 2.575 1.063a.52.52 0 01.407.418l.239 1.43a.5.5 0 00.493.419h1.153a.5.5 0 00.493-.418l.238-1.43a.52.52 0 01.407-.42 7.952 7.952 0 002.576-1.062.52.52 0 01.582.01l1.176.84a.5.5 0 00.644-.054l.815-.815a.5.5 0 00.053-.644l-.832-1.165a.52.52 0 01-.007-.585 7.955 7.955 0 001.087-2.591.52.52 0 01.418-.405l1.397-.233a.5.5 0 00.418-.493v-1.153a.5.5 0 00-.418-.493l-1.379-.23a.52.52 0 01-.419-.41 7.954 7.954 0 00-1.078-2.63.52.52 0 01.01-.583l.803-1.126a.5.5 0 00-.053-.644l-.815-.816a.5.5 0 00-.644-.053l-1.116.797a.52.52 0 01-.585.006 7.956 7.956 0 00-2.646-1.102.52.52 0 01-.408-.418l-.224-1.345A.5.5 0 0012.577 2h-1.153zM18 12a6 6 0 11-12 0 6 6 0 0112 0zm-4 0a2 2 0 11-4 0 2 2 0 014 0zm2 0a4 4 0 11-8 0 4 4 0 018 0z"/></svg>