<svg width="24" height="24" viewBox="0 0 24 24" xmlns="http://www.w3.org/2000/svg"><path fill-rule="evenodd" clip-rule="evenodd" d="M16.046 2.867c.101.045.144.164.097.264l-.68 1.448a.204.204 0 01-.268.098 8 8 0 00-6.448.003.204.204 0 01-.268-.098l-.681-1.448a.197.197 0 01.096-.264 10 10 0 018.152-.003zm5.85 7.894a.197.197 0 01-.176.22l-1.591.166a.204.204 0 01-.223-.178 8 8 0 00-3.337-5.517.204.204 0 01-.055-.28L17.4 3.84a.197.197 0 01.276-.054 9.999 9.999 0 014.22 6.975zm-19.67.215a.197.197 0 01-.175-.22 10 10 0 014.223-6.973.197.197 0 01.276.054l.885 1.333a.204.204 0 01-.054.28 8 8 0 00-3.34 5.515.204.204 0 01-.223.178l-1.591-.167zM6 20h-.027a10.001 10.001 0 01-3.972-7.26.197.197 0 01.186-.21l1.598-.087a.204.204 0 01.213.19A8 8 0 008.1 19h7.746a8 8 0 004.102-6.368.204.204 0 01.213-.189l1.598.087c.11.006.195.1.187.21A10.001 10.001 0 0117.973 20h-.027a.197.197 0 01-.053.06c-.478.35-.986.659-1.52.92a.198.198 0 01-.087.02H7.66a.198.198 0 01-.087-.02 9.998 9.998 0 01-1.52-.92A.195.195 0 016 20zm5.811-12.964a.5.5 0 00-.388.416l-.693 4.776a2 2 0 102.486 0l-.693-4.776a.5.5 0 00-.388-.416l-.055-.012a.5.5 0 00-.214 0l-.055.012z"/></svg>