<svg style="display: none;" xmlns="http://www.w3.org/2000/svg" xmlns:xlink="http://www.w3.org/1999/xlink">
<style>
use,
use:target~use:last-child { display: none; }
use:target,
use:last-child { display: inline; }
</style><defs><symbol id="gas_station" viewBox="0 0 24 24"><path fill-rule="evenodd" clip-rule="evenodd" d="m19.53 7.22-.01.01c.45.45.73 1.08.73 1.77v9.5a2.5 2.5 0 0 1-5 0v-5h-1.5V21h-10V5c0-1.1.9-2 2-2h6c1.1 0 2 .9 2 2v7h1c1.1 0 2 .9 2 2v4.5c0 .55.45 1 1 1s1-.45 1-1v-7.21c-.31.13-.64.21-1 .21a2.5 2.5 0 0 1-2.5-2.5c0-1.07.67-1.97 1.61-2.33l-2.11-2.11 1.06-1.06 3.72 3.72zM11.75 19v-7h-6v7h6zm0-9h-6V5h6v5zm5-1c0 .55.45 1 1 1s1-.45 1-1-.45-1-1-1-1 .45-1 1z"/></symbol></defs><use id="medium" xlink:href="#gas_station" /></svg>