<svg style="display: none;" xmlns="http://www.w3.org/2000/svg" xmlns:xlink="http://www.w3.org/1999/xlink">
<style>
use,
use:target~use:last-child { display: none; }
use:target,
use:last-child { display: inline; }
</style><defs><symbol id="light" viewBox="0 0 24 24"><path fill-rule="evenodd" clip-rule="evenodd" d="M9 1.525h6v4.81c1.79 1.04 3 2.97 3 5.19 0 3.31-2.69 6-6 6s-6-2.69-6-6c0-2.22 1.21-4.15 3-5.19v-4.81zm4 2v3.96l1 .58c1.24.72 2 2.04 2 3.46 0 2.21-1.79 4-4 4s-4-1.79-4-4c0-1.42.77-2.74 2-3.46l1-.58v-3.96h2zm-9 6.95H1v2h3v-2zm-.45 8.09 1.41 1.41 1.79-1.8-1.41-1.41-1.79 1.8zm9.45.91v3h-2v-3h2zm7-9h3v2h-3v-2zm-.97 9.51-1.79-1.8 1.4-1.4 1.8 1.79-1.41 1.41z"/></symbol></defs><use id="medium" xlink:href="#light" /></svg>