<svg width="24" height="24" viewBox="0 0 24 24" xmlns="http://www.w3.org/2000/svg"><path fill-rule="evenodd" clip-rule="evenodd" d="M3 4a1 1 0 0 0-1 1v13h10V5a1 1 0 0 0-1-1zm7 2H4v10h6z"/><path d="M2 19h20v2H2z"/><path fill-rule="evenodd" clip-rule="evenodd" d="M16.5 6a1 1 0 1 1 1.5.866V7h.5a.5.5 0 0 1 0 1 .5.5 0 0 1 0 1H18v1h2.5a1 1 0 0 1 .246 1.97L21.5 18h-1l-3-3.5-3 3.5h-1l.754-6.03A1 1 0 0 1 14.5 10H17V9h-.5a.5.5 0 0 1 0-1 .5.5 0 0 1 0-1h.5v-.134A1 1 0 0 1 16.5 6m-1.25 6h.107L17 13.917l-2.33 2.717zm3.393 0L17.5 13.333 16.357 12zm1 0L18 13.917l2.33 2.717L19.75 12z"/><path d="m4.901 14.568 1.206-3.162L5 10.983l3.86-3.467-1.207 3.162 1.108.423z"/></svg>
