<svg width="24" height="24" viewBox="0 0 24 24" xmlns="http://www.w3.org/2000/svg"><path fill-rule="evenodd" clip-rule="evenodd" d="M3 6a2 2 0 0 1 2-2h14a2 2 0 0 1 2 2v6a2 2 0 0 1-2 2h-1v2l-2-1v-1H8v1l-2 1v-2H5a2 2 0 0 1-2-2zm16 0H5v6h14zm-2.998 10a7 7 0 0 1-4 1.28c-1.39 0-2.78-.43-4-1.28-1.22.85-2.61 1.32-4 1.32h-2v2h2c1.38 0 2.74-.35 4-.99 1.26.64 2.63.97 4 .97s2.74-.32 4-.97c1.26.65 2.62.99 4 .99h2v-2h-2c-1.39 0-2.78-.47-4-1.32m-4.694-6.75-.828 2.17 2.649-2.38-.76-.29.828-2.17-2.65 2.38z"/></svg>
