<svg width="24" height="24" viewBox="0 0 24 24" xmlns="http://www.w3.org/2000/svg"><path fill-rule="evenodd" clip-rule="evenodd" d="M11 1.05h2V4h-2V1.05Zm-6.04 2.5 1.8 1.79-1.42 1.41-1.79-1.79 1.41-1.41ZM4 11H1v2h3v-2Zm16.448-6.048L19.04 3.545l-1.788 1.789 1.407 1.407 1.789-1.79ZM17.24 18.66l1.79 1.8 1.41-1.41-1.8-1.79-1.4 1.4ZM23 11h-3v2h3v-2ZM12 6c-3.31 0-6 2.69-6 6s2.69 6 6 6 6-2.69 6-6-2.69-6-6-6Zm-4 6c0 2.21 1.79 4 4 4s4-1.79 4-4-1.79-4-4-4-4 1.79-4 4Zm5 8v2.95h-2V20h2Zm-8.04.45-1.41-1.41 1.79-1.8 1.41 1.41-1.79 1.8Z"/></svg>
