<svg style="display: none;" xmlns="http://www.w3.org/2000/svg" xmlns:xlink="http://www.w3.org/1999/xlink">
<style>
use,use:target~use:last-child { display: none; }
use:target,use:last-child { display: inline; }
</style>
<defs><symbol id="waves" viewBox="0 0 24 24"><path fill-rule="evenodd" clip-rule="evenodd" d="M17 16.99c-1.35 0-2.2.42-2.95.8-.65.33-1.18.6-2.05.6-.9 0-1.4-.25-2.05-.6-.75-.38-1.57-.8-2.95-.8-1.38 0-2.2.42-2.95.8-.65.33-1.17.6-2.05.6v1.95c1.35 0 2.2-.42 2.95-.8.65-.33 1.17-.6 2.05-.6.88 0 1.4.25 2.05.6.75.38 1.57.8 2.95.8 1.38 0 2.2-.42 2.95-.8.65-.33 1.18-.6 2.05-.6.9 0 1.4.25 2.05.6.75.38 1.58.8 2.95.8v-1.95c-.9 0-1.4-.25-2.05-.6-.75-.38-1.6-.8-2.95-.8zm0-4.45c-1.35 0-2.2.43-2.95.8-.65.32-1.18.6-2.05.6-.9 0-1.4-.25-2.05-.6-.75-.38-1.57-.8-2.95-.8-1.38 0-2.2.43-2.95.8-.65.32-1.17.6-2.05.6v1.95c1.35 0 2.2-.43 2.95-.8.65-.35 1.15-.6 2.05-.6.9 0 1.4.25 2.05.6.75.38 1.57.8 2.95.8 1.38 0 2.2-.43 2.95-.8.65-.35 1.15-.6 2.05-.6.9 0 1.4.25 2.05.6.75.38 1.58.8 2.95.8v-1.95c-.9 0-1.4-.25-2.05-.6-.75-.38-1.6-.8-2.95-.8zm2.95-8.08c-.75-.38-1.58-.8-2.95-.8s-2.2.42-2.95.8c-.65.32-1.18.6-2.05.6-.9 0-1.4-.25-2.05-.6-.75-.37-1.57-.8-2.95-.8-1.38 0-2.2.42-2.95.8-.65.33-1.17.6-2.05.6v1.93c1.35 0 2.2-.43 2.95-.8.65-.33 1.17-.6 2.05-.6.88 0 1.4.25 2.05.6.75.38 1.57.8 2.95.8 1.38 0 2.2-.43 2.95-.8.65-.32 1.18-.6 2.05-.6.9 0 1.4.25 2.05.6.75.38 1.58.8 2.95.8V5.04c-.9 0-1.4-.25-2.05-.58zM17 8.09c-1.35 0-2.2.43-2.95.8-.65.35-1.15.6-2.05.6-.9 0-1.4-.25-2.05-.6-.75-.38-1.57-.8-2.95-.8-1.38 0-2.2.43-2.95.8-.65.35-1.15.6-2.05.6v1.95c1.35 0 2.2-.43 2.95-.8.65-.32 1.18-.6 2.05-.6.87 0 1.4.25 2.05.6.75.38 1.57.8 2.95.8 1.38 0 2.2-.43 2.95-.8.65-.32 1.18-.6 2.05-.6.9 0 1.4.25 2.05.6.75.38 1.58.8 2.95.8V9.49c-.9 0-1.4-.25-2.05-.6-.75-.38-1.6-.8-2.95-.8z"/></symbol></defs><use id="medium" xlink:href="#waves" />
</svg>
