<svg width="24" height="24" viewBox="0 0 24 24" xmlns="http://www.w3.org/2000/svg"><path fill-rule="evenodd" clip-rule="evenodd" d="M12.496 2.427A.496.496 0 0 0 12 2a.496.496 0 0 0-.496.427l-.888 6.929c-.27.259-.467.593-.56.968l-5.858 4.327a.48.48 0 0 0-.131.633.506.506 0 0 0 .627.205l6.272-2.581-.417 8.116H9V22h6v-.976h-1.55l-.414-8.084 6.267 2.588c.234.097.505.01.631-.203a.48.48 0 0 0-.135-.635l-5.842-4.304a2 2 0 0 0-.573-1.03zm-.188 6.397L12 6.42l-.308 2.403a2 2 0 0 1 .616 0m-2.183 2.674-2.134 1.576 2.457-1.012a2 2 0 0 1-.323-.564m3.407.588 2.44 1.007-2.112-1.556q-.121.303-.328.549M12 13.233l.446 7.791h-.892zm1-2.433a1 1 0 1 1-2 0 1 1 0 0 1 2 0"/></svg>
