<svg width="24" height="24" viewBox="0 0 24 24" xmlns="http://www.w3.org/2000/svg"><path fill-rule="evenodd" clip-rule="evenodd" d="M9.645 3.385A.446.446 0 0 0 9.2 3a.446.446 0 0 0-.447.385l-.798 6.234a1.798 1.798 0 0 0-.504.872l-5.272 3.893a.432.432 0 0 0-.118.57.456.456 0 0 0 .565.184l5.643-2.322-.375 7.303H6.5v.878h5.4v-.878h-1.395l-.374-7.275 5.64 2.33c.211.087.455.008.568-.184a.434.434 0 0 0-.121-.571l-5.257-3.873a1.797 1.797 0 0 0-.516-.926l-.799-6.235zm-.17 5.755L9.2 6.978 8.922 9.14a1.814 1.814 0 0 1 .554 0zm-1.964 2.406-1.92 1.418 2.212-.91a1.799 1.799 0 0 1-.292-.508zm3.066.53 2.195.906-1.9-1.4c-.072.18-.172.347-.295.493zm-1.379 1.032.402 7.01h-.803l.401-7.01zm.9-2.19a.9.9 0 1 1-1.8 0 .9.9 0 0 1 1.8 0z"/><path fill-rule="evenodd" clip-rule="evenodd" d="m15.798 15.515-.058 1.128h-1.046v.658h4.05v-.658h-1.046l-.28-5.457 4.23 1.747c.158.066.34.007.425-.137a.325.325 0 0 0-.09-.428L18.04 9.463a1.348 1.348 0 0 0-.387-.695l-.599-4.676a.335.335 0 0 0-.335-.289.335.335 0 0 0-.335.289l-.599 4.676c-.182.174-.316.4-.377.653l-2.714 2.004.966.712 2.36-.972-.133 2.612.52.383a.77.77 0 0 1 .145.14l.167-2.916.3 5.259h-.601l.076-1.335a.781.781 0 0 1-.696.207zm.921-8.728.208 1.621a1.36 1.36 0 0 0-.416 0l.208-1.621zm-2.706 4.49 1.44-1.064c.052.14.127.268.219.381l-1.659.683zm5.386.013-1.646-.68a1.35 1.35 0 0 0 .221-.37l1.425 1.05zm-2.68-.873a.675.675 0 1 0 0-1.35.675.675 0 0 0 0 1.35z"/></svg>
