<svg width="24" height="24" viewBox="0 0 24 24" xmlns="http://www.w3.org/2000/svg"><path d="M16.001 19.68c1.22.85 2.61 1.32 4 1.32h2v2h-2c-1.38 0-2.74-.34-4-.99-1.26.65-2.63.97-4 .97s-2.74-.33-4-.97c-1.26.64-2.62.99-4 .99h-2v-2h2c1.39 0 2.78-.47 4-1.32 1.22.85 2.61 1.28 4 1.28s2.78-.43 4-1.28M12.049 11a1 1 0 0 1 .999.95l.392 7.854A6.8 6.8 0 0 1 12 19.96q-.726-.001-1.44-.157l.391-7.853a1 1 0 0 1 1-.95zM12 1a1 1 0 0 1 1 1v5.577l5.063 2.923a1 1 0 0 1-1 1.732l-5.1-2.943-5.097 2.943a1 1 0 0 1-1-1.732L11 7.535V2a1 1 0 0 1 1-1"/></svg>
