<svg width="24" height="24" viewBox="0 0 24 24" xmlns="http://www.w3.org/2000/svg"><path fill-rule="evenodd" clip-rule="evenodd" d="M9.157 3c.225 0 .415.165.443.385l.795 6.236a1.8 1.8 0 0 1 .512.927l5.226 3.873c.182.135.234.38.12.572a.453.453 0 0 1-.564.183l-5.606-2.33.37 7.276h1.387V21H6.473v-.878h1.385l.373-7.305-5.61 2.323a.451.451 0 0 1-.561-.184.434.434 0 0 1 .117-.57l5.241-3.894a1.8 1.8 0 0 1 .5-.872l.795-6.235A.444.444 0 0 1 9.157 3zm0 3.979.275 2.162a1.792 1.792 0 0 0-.55 0l.275-2.162zM5.57 12.966l1.909-1.418c.069.186.167.357.29.508l-2.199.91zm7.139.018-2.182-.907c.122-.146.222-.313.293-.493l1.889 1.4zm-3.154 7.138-.399-7.012-.399 7.012h.798zm-.399-8.302a.897.897 0 0 0 .895-.9c0-.497-.4-.9-.895-.9a.897.897 0 0 0-.894.9c0 .497.4.9.894.9z"/><path fill-rule="evenodd" clip-rule="evenodd" d="m15.659 16.645.057-1.127a.774.774 0 0 0 .693-.208l-.076 1.335h.598l-.299-5.26-.166 2.916a.772.772 0 0 0-.144-.139l-.517-.383.133-2.613-2.346.972-.96-.711 2.697-2.005a1.35 1.35 0 0 1 .375-.653l.596-4.677a.333.333 0 0 1 .332-.289c.17 0 .312.124.333.289l.596 4.677c.191.184.328.425.384.695l3.92 2.905a.327.327 0 0 1 .09.429.34.34 0 0 1-.423.137l-4.205-1.747.278 5.457h1.04v.659H14.62v-.659h1.039zm1.18-8.236-.206-1.622-.207 1.622a1.343 1.343 0 0 1 .413 0zm-1.465 1.805-1.431 1.064 1.648-.683a1.35 1.35 0 0 1-.217-.38zm2.286.397 1.637.68-1.417-1.05a1.35 1.35 0 0 1-.22.37zm-.357-.868c0 .373-.3.675-.67.675a.673.673 0 0 1-.672-.675c0-.372.3-.675.671-.675.37 0 .671.303.671.675z"/></svg>
