<svg width="24" height="24" viewBox="0 0 24 24" xmlns="http://www.w3.org/2000/svg"><path d="M16.001 19.68c1.22.85 2.61 1.32 4 1.32h2v2h-2c-1.38 0-2.74-.34-4-.99-1.26.65-2.63.97-4 .97s-2.74-.33-4-.97c-1.26.64-2.62.99-4 .99h-2v-2h2c1.39 0 2.78-.47 4-1.32 1.22.85 2.61 1.28 4 1.28s2.78-.43 4-1.28M8.048 9a1 1 0 0 1 .999.951l.47 9.538A7.3 7.3 0 0 1 8 18.68a7.7 7.7 0 0 1-1.49.813c.178-3.177.306-6.358.446-9.537A1 1 0 0 1 7.955 9zm7.996 5a1 1 0 0 1 .999.954l.201 4.432a7.8 7.8 0 0 1-1.243-.706 7.3 7.3 0 0 1-1.245.697l.2-4.423a1 1 0 0 1 1-.954zM16 6.5a1 1 0 0 1 1 1v3.577l3.333 1.925a1 1 0 1 1-1 1.731l-3.37-1.945-3.372 1.948a1 1 0 0 1-1-1.731L15 11.036V7.5a1 1 0 0 1 1-1M8 1a1 1 0 0 1 1 1v4.076l3.753 2.168a1 1 0 0 1-1 1.733l-3.79-2.189-3.791 2.19a1 1 0 0 1-1-1.732L7 6.036V2a1 1 0 0 1 1-1"/></svg>
