<svg width="24" height="24" viewBox="0 0 24 24" xmlns="http://www.w3.org/2000/svg"><path fill-rule="evenodd" clip-rule="evenodd" d="M4 6.5c0-3.5 3.58-4 8-4s8 .5 8 4v10c0 .88-.39 1.67-1 2.22v1.78c0 .55-.45 1-1 1h-1c-.55 0-1-.45-1-1v-1H8v1c0 .55-.45 1-1 1H6c-.55 0-1-.45-1-1v-1.78c-.61-.55-1-1.34-1-2.22v-10zm8-2c-3.69 0-5.11.46-5.66.99h11.32c-.55-.53-1.97-.99-5.66-.99zm6 2.99v3.01H6V7.49h12zm-.63 10.01l.29-.27c.13-.11.34-.36.34-.73v-4H6v4c0 .37.21.62.34.73l.29.27h10.74zm-8.87-4a1.5 1.5 0 100 3 1.5 1.5 0 000-3zM14 15a1.5 1.5 0 113 0 1.5 1.5 0 01-3 0z"/></svg>