<svg width="24" height="24" viewBox="0 0 24 24" xmlns="http://www.w3.org/2000/svg"><path d="M7.533 2.977a4.567 4.567 0 00-4.556 4.556v8.889a4.567 4.567 0 004.556 4.556h8.889a4.567 4.567 0 004.556-4.556V7.533a4.567 4.567 0 00-4.556-4.556H7.533zm0 2h8.889a2.522 2.522 0 012.556 2.556v8.889a2.522 2.522 0 01-2.556 2.556H7.533a2.522 2.522 0 01-2.556-2.556V7.533a2.522 2.522 0 012.556-2.556zM6.5 9a.5.5 0 100 1 .5.5 0 000-1zm4 0C8.961 9 8 10.152 8 12c0 1.844.943 3 2.5 3 1.553 0 2.5-1.16 2.5-3 0-1.844-.954-3-2.5-3zM16 9c-.558 0-1.07.18-1.435.53-.366.348-.565.853-.565 1.398 0 .53.354.96.727 1.164.372.204.774.29 1.142.39.386.105.735.2.924.303.189.104.207.107.207.287 0 .317-.097.527-.254.676-.157.15-.396.252-.746.252-.324 0-.566-.093-.727-.242-.16-.15-.273-.367-.273-.758h-1c0 .61.216 1.141.594 1.492S15.479 15 16 15c.558 0 1.07-.179 1.436-.527.366-.349.564-.855.564-1.4 0-.531-.354-.96-.727-1.165-.372-.204-.774-.29-1.142-.39-.385-.105-.735-.2-.924-.303-.189-.104-.207-.108-.207-.287 0-.316.097-.526.254-.676.157-.15.396-.252.746-.252.324 0 .566.093.727.242.16.15.273.367.273.758h1c0-.61-.216-1.141-.594-1.492S16.521 9 16 9zm-5.5 1c1.305 0 1.5 1.253 1.5 2 0 .747-.195 2-1.5 2C9.26 14 9 12.912 9 12c0-.747.195-2 1.5-2zM6 11v4h1v-4H6z"/></svg>