<svg style="display: none;" xmlns="http://www.w3.org/2000/svg" xmlns:xlink="http://www.w3.org/1999/xlink">
<style>
use,use:target~use:last-child { display: none; }
use:target,use:last-child { display: inline; }
</style>
<defs><symbol id="breifcase" viewBox="0 0 24 24"><path fill-rule="evenodd" clip-rule="evenodd" d="M20 7h-4V5l-2-2h-4L8 5v2H4c-1.1 0-2 .9-2 2v5c0 .75.4 1.38 1 1.73V19c0 1.11.89 2 2 2h14c1.11 0 2-.89 2-2v-3.28c.59-.35 1-.99 1-1.72V9c0-1.1-.9-2-2-2zM10 5h4v2h-4V5zm10 4H4v5h5v-3h6v3h5V9zm-7 6h-2v-2h2v2zm-8 4h14v-3h-4v1H9v-1H5v3z"/></symbol></defs><use id="medium" xlink:href="#breifcase" />
</svg>
