<svg style="display: none;" xmlns="http://www.w3.org/2000/svg" xmlns:xlink="http://www.w3.org/1999/xlink">
<style>
use,
use:target~use:last-child { display: none; }
use:target,
use:last-child { display: inline; }
</style><defs><symbol id="coffee" viewBox="0 0 24 24"><path fill-rule="evenodd" clip-rule="evenodd" d="M4 3h16c1.11 0 2 .89 2 2v3c0 1.11-.89 2-2 2h-2v3c0 2.21-1.79 4-4 4H8c-2.21 0-4-1.79-4-4V3zm12 10V5H6v8c0 1.1.9 2 2 2h6c1.1 0 2-.9 2-2zm2-5V5h2v3h-2zM2 19h18v2H2v-2z"/></symbol></defs><use id="medium" xlink:href="#coffee" /></svg>