<svg width="24" height="24" viewBox="0 0 24 24" xmlns="http://www.w3.org/2000/svg"><path fill-rule="evenodd" clip-rule="evenodd" d="m22.292 15.7-4.96-11.97a2.01 2.01 0 0 0-1.81-1.23c-.26 0-.53.04-.79.15L7.362 5.7a2 2 0 0 0-1.08 2.6l4.96 11.97a2 2 0 0 0 2.6 1.08l7.36-3.05a1.994 1.994 0 0 0 1.09-2.6m-19.5 3.7 1.34.56v-9.03l-2.43 5.86c-.41 1.02.08 2.19 1.09 2.61m5.34-11.86 4.96 11.96 7.35-3.05-4.95-11.95h-.01zm3.13.21a1 1 0 1 0 0 2 1 1 0 0 0 0-2M8.142 21.5c-1.1 0-2-.9-2-2v-6.34l3.45 8.34z"/></svg>
