<svg width="24" height="24" viewBox="0 0 24 24" xmlns="http://www.w3.org/2000/svg"><path fill-rule="evenodd" clip-rule="evenodd" d="M8.164 3.445l-.46.38-1.42-1.42.6-.5 1.28 1.54zm9.397-1.54l4.607 3.844-1.281 1.536-4.608-3.843 1.282-1.536zm-7.297 4.48c.62-.18 1.28-.29 1.96-.29 3.86 0 7 3.14 7 7 0 .68-.11 1.34-.29 1.96l1.56 1.56c.47-1.08.73-2.27.73-3.52a9 9 0 00-12.53-8.28l1.57 1.57zm-8.43-2.78l1.41-1.41 18.38 18.39-1.41 1.41-2.1-2.1a8.964 8.964 0 01-5.89 2.2 9 9 0 01-9-9c0-2.25.83-4.31 2.2-5.89l-.8-.8-1.06.88-1.28-1.54.92-.77-1.37-1.37zm10.39 16.49c-3.86 0-7-3.14-7-7 0-1.7.61-3.26 1.62-4.47l9.85 9.85a6.956 6.956 0 01-4.47 1.62z"/></svg>