<svg width="24" height="24" viewBox="0 0 24 24" xmlns="http://www.w3.org/2000/svg"><path d="M2 2h3L2 4zM3 4l3-2h3L6 4zM7 4h3l3-2h-3zM14 4h-3l3-2h3zM15 4h3l3-2h-3zM22 4h-3l3-2z"/><path fill-rule="evenodd" clip-rule="evenodd" d="M12 5a1.22 1.22 0 0 0-1.196.98L10 10H3.221a1 1 0 0 0-.98 1.198l1.818 9a1 1 0 0 0 .98.802h13.92a1 1 0 0 0 .98-.802l1.818-9a1 1 0 0 0-.98-1.198H14l-.804-4.02A1.22 1.22 0 0 0 12 5m-7.635 7H9.6l-1.4 7H5.637zm6.646 0L9.69 19h4.622l-1.322-7zm7.32 7H15.8l-1.4-7h5.238zM12 6.765 11.389 10h1.222z"/></svg>
