<svg width="24" height="24" viewBox="0 0 24 24" xmlns="http://www.w3.org/2000/svg"><path fill-rule="evenodd" clip-rule="evenodd" d="M10.804 2.98a1.22 1.22 0 0 1 2.392 0L14 7h6.777a1 1 0 0 1 .98 1.198l-1.818 9a1 1 0 0 1-.98.802H5.038a1 1 0 0 1-.98-.802l-1.818-9A1 1 0 0 1 3.22 7H10zM9.6 9H4.365l1.272 7H8.2zm.089 7 1.322-7h1.978l1.322 7zm6.111 0h2.53l1.308-7H14.4zm-4.411-9L12 3.765 12.611 7z"/><path d="M8 20a1.5 1.5 0 1 1-3 0 1.5 1.5 0 0 1 3 0M17.5 21.5a1.5 1.5 0 1 0 0-3 1.5 1.5 0 0 0 0 3"/></svg>
