<svg width="24" height="24" viewBox="0 0 24 24" xmlns="http://www.w3.org/2000/svg"><path fill-rule="evenodd" clip-rule="evenodd" d="M12 22c5.523 0 10-4.477 10-10S17.523 2 12 2 2 6.477 2 12s4.477 10 10 10m0-2a8 8 0 1 0 0-16 8 8 0 0 0 0 16m0-4a4 4 0 1 0 0-8 4 4 0 0 0 0 8m0-2a2 2 0 1 0 0-4 2 2 0 0 0 0 4m1-8a1 1 0 1 1-2 0 1 1 0 0 1 2 0m4 2a1 1 0 1 1-2 0 1 1 0 0 1 2 0m0 8a1 1 0 1 1-2 0 1 1 0 0 1 2 0m-8 0a1 1 0 1 1-2 0 1 1 0 0 1 2 0m0-8a1 1 0 1 1-2 0 1 1 0 0 1 2 0m10 4a1 1 0 1 1-2 0 1 1 0 0 1 2 0M7 12a1 1 0 1 1-2 0 1 1 0 0 1 2 0m6 6a1 1 0 1 1-2 0 1 1 0 0 1 2 0"/></svg>
