<svg style="display: none;" xmlns="http://www.w3.org/2000/svg" xmlns:xlink="http://www.w3.org/1999/xlink">
<style>
use,use:target~use:last-child { display: none; }
use:target,use:last-child { display: inline; }
</style>
<defs><symbol id="bearing" viewBox="0 0 24 24"><path fill-rule="evenodd" clip-rule="evenodd" d="M12 22c5.523 0 10-4.477 10-10S17.523 2 12 2 2 6.477 2 12s4.477 10 10 10zm0-2a8 8 0 1 0 0-16 8 8 0 0 0 0 16zm0-4a4 4 0 1 0 0-8 4 4 0 0 0 0 8zm0-2a2 2 0 1 0 0-4 2 2 0 0 0 0 4zm1-8a1 1 0 1 1-2 0 1 1 0 0 1 2 0zm4 2a1 1 0 1 1-2 0 1 1 0 0 1 2 0zm0 8a1 1 0 1 1-2 0 1 1 0 0 1 2 0zm-8 0a1 1 0 1 1-2 0 1 1 0 0 1 2 0zm0-8a1 1 0 1 1-2 0 1 1 0 0 1 2 0zm10 4a1 1 0 1 1-2 0 1 1 0 0 1 2 0zM7 12a1 1 0 1 1-2 0 1 1 0 0 1 2 0zm6 6a1 1 0 1 1-2 0 1 1 0 0 1 2 0z"/></symbol></defs><use id="medium" xlink:href="#bearing" />
</svg>
