<svg style="display: none;" xmlns="http://www.w3.org/2000/svg" xmlns:xlink="http://www.w3.org/1999/xlink">
<style>
use,use:target~use:last-child { display: none; }
use:target,use:last-child { display: inline; }
</style>
<defs><symbol id="cable" viewBox="0 0 24 24"><path fill-rule="evenodd" clip-rule="evenodd" d="M7 4.5a1 1 0 0 0-2 0v4a1 1 0 1 0 2 0v-4zm10.25-.75A4.75 4.75 0 0 0 12.5 8.5v6.75a2.75 2.75 0 1 1-5.5 0V11.5a1 1 0 1 0-2 0v3.75a4.75 4.75 0 1 0 9.5 0V8.5a2.75 2.75 0 0 1 5.5 0V19a1 1 0 0 0 2 0V8.5a4.75 4.75 0 0 0-4.75-4.75zM1.293 7.793a1 1 0 0 1 1.414 0l1.414 1.414a1 1 0 1 1-1.414 1.414L1.293 9.207a1 1 0 0 1 0-1.414zm8 0a1 1 0 0 1 1.414 1.414l-1.414 1.414a1 1 0 0 1-1.415-1.414l1.415-1.414z"/></symbol></defs><use id="medium" xlink:href="#cable" />
</svg>
