<svg width="24" height="24" viewBox="0 0 24 24" xmlns="http://www.w3.org/2000/svg"><path fill-rule="evenodd" clip-rule="evenodd" d="M7 4.5a1 1 0 0 0-2 0v4a1 1 0 1 0 2 0zm10.25-.75A4.75 4.75 0 0 0 12.5 8.5v6.75a2.75 2.75 0 1 1-5.5 0V11.5a1 1 0 1 0-2 0v3.75a4.75 4.75 0 1 0 9.5 0V8.5a2.75 2.75 0 0 1 5.5 0V19a1 1 0 0 0 2 0V8.5a4.75 4.75 0 0 0-4.75-4.75M1.293 7.793a1 1 0 0 1 1.414 0l1.414 1.414a1 1 0 1 1-1.414 1.414L1.293 9.207a1 1 0 0 1 0-1.414m8 0a1 1 0 0 1 1.414 1.414l-1.414 1.414a1 1 0 0 1-1.415-1.414z"/></svg>
