<svg style="display: none;" xmlns="http://www.w3.org/2000/svg" xmlns:xlink="http://www.w3.org/1999/xlink">
<style>
use,use:target~use:last-child { display: none; }
use:target,use:last-child { display: inline; }
</style>
<defs><symbol id="circuit" viewBox="0 0 24 24"><path fill-rule="evenodd" clip-rule="evenodd" d="M12 2a1 1 0 0 0-1 1v4a1 1 0 0 0 2 0V3a1 1 0 0 0-1-1zM4.707 5.707a1 1 0 0 0 0 1.414l3.847 3.847a4.002 4.002 0 0 0 2.454 5.908A.998.998 0 0 0 11 17v4a1 1 0 0 0 2 0v-4a.998.998 0 0 0-.008-.124 4.002 4.002 0 1 0-3.024-7.322L6.12 5.707a1 1 0 0 0-1.414 0zM14 13a2 2 0 1 1-4 0 2 2 0 0 1 4 0z"/></symbol></defs><use id="medium" xlink:href="#circuit" />
</svg>
