<svg width="24" height="24" viewBox="0 0 24 24" xmlns="http://www.w3.org/2000/svg"><path fill-rule="evenodd" clip-rule="evenodd" d="M8 17c-.6 0-1-.5-1-1V4c0-.5.4-1 1-1s1 .5 1 1v1.1h9c2.2 0 4 1.8 4 4v9.007c.465.06.9.526.9.993 0 .566-.356.954-.9.996v.004h-9.1c-.5 0-1-.4-1-1s.4-1 1-1h.1v-3H9v.9c0 .5-.5 1-1 1m12 1.1h-5v-3c0-1.1-.9-2-2-2H9v-6h9c1.1 0 2 .9 2 2zM2.9 6.7c.4-.4.9-.6 1.4-.6.938 0 1.613.705 1.775.874L6.1 7 4.6 8.3c-.1-.1-.2-.2-.3-.2-.4.5-.9.6-1.3.6h-.2c-1-.1-1.7-1-1.8-1.2l1.7-1.1c0 .1.1.2.2.3m0 2.9c.4-.4.9-.6 1.4-.6.938 0 1.613.705 1.775.874L6.1 9.9l-1.5 1.3c-.1-.1-.2-.2-.3-.2-.4.5-.9.6-1.3.6h-.2c-1-.1-1.7-1-1.8-1.2l1.7-1.2c0 .1.1.3.2.4m1.4 2.2c-.5 0-1 .2-1.4.6-.1-.1-.2-.2-.2-.3L1 13.2c.1.2.8 1.1 1.8 1.2H3c.4 0 .9-.1 1.3-.6.1 0 .2.1.3.2l1.5-1.3-.025-.026c-.162-.17-.837-.874-1.775-.874"/></svg>
