<svg width="24" height="24" viewBox="0 0 24 24" xmlns="http://www.w3.org/2000/svg"><path d="M5.34 22.061c-2.01 0-3.3-1.38-3.3-3.5 0-1.03-.03-10.66-.04-13.5 0-.55.44-1 1-1 .55 0 1 .44 1 .99.01 2.84.04 12.47.04 13.5 0 1.5.95 1.5 1.3 1.5 1.08 0 1.17-1.42 1.17-1.43v-1.15c0-3.04-.01-11.11 0-11.92.02-.78.32-1.88 1.13-2.66.63-.6 1.43-.9 2.35-.88 2.17.05 2.99 2.16 3.01 3.57v3.68c-.01 3.33-.01 8.92 0 9.29.07 1.31.7 1.5 1.3 1.5h.02c.64 0 1.1-.26 1.25-1.47l.01-.11c.03-.5 0-8.74-.01-11.44v-1.45c0-1.41.86-3.53 3.23-3.58.79-.02 1.51.26 2.06.8.9.88 1.14 2.22 1.14 2.8v13.47c0 .55-.45 1-1 1s-1-.45-1-1V5.601c0-.19-.13-.97-.53-1.36-.17-.16-.34-.25-.62-.23-1.23.03-1.27 1.42-1.27 1.58v1.44c.04 10.56.02 11.55-.02 11.75-.37 2.99-2.41 3.29-3.28 3.28-1.94-.02-3.17-1.29-3.28-3.4-.02-.35-.01-4.29 0-9.4v-3.64c0-.02-.05-1.59-1.06-1.61-.38-.02-.67.1-.91.32-.34.33-.51.89-.52 1.26-.02.79-.01 8.85 0 11.88v1.16c0 1.43-.98 3.43-3.17 3.43"/></svg>
