<svg width="24" height="24" viewBox="0 0 24 24" xmlns="http://www.w3.org/2000/svg"><path fill-rule="evenodd" clip-rule="evenodd" d="M19 11c0-3.9-3.1-7-7-7s-7 3.1-7 7c0 1.818.673 3.461 1.787 4.699a9.1 9.1 0 0 1 4.355-1.65L15 7.2c.3-.5.9-.7 1.4-.4s.7.9.4 1.4l-3.33 5.912a9.2 9.2 0 0 1 3.777 1.548A6.99 6.99 0 0 0 19 11m-3.36 5.997C14.618 16.352 13.36 16 12.1 16c-1.344 0-2.577.39-3.657 1.047A7 7 0 0 0 12 18a7 7 0 0 0 3.64-1.003M3 11c0-5 4-9 9-9s9 4 9 9a8.96 8.96 0 0 1-8 8.946V21c0 .6-.4 1-1 1s-1-.4-1-1v-1.054A8.96 8.96 0 0 1 3 11"/></svg>
