<svg width="24" height="24" viewBox="0 0 24 24" xmlns="http://www.w3.org/2000/svg"><mask id="a"><path fill-rule="evenodd" clip-rule="evenodd" d="M1.01 7.796A2 2 0 0 1 3 6h2a2 2 0 0 1 2 2h10a2 2 0 0 1 2-2h2a2 2 0 0 1 2 2v8a2 2 0 0 1-2 2h-2a2 2 0 0 1-2-2H7a2 2 0 0 1-2 2H3a2 2 0 0 1-2-2V8c0-.069.004-.137.01-.204zM17 14v-4H7v4h10zm2 2h2V8h-2v8zM3 8v8h2V8H3z"/></mask><path fill-rule="evenodd" clip-rule="evenodd" d="M1.01 7.796A2 2 0 0 1 3 6h2a2 2 0 0 1 2 2h10a2 2 0 0 1 2-2h2a2 2 0 0 1 2 2v8a2 2 0 0 1-2 2h-2a2 2 0 0 1-2-2H7a2 2 0 0 1-2 2H3a2 2 0 0 1-2-2V8c0-.069.004-.137.01-.204zM17 14v-4H7v4h10zm2 2h2V8h-2v8zM3 8v8h2V8H3z"/><path d="m1.01 7.796-.995-.102.995.102zM7 8H6v1h1V8zm10 0v1h1V8h-1zm.01-.204.995.1-.995-.1zm5.95-.2-.98.201.98-.2zM19 18v1-1zm-2-2h1v-1h-1v1zM7 16v-1H6v1h1zm-4.204 1.99.1-.995-.1.995zM17 14v1h1v-1h-1zm0-4h1V9h-1v1zM7 10V9H6v1h1zm0 4H6v1h1v-1zm12 2h-1v1h1v-1zm2 0v1h1v-1h-1zm0-8h1V7h-1v1zm-2 0V7h-1v1h1zM3 16H2v1h1v-1zm0-8V7H2v1h1zm2 8v1h1v-1H5zm0-8h1V7H5v1zM3 5A3 3 0 0 0 .015 7.694l1.99.203A1 1 0 0 1 3 7V5zm2 0H3v2h2V5zm3 3a3 3 0 0 0-3-3v2a1 1 0 0 1 1 1h2zm9-1H7v2h10V7zm-.985.694c-.01.101-.015.203-.015.306h2c0-.035.002-.07.005-.103l-1.99-.203zM19 5a3 3 0 0 0-2.985 2.694l1.99.203A1 1 0 0 1 19 7V5zm2 0h-2v2h2V5zm2.94 2.396A3 3 0 0 0 21 5v2a1 1 0 0 1 .98.797l1.96-.4zM24 8c0-.206-.02-.408-.06-.604l-1.96.401c.013.065.02.133.02.203h2zm0 8V8h-2v8h2zm-3 3a3 3 0 0 0 3-3h-2a1 1 0 0 1-1 1v2zm-2 0h2v-2h-2v2zm-3-3a3 3 0 0 0 3 3v-2a1 1 0 0 1-1-1h-2zm-9 1h10v-2H7v2zm-2 2a3 3 0 0 0 3-3H6a1 1 0 0 1-1 1v2zm-2 0h2v-2H3v2zm-.306-.015c.101.01.203.015.306.015v-2a1.03 1.03 0 0 1-.103-.005l-.203 1.99zM0 16a3 3 0 0 0 2.694 2.985l.203-1.99A1 1 0 0 1 2 16H0zm0-8v8h2V8H0zm.015-.306C.005 7.795 0 7.897 0 8h2c0-.035.002-.07.005-.103l-1.99-.203zM18 14v-4h-2v4h2zm-1-5H7v2h10V9zM6 10v4h2v-4H6zm1 5h10v-2H7v2zm12 2h2v-2h-2v2zm3-1V8h-2v8h2zm-1-9h-2v2h2V7zm-3 1v2h2V8h-2zm0 2v4h2v-4h-2zm0 4v2h2v-2h-2zM4 16V8H2v8h2zm1-1H3v2h2v-2zm-1-1v2h2v-2H4zm0-4v4h2v-4H4zm0-2v2h2V8H4zM3 9h2V7H3v2z" mask="url(#a)"/></svg>