<svg width="24" height="24" viewBox="0 0 24 24" xmlns="http://www.w3.org/2000/svg"><path fill-rule="evenodd" clip-rule="evenodd" d="M16.201 19.117C15.016 20.404 13.654 21 12 21s-3.016-.596-4.201-1.883C6.606 17.82 6 16.264 6 14.328c0-1.566.397-2.784 1.108-3.76.805-1.105 2.427-3.209 4.883-6.328 2.464 3.162 4.098 5.286 4.913 6.383.699.942 1.096 2.138 1.096 3.706 0 1.935-.606 3.49-1.799 4.788M5.491 9.39q1.292-1.775 5.233-6.775L12 1l1.267 1.623q3.948 5.066 5.242 6.808Q20 11.438 20 14.329q0 3.613-2.327 6.142T12 23t-5.673-2.53Q4 17.943 4 14.33q0-2.892 1.49-4.938M8.5 13a.5.5 0 0 0-1 0c0 1.233.127 2.437.604 3.54.482 1.114 1.306 2.09 2.639 2.889a.5.5 0 1 0 .514-.858c-1.167-.7-1.843-1.52-2.236-2.429-.398-.92-.521-1.967-.521-3.142"/></svg>
