<svg style="display: none;" xmlns="http://www.w3.org/2000/svg" xmlns:xlink="http://www.w3.org/1999/xlink">
<style>
use,
use:target~use:last-child { display: none; }
use:target,
use:last-child { display: inline; }
</style><defs><symbol id="platform" viewBox="0 0 24 24"><path fill-rule="evenodd" clip-rule="evenodd" d="M7 8h2v5H7V8zm1-5v3H6a1 1 0 0 0-1 1v7a1 1 0 0 0 1 1h4a1 1 0 0 0 1-1V3a1 1 0 0 0-1-1H9a1 1 0 0 0-1 1zm12 15v-2H4v2h3v4h2v-4h6v4h2v-4h3zm-6-5h3v-1.955l-3-1.143V13zm-2 1V8.451a1 1 0 0 1 1.356-.934l5 1.904a1 1 0 0 1 .644.935V14a1 1 0 0 1-1 1h-5a1 1 0 0 1-1-1z"/></symbol></defs><use id="medium" xlink:href="#platform" /></svg>