<svg style="display: none;" xmlns="http://www.w3.org/2000/svg" xmlns:xlink="http://www.w3.org/1999/xlink">
<style>
use,
use:target~use:last-child { display: none; }
use:target,
use:last-child { display: inline; }
</style><defs><symbol id="pressure" viewBox="0 0 24 24"><path fill-rule="evenodd" clip-rule="evenodd" d="M16.046 2.867c.101.045.144.164.097.264l-.68 1.448a.204.204 0 0 1-.268.098 8 8 0 0 0-6.448.003.204.204 0 0 1-.268-.098l-.681-1.448a.197.197 0 0 1 .096-.264 10 10 0 0 1 8.152-.003zm5.85 7.894a.197.197 0 0 1-.176.22l-1.591.166a.204.204 0 0 1-.223-.178 8 8 0 0 0-3.337-5.517.204.204 0 0 1-.055-.28L17.4 3.84a.197.197 0 0 1 .276-.054 9.999 9.999 0 0 1 4.22 6.975zm-19.67.215a.197.197 0 0 1-.175-.22 10 10 0 0 1 4.223-6.973.197.197 0 0 1 .276.054l.885 1.333a.204.204 0 0 1-.054.28 8 8 0 0 0-3.34 5.515.204.204 0 0 1-.223.178l-1.591-.167zM6 20h-.027a10.001 10.001 0 0 1-3.972-7.26.197.197 0 0 1 .186-.21l1.598-.087a.204.204 0 0 1 .213.19A8 8 0 0 0 8.1 19h7.746a8 8 0 0 0 4.102-6.368.204.204 0 0 1 .213-.189l1.598.087c.11.006.195.1.187.21A10.001 10.001 0 0 1 17.973 20h-.027a.197.197 0 0 1-.053.06c-.478.35-.986.659-1.52.92a.198.198 0 0 1-.087.02H7.66a.198.198 0 0 1-.087-.02 9.998 9.998 0 0 1-1.52-.92A.195.195 0 0 1 6 20zm5.811-12.964a.5.5 0 0 0-.388.416l-.693 4.776a2 2 0 1 0 2.486 0l-.693-4.776a.5.5 0 0 0-.388-.416l-.055-.012a.5.5 0 0 0-.214 0l-.055.012z"/></symbol></defs><use id="medium" xlink:href="#pressure" /></svg>