<svg width="24" height="24" viewBox="0 0 24 24" xmlns="http://www.w3.org/2000/svg"><path fill-rule="evenodd" clip-rule="evenodd" d="m13.168 1-.648 1.794c.057.019 5.96 2.203 8.716 8.939L23 11.008C19.92 3.5 13.435 1.095 13.168 1m-.82 5.104.495-1.841c.182.047 4.454 1.23 6.876 6.716l-1.745.773c-2.04-4.608-5.483-5.61-5.626-5.648m4.11 5.505-1.802.63c-.85-2.424-2.546-2.738-2.623-2.748l.277-1.889c.135.02 2.901.446 4.148 4.007m-3.49 2.614c0 .391-.086.754-.22 1.097l4.244 4.16a1.18 1.18 0 0 1-.153 1.793c-1.583 1.126-3.585 1.718-5.645 1.718-2.556 0-5.197-.916-7.19-2.872C.408 16.6.16 10.903 2.62 7.316c.229-.334.6-.515.972-.515.296 0 .582.105.811.334l4.253 4.178a3 3 0 0 1 1.173-.229 3.14 3.14 0 0 1 3.138 3.14m-7.63 4.541c1.526 1.498 3.605 2.328 5.856 2.328 1.363 0 2.68-.324 3.776-.906l-3.414-3.349-1.459-1.44c.544-.134.954-.601.954-1.183 0-.678-.553-1.231-1.23-1.231-.592 0-1.059.43-1.183.983l-.858-.85-4.034-3.959c-1.364 2.729-1.182 6.888 1.593 9.607"/></svg>
