<svg style="display: none;" xmlns="http://www.w3.org/2000/svg" xmlns:xlink="http://www.w3.org/1999/xlink">
<style>
use,use:target~use:last-child { display: none; }
use:target,use:last-child { display: inline; }
</style>
<defs><symbol id="all_out" viewBox="0 0 24 24"><path fill-rule="evenodd" clip-rule="evenodd" d="M4 8V4h4L4 8zm16 0-4-4h4v4zm0 12v-4l-4 4h4zM8 20H4v-4l4 4zm11-8c0-3.87-3.13-7-7-7s-7 3.13-7 7 3.13 7 7 7 7-3.13 7-7zM7 12c0 2.76 2.24 5 5 5s5-2.24 5-5-2.24-5-5-5-5 2.24-5 5z"/></symbol></defs><use id="medium" xlink:href="#all_out" />
</svg>
