<svg style="display: none;" xmlns="http://www.w3.org/2000/svg" xmlns:xlink="http://www.w3.org/1999/xlink">
<style>
use,
use:target~use:last-child { display: none; }
use:target,
use:last-child { display: inline; }
</style><defs><symbol id="fault" viewBox="0 0 24 24"><path fill-rule="evenodd" clip-rule="evenodd" d="m18.752 10.1-2.107 3.65-2.126 3.715 4.729-2.172-1.562-.926 1.054-1.825 1.053-1.825-1.041-.617zM4.602 13.9l2.107-3.65 2.126-3.715-4.73 2.172 1.563.926-1.054 1.825-1.054 1.825 1.042.617zM11.618 5H3V3h10.353a1 1 0 0 1 .865 1.501l-7.53 13a1 1 0 0 1-.864.499H3v-2h2.247l6.371-11zM11.735 19h8.619v2H10a1 1 0 0 1-.866-1.501l7.53-13A1 1 0 0 1 17.53 6h2.823v2h-2.247l-6.37 11z"/></symbol></defs><use id="medium" xlink:href="#fault" /></svg>