<svg style="display: none;" xmlns="http://www.w3.org/2000/svg" xmlns:xlink="http://www.w3.org/1999/xlink">
<style>
use,use:target~use:last-child { display: none; }
use:target,use:last-child { display: inline; }
</style>
<defs><symbol id="focus_center" viewBox="0 0 24 24"><path fill-rule="evenodd" clip-rule="evenodd" d="M5 5h4V3H5c-1.1 0-2 .9-2 2v4h2V5zm0 10H3v4c0 1.1.9 2 2 2h4v-2H5v-4zM15 3h4c1.1 0 2 .9 2 2v4h-2V5h-4V3zm4 16h-4v2h4c1.1 0 2-.9 2-2v-4h-2v4zM9 12c0-1.66 1.34-3 3-3s3 1.34 3 3-1.34 3-3 3-3-1.34-3-3z"/></symbol></defs><use id="medium" xlink:href="#focus_center" />
</svg>
