<svg style="display: none;" xmlns="http://www.w3.org/2000/svg" xmlns:xlink="http://www.w3.org/1999/xlink">
<style>
use,
use:target~use:last-child { display: none; }
use:target,
use:last-child { display: inline; }
</style><defs><symbol id="grid_layers" viewBox="0 0 24 24"><path fill-rule="evenodd" clip-rule="evenodd" d="m12 16.465 7.36-5.73L21 9.465l-9-7-9 7 1.63 1.27 7.37 5.73zm-.01 2.54-7.37-5.73L3 14.535l9 7 9-7-1.63-1.27-7.38 5.74zm1.997-12.463L12 4.995 9.885 6.642l2.118 1.553 1.984-1.653zM15.602 7.8l2.138 1.665-1.943 1.513-2.132-1.564L15.602 7.8zM10.42 9.515 8.245 7.919 6.26 9.465l2.181 1.699 1.98-1.65zm-.364 2.906 2.026-1.688 2.075 1.522L12 13.935l-1.944-1.514z"/></symbol></defs><use id="medium" xlink:href="#grid_layers" /></svg>