<svg width="24" height="24" viewBox="0 0 24 24" xmlns="http://www.w3.org/2000/svg"><path fill-rule="evenodd" clip-rule="evenodd" d="M20 2c1.1 0 2 .9 2 2v14.91l-2-2V16h-.911l-2.001-2H20v-4h-4v2.912l-2-1.999V10h-.914l-2.001-2H14V4h-4v2.914L8 4.915V4h-.916L5.083 2zm-4 6h4V4h-4zM22.87 22.59 21.458 24l-.093-.092.003-.002L19.462 22H4c-1.1 0-2-.9-2-2V4.546l-2-2L1.41 1.14zM4 14h4v-3.457L7.457 10H4zm0 6h4v-4H4zM4 8V6.545L5.456 8zm10 12h-4v-4h3.46l.54.54zm-4-6v-1.458L11.458 14zm6 6v-1.46L17.461 20z"/></svg>
