<svg style="display: none;" xmlns="http://www.w3.org/2000/svg" xmlns:xlink="http://www.w3.org/1999/xlink">
<style>
use,
use:target~use:last-child { display: none; }
use:target,
use:last-child { display: inline; }
</style><defs><symbol id="hill_shading" viewBox="0 0 24 24"><path fill-rule="evenodd" clip-rule="evenodd" d="M14 3 9.78 8.63l1.25 1.67L14 6.33 19 13h-8.46L6.53 7.63 1 15h22L14 3zM5 13l1.52-2.03L8.04 13H5zm-2 6.5L2 17h2l1 2.5H3zM8 21l-2-4h2l2 4H8zm2-4 1 2.5h2L12 17h-2zm4 0h2l2.5 5h-2L14 17zm4 0 2 4h2l-2-4h-2z"/></symbol></defs><use id="medium" xlink:href="#hill_shading" /></svg>