<svg width="24" height="24" viewBox="0 0 24 24" xmlns="http://www.w3.org/2000/svg"><path fill-rule="evenodd" clip-rule="evenodd" d="M7.261 6.035c-.482.012-.758.148-.919.308-.3.3-.505 1.064-.018 2.5.457 1.346 1.436 2.969 2.865 4.553L10.585 12v4.243H6.342l1.431-1.43-.033-.037C6.16 13.034 5 11.165 4.43 9.486c-.542-1.6-.658-3.4.498-4.557.62-.62 1.445-.873 2.284-.893.831-.021 1.736.18 2.646.53.692.267 1.413.629 2.141 1.076.859-.527 1.708-.937 2.515-1.21 1.599-.543 3.4-.66 4.556.497.62.62.873 1.445.894 2.283.02.832-.182 1.737-.531 2.647A13 13 0 0 1 18.358 12c.447.728.808 1.45 1.075 2.141.35.91.551 1.815.53 2.647-.02.839-.272 1.663-.893 2.283-.666.667-1.564.907-2.467.895-.898-.013-1.88-.272-2.865-.697l.791-1.836c.834.359 1.549.525 2.101.533.548.007.855-.138 1.026-.309.16-.16.296-.437.308-.919.012-.489-.108-1.125-.398-1.879q-.195-.508-.481-1.054a21 21 0 0 1-1.55 1.73c-1.833 1.833-3.855 3.198-5.677 3.898-.91.35-1.815.552-2.647.532-.838-.021-1.662-.273-2.283-.894-.666-.666-.907-1.565-.894-2.467.012-.898.271-1.88.696-2.865l1.837.791c-.36.834-.526 1.549-.534 2.101-.007.548.138.855.31 1.026.16.16.436.296.918.308.49.012 1.125-.108 1.88-.398 1.504-.58 3.297-1.764 4.98-3.446a18.4 18.4 0 0 0 1.827-2.12 18.5 18.5 0 0 0-1.828-2.122A18.4 18.4 0 0 0 12 8.05q-.698.51-1.397 1.139L12 10.586H7.757V6.343l1.43 1.43.037-.032q.48-.435.97-.827-.546-.285-1.054-.48c-.754-.29-1.39-.411-1.879-.399m6.543.88c.587.468 1.168.987 1.73 1.55a21 21 0 0 1 1.55 1.73q.287-.546.482-1.054c.29-.754.41-1.39.398-1.879-.012-.482-.148-.758-.308-.919-.3-.3-1.063-.505-2.5-.018a9.6 9.6 0 0 0-1.352.59"/></svg>
