<svg style="display: none;" xmlns="http://www.w3.org/2000/svg" xmlns:xlink="http://www.w3.org/1999/xlink">
<style>
use,use:target~use:last-child { display: none; }
use:target,use:last-child { display: inline; }
</style>
<defs><symbol id="invert" viewBox="0 0 24 24"><path fill-rule="evenodd" clip-rule="evenodd" d="M11.553 2.106a1 1 0 0 1 .894 0l8 4A1 1 0 0 1 21 7v10a1 1 0 0 1-.553.894l-8 4a1 1 0 0 1-.894 0l-8-4A1 1 0 0 1 3 17V7a1 1 0 0 1 .553-.894l8-4zM5 8.618 12 12v7.882l-7-3.5V8.618zm7 1.264L6.236 7 12 4.118v5.764z"/></symbol></defs><use id="medium" xlink:href="#invert" />
</svg>
