<svg style="display: none;" xmlns="http://www.w3.org/2000/svg" xmlns:xlink="http://www.w3.org/1999/xlink">
<style>
use,use:target~use:last-child { display: none; }
use:target,use:last-child { display: inline; }
</style>
<defs><symbol id="layers_off" viewBox="0 0 24 24"><path fill-rule="evenodd" clip-rule="evenodd" d="m3.34 1.895-1.41 1.41 4.22 4.22-3.22 2.51 9 7 2.1-1.63 1.42 1.42-3.53 2.75-7.37-5.73-1.62 1.26 9 7 4.95-3.85 3.78 3.78 1.41-1.41L3.34 1.895zm14.33 8.14-5.74-4.47-1.17.91-1.42-1.42 2.59-2.02 9 7-3.72 2.89-1.43-1.42 1.89-1.47zm1.63 3.8 1.63 1.27-.87.68-1.43-1.43.67-.52zm-13.11-3.8 5.74 4.47.67-.53-5.02-5.02-1.39 1.08z"/></symbol></defs><use id="medium" xlink:href="#layers_off" />
</svg>
