<svg style="display: none;" xmlns="http://www.w3.org/2000/svg" xmlns:xlink="http://www.w3.org/1999/xlink">
<style>
use,use:target~use:last-child { display: none; }
use:target,use:last-child { display: inline; }
</style>
<defs><symbol id="miniplayer_fullscreen" viewBox="0 0 24 24"><path fill-rule="evenodd" clip-rule="evenodd" d="M3 2h18c1.1 0 2 .9 2 2v12c0 1.1-.9 2-2 2h-7v2h2v2H8v-2h2v-2H3c-1.1 0-2-.9-2-2V4c0-1.1.9-2 2-2zm0 2v12h18V4H3zm16 9h1v2h-2v-1h1v-1zm-7 0h1v1h1v1h-2v-2zm8-4v2h-1v-1h-1V9h2zm-8 2V9h2v1h-1v1h-1z"/></symbol></defs><use id="medium" xlink:href="#miniplayer_fullscreen" />
</svg>
