<svg style="display: none;" xmlns="http://www.w3.org/2000/svg" xmlns:xlink="http://www.w3.org/1999/xlink">
<style>
use,
use:target~use:last-child { display: none; }
use:target,
use:last-child { display: inline; }
</style><defs><symbol id="more_horizontal" viewBox="0 0 24 24"><path fill-rule="evenodd" clip-rule="evenodd" d="M6 10c-1.1 0-2 .9-2 2s.9 2 2 2 2-.9 2-2-.9-2-2-2zm12 0c-1.1 0-2 .9-2 2s.9 2 2 2 2-.9 2-2-.9-2-2-2zm-8 2c0-1.1.9-2 2-2s2 .9 2 2-.9 2-2 2-2-.9-2-2z"/></symbol></defs><use id="medium" xlink:href="#more_horizontal" /></svg>