<svg style="display: none;" xmlns="http://www.w3.org/2000/svg" xmlns:xlink="http://www.w3.org/1999/xlink">
<style>
use,
use:target~use:last-child { display: none; }
use:target,
use:last-child { display: inline; }
</style><defs><symbol id="surface_layer" viewBox="0 0 24 24"><path fill-rule="evenodd" clip-rule="evenodd" d="m12 20 8.412-6.549L22.286 12 12.001 4 1.715 12l1.863 1.451L12 20zm0-13.109 5.212 4.06c-2.646 1.81-4.676 1.762-6.144 1.15-1.284-.535-2.215-1.532-2.781-2.317L12 6.89zM18.56 12l-.522-.407c-2.996 2.148-5.467 2.218-7.355 1.431-1.49-.621-2.548-1.749-3.186-2.625L5.441 12l2.412 1.879c.84-.213 1.928-.348 3.028-.112 1.064.23 2.113.802 2.934 1.928L18.562 12zm-5.534 4.31c-.678-.942-1.52-1.385-2.356-1.565a5.243 5.243 0 0 0-1.77-.051l3.1 2.415 1.026-.8zm.224-6.292c-.002.054-.036.154-.193.258a1.196 1.196 0 0 1-.681.168 1.197 1.197 0 0 1-.67-.208c-.151-.113-.18-.214-.178-.27.002-.054.036-.154.194-.257.155-.103.395-.177.68-.169.286.008.521.097.67.209.151.112.18.214.178.269zm-.904 1.426a2.19 2.19 0 0 0 1.26-.332c.345-.227.63-.594.643-1.065.014-.47-.248-.854-.58-1.1a2.191 2.191 0 0 0-1.237-.407 2.19 2.19 0 0 0-1.26.333c-.345.226-.63.593-.643 1.064-.014.47.248.854.58 1.1a2.19 2.19 0 0 0 1.237.407z"/></symbol></defs><use id="medium" xlink:href="#surface_layer" /></svg>