<svg width="24" height="24" viewBox="0 0 24 24" xmlns="http://www.w3.org/2000/svg"><path fill-rule="evenodd" clip-rule="evenodd" d="M9.3 3h5.4v.9h1.8v1.8h-.9v1.717L17.784 19.2H19.2V21H4.8v-1.8h1.418L8.4 7.417V5.7h-.9V3.9h1.8zm4.5 2.7v1.8l.005.023-1.804 1.11-1.804-1.11.004-.023V5.7zm-3.778 2.772-.286 1.555 1.406-.865zm1.979 1.218-2.484 1.529-.298 1.62L12 14.386l2.782-1.545-.298-1.621zm2.265.337-.286-1.555-1.12.69zM11.074 14.9l-2.027-1.126-.462 2.509zm.927.515 3.626 2.015.326 1.77H8.049l.325-1.77zm3.415.868L12.927 14.9l2.028-1.126z"/></svg>
