<svg width="24" height="24" viewBox="0 0 24 24" xmlns="http://www.w3.org/2000/svg"><path fill-rule="evenodd" clip-rule="evenodd" d="M12.965 2.535v3.07c3.95.49 7 3.85 7 7.93s-3.05 7.44-7 7.93v-2.02c2.84-.48 5-2.94 5-5.91s-2.16-5.43-5-5.91v3.91l-4.55-4.45 4.55-4.55zm-7.3 6.11l1.41 1.42c-.53.75-.88 1.6-1.02 2.47h-2.02c.17-1.39.73-2.73 1.63-3.89zm-1.63 5.89h2.02c.14.88.49 1.72 1.01 2.47l-1.41 1.42c-.9-1.16-1.45-2.5-1.62-3.89zm3.03 5.32c1.16.9 2.51 1.44 3.9 1.61v-2.03c-.87-.15-1.71-.49-2.46-1.03l-1.44 1.45z"/></svg>