<svg width="24" height="24" viewBox="0 0 24 24" xmlns="http://www.w3.org/2000/svg"><path fill-rule="evenodd" clip-rule="evenodd" d="M11.035 2.535l4.55 4.55-4.55 4.45v-3.91c-2.84.48-5 2.94-5 5.91s2.16 5.43 5 5.91v2.02c-3.95-.49-7-3.85-7-7.93s3.06-7.44 7-7.93v-3.07zm7.31 6.11c.9 1.16 1.45 2.5 1.62 3.89h-2.02c-.14-.87-.48-1.72-1.02-2.47l1.42-1.42zm-5.31 10.79v2.02c1.39-.17 2.74-.71 3.9-1.61l-1.44-1.44c-.75.54-1.59.89-2.46 1.03zm5.31-1.01l-1.42-1.41c.54-.76.88-1.61 1.02-2.48h2.02a7.906 7.906 0 01-1.62 3.89z"/></svg>