<svg width="24" height="24" viewBox="0 0 24 24" xmlns="http://www.w3.org/2000/svg"><path fill-rule="evenodd" clip-rule="evenodd" d="m15.33 1.781 2.137 2.968 3.72.852-.377 3.58 2.541 2.826-2.54 2.765.374 3.56-3.705.91-2.082 2.976-3.393-1.33-3.301 1.33-2.167-2.966-3.722-.854.375-3.625-2.542-2.766L3.19 9.18 2.813 5.6l3.712-.85 2.076-2.97 3.395 1.33 3.334-1.33ZM9.338 4.218l-1.615 2.31-2.735.627.284 2.702-1.92 2.135 1.92 2.09-.285 2.762 2.724.625 1.69 2.312 2.594-1.045 2.667 1.045 1.61-2.302 2.741-.673-.286-2.723 1.921-2.09-1.92-2.136.284-2.702-2.727-.626-1.665-2.311-2.617 1.045-2.665-1.045Z"/><path d="M16.59 7.58 10 14.17l-2.59-2.58L6 13l4 4 8-8-1.41-1.42Z"/></svg>
