<svg style="display: none;" xmlns="http://www.w3.org/2000/svg" xmlns:xlink="http://www.w3.org/1999/xlink">
<style>
use,use:target~use:last-child { display: none; }
use:target,use:last-child { display: inline; }
</style>
<defs><symbol id="autorenew" viewBox="0 0 24 24"><path fill-rule="evenodd" clip-rule="evenodd" d="M12 9V6c-3.31 0-6 2.69-6 6 0 1.01.25 1.97.7 2.8l-1.46 1.46A7.93 7.93 0 0 1 4 12c0-4.42 3.58-8 8-8V1l4 4-4 4zm5.3.2 1.46-1.46A7.93 7.93 0 0 1 20 12c0 4.42-3.58 8-8 8v3l-4-4 4-4v3c3.31 0 6-2.69 6-6 0-1.01-.26-1.96-.7-2.8z"/></symbol></defs><use id="medium" xlink:href="#autorenew" />
</svg>
