<svg style="display: none;" xmlns="http://www.w3.org/2000/svg" xmlns:xlink="http://www.w3.org/1999/xlink">
<style>
use,use:target~use:last-child { display: none; }
use:target,use:last-child { display: inline; }
</style>
<defs><symbol id="check_circle_outlined" viewBox="0 0 24 24"><path fill-rule="evenodd" clip-rule="evenodd" d="M12 2C6.48 2 2 6.48 2 12s4.48 10 10 10 10-4.48 10-10S17.52 2 12 2zm0 18c-4.41 0-8-3.59-8-8s3.59-8 8-8 8 3.59 8 8-3.59 8-8 8zm-2-5.83 6.59-6.59L18 9l-8 8-4-4 1.41-1.41L10 14.17z"/></symbol><symbol id="check_circle_outlined_small" viewBox="0 0 18 18"><path fill-rule="evenodd" clip-rule="evenodd" d="M9 1C4.584 1 1 4.584 1 9s3.584 8 8 8 8-3.584 8-8-3.584-8-8-8zm0 14c-3.308 0-6-2.693-6-6 0-3.308 2.692-6 6-6 3.307 0 6 2.692 6 6 0 3.307-2.693 6-6 6zm-1.599-4.264 5.272-5.272L13.801 6.6l-6.4 6.4-3.2-3.2L5.33 8.672l2.072 2.064z"/></symbol></defs><use id="small" xlink:href="#check_circle_outlined_small" /><use id="medium" xlink:href="#check_circle_outlined" />
</svg>
