<svg style="display: none;" xmlns="http://www.w3.org/2000/svg" xmlns:xlink="http://www.w3.org/1999/xlink">
<style>
use,use:target~use:last-child { display: none; }
use:target,use:last-child { display: inline; }
</style>
<defs><symbol id="checkbox_indeterminate" viewBox="0 0 24 24"><path fill-rule="evenodd" clip-rule="evenodd" d="M5 3h14c1.1 0 2 .9 2 2v14c0 1.1-.9 2-2 2H5c-1.1 0-2-.9-2-2V5c0-1.1.9-2 2-2zm3 10h8c.55 0 1-.45 1-1s-.45-1-1-1H8c-.55 0-1 .45-1 1s.45 1 1 1z"/></symbol><symbol id="checkbox_indeterminate_small" viewBox="0 0 18 18"><path fill-rule="evenodd" clip-rule="evenodd" d="M3.5 2H14c.825 0 2 .925 2 1.75V14c0 .825-1.175 2-2 2H4c-.825 0-2-1.175-2-2V3.75C2 2.925 2.675 2 3.5 2zm2.3 8h6.4c.44 0 .8-.45.8-1s-.36-1-.8-1H5.8c-.44 0-.8.45-.8 1s.36 1 .8 1z"/></symbol></defs><use id="small" xlink:href="#checkbox_indeterminate_small" /><use id="medium" xlink:href="#checkbox_indeterminate" />
</svg>
