<svg style="display: none;" xmlns="http://www.w3.org/2000/svg" xmlns:xlink="http://www.w3.org/1999/xlink">
<style>
use,
use:target~use:last-child { display: none; }
use:target,
use:last-child { display: inline; }
</style><defs><symbol id="checkbox" viewBox="0 0 24 24"><path fill-rule="evenodd" clip-rule="evenodd" d="M5 3h14c1.1 0 2 .9 2 2v14c0 1.1-.9 2-2 2H5c-1.1 0-2-.9-2-2V5c0-1.1.9-2 2-2zm4.3 13.29c.39.39 1.02.39 1.41 0l7.58-7.59a.996.996 0 1 0-1.41-1.41L10 14.17l-2.88-2.88a.996.996 0 1 0-1.41 1.41l3.59 3.59z"/></symbol><symbol id="checkbox_small" viewBox="0 0 18 18"><path fill-rule="evenodd" clip-rule="evenodd" d="M3.75 2h10.5c.825 0 1.75.925 1.75 1.75v10.5c0 .825-.925 1.75-1.75 1.75H3.75c-.825 0-1.662-.925-1.662-1.75V3.75c0-.825.837-1.75 1.662-1.75zm3.225 10.217a.747.747 0 0 0 1.057 0l5.685-5.692a.747.747 0 1 0-1.057-1.058l-5.16 5.16-2.16-2.16a.747.747 0 1 0-1.058 1.058l2.693 2.692z"/></symbol></defs><use id="small" xlink:href="#checkbox_small" /><use id="medium" xlink:href="#checkbox" /></svg>