<svg style="display: none;" xmlns="http://www.w3.org/2000/svg" xmlns:xlink="http://www.w3.org/1999/xlink">
<style>
use,
use:target~use:last-child { display: none; }
use:target,
use:last-child { display: inline; }
</style><defs><symbol id="delete_forever" viewBox="0 0 24 24"><path fill-rule="evenodd" clip-rule="evenodd" d="m14.5 3 1 1H19v2H5V4h3.5l1-1h5zM12 12.59l2.12-2.12 1.41 1.41L13.41 14l2.12 2.12-1.41 1.41L12 15.41l-2.12 2.12-1.41-1.41L10.59 14l-2.13-2.12 1.41-1.41L12 12.59zM6 19c0 1.1.9 2 2 2h8c1.1 0 2-.9 2-2V7H6v12zM16 9H8v10h8V9z"/></symbol></defs><use id="medium" xlink:href="#delete_forever" /></svg>