<svg width="24" height="24" viewBox="0 0 24 24" xmlns="http://www.w3.org/2000/svg"><path d="M9 20q-.825 0-1.412-.587A1.93 1.93 0 0 1 7 18q0-.824.588-1.413A1.93 1.93 0 0 1 9 16q.825 0 1.412.587Q11 17.176 11 18q0 .824-.588 1.413A1.93 1.93 0 0 1 9 20m6 0q-.825 0-1.412-.587A1.93 1.93 0 0 1 13 18q0-.824.588-1.413A1.93 1.93 0 0 1 15 16q.824 0 1.413.587Q17 17.176 17 18q0 .824-.587 1.413A1.93 1.93 0 0 1 15 20m-6-6q-.825 0-1.412-.588A1.93 1.93 0 0 1 7 12q0-.825.588-1.412A1.93 1.93 0 0 1 9 10q.825 0 1.412.588Q11 11.175 11 12t-.588 1.412A1.93 1.93 0 0 1 9 14m6 0q-.825 0-1.412-.588A1.93 1.93 0 0 1 13 12q0-.825.588-1.412A1.93 1.93 0 0 1 15 10q.824 0 1.413.588Q17 11.175 17 12t-.587 1.412A1.93 1.93 0 0 1 15 14M9 8q-.825 0-1.412-.588A1.93 1.93 0 0 1 7 6q0-.824.588-1.412A1.93 1.93 0 0 1 9 4q.825 0 1.412.588Q11 5.175 11 6q0 .824-.588 1.412A1.93 1.93 0 0 1 9 8m6 0q-.825 0-1.412-.588A1.93 1.93 0 0 1 13 6q0-.824.588-1.412A1.93 1.93 0 0 1 15 4q.824 0 1.413.588Q17 5.175 17 6q0 .824-.587 1.412A1.93 1.93 0 0 1 15 8"/></svg>
