<svg style="display: none;" xmlns="http://www.w3.org/2000/svg" xmlns:xlink="http://www.w3.org/1999/xlink">
<style>
use,use:target~use:last-child { display: none; }
use:target,use:last-child { display: inline; }
</style>
<defs><symbol id="inbox" viewBox="0 0 24 24"><path fill-rule="evenodd" clip-rule="evenodd" d="M19 3H5c-1.1 0-2 .9-2 2v14a2 2 0 0 0 2 2h14c1.1 0 2-.9 2-2V5c0-1.1-.9-2-2-2zm0 16H5v-3h3.56c.69 1.19 1.97 2 3.45 2 1.48 0 2.75-.81 3.45-2H19v3zm-4.99-5H19V5H5v9h5.01c0 1.1.9 2 2 2s2-.9 2-2z"/></symbol></defs><use id="medium" xlink:href="#inbox" />
</svg>
