<svg width="24" height="24" viewBox="0 0 24 24" xmlns="http://www.w3.org/2000/svg"><path d="M7.099 18.315A7.96 7.96 0 0 0 11 19.935v2.014a9.95 9.95 0 0 1-5.327-2.209zM13 2.05c5.051.502 9 4.767 9 9.95s-3.949 9.447-9 9.95v-2.015c3.94-.494 7-3.864 7-7.935s-3.06-7.442-7-7.936zM4.065 13a7.96 7.96 0 0 0 1.62 3.9L4.26 18.326A9.95 9.95 0 0 1 2.05 13zm13.936-4-8 8-4-4 1.41-1.41 2.59 2.58 6.59-6.59zM5.686 7.099A7.96 7.96 0 0 0 4.066 11H2.05c.2-2.01.996-3.845 2.209-5.327zM11 4.064A7.96 7.96 0 0 0 7.1 5.684L5.674 4.26A9.95 9.95 0 0 1 11 2.049z"/></svg>
