<svg style="display: none;" xmlns="http://www.w3.org/2000/svg" xmlns:xlink="http://www.w3.org/1999/xlink">
<style>
use,
use:target~use:last-child { display: none; }
use:target,
use:last-child { display: inline; }
</style><defs><symbol id="report_off" viewBox="0 0 24 24"><path fill-rule="evenodd" clip-rule="evenodd" d="M2.7 1.29 1.29 2.7l3.64 3.64-1.64 1.64v7.46l5.27 5.27h7.46l1.64-1.64 3.64 3.64 1.41-1.41L2.7 1.29zm6.69 3.42h5.8l4.1 4.1v5.8l-.22.22 1.42 1.41.8-.8V7.98l-5.27-5.27H8.56l-.8.8 1.41 1.42.22-.22zm2.9 10a1 1 0 1 0 0 2 1 1 0 0 0 0-2zm1-8v2.33l-2-2v-.33h2zm-3.9 12h5.8l1.05-1.05-9.9-9.9-1.05 1.05v5.8l4.1 4.1z"/></symbol></defs><use id="medium" xlink:href="#report_off" /></svg>