<svg style="display: none;" xmlns="http://www.w3.org/2000/svg" xmlns:xlink="http://www.w3.org/1999/xlink">
<style>
use,
use:target~use:last-child { display: none; }
use:target,
use:last-child { display: inline; }
</style><defs><symbol id="save" viewBox="0 0 24 24"><path fill-rule="evenodd" clip-rule="evenodd" d="M5 3h12l4 4v12c0 1.1-.9 2-2 2H5a2 2 0 0 1-2-2V5a2 2 0 0 1 2-2zm14 16V7.83L16.17 5H5v14h14zm-7-7c-1.66 0-3 1.34-3 3s1.34 3 3 3 3-1.34 3-3-1.34-3-3-3zm3-6H6v4h9V6z"/></symbol></defs><use id="medium" xlink:href="#save" /></svg>