<svg style="display: none;" xmlns="http://www.w3.org/2000/svg" xmlns:xlink="http://www.w3.org/1999/xlink">
<style>
use,use:target~use:last-child { display: none; }
use:target,use:last-child { display: inline; }
</style>
<defs><symbol height="24" width="24" id="search" viewBox="0 0 24 24"><path fill-rule="evenodd" clip-rule="evenodd" d="M14.966 14.255h.79l4.99 5-1.49 1.49-5-4.99v-.79l-.27-.28a6.471 6.471 0 0 1-4.23 1.57 6.5 6.5 0 1 1 6.5-6.5c0 1.61-.59 3.09-1.57 4.23l.28.27zm-9.71-4.5c0 2.49 2.01 4.5 4.5 4.5s4.5-2.01 4.5-4.5-2.01-4.5-4.5-4.5-4.5 2.01-4.5 4.5z"/></symbol><symbol height="18" width="18" id="search_small" viewBox="0 0 18 18"><path fill-rule="evenodd" clip-rule="evenodd" d="M11.224 10.691h.592l3.743 3.75-1.118 1.118-3.75-3.743v-.592l-.202-.21a4.853 4.853 0 0 1-3.173 1.177 4.875 4.875 0 1 1 4.875-4.875 4.853 4.853 0 0 1-1.177 3.173l.21.202zM3.94 7.316a3.37 3.37 0 0 0 3.375 3.375 3.37 3.37 0 0 0 3.375-3.375 3.37 3.37 0 0 0-3.375-3.375 3.37 3.37 0 0 0-3.375 3.375z"/></symbol></defs><use id="small" xlink:href="#search_small" /><use id="medium" xlink:href="#search" />
</svg>
