<svg width="24" height="24" viewBox="0 0 24 24" xmlns="http://www.w3.org/2000/svg"><path fill-rule="evenodd" clip-rule="evenodd" d="M9.001 1h6v3h3c1.1 0 2 .9 2 2v4.62l1.28.42c.26.08.48.26.6.5s.14.52.06.78L20.051 19h-.05c-1.6 0-3.02-.88-4-2-.98 1.12-2.4 2-4 2s-3.02-.88-4-2c-.98 1.12-2.4 2-4 2h-.05l-1.9-6.68a1.007 1.007 0 01.66-1.28l1.29-.42V6c0-1.1.9-2 2-2h3V1zm4 2v1h-2V3h2zm-1 7.11l5.38 1.77 2.39.78-1.12 3.97c-.54-.3-.94-.71-1.14-.94l-1.51-1.73-1.51 1.72c-.34.4-1.28 1.32-2.49 1.32-1.21 0-2.15-.92-2.49-1.32l-1.51-1.72-1.51 1.72c-.2.23-.6.63-1.14.93l-1.13-3.96 2.4-.79 5.38-1.75zm-6-.14V6h12v3.97l-6-1.97-6 1.97zm6 10.99c1.39 0 2.78-.43 4-1.28 1.22.85 2.61 1.32 4 1.32h2v2h-2c-1.38 0-2.74-.34-4-.99a8.71 8.71 0 01-4 .97c-1.37 0-2.74-.33-4-.97-1.26.64-2.62.99-4 .99h-2v-2h2c1.39 0 2.78-.47 4-1.32 1.22.85 2.61 1.28 4 1.28z"/></svg>