<svg width="24" height="24" viewBox="0 0 24 24" xmlns="http://www.w3.org/2000/svg"><path fill-rule="evenodd" clip-rule="evenodd" d="M16 5.225c0 2.21-1.79 4-4 4s-4-1.79-4-4 1.79-4 4-4 4 1.79 4 4zm-2 0c0-1.1-.9-2-2-2s-2 .9-2 2 .9 2 2 2 2-.9 2-2zm-2 6.55c-2.36-2.2-5.52-3.55-9-3.55v11c3.48 0 6.64 1.35 9 3.55 2.36-2.19 5.52-3.55 9-3.55v-11c-3.48 0-6.64 1.35-9 3.55zm0 8.4c2.07-1.52 4.47-2.48 7-2.82v-6.95c-2.1.38-4.05 1.35-5.64 2.83L12 14.505l-1.36-1.28A11.18 11.18 0 005 10.395v6.95a15.2 15.2 0 017 2.83z"/></svg>