<svg width="24" height="24" viewBox="0 0 24 24" xmlns="http://www.w3.org/2000/svg"><path fill-rule="evenodd" clip-rule="evenodd" d="M11 5h4.41l4.03 4.03C22.03 9.23 24 11.35 24 14c0 2.8-2.2 5-5 5s-5-2.2-5-5c0-.63.11-1.23.32-1.77L11.55 15H9.9c-.45 2.31-2.44 4-4.9 4-2.8 0-5-2.2-5-5s2.2-5 5-5h11.59l-2-2H11V5zm-.28 8l2-2H8.98c.3.39.54.83.72 1.31l.25.69h.77zM19 17c-1.66 0-3-1.34-3-3s1.34-3 3-3 3 1.34 3 3-1.34 3-3 3zM2 14c0 1.63 1.37 3 3 3 1.28 0 2.4-.85 2.82-2H5v-2h2.82C7.4 11.85 6.28 11 5 11c-1.63 0-3 1.37-3 3z"/></svg>