<svg width="24" height="24" viewBox="0 0 24 24" xmlns="http://www.w3.org/2000/svg"><path fill-rule="evenodd" clip-rule="evenodd" d="M12 2c1.86 0 4 .09 5.8.8C20.47 3.84 22 6.05 22 8.86V22H2V8.86C2 6.05 3.53 3.84 6.2 2.8 8 2.09 10.14 2 12 2zm-1.33 16.5L9.17 20h5.66l-1.5-1.5h-2.66zM7.01 14V9h10v5h-10zm8.49 3c.55 0 1-.45 1-1s-.45-1-1-1-1 .45-1 1 .45 1 1 1zm-7-2c.55 0 1 .45 1 1s-.45 1-1 1-1-.45-1-1 .45-1 1-1zm8 5H20V8.86c0-2-1.01-3.45-2.93-4.2C15.59 4.08 13.68 4 12 4c-1.68 0-3.59.08-5.07.66C5.01 5.41 4 6.86 4 8.86V20h3.5v-.38l1.15-1.16A2.979 2.979 0 016 15.5V9c0-2.63 3-3 6-3s6 .37 6 3v6.5c0 1.54-1.16 2.79-2.65 2.96l1.15 1.16V20z"/></svg>