<svg width="24" height="24" viewBox="0 0 24 24" xmlns="http://www.w3.org/2000/svg"><path fill-rule="evenodd" clip-rule="evenodd" d="M12 20c3.31 0 6-2.69 6-6h2c0 4.42-3.58 8-8 8s-8-3.58-8-8 3.58-8 8-8V2l5 5-5 5V8c-3.31 0-6 2.69-6 6s2.69 6 6 6m-1.1-7.27V17h-.85v-3.26l-1.01.31v-.69l1.77-.63zm3.42.05c-.18-.07-.37-.1-.59-.1s-.41.03-.59.1q-.27.105-.45.33c-.12.15-.23.34-.29.57s-.1.5-.1.82v.74c0 .32.04.6.11.82s.17.42.3.57.28.26.46.33.37.1.59.1.41-.03.59-.1q.27-.105.45-.33c.12-.15.22-.34.29-.57s.1-.5.1-.82v-.74c0-.32-.04-.6-.11-.82s-.17-.42-.3-.57-.29-.26-.46-.33m-.03 3.05c.03-.13.04-.29.04-.48h.01v-.97c0-.19-.01-.35-.04-.48s-.07-.23-.12-.31a.44.44 0 0 0-.19-.17.66.66 0 0 0-.5 0c-.08.03-.13.09-.19.17s-.09.18-.12.31-.04.29-.04.48v.97c0 .19.01.35.04.48s.07.24.12.32.12.14.19.17a.66.66 0 0 0 .5 0c.08-.03.14-.09.19-.17s.08-.19.11-.32"/></svg>
