<svg width="24" height="24" viewBox="0 0 24 24" xmlns="http://www.w3.org/2000/svg"><path fill-rule="evenodd" clip-rule="evenodd" d="M12 20c3.31 0 6-2.69 6-6h2c0 4.42-3.58 8-8 8s-8-3.58-8-8 3.58-8 8-8V2l5 5-5 5V8c-3.31 0-6 2.69-6 6s2.69 6 6 6m-1.66-3.66c.08-.03.14-.07.2-.12l.041-.047c.035-.038.067-.072.089-.123.03-.07.04-.15.04-.24 0-.11-.02-.21-.05-.29a.5.5 0 0 0-.14-.2.7.7 0 0 0-.22-.11.9.9 0 0 0-.29-.04h-.45v-.66h.43c.22 0 .37-.05.48-.16s.16-.25.16-.43c0-.08-.01-.16-.04-.22a.6.6 0 0 0-.11-.17.5.5 0 0 0-.18-.11.6.6 0 0 0-.25-.04c-.08 0-.15 0-.22.03s-.13.06-.18.1q-.075.06-.12.15c-.03.06-.05.13-.05.2h-.85c0-.18.04-.33.11-.48s.18-.27.3-.37.28-.18.44-.23.35-.08.54-.08c.22 0 .41.03.59.08s.33.13.46.23.23.22.3.38.11.33.11.53c0 .09-.01.18-.04.27s-.08.17-.13.25-.12.15-.2.22-.18.12-.28.17q.36.135.54.39c.12.17.18.38.18.61 0 .2-.04.38-.12.53a1.1 1.1 0 0 1-.32.39c-.14.1-.29.19-.48.24s-.39.08-.6.08c-.18 0-.36-.02-.53-.07s-.32-.13-.46-.23-.25-.22-.33-.38-.12-.34-.12-.55h.85c0 .08.02.15.05.22s.07.12.13.17.12.08.2.11.16.04.25.04c.1 0 .19-.01.27-.04m4.1-3.56c-.18-.07-.37-.1-.59-.1s-.41.03-.59.1q-.27.105-.45.33c-.12.15-.23.34-.29.57s-.1.5-.1.82v.74c0 .32.04.6.11.82s.17.42.3.57.28.26.46.33.37.1.59.1.41-.03.59-.1q.27-.105.45-.33c.12-.15.22-.34.29-.57s.1-.5.1-.82v-.74c0-.32-.04-.6-.11-.82s-.17-.42-.3-.57-.28-.26-.46-.33m-.03 3.05c.03-.13.04-.29.04-.48h.01v-.97c0-.19-.01-.35-.04-.48s-.07-.23-.12-.31a.44.44 0 0 0-.19-.17.66.66 0 0 0-.5 0c-.08.03-.13.09-.19.17s-.09.18-.12.31-.04.29-.04.48v.97c0 .19.01.35.04.48s.07.24.12.32.12.14.19.17a.66.66 0 0 0 .5 0c.08-.03.14-.09.19-.17s.08-.19.11-.32"/></svg>
