<svg width="24" height="24" viewBox="0 0 24 24" xmlns="http://www.w3.org/2000/svg"><path fill-rule="evenodd" clip-rule="evenodd" d="M12 20c3.31 0 6-2.69 6-6h2c0 4.42-3.58 8-8 8s-8-3.58-8-8 3.58-8 8-8V2l5 5-5 5V8c-3.31 0-6 2.69-6 6s2.69 6 6 6m.3-3.68c.07-.04.13-.1.18-.17s.09-.15.11-.24.03-.19.03-.31-.01-.21-.04-.31a.7.7 0 0 0-.13-.24.54.54 0 0 0-.21-.15.9.9 0 0 0-.3-.05c-.07 0-.15.01-.2.02s-.1.03-.15.05-.08.04-.12.07-.07.06-.1.09l-.67-.17.25-2.17h2.39v.71h-1.7l-.11.92.048-.021q.025-.014.062-.029.038-.015.075-.025l.075-.025a1 1 0 0 1 .18-.04c.06-.01.13-.02.2-.02.21 0 .39.04.55.1s.3.16.41.28.19.28.25.45.09.38.09.6q0 .285-.09.54t-.27.45c-.12.13-.27.23-.45.31s-.4.12-.64.12c-.18 0-.36-.03-.53-.08s-.33-.13-.46-.24-.24-.23-.32-.39-.12-.33-.13-.53h.84c.02.17.08.31.19.41q.165.15.42.15c.1 0 .2-.02.27-.06"/></svg>
