<svg style="display: none;" xmlns="http://www.w3.org/2000/svg" xmlns:xlink="http://www.w3.org/1999/xlink">
<style>
use,use:target~use:last-child { display: none; }
use:target,use:last-child { display: inline; }
</style>
<defs><symbol id="missed_video_call" viewBox="0 0 24 24"><path fill-rule="evenodd" clip-rule="evenodd" d="M17 10.5V7c0-.55-.45-1-1-1H4c-.55 0-1 .45-1 1v10c0 .55.45 1 1 1h12c.55 0 1-.45 1-1v-3.5l4 4v-11l-4 4zm-2-1.83V16H5V8h10v.67zM11 15l-3.89-3.89v2.55H6V9.22h4.44v1.11H7.89l3.11 3.1 2.99-3.01.78.79L11 15z"/></symbol></defs><use id="medium" xlink:href="#missed_video_call" />
</svg>
