<svg width="24" height="24" viewBox="0 0 24 24" xmlns="http://www.w3.org/2000/svg"><path fill-rule="evenodd" clip-rule="evenodd" d="M12 2v4c4.42 0 8 3.58 8 8s-3.58 8-8 8-8-3.58-8-8h2c0 3.31 2.69 6 6 6s6-2.69 6-6-2.69-6-6-6v4L7 7zm-1.99 12.49h-.45v.65h.47c.11 0 .2.02.29.04a.51.51 0 0 1 .36.31c.03.08.05.18.05.29 0 .09-.01.17-.04.24s-.08.13-.13.18-.12.09-.2.12-.17.04-.27.04c-.09 0-.17-.02-.25-.04a.5.5 0 0 1-.2-.11c-.06-.05-.1-.1-.13-.17a.55.55 0 0 1-.05-.22h-.85c0 .21.04.4.12.55s.2.27.33.38.29.18.46.23.35.07.53.07c.22 0 .41-.03.6-.08s.34-.14.48-.24.24-.24.32-.39.12-.33.12-.53c0-.23-.06-.43-.18-.61s-.3-.3-.54-.39a1.1 1.1 0 0 0 .48-.39.85.85 0 0 0 .17-.52c0-.2-.04-.38-.11-.53s-.17-.28-.3-.38-.28-.18-.46-.23-.38-.08-.59-.08c-.19 0-.37.03-.54.08s-.31.13-.44.23a1.07 1.07 0 0 0-.41.85h.85a.46.46 0 0 1 .17-.35.4.4 0 0 1 .18-.1.8.8 0 0 1 .22-.03c.09 0 .18.02.25.04s.13.06.18.11.08.1.11.17.04.14.04.22c0 .18-.05.32-.16.43s-.27.16-.48.16m5.29.75c0 .32-.03.6-.1.82s-.17.42-.29.57-.28.26-.45.33-.37.1-.59.1-.41-.03-.59-.1-.33-.18-.46-.33q-.195-.225-.3-.57c-.07-.23-.11-.5-.11-.82v-.74c0-.32.03-.6.1-.82s.17-.42.29-.57.28-.26.45-.33.37-.1.59-.1.41.03.59.1.33.18.46.33q.195.225.3.57c.07.23.11.5.11.82zm-.89-1.34c.03.13.04.29.04.48h-.01v.97c0 .19-.01.35-.04.48-.02.13-.06.24-.11.32s-.12.14-.19.17a.66.66 0 0 1-.5 0 .4.4 0 0 1-.19-.17c-.05-.08-.09-.19-.12-.32s-.04-.29-.04-.48v-.97c0-.19.01-.35.04-.48s.07-.23.12-.31.12-.14.19-.17a.66.66 0 0 1 .5 0c.08.03.14.09.19.17s.09.18.12.31"/></svg>
