<svg width="24" height="24" viewBox="0 0 24 24" xmlns="http://www.w3.org/2000/svg"><path fill-rule="evenodd" clip-rule="evenodd" d="M12 2v4c4.42 0 8 3.58 8 8s-3.58 8-8 8-8-3.58-8-8h2c0 3.31 2.69 6 6 6s6-2.69 6-6-2.69-6-6-6v4L7 7zm-1.06 10.73-.25 2.17.67.16.022-.023a.3.3 0 0 1 .078-.067q.03-.016.06-.035l.06-.035c.04-.02.1-.04.15-.05s.12-.02.2-.02c.11 0 .22.02.3.05q.12.045.21.15c.06.07.1.14.13.24s.04.2.04.31 0 .21-.03.31-.07.18-.11.25a.49.49 0 0 1-.45.23.65.65 0 0 1-.42-.15c-.11-.09-.17-.23-.19-.41h-.84c0 .2.05.38.13.53s.18.29.32.39.29.19.46.24.35.08.53.08c.25 0 .46-.05.64-.12s.33-.18.45-.31q.18-.195.27-.45t.09-.54c0-.22-.04-.42-.09-.6s-.14-.33-.25-.45-.25-.21-.41-.28a1.35 1.35 0 0 0-.75-.08q-.045.008-.09.02t-.09.02c-.06.01-.11.03-.15.05l-.05.021c-.022.01-.043.017-.06.029l.11-.92h1.7v-.71z"/></svg>
