<svg style="display: none;" xmlns="http://www.w3.org/2000/svg" xmlns:xlink="http://www.w3.org/1999/xlink">
<style>
use,use:target~use:last-child { display: none; }
use:target,use:last-child { display: inline; }
</style>
<defs><symbol id="res_hd_filled" viewBox="0 0 24 24"><path fill-rule="evenodd" clip-rule="evenodd" d="M5 3h14c1.1 0 2 .9 2 2v14c0 1.1-.9 2-2 2H5a2 2 0 0 1-2-2V5a2 2 0 0 1 2-2zm4.5 10h-2v2H6V9h1.5v2.5h2V9H11v6H9.5v-2zm8.5 1v-4c0-.55-.45-1-1-1h-4v6h4c.55 0 1-.45 1-1zm-3.5-.5h2v-3h-2v3z"/></symbol></defs><use id="medium" xlink:href="#res_hd_filled" />
</svg>
