<svg style="display: none;" xmlns="http://www.w3.org/2000/svg" xmlns:xlink="http://www.w3.org/1999/xlink">
<style>
use,
use:target~use:last-child { display: none; }
use:target,
use:last-child { display: inline; }
</style><defs><symbol id="res_4k_filled" viewBox="0 0 24 24"><path fill-rule="evenodd" clip-rule="evenodd" d="M5 3h14a2 2 0 0 1 2 2v14c0 1.1-.9 2-2 2H5a2 2 0 0 1-2-2V5c0-1.1.9-2 2-2zm6 12H9.5v-1.5h-3V9H8v3h1.5V9H11v3h1v1.51h-1V15zm5.2-3 2-3h-1.7l-2 3V9H13v6h1.5v-3l2 3h1.7l-2-3z"/></symbol></defs><use id="medium" xlink:href="#res_4k_filled" /></svg>