<svg style="display: none;" xmlns="http://www.w3.org/2000/svg" xmlns:xlink="http://www.w3.org/1999/xlink">
<style>
use,use:target~use:last-child { display: none; }
use:target,use:last-child { display: inline; }
</style>
<defs><symbol id="res_4k_outlined" viewBox="0 0 24 24"><path fill-rule="evenodd" clip-rule="evenodd" d="M19 3H5c-1.1 0-2 .9-2 2v14a2 2 0 0 0 2 2h14c1.1 0 2-.9 2-2V5a2 2 0 0 0-2-2zm0 2v14H5V5h14zm-8 10H9.5v-1.5h-3V9H8v3h1.5V9H11v3h1v1.51h-1V15zm5.2-3 2-3h-1.7l-2 3V9H13v6h1.5v-3l2 3h1.7l-2-3z"/></symbol></defs><use id="medium" xlink:href="#res_4k_outlined" />
</svg>
