<svg style="display: none;" xmlns="http://www.w3.org/2000/svg" xmlns:xlink="http://www.w3.org/1999/xlink">
<style>
use,
use:target~use:last-child { display: none; }
use:target,
use:last-child { display: inline; }
</style><defs><symbol id="snooze" viewBox="0 0 24 24"><path fill-rule="evenodd" clip-rule="evenodd" d="m2.055 5.749 1.281 1.536L7.944 3.44 6.663 1.905 2.055 5.75zm14.001-2.307 1.281-1.536 4.608 3.843-1.282 1.536-4.607-3.843zM9 11.095h3.63L9 15.295v1.8h6v-2h-3.63l3.63-4.2v-1.8H9v2zm3-5c3.86 0 7 3.14 7 7s-3.14 7-7 7-7-3.14-7-7 3.14-7 7-7zm-9 7A9 9 0 1 1 21 13.097 9 9 0 0 1 3 13.095z"/></symbol></defs><use id="medium" xlink:href="#snooze" /></svg>