<svg style="display: none;" xmlns="http://www.w3.org/2000/svg" xmlns:xlink="http://www.w3.org/1999/xlink">
<style>
use,
use:target~use:last-child { display: none; }
use:target,
use:last-child { display: inline; }
</style><defs><symbol id="wheelchair" viewBox="0 0 24 24"><path fill-rule="evenodd" clip-rule="evenodd" d="M12 2a2 2 0 1 0 0 4 2 2 0 0 0 0-4zm7 11v-2c-1.54.02-3.09-.75-4.07-1.83l-1.29-1.43c-.17-.19-.38-.34-.61-.45-.005 0-.007-.003-.01-.005-.002-.003-.005-.005-.01-.005H13c-.35-.2-.75-.3-1.19-.26C10.76 7.11 10 8.04 10 9.09V15c0 1.1.9 2 2 2h5v5h2v-5.5c0-1.1-.9-2-2-2h-3v-3.45c1.29 1.07 3.25 1.94 5 1.95zM7 17c0 1.66 1.34 3 3 3 1.31 0 2.42-.84 2.83-2h2.07A5 5 0 1 1 9 12.1v2.07c-1.16.42-2 1.52-2 2.83z"/></symbol></defs><use id="medium" xlink:href="#wheelchair" /></svg>