<svg style="display: none;" xmlns="http://www.w3.org/2000/svg" xmlns:xlink="http://www.w3.org/1999/xlink">
<style>
use,
use:target~use:last-child { display: none; }
use:target,
use:last-child { display: inline; }
</style><defs><symbol id="comment_chat_off" viewBox="0 0 24 24"><path fill-rule="evenodd" clip-rule="evenodd" d="M2.34.93.93 2.34l2.01 2.01-.01 16.99 4-4h9l5.73 5.73 1.41-1.41L2.34.93zm18.59 14.41v-12H7.59l-2-2h15.34c1.1 0 2 .9 2 2v12c0 .9-.61 1.66-1.43 1.91l-1.91-1.91h1.34zm-12-4h-2v2h2v-2zm10-3h-6.34l2 2h4.34v-2zm-8-3h8v2h-7.34l-.66-.66V5.34zm-6 11.17 1.17-1.17h7.83l-5-5h-2v-2l-2-2v10.17z"/></symbol></defs><use id="medium" xlink:href="#comment_chat_off" /></svg>