<svg width="24" height="24" viewBox="0 0 24 24" xmlns="http://www.w3.org/2000/svg"><path fill-rule="evenodd" clip-rule="evenodd" d="M2 3h20c1.1 0 2 .9 2 2l-.01 14c0 1.1-.89 2-1.99 2H2c-1.1 0-2-.9-2-2V5c0-1.1.9-2 2-2zm0 16h20V5H2v14zM21 6h-7v5h7V6zm-3.5 3.75L20 8V7l-2.5 1.75L15 7v1l2.5 1.75zM9 12c1.65 0 3-1.35 3-3s-1.35-3-3-3-3 1.35-3 3 1.35 3 3 3zm1-3c0-.55-.45-1-1-1s-1 .45-1 1 .45 1 1 1 1-.45 1-1zm5 7.59c0-2.5-3.97-3.58-6-3.58s-6 1.08-6 3.58V18h12v-1.41zM9 15c-1.3 0-2.78.5-3.52 1h7.04c-.75-.51-2.22-1-3.52-1z"/></svg>