<svg style="display: none;" xmlns="http://www.w3.org/2000/svg" xmlns:xlink="http://www.w3.org/1999/xlink">
<style>
use,use:target~use:last-child { display: none; }
use:target,use:last-child { display: inline; }
</style>
<defs><symbol id="dialpad" viewBox="0 0 24 24"><path fill-rule="evenodd" clip-rule="evenodd" d="M4 3c0-1.1.9-2 2-2s2 .9 2 2-.9 2-2 2-2-.9-2-2zm6 18c0-1.1.9-2 2-2s2 .9 2 2-.9 2-2 2-2-.9-2-2zM6 7c-1.1 0-2 .9-2 2s.9 2 2 2 2-.9 2-2-.9-2-2-2zm-2 8c0-1.1.9-2 2-2s2 .9 2 2-.9 2-2 2-2-.9-2-2zM18 5c1.1 0 2-.9 2-2s-.9-2-2-2-2 .9-2 2 .9 2 2 2zm-8 10c0-1.1.9-2 2-2s2 .9 2 2-.9 2-2 2-2-.9-2-2zm8-2c-1.1 0-2 .9-2 2s.9 2 2 2 2-.9 2-2-.9-2-2-2zm-2-4c0-1.1.9-2 2-2s2 .9 2 2-.9 2-2 2-2-.9-2-2zm-4-2c-1.1 0-2 .9-2 2s.9 2 2 2 2-.9 2-2-.9-2-2-2zm-2-4c0-1.1.9-2 2-2s2 .9 2 2-.9 2-2 2-2-.9-2-2z"/></symbol></defs><use id="medium" xlink:href="#dialpad" />
</svg>
