<svg width="24" height="24" viewBox="0 0 24 24" xmlns="http://www.w3.org/2000/svg"><path fill-rule="evenodd" clip-rule="evenodd" d="M4 3c0-1.1.9-2 2-2s2 .9 2 2-.9 2-2 2-2-.9-2-2m6 18c0-1.1.9-2 2-2s2 .9 2 2-.9 2-2 2-2-.9-2-2M6 7c-1.1 0-2 .9-2 2s.9 2 2 2 2-.9 2-2-.9-2-2-2m-2 8c0-1.1.9-2 2-2s2 .9 2 2-.9 2-2 2-2-.9-2-2M18 5c1.1 0 2-.9 2-2s-.9-2-2-2-2 .9-2 2 .9 2 2 2m-8 10c0-1.1.9-2 2-2s2 .9 2 2-.9 2-2 2-2-.9-2-2m8-2c-1.1 0-2 .9-2 2s.9 2 2 2 2-.9 2-2-.9-2-2-2m-2-4c0-1.1.9-2 2-2s2 .9 2 2-.9 2-2 2-2-.9-2-2m-4-2c-1.1 0-2 .9-2 2s.9 2 2 2 2-.9 2-2-.9-2-2-2m-2-4c0-1.1.9-2 2-2s2 .9 2 2-.9 2-2 2-2-.9-2-2"/></svg>
