<svg style="display: none;" xmlns="http://www.w3.org/2000/svg" xmlns:xlink="http://www.w3.org/1999/xlink">
<style>
use,use:target~use:last-child { display: none; }
use:target,use:last-child { display: inline; }
</style>
<defs><symbol id="mood_neutral" viewBox="0 0 24 24"><path fill-rule="evenodd" clip-rule="evenodd" d="M11.99 2C6.47 2 2 6.48 2 12s4.47 10 9.99 10C17.52 22 22 17.52 22 12S17.52 2 11.99 2zM7 9.5a1.5 1.5 0 1 1 3 0 1.5 1.5 0 0 1-3 0zM15.5 8a1.5 1.5 0 1 0 0 3 1.5 1.5 0 0 0 0-3zM9 15.5V14h6v1.5H9zM4 12c0 4.42 3.58 8 8 8s8-3.58 8-8-3.58-8-8-8-8 3.58-8 8z"/></symbol></defs><use id="medium" xlink:href="#mood_neutral" />
</svg>
