<svg style="display: none;" xmlns="http://www.w3.org/2000/svg" xmlns:xlink="http://www.w3.org/1999/xlink">
<style>
use,use:target~use:last-child { display: none; }
use:target,use:last-child { display: inline; }
</style>
<defs><symbol id="share_screen" viewBox="0 0 24 24"><path fill-rule="evenodd" clip-rule="evenodd" d="M20 18c1.1 0 1.99-.9 1.99-2L22 6a2 2 0 0 0-2-2H4c-1.11 0-2 .89-2 2v10a2 2 0 0 0 2 2H0v2h24v-2h-4zM4 16V6h16v10.01L4 16zm3-1c.56-2.67 2.11-5.33 6-5.87V7l4 3.73-4 3.74v-2.19c-2.78 0-4.61.85-6 2.72z"/></symbol></defs><use id="medium" xlink:href="#share_screen" />
</svg>
