<svg width="24" height="24" viewBox="0 0 24 24" xmlns="http://www.w3.org/2000/svg"><path fill-rule="evenodd" clip-rule="evenodd" d="M11.5 19.695v3.6l1.43-.69c5.13-2.47 8.57-7.45 8.57-12.4 0-5.24-4.26-9.5-9.5-9.5s-9.5 4.26-9.5 9.5c0 5.07 3.99 9.23 9 9.49zm-7-9.49c0-4.14 3.36-7.5 7.5-7.5 4.14 0 7.5 3.36 7.5 7.5 0 3.72-2.36 7.5-6 9.8v-2.3H12c-4.14 0-7.5-3.36-7.5-7.5zm8.5 4v2h-2v-2h2zm-.23-4.678c-.828.635-1.77 1.357-1.77 3.178h2c0-1.095.711-1.717 1.44-2.354.77-.673 1.56-1.363 1.56-2.646 0-2.21-1.79-4-4-4s-4 1.79-4 4h2c0-1.1.9-2 2-2s2 .9 2 2c0 .88-.58 1.324-1.23 1.822z"/></svg>