<svg width="24" height="24" viewBox="0 0 24 24" xmlns="http://www.w3.org/2000/svg"><path d="M12 2C6.489 2 2 6.489 2 12s4.489 10 10 10 10-4.489 10-10S17.511 2 12 2zm0 2c4.43 0 8 3.57 8 8s-3.57 8-8 8-8-3.57-8-8 3.57-8 8-8zm-.611 1.64l-1.748.971 1.214 2.19L9.079 12h2.287L12 10.86l1.145-2.06 1.214-2.189-1.748-.97L12 6.74l-.611-1.1zm2.328 4.19l-1.145 2.059.36.646 1.353 2.438-.015.017-.006.012h.037l1.31 2.357 1.748-.97L16.588 15H18v-2h-2.523l-1.76-3.17zM6 13v2h1.412l-.771 1.389 1.748.97L9.699 15h3.457l-1.11-2H7c-.014 0-.025.007-.04.008L6.948 13H6z"/></svg>