<svg width="24" height="24" viewBox="0 0 24 24" xmlns="http://www.w3.org/2000/svg"><path d="M16 1c-1.135 0-2.231.48-2.957 1.268-.656.717-1.055 1.99-1.055 3.013 1.172 0 2.424-.6 3.12-1.402C15.754 3.128 16 2.209 16 1zM8.275 5.514C6.181 5.514 3 7.48 3 12.11 3 16.324 6.767 21 8.893 21h.029c1.269 0 1.712-.823 3.451-.832 1.739.009 2.183.832 3.451.832h.03c1.541 0 3.941-2.464 5.146-5.424A3.99 3.99 0 0118.785 12c0-1.539.867-2.86 2.125-3.53-1.087-2.043-3.014-2.956-4.44-2.956-1.538 0-2.825 1.04-4.097 1.04-1.272 0-2.559-1.04-4.098-1.04zm0 2c.432 0 .963.204 1.524.422.748.29 1.594.619 2.574.619.98 0 1.828-.33 2.576-.62.56-.216 1.09-.421 1.522-.421.418 0 1.068.196 1.677.683A5.977 5.977 0 0016.788 12c0 1.597.62 3.08 1.69 4.18-.99 1.685-2.216 2.706-2.668 2.82-.152-.002-.261-.042-.636-.203-.577-.248-1.45-.622-2.813-.629-1.34.007-2.212.38-2.789.629-.358.154-.474.196-.64.201C7.942 18.757 5 15.438 5 12.111c0-3.473 2.207-4.596 3.275-4.597z"/></svg>