<svg width="24" height="24" viewBox="0 0 24 24" xmlns="http://www.w3.org/2000/svg"><path d="M4.602 2.01a1.45 1.45 0 00-.344.002c-.019.002-.036 0-.055.004a1 1 0 00-.59.26A1.601 1.601 0 003 3.503v17.088c0 .432.206.984.701 1.252s1.056.146 1.424-.076l.002-.002c-.06.036.276-.16.701-.4l1.715-.973c1.4-.793 3.238-1.832 5.08-2.873 1.842-1.042 3.687-2.083 5.096-2.881l1.732-.983c.432-.245.645-.366.776-.445.388-.235.78-.69.773-1.275-.008-.586-.402-1.014-.775-1.225A21953.353 21953.353 0 017.713 3.635L6 2.662c-.426-.242-.747-.428-.715-.408h-.002a1.764 1.764 0 00-.681-.244zM5 5.35l5.756 6.607L5 18.567V5.35zm3.596 1.084l3.177 1.797 1.493.843-1.184 1.36-3.486-4zm6.445 3.642l3.338 1.887c-.426.242-.976.556-1.647.936l-1.683.953a.999.999 0 00-.063-.084l-1.578-1.81 1.578-1.813a.999.999 0 00.055-.069zm-2.959 3.404l1.195 1.372-1.638.927-3.073 1.739 3.516-4.038z"/></svg>