<svg width="24" height="24" viewBox="0 0 24 24" xmlns="http://www.w3.org/2000/svg"><path d="M13 5c-1.811 0-3.382.972-4.26 2.414A3.958 3.958 0 007 7a4 4 0 00-4 4c0 .36.063.703.152 1.035A2.493 2.493 0 003.5 17h.55c-.018-.166-.05-.329-.05-.5a4.509 4.509 0 013.287-4.334A6.01 6.01 0 0113 8c1.322 0 2.57.426 3.594 1.203.42-.125.86-.186 1.304-.195A5 5 0 0013 5zm0 5a4 4 0 00-4 4c0 .018.006.034.006.05A2.5 2.5 0 108.5 19H21a2 2 0 100-4c-.065 0-.125.014-.19.02.117-.32.19-.66.19-1.02a3 3 0 00-3-3c-.68 0-1.302.235-1.805.617A3.981 3.981 0 0013 10z"/></svg>