<svg width="24" height="24" viewBox="0 0 24 24" xmlns="http://www.w3.org/2000/svg"><path d="M14 2L2 4v16l12 2V2zm1 5v2.25l2 1.156 4-2.312v1.594L17 12l-2-1.156V15h1.344c.562-1.18 1.761-2 3.156-2 .977 0 1.863.387 2.5 1.031V8c0-.602-.398-1-1-1h-6zM7.594 8c1.02 0 1.832.371 2.468 1.094.63.722.938 1.664.938 2.844 0 1.21-.309 2.226-.969 2.968C9.383 15.648 8.52 16 7.47 16c-1.028 0-1.864-.371-2.5-1.094C4.32 14.184 4 13.254 4 12.094c0-1.223.309-2.215.969-2.969C5.629 8.371 6.512 8 7.594 8zM7.53 9.5a1.57 1.57 0 00-1.343.688c-.329.457-.5 1.058-.5 1.812 0 .773.171 1.395.5 1.844.328.449.765.656 1.312.656.555 0 .992-.23 1.313-.656.328-.438.5-1.04.5-1.813 0-.793-.16-1.406-.47-1.844A1.544 1.544 0 007.532 9.5zM19.5 14a2.497 2.497 0 00-2.5 2.5c0 1.383 1.117 2.5 2.5 2.5s2.5-1.117 2.5-2.5-1.117-2.5-2.5-2.5zm-.5 1h1v1h1v1h-2v-2z"/></svg>