<svg width="24" height="24" viewBox="0 0 24 24" xmlns="http://www.w3.org/2000/svg"><path d="M14 3L2 5v14l12 2v-2h7a1 1 0 001-1V6a1 1 0 00-1-1h-7V3zm-2 2.361V18.64l-8-1.332V6.693l8-1.332zM14 7h6v2h-6V7zM4.5 8.5l1.299 7h1.293l.847-3.742a5.68 5.68 0 00.09-.783h.018c.008.288.031.549.072.783l.83 3.742h1.242l1.309-7h-1.365l-.451 3.223c-.033.27-.059.53-.067.783h-.015a7.206 7.206 0 00-.082-.748L8.967 8.5H7.2l-.594 3.268a5.285 5.285 0 00-.1.82h-.025a5.965 5.965 0 00-.064-.803L5.951 8.5H4.5zM14 11h6v2h-6v-2zm0 4h6v2h-6v-2z"/></svg>