<svg width="24" height="24" viewBox="0 0 24 24" xmlns="http://www.w3.org/2000/svg"><path d="M7.5 2A5.5 5.5 0 002 7.5c0 1.231.409 2.362 1.092 3.28-.054.4-.092.805-.092 1.22a9 9 0 009 9c.415 0 .82-.038 1.22-.092A5.468 5.468 0 0016.5 22a5.5 5.5 0 005.5-5.5 5.468 5.468 0 00-1.092-3.28c.054-.4.092-.805.092-1.22a9 9 0 00-9-9c-.415 0-.82.038-1.22.092A5.468 5.468 0 007.5 2zm0 2c.753 0 1.475.24 2.086.695l.652.489.809-.11C11.42 5.024 11.724 5 12 5c3.86 0 7 3.14 7 7 0 .276-.023.578-.074.953l-.11.809.489.652A3.47 3.47 0 0120 16.5c0 1.93-1.57 3.5-3.5 3.5a3.47 3.47 0 01-2.086-.695l-.652-.489-.809.11c-.375.05-.677.074-.953.074-3.86 0-7-3.14-7-7 0-.276.023-.578.074-.953l.11-.809-.489-.652A3.471 3.471 0 014 7.5C4 5.57 5.57 4 7.5 4zm4.35 3C8.09 7 7.813 9.209 7.813 9.754c0 1.084.621 1.926 1.683 2.334 1.13.434 2.5.694 3.277.906 1.217.333 1.063 1.004 1.063 1.102 0 1.03-1.41 1.295-2.012 1.238-.68-.064-1.369.13-2.086-1.346-.128-.264-.363-.841-1.07-.841-.306 0-1.07.232-1.07.962 0 1.432 1.599 2.891 4.38 2.891 1.454 0 4.167-.503 4.168-3.111 0-2.271-2.29-2.67-3.974-3.104-.461-.119-2.18-.309-2.18-1.209 0-.267.374-.908 1.72-.908 1.388 0 1.69.65 1.874.986.154.267.28.474.435.573a1.091 1.091 0 001.375-.116c.2-.207.3-.435.3-.695C15.695 8.285 14.357 7 11.85 7z"/></svg>