<svg width="24" height="24" viewBox="0 0 24 24" xmlns="http://www.w3.org/2000/svg"><path d="M12 2C6.489 2 2 6.489 2 12s4.489 10 10 10 10-4.489 10-10S17.511 2 12 2zm0 2c4.43 0 8 3.57 8 8s-3.57 8-8 8-8-3.57-8-8 3.57-8 8-8zm-1.31 4c-1.54 0-2.994.172-4.362.516-.342.085-.6.34-.6.853 0 .513.343.942.856.856.256 0 .343-.086.514-.086a16.488 16.488 0 013.592-.428c2.395 0 4.874.598 6.585 1.539.256.085.341.172.512.172.514 0 .857-.343.942-.856 0-.427-.255-.684-.512-.855C16.079 8.599 13.34 8 10.69 8zm-.17 2.994c-1.454 0-2.48.257-3.506.514-.428.17-.6.341-.6.77 0 .341.256.683.684.683.17 0 .256 0 .427-.086.77-.171 1.797-.342 2.909-.342 2.223 0 4.276.512 5.73 1.453.171.085.343.172.514.172.427 0 .682-.342.77-.77 0-.255-.172-.512-.428-.683-1.883-1.112-4.105-1.71-6.5-1.71zm.255 3.014c-1.197 0-2.31.17-3.421.428-.342 0-.512.255-.512.597 0 .342.255.6.597.6.086 0 .257-.086.428-.086.855-.171 1.881-.342 2.823-.342 1.71 0 3.336.427 4.619 1.197.17.085.256.17.427.17.256 0 .513-.17.684-.597 0-.342-.17-.429-.342-.6a10.864 10.864 0 00-5.303-1.367z"/></svg>