<svg width="24" height="24" viewBox="0 0 24 24" xmlns="http://www.w3.org/2000/svg"><path d="M5 3c-1.103 0-2 .897-2 2v14c0 1.103.897 2 2 2h14c1.103 0 2-.897 2-2V5c0-1.103-.897-2-2-2H5zm0 2h14l.002 14H5V5zm9.566 2.113A2.488 2.488 0 0012.08 9.6c0 .257.086.428.086.6-2.057-.086-3.857-1.114-5.057-2.571-.257.343-.343.77-.343 1.2 0 .856.429 1.544 1.115 2.144-.428-.086-.772-.173-1.115-.344 0 1.2.856 2.143 1.97 2.4-.257.086-.428.086-.685.086-.086 0-.259-.086-.43-.086.343.943 1.2 1.713 2.315 1.713-.857.6-1.972 1.03-3.086 1.03h-.6c1.114.684 2.4 1.115 3.771 1.115 4.543 0 7.03-3.773 7.03-7.03v-.343a5.786 5.786 0 001.201-1.287c-.514.258-.943.343-1.457.43.514-.343.942-.772 1.113-1.372-.429.257-.943.514-1.543.6-.429-.514-1.113-.772-1.799-.772z"/></svg>