<svg width="24" height="24" viewBox="0 0 24 24" xmlns="http://www.w3.org/2000/svg"><path d="M12.012 2c-5.506 0-9.989 4.478-9.99 9.984a9.964 9.964 0 001.333 4.993L2 22l5.232-1.236a9.981 9.981 0 004.774 1.215h.004c5.505 0 9.985-4.48 9.988-9.985a9.922 9.922 0 00-2.922-7.066A9.923 9.923 0 0012.012 2zm-.002 2a7.95 7.95 0 015.652 2.342 7.929 7.929 0 012.336 5.65c-.002 4.404-3.584 7.986-7.99 7.986a7.999 7.999 0 01-3.817-.97l-.673-.367-.745.175-1.968.465.48-1.785.217-.8-.414-.72a7.98 7.98 0 01-1.067-3.992C4.023 7.582 7.607 4 12.01 4zM8.477 7.375a.917.917 0 00-.666.313c-.23.248-.875.852-.875 2.08 0 1.228.894 2.415 1.02 2.582.123.166 1.726 2.765 4.263 3.765 2.108.831 2.536.667 2.994.625.458-.04 1.477-.602 1.685-1.185.208-.583.209-1.085.147-1.188-.062-.104-.229-.166-.479-.29-.249-.126-1.476-.728-1.705-.811-.229-.083-.396-.125-.562.125-.166.25-.643.81-.79.976-.145.167-.29.19-.54.065-.25-.126-1.054-.39-2.008-1.24-.742-.662-1.243-1.477-1.389-1.727-.145-.25-.013-.386.112-.51.112-.112.248-.291.373-.437.124-.146.167-.25.25-.416.083-.166.04-.313-.022-.438s-.547-1.357-.77-1.851c-.186-.415-.384-.425-.562-.432-.145-.006-.31-.006-.476-.006z"/></svg>