<svg width="24" height="24" viewBox="0 0 24 24" xmlns="http://www.w3.org/2000/svg"><path d="M5.68 2l1.478 5.344v2.562H8.44V7.344L9.937 2h-1.29l-.538 2.432c-.15.71-.247 1.214-.29 1.515h-.04c-.063-.42-.159-.93-.29-1.525L6.97 2H5.68zm5.752 2.018c-.434 0-.784.084-1.051.257-.267.172-.464.448-.59.825-.125.377-.187.876-.187 1.498v.84c0 .615.054 1.107.164 1.478.11.371.295.644.556.82.261.176.62.264 1.078.264.446 0 .8-.087 1.06-.26.26-.173.45-.444.565-.818.116-.374.174-.869.174-1.485v-.84c0-.62-.059-1.118-.178-1.492-.119-.373-.308-.648-.566-.824-.258-.176-.598-.263-1.025-.263zm2.447.113v4.314c0 .534.09.927.271 1.178.182.251.465.377.848.377.552 0 .968-.267 1.244-.8h.027l.114.706H17.4V4.131h-1.298v4.588a.635.635 0 01-.23.263.569.569 0 01-.325.104c-.132 0-.226-.054-.283-.164-.057-.11-.086-.295-.086-.553V4.131h-1.3zm-2.477.781c.182 0 .311.095.383.287.072.191.108.495.108.91v1.8c0 .426-.036.735-.108.923-.072.188-.2.282-.38.283-.183 0-.309-.095-.378-.283-.07-.188-.103-.497-.103-.924V6.11c0-.414.035-.718.107-.91.072-.19.195-.287.371-.287zM5 11c-1.1 0-2 .9-2 2v7c0 1.1.9 2 2 2h14c1.1 0 2-.9 2-2v-7c0-1.1-.9-2-2-2H5zm7.049 2h1.056v2.568h.008c.095-.186.232-.335.407-.449.175-.114.364-.17.566-.17.26 0 .463.07.611.207.148.138.257.361.323.668.066.308.097.736.097 1.281v.772h.002c0 .727-.088 1.26-.264 1.602-.175.341-.447.513-.818.513-.207 0-.394-.047-.564-.142a.93.93 0 01-.383-.391h-.024l-.11.46h-.907V13zm-6.563.246h3.252v.885h-1.09v5.789H6.576v-5.79h-1.09v-.884zm11.612 1.705c.376 0 .665.07.867.207.2.138.343.354.426.645.082.292.123.695.123 1.209v.836h-1.836v.248c0 .313.008.547.027.703.02.156.057.27.115.342.058.072.148.107.27.107.164 0 .277-.064.338-.191.06-.127.094-.338.1-.635l.947.055c.005.042.007.101.007.175 0 .451-.124.788-.37 1.01-.248.223-.595.334-1.046.334-.54 0-.92-.17-1.138-.51-.218-.339-.326-.863-.326-1.574v-.851c0-.733.112-1.267.338-1.604.225-.337.612-.506 1.158-.506zm-8.688.094h1.1v3.58c0 .217.024.373.072.465.048.093.126.139.238.139a.486.486 0 00.276-.088.538.538 0 00.193-.223v-3.873h1.1v4.875h-.862l-.093-.598h-.026c-.234.452-.584.678-1.05.678-.325 0-.561-.106-.715-.318-.154-.212-.233-.544-.233-.994v-3.643zm8.664.648c-.117 0-.204.036-.26.104-.055.069-.093.182-.11.338a6.506 6.506 0 00-.028.71v.35h.803v-.35c0-.312-.01-.548-.032-.71-.02-.162-.059-.276-.115-.342-.056-.066-.14-.1-.258-.1zm-3.482.036a.418.418 0 00-.293.127.698.698 0 00-.192.326v2.767a.487.487 0 00.438.256.337.337 0 00.277-.127c.07-.085.12-.228.149-.43.029-.2.043-.48.043-.835v-.627c0-.383-.011-.676-.035-.883-.024-.207-.067-.357-.127-.444a.3.3 0 00-.26-.13z"/></svg>