<svg width="24" height="24" viewBox="0 0 24 24" xmlns="http://www.w3.org/2000/svg"><path fill-rule="evenodd" clip-rule="evenodd" d="M9.995 2l5.71 5.71-4.3 4.29 4.3 4.29L9.995 22h-1v-7.59L4.405 19l-1.41-1.41L8.585 12l-5.59-5.59L4.405 5l4.59 4.59V2h1zm9.53 4.71l-1.26 1.26c.63 1.21.98 2.57.98 4.02 0 1.45-.36 2.82-.98 4.02l1.2 1.2a9.936 9.936 0 001.54-5.31c-.01-1.89-.55-3.67-1.48-5.19zm-5.29 5.3l2.32 2.32c.28-.72.44-1.51.44-2.33 0-.82-.16-1.59-.43-2.31l-2.33 2.32zm-3.24-6.18l1.88 1.88-1.88 1.88V5.83zm0 12.34l1.88-1.88-1.88-1.88v3.76z"/></svg>