<svg width="24" height="24" viewBox="0 0 24 24" xmlns="http://www.w3.org/2000/svg"><path fill-rule="evenodd" clip-rule="evenodd" d="M17.815 4.47c-.08 0-.16-.02-.23-.06-1.92-.99-3.58-1.41-5.57-1.41-1.98 0-3.86.47-5.57 1.41-.24.13-.54.04-.68-.2a.506.506 0 01.2-.68C7.825 2.52 9.865 2 12.015 2c2.13 0 3.99.47 6.03 1.52.25.13.34.43.21.67a.49.49 0 01-.44.28zM3.505 9.72a.499.499 0 01-.41-.79c.99-1.4 2.25-2.5 3.75-3.27 3.14-1.62 7.16-1.63 10.31-.01 1.5.77 2.76 1.86 3.75 3.25a.5.5 0 01-.12.7c-.23.16-.54.11-.7-.12a9.388 9.388 0 00-3.39-2.94c-2.87-1.47-6.54-1.47-9.4.01-1.36.7-2.5 1.7-3.4 2.96-.08.14-.23.21-.39.21zm5.9 11.92c.09.1.22.15.35.15.13 0 .26-.05.37-.15.19-.2.19-.51 0-.71-.77-.78-1.21-1.27-1.85-2.42-.61-1.08-.93-2.41-.93-3.85 0-2.42 2.09-4.39 4.66-4.39 2.57 0 4.66 1.97 4.66 4.39 0 .28.22.5.5.5s.5-.22.5-.5c0-2.97-2.54-5.39-5.66-5.39s-5.66 2.42-5.66 5.39c0 1.61.36 3.11 1.05 4.34.67 1.21 1.14 1.77 2.01 2.64zm7.52-1.7c-1.19 0-2.24-.3-3.1-.89-1.49-1.01-2.38-2.65-2.38-4.39 0-.28.22-.5.5-.5s.5.22.5.5c0 1.41.72 2.74 1.94 3.56.71.48 1.54.71 2.54.71.24 0 .64-.03 1.04-.1.27-.05.53.13.58.41.05.27-.13.53-.41.58-.57.11-1.07.12-1.21.12zm-2.14 2.04c.04.01.09.02.13.02.21 0 .42-.15.47-.38a.496.496 0 00-.35-.61c-1.41-.39-2.32-.91-3.27-1.85a6.297 6.297 0 01-1.87-4.51c0-1.07.93-1.94 2.08-1.94s2.08.87 2.08 1.94c0 1.62 1.38 2.94 3.08 2.94 1.7 0 3.08-1.32 3.08-2.94 0-4.32-3.7-7.83-8.25-7.83-3.23 0-6.18 1.81-7.51 4.6-.45.95-.68 2.04-.68 3.24 0 1.35.24 2.65.73 3.96.09.25.38.39.64.29.26-.09.39-.38.29-.64-.6-1.6-.67-2.83-.67-3.61 0-1.04.2-1.99.59-2.8 1.17-2.45 3.77-4.03 6.61-4.03 4 0 7.25 3.06 7.25 6.83 0 1.07-.93 1.94-2.08 1.94s-2.08-.87-2.08-1.94c0-1.62-1.38-2.94-3.08-2.94-1.7 0-3.08 1.32-3.08 2.94 0 1.98.77 3.83 2.17 5.22 1.09 1.07 2.13 1.66 3.72 2.1z"/></svg>