<svg width="24" height="24" viewBox="0 0 24 24" xmlns="http://www.w3.org/2000/svg"><path fill-rule="evenodd" clip-rule="evenodd" d="M3.32 4.73l1.41-1.41 15.95 15.95-1.41 1.41-2.58-2.58c-.68.42-1.43.75-2.23.96v-2.09c.26-.1.51-.21.76-.34L7.14 8.55c-.43.83-.68 1.77-.68 2.77 0 1.66.68 3.15 1.76 4.24l2.24-2.24v6h-6l2.36-2.36a7.925 7.925 0 01-1.14-9.87L3.32 4.73zm17.14 6.59c0-2.21-.91-4.2-2.36-5.64l2.36-2.36h-6v6l2.24-2.24a6.003 6.003 0 011.76 4.24c0 .85-.19 1.65-.51 2.38l1.5 1.5a7.921 7.921 0 001.01-3.88zm-10-5.65V3.58c-.66.17-1.29.43-1.88.75l1.5 1.5c.065-.025.128-.053.19-.08.063-.028.125-.055.19-.08z"/></svg>