<svg width="111" height="56" viewBox="0 0 111 56" fill="none" xmlns="http://www.w3.org/2000/svg">
<path d="M88.2415 43.7661C86.1356 43.7661 84.3043 43.5029 82.7478 42.9763C81.1912 42.4498 79.8788 41.8063 78.8106 41.0458C77.7729 40.256 76.9488 39.4955 76.3384 38.7643C76.0637 38.4425 76.079 38.1354 76.3842 37.8429L78.2154 35.8246C78.5512 35.5028 78.8869 35.5174 79.2226 35.8685C80.6266 37.3895 82.0763 38.4425 83.5718 39.0275C85.0979 39.6125 86.7307 39.905 88.4704 39.905C90.5763 39.905 92.1481 39.4516 93.1858 38.5449C94.254 37.6089 94.7881 36.4535 94.7881 35.0787C94.7881 34.0257 94.4982 33.192 93.9183 32.5778C93.3689 31.9635 92.5449 31.4516 91.4461 31.0421C90.3779 30.6034 89.0655 30.1792 87.509 29.7697C86.2271 29.4187 84.9758 29.0384 83.7549 28.6289C82.5646 28.2194 81.4812 27.7075 80.5045 27.0933C79.5584 26.4498 78.7953 25.6454 78.2154 24.6801C77.6661 23.6856 77.3914 22.4424 77.3914 20.9507C77.3914 19.0494 77.8645 17.4406 78.8106 16.1243C79.7567 14.7788 81.0233 13.755 82.6104 13.053C84.228 12.351 86.0287 12 88.0126 12C90.2711 12 92.1786 12.3803 93.7352 13.1408C95.3223 13.9013 96.5584 14.7349 97.4435 15.6417C97.7487 15.9342 97.7487 16.2413 97.4435 16.5631L95.658 18.6252C95.3528 19.0055 95.0323 19.0055 94.6966 18.6252C93.7505 17.6892 92.728 17.0018 91.6293 16.5631C90.561 16.0951 89.325 15.8611 87.921 15.8611C86.5781 15.8611 85.4336 16.0658 84.4874 16.4753C83.5413 16.8848 82.8241 17.4552 82.3357 18.1865C81.8474 18.8885 81.6032 19.6929 81.6032 20.5997C81.6032 21.7404 81.939 22.6472 82.6104 23.32C83.3124 23.9635 84.2128 24.4754 85.3115 24.8556C86.4102 25.2359 87.57 25.5869 88.7908 25.9086C90.7442 26.4059 92.4838 26.9763 94.0099 27.6198C95.5664 28.2633 96.7873 29.1408 97.6724 30.2523C98.5575 31.3346 99 32.8118 99 34.6838C99 35.6783 98.8321 36.7167 98.4964 37.799C98.1607 38.852 97.5961 39.8319 96.8025 40.7387C96.009 41.6454 94.9102 42.3767 93.5063 42.9325C92.1329 43.4882 90.3779 43.7661 88.2415 43.7661Z" fill="black"/>
<path d="M48.6763 43.2396C48.2185 43.2396 47.9896 43.0202 47.9896 42.5815V13.1847C47.9896 12.7459 48.2185 12.5265 48.6763 12.5265H58.8855C61.5103 12.5265 63.8909 13.1554 66.0273 14.4132C68.1638 15.671 69.8729 17.4552 71.1548 19.766C72.4366 22.0476 73.0776 24.7533 73.0776 27.8831C73.0776 31.0129 72.4366 33.7332 71.1548 36.044C69.8729 38.3255 68.1638 40.0952 66.0273 41.3529C63.8909 42.6107 61.5103 43.2396 58.8855 43.2396H48.6763ZM52.1099 39.4663H58.4735C60.3352 39.4663 62.0596 38.9983 63.6467 38.0623C65.2338 37.1262 66.5004 35.7953 67.4465 34.0696C68.4232 32.3145 68.9115 30.2524 68.9115 27.8831C68.9115 25.4845 68.4232 23.4224 67.4465 21.6966C66.5004 19.9708 65.2338 18.6399 63.6467 17.7039C62.0596 16.7679 60.3352 16.2998 58.4735 16.2998H52.1099V39.4663Z" fill="black"/>
<path d="M28.4659 44C25.0713 44 22.1396 43.324 19.6709 41.972C17.2021 40.5777 15.3064 38.6975 13.9838 36.3315C12.6613 33.9654 12 31.2614 12 28.2193C12 24.8815 12.7274 22.0085 14.1822 19.6002C15.637 17.1919 17.5768 15.3328 20.0015 14.0231C22.4703 12.7133 25.1374 12.0584 28.003 12.0584C31.0008 12.0584 33.5798 12.7344 35.74 14.0864C37.9001 15.4385 39.5533 17.213 40.6996 19.41C41.8899 21.6071 42.485 23.9731 42.485 26.5082V28.2827C42.485 28.7475 42.2205 28.9798 41.6915 28.9798H14.9096C14.4247 28.9798 14.1822 28.7475 14.1822 28.2827V26.0645C14.1822 25.5575 14.4247 25.304 14.9096 25.304H38.1867C37.9663 22.6845 36.9744 20.4663 35.2109 18.6495C33.4916 16.8327 31.0669 15.9243 27.9369 15.9243C25.424 15.9243 23.2859 16.4947 21.5224 17.6355C19.8031 18.734 18.4805 20.1917 17.5548 22.0085C16.629 23.8252 16.1661 25.8322 16.1661 28.0292C16.1661 30.1417 16.629 32.1275 17.5548 33.9866C18.5246 35.8033 19.9133 37.2821 21.7208 38.4229C23.5724 39.5637 25.8648 40.134 28.5981 40.134C30.4938 40.134 32.3454 39.7749 34.1529 39.0567C35.9604 38.3384 37.6136 37.3666 39.1125 36.1414C39.5974 35.8033 39.9722 35.8456 40.2367 36.2681L41.6254 38.106C41.934 38.4863 41.9119 38.8243 41.5592 39.12C39.884 40.6833 37.9001 41.8875 35.6077 42.7325C33.3153 43.5775 30.9347 44 28.4659 44Z" fill="black"/>
</svg>
