<svg width="40" height="41" viewBox="0 0 40 41" fill="none" xmlns="http://www.w3.org/2000/svg">
<path fill-rule="evenodd" clip-rule="evenodd" d="M6.94397 9.00371L6.94427 19.7466C6.94397 20.065 7.10364 20.3592 7.37944 20.518L16.6882 25.8808C17.0831 26.1083 17.5867 25.8234 17.587 25.3674V14.6249C17.5873 14.3064 17.4176 14.0122 17.1415 13.8532L7.83299 8.49062C7.4378 8.26311 6.94456 8.54809 6.94397 9.00371ZM35.6156 0.615065L22.214 8.33598C21.817 8.56468 21.5723 8.98801 21.5729 9.44629V24.9127C21.5735 25.5692 22.2984 25.9792 22.8669 25.6515L36.2688 17.9312C36.6658 17.7022 36.8954 17.2789 36.8948 16.8206L36.8951 1.35419C36.8945 0.697717 36.1844 0.28772 35.6156 0.615065ZM17.2315 33.5099L13.5072 35.6559C13.397 35.7196 13.3288 35.8372 13.3288 35.9646L13.3285 40.2624C13.3285 40.4452 13.5306 40.559 13.6885 40.468L17.4128 38.3223C17.5233 38.2589 17.5873 38.141 17.587 38.014V33.7155C17.587 33.5333 17.3894 33.4193 17.2315 33.5099ZM15.061 29.5441L9.48335 26.3166C9.31805 26.2212 9.11423 26.2212 8.94893 26.3166L3.37131 29.5441C3.13461 29.681 3.13461 30.0226 3.37131 30.1597L8.94893 33.3867C9.11423 33.4827 9.31805 33.4827 9.48335 33.3867L15.061 30.1597C15.2977 30.0226 15.2977 29.681 15.061 29.5441ZM24.0403 30.126L26.5187 31.5598C26.6653 31.6448 26.8463 31.6448 26.9932 31.5598L29.4713 30.126C29.6816 30.0039 29.6816 29.7003 29.4713 29.5785L26.9932 28.1447C26.8463 28.0597 26.6653 28.0597 26.5187 28.1447L24.0403 29.5785C23.83 29.7003 23.83 30.0039 24.0403 30.126ZM22.0469 33.5769L24.5276 35.0059C24.6746 35.0907 24.7652 35.2477 24.7652 35.4174L24.7622 38.2803C24.762 38.5232 24.4989 38.6752 24.2883 38.554L21.8075 37.1249C21.6606 37.0402 21.5732 36.8826 21.5732 36.7135L21.5729 33.8506C21.5729 33.608 21.8363 33.4554 22.0469 33.5769Z" fill="#206F77"/>
</svg>
