<svg width="24" height="24" viewBox="0 0 24 24" xmlns="http://www.w3.org/2000/svg"><path fill-rule="evenodd" clip-rule="evenodd" d="M19 5a1 1 0 1 0 2 0h1a1 1 0 1 0 0-2h-1a1 1 0 1 0-2 0H5a1 1 0 0 0-2 0H2a1 1 0 0 0 0 2h1a1 1 0 0 0 2 0h2.204L9.03 8.032A2 2 0 0 0 10.743 9h2.836a2 2 0 0 0 1.761-1.053L16.925 5zM9.539 5h5.115l-1.075 2h-2.836zm6.42 4.96c-2.234 2.234-5.684 2.234-7.918 0l-1.415 1.414c3.016 3.016 7.732 3.016 10.748 0zM5.375 12.626c3.734 3.734 9.518 3.734 13.252 0l1.414 1.414c-4.515 4.516-11.565 4.516-16.08 0zm15.919 2.667c-5.235 5.234-13.351 5.234-18.586 0l-1.414 1.414c6.015 6.016 15.399 6.016 21.414 0z"/></svg>
