<svg width="24" height="24" viewBox="0 0 24 24" xmlns="http://www.w3.org/2000/svg"><path fill-rule="evenodd" clip-rule="evenodd" d="M17.5 3.75c0 1.1-.9 2-2 2s-2-.9-2-2 .9-2 2-2 2 .9 2 2zM0 17.25c0-2.8 2.2-5 5-5s5 2.2 5 5-2.2 5-5 5-5-2.2-5-5zm5 3.5c-1.9 0-3.5-1.6-3.5-3.5s1.6-3.5 3.5-3.5 3.5 1.6 3.5 3.5-1.6 3.5-3.5 3.5zm14.1-9.5c-2.1 0-3.8-.8-5.1-2.1l-.8-.8-2.4 2.4 2.2 2.3v6.2h-2v-5l-3.2-2.8c-.4-.3-.6-.8-.6-1.4 0-.5.2-1 .6-1.4l2.8-2.8c.3-.4.8-.6 1.4-.6.6 0 1.1.2 1.6.6l1.9 1.9c.9.9 2.1 1.5 3.6 1.5v2zm-.1 1c-2.8 0-5 2.2-5 5s2.2 5 5 5 5-2.2 5-5-2.2-5-5-5zm-3.5 5c0 1.9 1.6 3.5 3.5 3.5s3.5-1.6 3.5-3.5-1.6-3.5-3.5-3.5-3.5 1.6-3.5 3.5z"/></svg>