<svg width="24" height="24" viewBox="0 0 24 24" xmlns="http://www.w3.org/2000/svg"><path d="M17.446 4a1 1 0 0 1 .848.47L21.75 9h1.408a.5.5 0 0 1 .44.74L19.637 17H19a6 6 0 0 1-1.535-.198L20.63 11H13l-2 2H3.4l1.048 3.824C3.975 16.941 3.488 17 3 17h-.545l-1.24-4.821A1 1 0 0 1 2.197 11H10l2-2V5a1 1 0 0 1 1-1zM14 9h5.392l-2.5-3H14zM7 17.472A5.98 5.98 0 0 1 3 19H2v2h1a7.96 7.96 0 0 0 4-1.07A7.96 7.96 0 0 0 11 21a7.96 7.96 0 0 0 4-1.07A7.96 7.96 0 0 0 19 21h1v-2h-1a5.98 5.98 0 0 1-4-1.528A5.98 5.98 0 0 1 11 19a5.98 5.98 0 0 1-4-1.528"/><path d="M7 13.5a5.98 5.98 0 0 1-4 1.528h-.5V17l.5.028a7.96 7.96 0 0 0 4-1.07 7.96 7.96 0 0 0 4 1.07 7.96 7.96 0 0 0 4-1.07 7.96 7.96 0 0 0 4 1.07h.633l.367-2h-1a5.98 5.98 0 0 1-4-1.528 5.98 5.98 0 0 1-4 1.528A5.98 5.98 0 0 1 7 13.5"/></svg>
