<svg style="display: none;" xmlns="http://www.w3.org/2000/svg" xmlns:xlink="http://www.w3.org/1999/xlink">
<style>
use,
use:target~use:last-child { display: none; }
use:target,
use:last-child { display: inline; }
</style><defs><symbol id="car" viewBox="0 0 24 24"><path fill-rule="evenodd" clip-rule="evenodd" d="M18.92 5.01C18.72 4.42 18.16 4 17.5 4h-11c-.66 0-1.21.42-1.42 1.01L3 11v8c0 .55.45 1 1 1h1c.55 0 1-.45 1-1v-1h12v1c0 .55.45 1 1 1h1c.55 0 1-.45 1-1v-8l-2.08-5.99zM6.85 6h10.29l1.08 3.11H5.77L6.85 6zM5 16h14v-5H5v5zm2.5-4a1.5 1.5 0 1 0 0 3 1.5 1.5 0 0 0 0-3zm7.5 1.5a1.5 1.5 0 1 1 3 0 1.5 1.5 0 0 1-3 0z"/></symbol></defs><use id="medium" xlink:href="#car" /></svg>