<svg width="24" height="24" viewBox="0 0 24 24" xmlns="http://www.w3.org/2000/svg"><path fill-rule="evenodd" clip-rule="evenodd" d="M7 5.1c.83 0 1.5-.67 1.5-1.5C8.5 2.6 7 .9 7 .9S5.5 2.6 5.5 3.6c0 .83.67 1.5 1.5 1.5m6.5-1.5c0 .83-.67 1.5-1.5 1.5s-1.5-.67-1.5-1.5c0-1 1.5-2.7 1.5-2.7s1.5 1.7 1.5 2.7m5 0c0 .83-.67 1.5-1.5 1.5s-1.5-.67-1.5-1.5c0-1 1.5-2.7 1.5-2.7s1.5 1.7 1.5 2.7m-1 3.5c.66 0 1.22.42 1.42 1.01L21 14.1v8c0 .55-.45 1-1 1h-1c-.55 0-1-.45-1-1v-1H6v1c0 .55-.45 1-1 1H4c-.55 0-1-.45-1-1v-8l2.08-5.99c.21-.59.76-1.01 1.42-1.01zm-10.65 2h10.29l1.04 3H5.81zM5 14.44v4.66h14v-4.66l-.11-.34H5.12zm2.5.66a1.5 1.5 0 1 0 0 3 1.5 1.5 0 0 0 0-3m7.5 1.5a1.5 1.5 0 1 1 3 0 1.5 1.5 0 0 1-3 0"/></svg>
