<svg style="display: none;" xmlns="http://www.w3.org/2000/svg" xmlns:xlink="http://www.w3.org/1999/xlink">
<style>
use,use:target~use:last-child { display: none; }
use:target,use:last-child { display: inline; }
</style>
<defs><symbol id="cinema" viewBox="0 0 24 24"><path fill-rule="evenodd" clip-rule="evenodd" d="M18 3h2v18h-2v-2h-2v2H8v-2H6v2H4V3h2v2h2V3h8v2h2V3zm-4 16V5h-4v14h4zm2-10V7h2v2h-2zM6 7v2h2V7H6zm10 6v-2h2v2h-2zM6 11v2h2v-2H6zm10 6v-2h2v2h-2zM6 15v2h2v-2H6z"/></symbol></defs><use id="medium" xlink:href="#cinema" />
</svg>
