<svg width="24" height="24" viewBox="0 0 24 24" xmlns="http://www.w3.org/2000/svg"><path fill-rule="evenodd" clip-rule="evenodd" d="M16 1a6.98 6.98 0 0 0-5.75 3.02C9.84 4.01 9.43 4 9 4c-4.42 0-8 .5-8 4v10c0 .88.39 1.67 1 2.22V22c0 .55.45 1 1 1h1c.55 0 1-.45 1-1v-1h8v1c0 .55.45 1 1 1h1c.55 0 1-.45 1-1v-1.78c.61-.55 1-1.34 1-2.22v-3.08c3.39-.49 6-3.39 6-6.92 0-3.87-3.13-7-7-7M4 16.5a1.5 1.5 0 1 1 3 0 1.5 1.5 0 0 1-3 0m7 0a1.5 1.5 0 1 1 3 0 1.5 1.5 0 0 1-3 0M9.29 6H9c-3.69 0-5.11.46-5.66.99h5.74c.05-.33.12-.67.21-.99M3 8.99h6.08c.16 1.11.57 2.13 1.18 3.01H3zm11.66 9.74c.13-.11.34-.36.34-.73v-3.08c-.94-.13-1.81-.45-2.59-.92H3v4c0 .37.21.62.34.73l.29.27h10.74zM16 13c-2.76 0-5-2.24-5-5s2.24-5 5-5 5 2.24 5 5-2.24 5-5 5m-1-9h1.5v4.25l2.87 1.68-.75 1.23L15 9z"/></svg>
