<svg style="display: none;" xmlns="http://www.w3.org/2000/svg" xmlns:xlink="http://www.w3.org/1999/xlink">
<style>
use,
use:target~use:last-child { display: none; }
use:target,
use:last-child { display: inline; }
</style><defs><symbol id="directions" viewBox="0 0 24 24"><path fill-rule="evenodd" clip-rule="evenodd" d="m22.427 10.593-9.01-9.01c-.75-.75-2.07-.76-2.83 0l-9 9c-.78.78-.78 2.04 0 2.82l9 9c.39.39.9.58 1.41.58.51 0 1.02-.19 1.41-.58l8.99-8.99c.79-.76.8-2.02.03-2.82zm-10.42 10.4-9-9 9-9 9 9-9 9zm-4.01-5.99v-4c0-.55.45-1 1-1h5v-2.5l3.5 3.5-3.5 3.5v-2.5h-4v3h-2z"/></symbol></defs><use id="medium" xlink:href="#directions" /></svg>