<svg width="24" height="24" viewBox="0 0 24 24" xmlns="http://www.w3.org/2000/svg"><path fill-rule="evenodd" clip-rule="evenodd" d="M20 12c0-4.41-3.59-8-8-8-1.48 0-2.86.41-4.05 1.12L6.49 3.66A9.9 9.9 0 0 1 12 2c5.52 0 10 4.48 10 10 0 2.04-.61 3.93-1.66 5.52l-1.46-1.46C19.59 14.86 20 13.48 20 12m-2.5-5.5-2.59 5.58-2.99-2.99zM2.1 4.93l1.56 1.56A9.9 9.9 0 0 0 2 12c0 5.52 4.48 10 10 10 2.04 0 3.93-.61 5.51-1.66l1.56 1.56 1.41-1.41L3.51 3.51zm7 6.99L5.12 7.94A7.93 7.93 0 0 0 4 12c0 4.41 3.59 8 8 8 1.48 0 2.86-.41 4.06-1.11l-3.98-3.98L6.5 17.5z"/></svg>
