<svg style="display: none;" xmlns="http://www.w3.org/2000/svg" xmlns:xlink="http://www.w3.org/1999/xlink">
<style>
use,use:target~use:last-child { display: none; }
use:target,use:last-child { display: inline; }
</style>
<defs><symbol id="explore" viewBox="0 0 24 24"><path fill-rule="evenodd" clip-rule="evenodd" d="M2 12C2 6.48 6.48 2 12 2s10 4.48 10 10-4.48 10-10 10S2 17.52 2 12zm2 0c0 4.41 3.59 8 8 8s8-3.59 8-8-3.59-8-8-8-8 3.59-8 8zm2.5 5.5 7.51-3.49L17.5 6.5 9.99 9.99 6.5 17.5zm6.6-5.5c0-.61-.49-1.1-1.1-1.1-.61 0-1.1.49-1.1 1.1 0 .61.49 1.1 1.1 1.1.61 0 1.1-.49 1.1-1.1z"/></symbol></defs><use id="medium" xlink:href="#explore" />
</svg>
