<svg width="24" height="24" viewBox="0 0 24 24" xmlns="http://www.w3.org/2000/svg"><path fill-rule="evenodd" clip-rule="evenodd" d="M9 4H7v6H2.81a.5.5 0 0 0-.448.724l.862 1.723a1 1 0 0 0 .894.553H7v1.726q.534-.309 1-.726.466.417 1 .726V13h6v1.726q.534-.309 1-.726.466.417 1 .726V13h2.882a1 1 0 0 0 .895-.553l.861-1.723a.5.5 0 0 0-.447-.724h-.69V8a1 1 0 0 0-1-1H17V4h-2v6H9zm8 4.5V10h2V8.5z"/><path d="M8 18.458q.485.28 1 .489V20H7v-1.053a8 8 0 0 0 1-.489M15 20v-1.053a8 8 0 0 0 1-.489q.485.28 1 .489V20z"/><path d="M4 16.528A5.98 5.98 0 0 0 8 15a5.98 5.98 0 0 0 4 1.528A5.98 5.98 0 0 0 16 15a5.98 5.98 0 0 0 4 1.528h1v2h-1a7.96 7.96 0 0 1-4-1.07 7.96 7.96 0 0 1-4 1.07 7.96 7.96 0 0 1-4-1.07 7.96 7.96 0 0 1-4 1.07H3v-2z"/></svg>
