<svg style="display: none;" xmlns="http://www.w3.org/2000/svg" xmlns:xlink="http://www.w3.org/1999/xlink">
<style>
use,
use:target~use:last-child { display: none; }
use:target,
use:last-child { display: inline; }
</style><defs><symbol id="mall" viewBox="0 0 24 24"><path fill-rule="evenodd" clip-rule="evenodd" d="M17 6.5h2c1.1 0 2 .9 2 2v12c0 1.1-.9 2-2 2H5c-1.1 0-2-.9-2-2v-12c0-1.1.9-2 2-2h2c0-2.76 2.24-5 5-5s5 2.24 5 5zm-2 0c0-1.66-1.34-3-3-3s-3 1.34-3 3h6zm-10 14v-12h14v12H5zm4-11c0 1.66 1.34 3 3 3s3-1.34 3-3h2c0 2.76-2.24 5-5 5s-5-2.24-5-5h2z"/></symbol></defs><use id="medium" xlink:href="#mall" /></svg>