<svg style="display: none;" xmlns="http://www.w3.org/2000/svg" xmlns:xlink="http://www.w3.org/1999/xlink">
<style>
use,
use:target~use:last-child { display: none; }
use:target,
use:last-child { display: inline; }
</style><defs><symbol id="map" viewBox="0 0 24 24"><path fill-rule="evenodd" clip-rule="evenodd" d="M20.34 3.03 20.5 3c.28 0 .5.22.5.5v15.12c0 .23-.15.41-.36.48L15 21l-6-2.1-5.34 2.07-.16.03c-.28 0-.5-.22-.5-.5V5.38c0-.23.15-.41.36-.48L9 3l6 2.1 5.34-2.07zM14 6.87l-4-1.4v11.66l4 1.4V6.87zm-9-.41 3-1.01v11.7l-3 1.16V6.46zm11 12.09 3-1.01V5.7l-3 1.16v11.69z"/></symbol></defs><use id="medium" xlink:href="#map" /></svg>