<svg width="24" height="24" viewBox="0 0 24 24" xmlns="http://www.w3.org/2000/svg"><mask id="a"><path fill-rule="evenodd" clip-rule="evenodd" d="M4 7.5 5.5 6l1 1H7l1.5-1.5L7 4h-.5l-1 1L4 3.5l1.06-1.06A1.5 1.5 0 0 1 6.122 2H7.38a1.5 1.5 0 0 1 1.06.44L10.5 4.5h8.882a1.5 1.5 0 1 1 1.468 2.459L18.674 11H21a2 2 0 0 1 2 2v2a2 2 0 0 1-2 2H4a3 3 0 1 1 0-6h12.403l2.423-4.5H10.5L8.44 8.56A1.5 1.5 0 0 1 7.378 9H6.12a1.5 1.5 0 0 1-1.06-.44L4 7.5zM4 15h17v-2H4a1 1 0 1 0 0 2zm1 7a2 2 0 1 1 0-4 2 2 0 0 1 0 4zm5-2a2 2 0 1 0 4 0 2 2 0 0 0-4 0zm9 2a2 2 0 1 1 0-4 2 2 0 0 1 0 4z"/></mask><path fill-rule="evenodd" clip-rule="evenodd" d="M4 7.5 5.5 6l1 1H7l1.5-1.5L7 4h-.5l-1 1L4 3.5l1.06-1.06A1.5 1.5 0 0 1 6.122 2H7.38a1.5 1.5 0 0 1 1.06.44L10.5 4.5h8.882a1.5 1.5 0 1 1 1.468 2.459L18.674 11H21a2 2 0 0 1 2 2v2a2 2 0 0 1-2 2H4a3 3 0 1 1 0-6h12.403l2.423-4.5H10.5L8.44 8.56A1.5 1.5 0 0 1 7.378 9H6.12a1.5 1.5 0 0 1-1.06-.44L4 7.5zM4 15h17v-2H4a1 1 0 1 0 0 2zm1 7a2 2 0 1 1 0-4 2 2 0 0 1 0 4zm5-2a2 2 0 1 0 4 0 2 2 0 0 0-4 0zm9 2a2 2 0 1 1 0-4 2 2 0 0 1 0 4z"/><path d="m5.5 6 .707-.707-.707-.707-.707.707L5.5 6zM4 7.5l-.707-.707-.707.707.707.707L4 7.5zM6.5 7l-.707.707.293.293H6.5V7zM7 7v1h.414l.293-.293L7 7zm1.5-1.5.707.707.707-.707-.707-.707L8.5 5.5zM7 4l.707-.707L7.414 3H7v1zm-.5 0V3h-.414l-.293.293L6.5 4zm-1 1-.707.707.707.707.707-.707L5.5 5zM4 3.5l-.707-.707-.707.707.707.707L4 3.5zm1.06-1.06-.706-.708.707.707zM6.122 2V1v1zM7.38 2V1v1zm1.06.44.707-.708-.707.707zM10.5 4.5l-.707.707.293.293h.414v-1zm8.882 0v1h.447l.298-.333-.745-.667zM20.5 4V3v1zm.35 2.959-.232-.973-.436.104-.212.395.88.474zM18.674 11l-.88-.474L17 12h1.674v-1zm-2.271 0v1H17l.283-.526-.88-.474zm2.423-4.5.88.474L20.5 5.5h-1.674v1zm-8.326 0v-1h-.414l-.293.293.707.707zM8.44 8.56l-.708-.706.707.707zM7.378 9v1-1zM6.12 9V8v1zm-1.06-.44.707-.706-.707.707zM21 15v1h1v-1h-1zm0-2h1v-1h-1v1zM4.793 5.293l-1.5 1.5 1.414 1.414 1.5-1.5-1.414-1.414zm2.414 1-1-1-1.414 1.414 1 1 1.414-1.414zM7 6h-.5v2H7V6zm.793-1.207-1.5 1.5 1.414 1.414 1.5-1.5-1.414-1.414zm-1.5-.086 1.5 1.5 1.414-1.414-1.5-1.5-1.414 1.414zM6.5 5H7V3h-.5v2zm-.293.707 1-1-1.414-1.414-1 1 1.414 1.414zm-2.914-1.5 1.5 1.5 1.414-1.414-1.5-1.5-1.414 1.414zm1.06-2.475-1.06 1.06 1.414 1.415 1.06-1.06-1.413-1.415zM6.122 1a2.5 2.5 0 0 0-1.767.732l1.414 1.414A.5.5 0 0 1 6.12 3V1zM7.38 1H6.12v2H7.38V1zm1.767.732A2.5 2.5 0 0 0 7.38 1v2a.5.5 0 0 1 .353.146l1.414-1.414zm2.061 2.06-2.06-2.06-1.415 1.414 2.06 2.061 1.415-1.414zm8.175-.292H10.5v2h8.882v-2zM20.5 3c-.74 0-1.407.323-1.863.833l1.49 1.334A.496.496 0 0 1 20.5 5V3zM23 5.5A2.5 2.5 0 0 0 20.5 3v2a.5.5 0 0 1 .5.5h2zm-1.917 2.432A2.5 2.5 0 0 0 23 5.5h-2a.5.5 0 0 1-.382.486l.465 1.946zm-1.528 3.542 2.176-4.041-1.761-.948-2.176 4.04 1.76.95zM21 10h-2.326v2H21v-2zm3 3a3 3 0 0 0-3-3v2a1 1 0 0 1 1 1h2zm0 2v-2h-2v2h2zm-3 3a3 3 0 0 0 3-3h-2a1 1 0 0 1-1 1v2zM4 18h17v-2H4v2zm-4-4a4 4 0 0 0 4 4v-2a2 2 0 0 1-2-2H0zm4-4a4 4 0 0 0-4 4h2a2 2 0 0 1 2-2v-2zm12.403 0H4v2h12.403v-2zm1.542-3.974-2.423 4.5 1.761.948 2.423-4.5-1.76-.948zM10.5 7.5h8.326v-2H10.5v2zM9.146 9.268l2.061-2.06-1.414-1.415-2.06 2.06 1.413 1.415zM7.38 10a2.5 2.5 0 0 0 1.767-.732L7.732 7.854A.5.5 0 0 1 7.38 8v2zM6.12 10H7.38V8H6.12v2zm-1.767-.732A2.5 2.5 0 0 0 6.12 10V8a.5.5 0 0 1-.353-.146L4.354 9.268zm-1.061-1.06 1.06 1.06 1.415-1.414-1.06-1.061-1.415 1.414zM21 14H4v2h17v-2zm-1-1v2h2v-2h-2zM4 14h17v-2H4v2zm0 0v-2a2 2 0 0 0-2 2h2zm0 0H2a2 2 0 0 0 2 2v-2zm-2 6a3 3 0 0 0 3 3v-2a1 1 0 0 1-1-1H2zm3-3a3 3 0 0 0-3 3h2a1 1 0 0 1 1-1v-2zm3 3a3 3 0 0 0-3-3v2a1 1 0 0 1 1 1h2zm-3 3a3 3 0 0 0 3-3H6a1 1 0 0 1-1 1v2zm7-2a1 1 0 0 1-1-1H9a3 3 0 0 0 3 3v-2zm1-1a1 1 0 0 1-1 1v2a3 3 0 0 0 3-3h-2zm-1-1a1 1 0 0 1 1 1h2a3 3 0 0 0-3-3v2zm-1 1a1 1 0 0 1 1-1v-2a3 3 0 0 0-3 3h2zm5 0a3 3 0 0 0 3 3v-2a1 1 0 0 1-1-1h-2zm3-3a3 3 0 0 0-3 3h2a1 1 0 0 1 1-1v-2zm3 3a3 3 0 0 0-3-3v2a1 1 0 0 1 1 1h2zm-3 3a3 3 0 0 0 3-3h-2a1 1 0 0 1-1 1v2z" mask="url(#a)"/></svg>
