<svg width="24" height="24" viewBox="0 0 24 24" xmlns="http://www.w3.org/2000/svg"><path fill-rule="evenodd" clip-rule="evenodd" d="M4 8.755c0-4.41 3.59-8 8-8s8 3.59 8 8c0 5.57-6.96 13.34-7.26 13.67l-.74.82-.74-.82c-.3-.33-7.26-8.1-7.26-13.67zm2 0c0 3.54 3.82 8.86 6 11.47 1.75-2.11 6-7.64 6-11.47 0-3.31-2.69-6-6-6s-6 2.69-6 6zm5.13 5h1.75v1.75h-1.75v-1.75zm-2.63-5.5c0-1.93 1.57-3.5 3.5-3.5s3.5 1.57 3.5 3.5c0 1.124-.69 1.729-1.362 2.318-.637.559-1.258 1.103-1.258 2.062h-1.75c0-1.59.82-2.22 1.543-2.776.569-.438 1.077-.829 1.077-1.604 0-.96-.79-1.75-1.75-1.75s-1.75.79-1.75 1.75H8.5z"/></svg>