<svg width="24" height="24" viewBox="0 0 24 24" xmlns="http://www.w3.org/2000/svg"><path fill-rule="evenodd" clip-rule="evenodd" d="M4 8.755c0-4.41 3.59-8 8-8s8 3.59 8 8c0 5.57-6.96 13.34-7.26 13.67l-.74.82-.74-.82c-.3-.33-7.26-8.1-7.26-13.67zm2 0c0 3.54 3.82 8.86 6 11.47 1.75-2.11 6-7.64 6-11.47 0-3.31-2.69-6-6-6s-6 2.69-6 6zm6 0c.83 0 1.5-.67 1.5-1.5s-.67-1.5-1.5-1.5-1.5.68-1.5 1.5c0 .83.67 1.5 1.5 1.5zm-3 2.5c0-1 2-1.5 3-1.5s3 .5 3 1.5v.12c-.73.84-1.8 1.38-3 1.38s-2.27-.54-3-1.38v-.12z"/></svg>