<svg style="display: none;" xmlns="http://www.w3.org/2000/svg" xmlns:xlink="http://www.w3.org/1999/xlink">
<style>
use,use:target~use:last-child { display: none; }
use:target,use:last-child { display: inline; }
</style>
<defs><symbol id="railway" viewBox="0 0 24 24"><path fill-rule="evenodd" clip-rule="evenodd" d="M12 2c-4.42 0-8 .5-8 4v10.5C4 18.43 5.57 20 7.5 20L6 21.5v.5h12v-.5L16.5 20c1.93 0 3.5-1.57 3.5-3.5V6c0-3.5-3.58-4-8-4zm0 2c6 0 6 1.2 6 2H6c0-.8 0-2 6-2zm6 7V8H6v3h12zM7.5 18c-.83 0-1.5-.67-1.5-1.5V13h12v3.5c0 .83-.67 1.5-1.5 1.5h-9zm2.5-2.5c0-1.1.9-2 2-2s2 .9 2 2-.9 2-2 2-2-.9-2-2z"/></symbol></defs><use id="medium" xlink:href="#railway" />
</svg>
