<svg width="24" height="24" viewBox="0 0 24 24" xmlns="http://www.w3.org/2000/svg"><path fill-rule="evenodd" clip-rule="evenodd" d="M16.9 4.18a.893.893 0 0 1 1.31 0l.064.068a2.98 2.98 0 0 0 4.179.19l.216-.194a1 1 0 1 0-1.338-1.487l-.216.195a.98.98 0 0 1-1.374-.063l-.063-.068a2.893 2.893 0 0 0-4.245 0 .893.893 0 0 1-1.31 0 2.893 2.893 0 0 0-4.246 0 .893.893 0 0 1-1.31 0 2.893 2.893 0 0 0-4.245 0l-.063.068a.98.98 0 0 1-1.374.063l-.216-.195a1 1 0 1 0-1.338 1.487l.216.194a2.98 2.98 0 0 0 4.18-.19l.062-.068a.893.893 0 0 1 1.31 0 2.893 2.893 0 0 0 4.246 0 .893.893 0 0 1 1.31 0 2.893 2.893 0 0 0 4.245 0M4 11h17V9H4a1 1 0 1 0 0 2m0 2h5.091l-2.777 4.011A1.5 1.5 0 1 0 7.618 19.5H14l2.06 2.06a1.5 1.5 0 0 0 1.061.44h1.258a1.5 1.5 0 0 0 1.06-.44L20.5 20.5 19 19l-1 1h-.5L16 18.5l1.5-1.5h.5l1 1 1.5-1.5-1.06-1.06a1.5 1.5 0 0 0-1.061-.44H17.12a1.5 1.5 0 0 0-1.06.44L14 17.5H8.409l3.115-4.5H21a2 2 0 0 0 2-2V9a2 2 0 0 0-2-2H4a3 3 0 0 0 0 6"/></svg>
