<svg width="24" height="24" viewBox="0 0 24 24" xmlns="http://www.w3.org/2000/svg"><path d="M17.446 3a1 1 0 0 1 .848.47L21.75 8h1.408a.5.5 0 0 1 .44.74L19.637 14H19a6 6 0 0 1-1.535-.198L20.63 10H3.4l1.048 3.824C3.975 13.941 3.488 14 3 14h-.545l-1.24-4.821A1 1 0 0 1 2.197 8H13V4a1 1 0 0 1 1-1zM15 8h4.392l-2.5-3H15z"/><path fill-rule="evenodd" clip-rule="evenodd" d="M7.041 13.96c2.235 2.234 5.685 2.234 7.92 0l1.414 1.414c-3.016 3.016-7.733 3.016-10.748 0z"/><path fill-rule="evenodd" clip-rule="evenodd" d="M4.373 16.626c3.735 3.734 9.518 3.734 13.253 0l1.414 1.414c-4.516 4.516-11.566 4.516-16.081 0z"/><path d="M7 10.5a5.98 5.98 0 0 1-4 1.528h-.5V14l.5.028a7.96 7.96 0 0 0 4-1.07 7.96 7.96 0 0 0 4 1.07 7.96 7.96 0 0 0 4-1.07 7.96 7.96 0 0 0 4 1.07h.633l.367-2h-1a5.98 5.98 0 0 1-4-1.528 5.98 5.98 0 0 1-4 1.528A5.98 5.98 0 0 1 7 10.5"/></svg>
