<svg width="24" height="24" viewBox="0 0 24 24" xmlns="http://www.w3.org/2000/svg"><path fill-rule="evenodd" clip-rule="evenodd" d="m20.212 10.216-6.37-6.441-1.394 1.189 1.294 1.288-1.493 1.388-1.096 1.09-.497.495-.697.1-4.38.396H5.18l-.2.198 9.06 9.018.198-.198v-.298l.3-4.459.099-.793.597-.495 1.095-1.09 1.394-1.289 1.194 1.19zm-9.258-6.342L13.841 1 23 10.117l-2.887 2.874a1.84 1.84 0 0 1-1.195.495 1.84 1.84 0 0 1-1.194-.495l-1.095 1.09-.299 4.46c0 .594-.2 1.189-.597 1.585l-1.693 1.685-5.226-5.203-6.122 6.095c-.199.198-.398.297-.697.297s-.497-.099-.696-.297a.955.955 0 0 1 0-1.388l6.122-6.094-5.326-5.302 1.692-1.685a1.97 1.97 0 0 1 1.394-.594h.199l4.48-.298 1.094-1.09c-.696-.594-.696-1.684 0-2.378"/></svg>
