<svg width="24" height="24" viewBox="0 0 24 24" xmlns="http://www.w3.org/2000/svg"><path fill-rule="evenodd" clip-rule="evenodd" d="M20 10h-3V8.86c1.72-.45 3-2 3-3.86h-3V4c0-.55-.45-1-1-1H8c-.55 0-1 .45-1 1v1H4c0 1.86 1.28 3.41 3 3.86V10H4c0 1.86 1.28 3.41 3 3.86V15H4c0 1.86 1.28 3.41 3 3.86V20c0 .55.45 1 1 1h8c.55 0 1-.45 1-1v-1.14c1.72-.45 3-2 3-3.86h-3v-1.14c1.72-.45 3-2 3-3.86zm-5-5v14H9V5h6zm-1.5 11.5c0 .83-.67 1.5-1.5 1.5s-1.5-.67-1.5-1.5.67-1.5 1.5-1.5 1.5.67 1.5 1.5zm-1.5-3c.83 0 1.5-.67 1.5-1.5s-.67-1.5-1.5-1.5-1.5.67-1.5 1.5.67 1.5 1.5 1.5zm1.5-6c0 .83-.67 1.5-1.5 1.5s-1.5-.67-1.5-1.5S11.17 6 12 6s1.5.67 1.5 1.5z"/></svg>