<svg style="display: none;" xmlns="http://www.w3.org/2000/svg" xmlns:xlink="http://www.w3.org/1999/xlink">
<style>
use,use:target~use:last-child { display: none; }
use:target,use:last-child { display: inline; }
</style>
<defs><symbol id="walk" viewBox="0 0 24 24"><path fill-rule="evenodd" clip-rule="evenodd" d="M15 3.25c0 1.1-.9 2-2 2s-2-.9-2-2 .9-2 2-2 2 .9 2 2zm-8.5 19.5 2.8-14.1-1.8.7v3.4h-2v-4.7l5.05-2.14c.97-.41 2.09-.05 2.65.84l1 1.6c.8 1.4 2.4 2.4 4.3 2.4v2c-2.2 0-4.2-1-5.5-2.5l-.6 3 2.1 2v7.5h-2v-6l-2.1-2-1.8 8H6.5z"/></symbol></defs><use id="medium" xlink:href="#walk" />
</svg>
