<svg width="24" height="24" viewBox="0 0 24 24" xmlns="http://www.w3.org/2000/svg"><path fill-rule="evenodd" clip-rule="evenodd" d="M19 4h-4.18C14.4 2.84 13.3 2 12 2c-1.3 0-2.4.84-2.82 2H5c-1.1 0-2 .9-2 2v14c0 1.1.9 2 2 2h14c1.1 0 2-.9 2-2V6c0-1.1-.9-2-2-2zm-7-.25c.22 0 .41.1.55.25.12.13.2.31.2.5 0 .41-.34.75-.75.75s-.75-.34-.75-.75c0-.19.08-.37.2-.5.14-.15.33-.25.55-.25zM5 6v14h14V6H5zm7 1c-1.65 0-3 1.35-3 3s1.35 3 3 3 3-1.35 3-3-1.35-3-3-3zm-1 3c0 .55.45 1 1 1s1-.45 1-1-.45-1-1-1-1 .45-1 1zm-5 7.47V19h12v-1.53c0-2.5-3.97-3.58-6-3.58s-6 1.07-6 3.58zm6-1.59c-1.31 0-3 .56-3.69 1.12h7.38c-.68-.56-2.38-1.12-3.69-1.12z"/></svg>