<svg width="24" height="24" viewBox="0 0 24 24" xmlns="http://www.w3.org/2000/svg"><path fill-rule="evenodd" clip-rule="evenodd" d="M15.305 10.75c0-2.48-1.51-4.5-4-4.5-.144 0-.282.017-.42.034l-.13.016-1.64-1.64.105-.038c.188-.07.383-.141.585-.192v-.68c0-.83.67-1.5 1.5-1.5s1.5.67 1.5 1.5v.68c2.87.68 4.5 3.25 4.5 6.32v2.1l-2-2v-.1zm-2 9c0 1.1-.9 2-2 2s-2-.9-2-2h4zM4.715 3.1l-1.41 1.41 2.81 2.81c-.52 1-.81 2.17-.81 3.43v5l-2 2v1h14.24l1.74 1.74 1.41-1.41L4.715 3.1zm2.59 13.65h8v-.24l-7.66-7.66c-.22.58-.34 1.22-.34 1.9v6z"/></svg>