<svg style="display: none;" xmlns="http://www.w3.org/2000/svg" xmlns:xlink="http://www.w3.org/1999/xlink">
<style>
use,use:target~use:last-child { display: none; }
use:target,use:last-child { display: inline; }
</style>
<defs><symbol id="cloud_off" viewBox="0 0 24 24"><path fill-rule="evenodd" clip-rule="evenodd" d="M4.41 2.93 3 4.34l2.77 2.77h-.42A5.994 5.994 0 0 0 0 13.07c0 3.31 2.69 6 6 6h11.73l2 2 1.41-1.41L4.41 2.93zM24 14.07c0-2.64-2.05-4.78-4.65-4.96A7.49 7.49 0 0 0 12 3.07c-1.33 0-2.57.36-3.65.97l1.49 1.49c.67-.29 1.39-.46 2.16-.46 3.04 0 5.5 2.46 5.5 5.5v.5H19a2.996 2.996 0 0 1 1.79 5.4l1.41 1.41c1.09-.92 1.8-2.27 1.8-3.81zm-22-1c0 2.21 1.79 4 4 4h9.73l-8-8H6c-2.21 0-4 1.79-4 4z"/></symbol></defs><use id="medium" xlink:href="#cloud_off" />
</svg>
