<svg style="display: none;" xmlns="http://www.w3.org/2000/svg" xmlns:xlink="http://www.w3.org/1999/xlink">
<style>
use,
use:target~use:last-child { display: none; }
use:target,
use:last-child { display: inline; }
</style><defs><symbol id="collection_2" viewBox="0 0 24 24"><path fill-rule="evenodd" clip-rule="evenodd" d="M7 1h14c1.1 0 2 .9 2 2v14c0 1.1-.9 2-2 2H7c-1.1 0-2-.9-2-2V3c0-1.1.9-2 2-2zM1 5h2v16h16v2H3c-1.1 0-2-.9-2-2V5zm20 12H7V3h14v14zm-8-4h4v2h-6v-4a2 2 0 0 1 2-2h2V7h-4V5h4a2 2 0 0 1 2 2v2a2 2 0 0 1-2 2h-2v2z"/></symbol></defs><use id="medium" xlink:href="#collection_2" /></svg>