<svg style="display: none;" xmlns="http://www.w3.org/2000/svg" xmlns:xlink="http://www.w3.org/1999/xlink">
<style>
use,use:target~use:last-child { display: none; }
use:target,use:last-child { display: inline; }
</style>
<defs><symbol id="collection_9_plus" viewBox="0 0 24 24"><path fill-rule="evenodd" clip-rule="evenodd" d="M21 1H7c-1.1 0-2 .9-2 2v14c0 1.1.9 2 2 2h14c1.1 0 2-.9 2-2V3c0-1.1-.9-2-2-2zM3 5H1v16c0 1.1.9 2 2 2h16v-2H3V5zm11 7V8a2 2 0 0 0-2-2h-1a2 2 0 0 0-2 2v1a2 2 0 0 0 2 2h1v1H9v2h3a2 2 0 0 0 2-2zm-3-4v1h1V8h-1zm8 1h2V3H7v14h14v-6h-2v2h-2v-2h-2V9h2V7h2v2z"/></symbol></defs><use id="medium" xlink:href="#collection_9_plus" />
</svg>
