<svg style="display: none;" xmlns="http://www.w3.org/2000/svg" xmlns:xlink="http://www.w3.org/1999/xlink">
<style>
use,
use:target~use:last-child { display: none; }
use:target,
use:last-child { display: inline; }
</style><defs><symbol id="collection_5" viewBox="0 0 24 24"><path fill-rule="evenodd" clip-rule="evenodd" d="M7 1h14c1.1 0 2 .9 2 2v14c0 1.1-.9 2-2 2H7c-1.1 0-2-.9-2-2V3c0-1.1.9-2 2-2zm0 16h14V3H7v14zM3 5H1v16c0 1.1.9 2 2 2h16v-2H3V5zm14 6v2a2 2 0 0 1-2 2h-4v-2h4v-2h-4V5h6v2h-4v2h2a2 2 0 0 1 2 2z"/></symbol></defs><use id="medium" xlink:href="#collection_5" /></svg>