<svg style="display: none;" xmlns="http://www.w3.org/2000/svg" xmlns:xlink="http://www.w3.org/1999/xlink">
<style>
use,use:target~use:last-child { display: none; }
use:target,use:last-child { display: inline; }
</style>
<defs><symbol id="folder_favorite" viewBox="0 0 24 24"><path fill-rule="evenodd" clip-rule="evenodd" d="M20 6h-8l-2-2H4c-1.1 0-2 .9-2 2v12c0 1.1.9 2 2 2h16c1.1 0 2-.9 2-2V8c0-1.1-.9-2-2-2zM4 18V6h5.17l2 2H20v10H4zm8.39-1 .69-2.96-2.3-1.99 3.03-.26L15 9l1.19 2.79 3.03.26-2.3 1.99.69 2.96L15 15.47 12.39 17z"/></symbol></defs><use id="medium" xlink:href="#folder_favorite" />
</svg>
