<svg style="display: none;" xmlns="http://www.w3.org/2000/svg" xmlns:xlink="http://www.w3.org/1999/xlink">
<style>
use,use:target~use:last-child { display: none; }
use:target,use:last-child { display: inline; }
</style>
<defs><symbol id="library_image" viewBox="0 0 24 24"><path fill-rule="evenodd" clip-rule="evenodd" d="M21 1H7c-1.1 0-2 .9-2 2v14c0 1.1.9 2 2 2h14c1.1 0 2-.9 2-2V3c0-1.1-.9-2-2-2zM1 5h2v16h16v2H3c-1.1 0-2-.9-2-2V5zm12.21 8.83 2.75-3.54L19.5 15h-11l2.75-3.53 1.96 2.36zM7 17h14V3H7v14z"/></symbol></defs><use id="medium" xlink:href="#library_image" />
</svg>
