<svg style="display: none;" xmlns="http://www.w3.org/2000/svg" xmlns:xlink="http://www.w3.org/1999/xlink">
<style>
use,use:target~use:last-child { display: none; }
use:target,use:last-child { display: inline; }
</style>
<defs><symbol id="library_add" viewBox="0 0 24 24"><path fill-rule="evenodd" clip-rule="evenodd" d="M8 2h12c1.1 0 2 .9 2 2v12c0 1.1-.9 2-2 2H8c-1.1 0-2-.9-2-2V4c0-1.1.9-2 2-2zM2 6h2v14h14v2H4c-1.1 0-2-.9-2-2V6zm18 10H8V4h12v12zm-5-2h-2v-3h-3V9h3V6h2v3h3v2h-3v3z"/></symbol></defs><use id="medium" xlink:href="#library_add" />
</svg>
