<svg style="display: none;" xmlns="http://www.w3.org/2000/svg" xmlns:xlink="http://www.w3.org/1999/xlink">
<style>
use,use:target~use:last-child { display: none; }
use:target,use:last-child { display: inline; }
</style>
<defs><symbol id="library_music" viewBox="0 0 24 24"><path fill-rule="evenodd" clip-rule="evenodd" d="M8 2h12c1.1 0 2 .9 2 2v12c0 1.1-.9 2-2 2H8c-1.1 0-2-.9-2-2V4c0-1.1.9-2 2-2zm0 14h12V4H8v12zm4.5-1a2.5 2.5 0 0 0 2.5-2.5V7h3V5h-4v5.51c-.42-.32-.93-.51-1.5-.51a2.5 2.5 0 0 0 0 5zM2 6h2v14h14v2H4c-1.1 0-2-.9-2-2V6z"/></symbol></defs><use id="medium" xlink:href="#library_music" />
</svg>
