<svg width="24" height="24" viewBox="0 0 24 24" xmlns="http://www.w3.org/2000/svg">
<path d="M15.3232 1.375C17.5045 1.37509 19.2713 3.14978 19.2715 5.33301C19.2715 6.73194 18.5452 7.96186 17.4502 8.66602C18.5455 9.37011 19.2715 10.6008 19.2715 12C19.2715 14.1834 17.5047 15.9579 15.3232 15.958C14.2794 15.9579 13.3308 15.5508 12.625 14.8877V18.667C12.6248 20.8503 10.8572 22.625 8.67578 22.625C6.49472 22.6246 4.72772 20.85 4.72754 18.667C4.72754 17.2683 5.45322 16.0372 6.54785 15.333C5.45338 14.6287 4.72754 13.3985 4.72754 12C4.72754 10.6013 5.45313 9.37023 6.54785 8.66602C5.45347 7.96174 4.72754 6.73148 4.72754 5.33301C4.72772 3.14996 6.49472 1.37538 8.67578 1.375H15.3232ZM8.67578 15.958C7.18844 15.9584 5.97754 17.1707 5.97754 18.667C5.97771 20.1632 7.18855 21.3746 8.67578 21.375C10.1633 21.375 11.3748 20.1634 11.375 18.667V15.958H8.67578ZM8.67578 9.29199C7.18844 9.29238 5.97754 10.5037 5.97754 12C5.97754 13.4963 7.18844 14.7076 8.67578 14.708H11.375V9.29199H8.67578ZM15.3232 9.29199C13.8358 9.29223 12.625 10.5036 12.625 12L12.6387 12.2773C12.7773 13.6433 13.9289 14.7078 15.3232 14.708C16.8108 14.7079 18.0215 13.4965 18.0215 12C18.0215 10.5035 16.8108 9.29208 15.3232 9.29199ZM8.67578 2.625C7.18855 2.62538 5.97772 3.83683 5.97754 5.33301C5.97754 6.82933 7.18844 8.04161 8.67578 8.04199H11.375V2.625H8.67578ZM12.625 8.04199H15.3232L15.5986 8.02734C16.9574 7.88867 18.0215 6.73599 18.0215 5.33301C18.0213 3.83665 16.8107 2.62509 15.3232 2.625H12.625V8.04199Z"/>
</svg>