<svg width="24" height="24" viewBox="0 0 24 24" xmlns="http://www.w3.org/2000/svg"><path fill-rule="evenodd" clip-rule="evenodd" d="M12 20c3.31 0 6-2.69 6-6h2c0 4.42-3.58 8-8 8s-8-3.58-8-8 3.58-8 8-8V2l5 5-5 5V8c-3.31 0-6 2.69-6 6s2.69 6 6 6zm-1.66-3.66c.08-.03.14-.07.2-.12l.041-.047c.035-.038.067-.072.089-.123.03-.07.04-.15.04-.24 0-.11-.02-.21-.05-.29a.483.483 0 00-.14-.2.648.648 0 00-.22-.11.885.885 0 00-.29-.04h-.45v-.66h.43c.22 0 .37-.05.48-.16.11-.11.16-.25.16-.43 0-.08-.01-.16-.04-.22a.62.62 0 00-.11-.17.544.544 0 00-.18-.11.625.625 0 00-.25-.04c-.08 0-.15 0-.22.03s-.13.06-.18.1a.455.455 0 00-.17.35h-.85c0-.18.04-.33.11-.48.07-.15.18-.27.3-.37.12-.1.28-.18.44-.23.16-.05.35-.08.54-.08.22 0 .41.03.59.08s.33.13.46.23.23.22.3.38c.07.16.11.33.11.53 0 .09-.01.18-.04.27-.03.09-.08.17-.13.25-.05.08-.12.15-.2.22-.08.07-.18.12-.28.17.24.09.42.22.54.39.12.17.18.38.18.61 0 .2-.04.38-.12.53a1.1 1.1 0 01-.32.39c-.14.1-.29.19-.48.24-.19.05-.39.08-.6.08-.18 0-.36-.02-.53-.07-.17-.05-.32-.13-.46-.23s-.25-.22-.33-.38c-.08-.16-.12-.34-.12-.55h.85c0 .08.02.15.05.22.03.07.07.12.13.17a.69.69 0 00.45.15c.1 0 .19-.01.27-.04zm4.1-3.56c-.18-.07-.37-.1-.59-.1-.22 0-.41.03-.59.1s-.33.18-.45.33c-.12.15-.23.34-.29.57-.06.23-.1.5-.1.82v.74c0 .32.04.6.11.82.07.22.17.42.3.57.13.15.28.26.46.33s.37.1.59.1c.22 0 .41-.03.59-.1s.33-.18.45-.33c.12-.15.22-.34.29-.57.07-.23.1-.5.1-.82v-.74c0-.32-.04-.6-.11-.82-.07-.22-.17-.42-.3-.57-.13-.15-.28-.26-.46-.33zm-.03 3.05c.03-.13.04-.29.04-.48h.01v-.97c0-.19-.01-.35-.04-.48s-.07-.23-.12-.31a.436.436 0 00-.19-.17.655.655 0 00-.5 0c-.08.03-.13.09-.19.17-.06.08-.09.18-.12.31s-.04.29-.04.48v.97c0 .19.01.35.04.48s.07.24.12.32c.05.08.12.14.19.17a.655.655 0 00.5 0c.08-.03.14-.09.19-.17.05-.08.08-.19.11-.32z"/></svg>