<svg width="24" height="24" viewBox="0 0 24 24" xmlns="http://www.w3.org/2000/svg"><path fill-rule="evenodd" clip-rule="evenodd" d="M12 20c3.31 0 6-2.69 6-6h2c0 4.42-3.58 8-8 8s-8-3.58-8-8 3.58-8 8-8V2l5 5-5 5V8c-3.31 0-6 2.69-6 6s2.69 6 6 6zm.3-3.68c.07-.04.13-.1.18-.17.05-.07.09-.15.11-.24.02-.09.03-.19.03-.31s-.01-.21-.04-.31a.681.681 0 00-.13-.24.538.538 0 00-.21-.15.853.853 0 00-.3-.05c-.07 0-.15.01-.2.02-.05.01-.1.03-.15.05-.05.02-.08.04-.12.07-.04.03-.07.06-.1.09l-.67-.17.25-2.17h2.39v.71h-1.7l-.11.92a.369.369 0 00.048-.021c.017-.009.037-.019.062-.029.025-.01.05-.018.075-.025a.879.879 0 00.075-.025.822.822 0 01.18-.04c.06-.01.13-.02.2-.02.21 0 .39.04.55.1.16.06.3.16.41.28.11.12.19.28.25.45.06.17.09.38.09.6 0 .19-.03.37-.09.54-.06.17-.15.32-.27.45-.12.13-.27.23-.45.31-.18.08-.4.12-.64.12-.18 0-.36-.03-.53-.08-.17-.05-.33-.13-.46-.24-.13-.11-.24-.23-.32-.39-.08-.16-.12-.33-.13-.53h.84c.02.17.08.31.19.41.11.1.25.15.42.15.1 0 .2-.02.27-.06z"/></svg>