<svg width="24" height="24" viewBox="0 0 24 24" xmlns="http://www.w3.org/2000/svg"><path fill-rule="evenodd" clip-rule="evenodd" d="M18.442 4.13l1.63-1.63c3.86 3.99 3.89 9.94.15 13.83l-1.64-1.64c2.62-3.17 2.58-7.59-.14-10.56zm-3.36 3.42l1.68-1.69c1.98 2.15 2.01 5.11.11 7.13l-1.7-1.7c.74-1.16.71-2.61-.09-3.74zm-5.65-2.01l3.53 3.53a3.979 3.979 0 00-3.53-3.53zm-6.43-.77l1.41-1.41 16.73 16.73-1.41 1.41-3.02-3.02c.18.32.29.65.29 1.02v2h-16v-2c0-2.66 5.33-4 8-4 1.78 0 4.74.6 6.51 1.78l-4.4-4.4c-.61.39-1.33.62-2.11.62-2.21 0-4-1.79-4-4 0-.78.23-1.5.62-2.11l-2.62-2.62zm0 14.73c.22-.72 3.31-2 6-2 2.7 0 5.8 1.29 6 2h-12zm4-10c0 1.1.9 2 2 2 .22 0 .42-.04.62-.11l-2.51-2.51c-.07.2-.11.4-.11.62z"/></svg>