<svg width="24" height="24" viewBox="0 0 24 24" xmlns="http://www.w3.org/2000/svg"><path fill-rule="evenodd" clip-rule="evenodd" d="M12 2v4c4.42 0 8 3.58 8 8s-3.58 8-8 8-8-3.58-8-8h2c0 3.31 2.69 6 6 6s6-2.69 6-6-2.69-6-6-6v4L7 7l5-5zm-1.99 12.49h-.45v.65h.47c.11 0 .2.02.29.04a.508.508 0 01.36.31c.03.08.05.18.05.29 0 .09-.01.17-.04.24a.561.561 0 01-.33.3c-.08.03-.17.04-.27.04-.09 0-.17-.02-.25-.04a.49.49 0 01-.2-.11c-.06-.05-.1-.1-.13-.17a.545.545 0 01-.05-.22h-.85c0 .21.04.4.12.55.08.15.2.27.33.38.13.11.29.18.46.23.17.05.35.07.53.07.22 0 .41-.03.6-.08s.34-.14.48-.24c.14-.1.24-.24.32-.39.08-.15.12-.33.12-.53 0-.23-.06-.43-.18-.61s-.3-.3-.54-.39a1.1 1.1 0 00.48-.39.853.853 0 00.17-.52c0-.2-.04-.38-.11-.53-.07-.15-.17-.28-.3-.38-.13-.1-.28-.18-.46-.23-.18-.05-.38-.08-.59-.08-.19 0-.37.03-.54.08-.17.05-.31.13-.44.23a1.067 1.067 0 00-.41.85h.85a.455.455 0 01.17-.35.4.4 0 01.18-.1.78.78 0 01.22-.03c.09 0 .18.02.25.04s.13.06.18.11a.538.538 0 01.15.39c0 .18-.05.32-.16.43-.11.11-.27.16-.48.16zm5.29.75c0 .32-.03.6-.1.82-.07.22-.17.42-.29.57-.12.15-.28.26-.45.33-.17.07-.37.1-.59.1-.22 0-.41-.03-.59-.1s-.33-.18-.46-.33c-.13-.15-.23-.34-.3-.57-.07-.23-.11-.5-.11-.82v-.74c0-.32.03-.6.1-.82.07-.22.17-.42.29-.57.12-.15.28-.26.45-.33.17-.07.37-.1.59-.1.22 0 .41.03.59.1s.33.18.46.33c.13.15.23.34.3.57.07.23.11.5.11.82v.74zm-.89-1.34c.03.13.04.29.04.48h-.01v.97c0 .19-.01.35-.04.48-.02.13-.06.24-.11.32-.05.08-.12.14-.19.17a.655.655 0 01-.5 0 .389.389 0 01-.19-.17c-.05-.08-.09-.19-.12-.32s-.04-.29-.04-.48v-.97c0-.19.01-.35.04-.48s.07-.23.12-.31c.05-.08.12-.14.19-.17a.655.655 0 01.5 0c.08.03.14.09.19.17.05.08.09.18.12.31z"/></svg>