<svg xmlns="http://www.w3.org/2000/svg">
  <title>EDS icons for illustration</title>
  <desc>The unaltered icons as symbols</desc>
  <defs>
    <symbol id="Icon-Github" viewBox="0 0 24 24">
      <path
        d="M10.9 2.1c-4.6.5-8.3 4.2-8.8 8.7-.5 4.7 2.2 8.9 6.3 10.5.3.1.6-.1.6-.5v-1.6s-.4.1-.9.1c-1.4 0-2-1.2-2.1-1.9-.1-.4-.3-.7-.6-1-.3-.1-.4-.1-.4-.2 0-.2.3-.2.4-.2.6 0 1.1.7 1.3 1 .5.8 1.1 1 1.4 1 .4 0 .7-.1.9-.2.1-.7.4-1.4 1-1.8-2.3-.5-4-1.8-4-4 0-1.1.5-2.2 1.2-3-.1-.2-.2-.7-.2-1.4 0-.4 0-1 .3-1.6 0 0 1.4 0 2.8 1.3.5-.2 1.2-.3 1.9-.3s1.4.1 2 .3C15.3 6 16.8 6 16.8 6c.2.6.2 1.2.2 1.6 0 .8-.1 1.2-.2 1.4.7.8 1.2 1.8 1.2 3 0 2.2-1.7 3.5-4 4 .6.5 1 1.4 1 2.3v2.6c0 .3.3.6.7.5 3.7-1.5 6.3-5.1 6.3-9.3 0-6-5.1-10.7-11.1-10z" />
    </symbol>
    <symbol id="Icon-Star" viewBox="0 0 24 24">
      <path
        d="M22 9.24l-7.19-.62L12 2 9.19 8.63 2 9.24l5.46 4.73L5.82 21 12 17.27 18.18 21l-1.63-7.03L22 9.24zM12 15.4l-3.76 2.27 1-4.28-3.32-2.88 4.38-.38L12 6.1l1.71 4.04 4.38.38-3.32 2.88 1 4.28L12 15.4z" />
    </symbol>
    <symbol id="Icon-Key" viewBox="0 0 24 24">
      <path
        d="M22 19h-6v-4h-2.68c-1.14 2.42-3.6 4-6.32 4-3.86 0-7-3.14-7-7s3.14-7 7-7c2.72 0 5.17 1.58 6.32 4H24v6h-2v4zm-4-2h2v-4h2v-2H11.94l-.23-.67C11.01 8.34 9.11 7 7 7c-2.76 0-5 2.24-5 5s2.24 5 5 5c2.11 0 4.01-1.34 4.71-3.33l.23-.67H18v4zM7 15c-1.65 0-3-1.35-3-3s1.35-3 3-3 3 1.35 3 3-1.35 3-3 3zm0-4c-.55 0-1 .45-1 1s.45 1 1 1 1-.45 1-1-.45-1-1-1z" />
    </symbol>
    <symbol id="Icon-Share" viewBox="0 0 24 24">
      <path fill-rule="evenodd" clip-rule="evenodd"
        d="M16.04 16.89c.52-.47 1.2-.77 1.96-.77 1.61 0 2.92 1.31 2.92 2.92 0 1.61-1.31 2.92-2.92 2.92-1.61 0-2.92-1.31-2.92-2.92 0-.22.03-.44.08-.65l-7.12-4.16c-.54.5-1.25.81-2.04.81-1.66 0-3-1.34-3-3s1.34-3 3-3c.79 0 1.5.31 2.04.81l7.05-4.11c-.05-.23-.09-.46-.09-.7 0-1.66 1.34-3 3-3s3 1.34 3 3-1.34 3-3 3c-.79 0-1.5-.31-2.04-.81l-7.05 4.11c.05.23.09.46.09.7 0 .24-.04.47-.09.7l7.13 4.15zM19 5.04c0-.55-.45-1-1-1s-1 .45-1 1 .45 1 1 1 1-.45 1-1zm-13 8c-.55 0-1-.45-1-1s.45-1 1-1 1 .45 1 1-.45 1-1 1zm11 6.02c0 .55.45 1 1 1s1-.45 1-1-.45-1-1-1-1 .45-1 1z" />
    </symbol>
    <symbol id="Icon-Waves" viewBox="0 0 24 24">
      <path
        d="M17 16.99c-1.35 0-2.2.42-2.95.8-.65.33-1.18.6-2.05.6-.9 0-1.4-.25-2.05-.6-.75-.38-1.57-.8-2.95-.8-1.38 0-2.2.42-2.95.8-.65.33-1.17.6-2.05.6v1.95c1.35 0 2.2-.42 2.95-.8.65-.33 1.17-.6 2.05-.6.88 0 1.4.25 2.05.6.75.38 1.57.8 2.95.8 1.38 0 2.2-.42 2.95-.8.65-.33 1.18-.6 2.05-.6.9 0 1.4.25 2.05.6.75.38 1.58.8 2.95.8v-1.95c-.9 0-1.4-.25-2.05-.6-.75-.38-1.6-.8-2.95-.8zm0-4.45c-1.35 0-2.2.43-2.95.8-.65.32-1.18.6-2.05.6-.9 0-1.4-.25-2.05-.6-.75-.38-1.57-.8-2.95-.8-1.38 0-2.2.43-2.95.8-.65.32-1.17.6-2.05.6v1.95c1.35 0 2.2-.43 2.95-.8.65-.35 1.15-.6 2.05-.6.9 0 1.4.25 2.05.6.75.38 1.57.8 2.95.8 1.38 0 2.2-.43 2.95-.8.65-.35 1.15-.6 2.05-.6.9 0 1.4.25 2.05.6.75.38 1.58.8 2.95.8v-1.95c-.9 0-1.4-.25-2.05-.6-.75-.38-1.6-.8-2.95-.8zm2.95-8.08c-.75-.38-1.58-.8-2.95-.8s-2.2.42-2.95.8c-.65.32-1.18.6-2.05.6-.9 0-1.4-.25-2.05-.6-.75-.37-1.57-.8-2.95-.8-1.38 0-2.2.42-2.95.8-.65.33-1.17.6-2.05.6v1.93c1.35 0 2.2-.43 2.95-.8.65-.33 1.17-.6 2.05-.6.88 0 1.4.25 2.05.6.75.38 1.57.8 2.95.8 1.38 0 2.2-.43 2.95-.8.65-.32 1.18-.6 2.05-.6.9 0 1.4.25 2.05.6.75.38 1.58.8 2.95.8V5.04c-.9 0-1.4-.25-2.05-.58zM17 8.09c-1.35 0-2.2.43-2.95.8-.65.35-1.15.6-2.05.6-.9 0-1.4-.25-2.05-.6-.75-.38-1.57-.8-2.95-.8-1.38 0-2.2.43-2.95.8-.65.35-1.15.6-2.05.6v1.95c1.35 0 2.2-.43 2.95-.8.65-.32 1.18-.6 2.05-.6.87 0 1.4.25 2.05.6.75.38 1.57.8 2.95.8 1.38 0 2.2-.43 2.95-.8.65-.32 1.18-.6 2.05-.6.9 0 1.4.25 2.05.6.75.38 1.58.8 2.95.8V9.49c-.9 0-1.4-.25-2.05-.6-.75-.38-1.6-.8-2.95-.8z" />
    </symbol>
    <symbol id="Icon-FlagSolid" viewBox="0 0 24 24">
      <path d="M14.4 6L14 4H5v17h2v-7h5.6l.4 2h7V6h-5.6z" />
    </symbol>
    <symbol id="Icon-Boat" viewBox="0 0 24 24">
      <path fill-rule="evenodd" clip-rule="evenodd"
        d="M9.001 1h6v3h3c1.1 0 2 .9 2 2v4.62l1.28.42c.26.08.48.26.6.5s.14.52.06.78L20.051 19h-.05c-1.6 0-3.02-.88-4-2-.98 1.12-2.4 2-4 2s-3.02-.88-4-2c-.98 1.12-2.4 2-4 2h-.05l-1.9-6.68a1.007 1.007 0 01.66-1.28l1.29-.42V6c0-1.1.9-2 2-2h3V1zm4 2v1h-2V3h2zm-1 7.11l5.38 1.77 2.39.78-1.12 3.97c-.54-.3-.94-.71-1.14-.94l-1.51-1.73-1.51 1.72c-.34.4-1.28 1.32-2.49 1.32-1.21 0-2.15-.92-2.49-1.32l-1.51-1.72-1.51 1.72c-.2.23-.6.63-1.14.93l-1.13-3.96 2.4-.79 5.38-1.75zm-6-.14V6h12v3.97l-6-1.97-6 1.97zm6 10.99c1.39 0 2.78-.43 4-1.28 1.22.85 2.61 1.32 4 1.32h2v2h-2c-1.38 0-2.74-.34-4-.99a8.71 8.71 0 01-4 .97c-1.37 0-2.74-.33-4-.97-1.26.64-2.62.99-4 .99h-2v-2h2c1.39 0 2.78-.47 4-1.32 1.22.85 2.61 1.28 4 1.28z" />
    </symbol>
    <symbol id="Icon-ReplyAll" viewBox="0 0 24 24">
      <path fill-rule="evenodd" clip-rule="evenodd"
        d="M7 4.5v3l-4 4 4 4v3l-7-7 7-7zm6 0v4c7 1 10 6 11 11-2.5-3.5-6-5.1-11-5.1v4.1l-7-7 7-7z" />
    </symbol>
    <symbol id="Icon-Accessible" viewBox="0 0 24 24">
      <path fill-rule="evenodd" clip-rule="evenodd"
        d="M14 4c0 1.1-.9 2-2 2s-2-.9-2-2 .9-2 2-2 2 .9 2 2zm-2 3c2.83 0 5.89-.3 8.5-1l.5 2c-1.86.5-4 .83-6 1v13h-2v-6h-2v6H9V9c-2-.17-4.14-.5-6-1l.5-2c2.61.7 5.67 1 8.5 1z" />
    </symbol>
    <symbol id="Icon-World" viewBox="0 0 24 24">
      <path fill-rule="evenodd" clip-rule="evenodd"
        d="M12 2C6.48 2 2 6.48 2 12s4.48 10 10 10 10-4.48 10-10S17.52 2 12 2zM4 12c0-.61.08-1.21.21-1.78L8.99 15v1c0 1.1.9 2 2 2v1.93C7.06 19.43 4 16.07 4 12zm11.99 4c.9 0 1.64.59 1.9 1.4A7.991 7.991 0 0020 12c0-3.35-2.08-6.23-5.01-7.41V5c0 1.1-.9 2-2 2h-2v2c0 .55-.45 1-1 1h-2v2h6c.55 0 1 .45 1 1v3h1z" />
    </symbol>
    <symbol id="Icon-Sun" viewBox="0 0 24 24">
      <path fill-rule="evenodd" clip-rule="evenodd"
        d="M11 1.05h2V4h-2V1.05zm-6.04 2.5l1.8 1.79-1.42 1.41-1.79-1.79 1.41-1.41zM4 11H1v2h3v-2zm16.448-6.048L19.04 3.545l-1.788 1.789 1.407 1.407 1.789-1.79zM17.24 18.66l1.79 1.8 1.41-1.41-1.8-1.79-1.4 1.4zM23 11h-3v2h3v-2zM12 6c-3.31 0-6 2.69-6 6s2.69 6 6 6 6-2.69 6-6-2.69-6-6-6zm-4 6c0 2.21 1.79 4 4 4s4-1.79 4-4-1.79-4-4-4-4 1.79-4 4zm5 8v2.95h-2V20h2zm-8.04.45l-1.41-1.41 1.79-1.8 1.41 1.41-1.79 1.8z" />
    </symbol>
    <symbol id="Icon-Turbine" viewBox="0 0 24 24">
      <path
        d="M12 23h-1v-6.57C9.93 17.4 8.52 18 7 18c-3.25 0-6-2.75-6-6v-1h6.57C6.6 9.93 6 8.52 6 7c0-3.25 2.75-6 6-6h1v6.57C14.07 6.6 15.48 6 17 6c3.25 0 6 2.75 6 6v1h-6.57c.97 1.07 1.57 2.48 1.57 4 0 3.25-2.75 6-6 6zm1-9.87v7.74c1.7-.46 3-2.04 3-3.87s-1.3-3.41-3-3.87zM3.13 13c.46 1.7 2.04 3 3.87 3s3.41-1.3 3.87-3H3.13zm10-2h7.74c-.46-1.7-2.05-3-3.87-3-1.82 0-3.41 1.3-3.87 3zM11 3.13C9.3 3.59 8 5.18 8 7c0 1.82 1.3 3.41 3 3.87V3.13z" />
    </symbol>
    <symbol id="Icon-StarCircle" viewBox="0 0 24 24">
      <path
        d="M11.99 2C6.47 2 2 6.48 2 12s4.47 10 9.99 10C17.52 22 22 17.52 22 12S17.52 2 11.99 2zm7.48 7.16l-5.01-.43-2-4.71c3.21.19 5.91 2.27 7.01 5.14zm-5.07 6.26L12 13.98l-2.39 1.44.63-2.72-2.11-1.83 2.78-.24L12 8.06l1.09 2.56 2.78.24-2.11 1.83.64 2.73zm-2.86-11.4l-2 4.72-5.02.43c1.1-2.88 3.8-4.97 7.02-5.15zM4 12c0-.64.08-1.26.23-1.86l3.79 3.28-1.11 4.75A7.982 7.982 0 014 12zm3.84 6.82L12 16.31l4.16 2.5A7.924 7.924 0 0111.99 20c-1.52 0-2.94-.44-4.15-1.18zm9.25-.65l-1.11-4.75 3.79-3.28c.14.59.23 1.22.23 1.86 0 2.48-1.14 4.7-2.91 6.17z" />
    </symbol>
    <symbol id="Icon-RecordVoice" viewBox="0 0 24 24">
      <path fill-rule="evenodd" clip-rule="evenodd"
        d="M18.44 4.13l1.63-1.63c3.91 4.05 3.9 10.11 0 14l-1.63-1.63c2.77-3.18 2.77-7.72 0-10.74zM13 9.5c0 2.21-1.79 4-4 4s-4-1.79-4-4 1.79-4 4-4 4 1.79 4 4zm-2 0c0-1.1-.9-2-2-2s-2 .9-2 2 .9 2 2 2 2-.9 2-2zm-2 6c-2.67 0-8 1.34-8 4v2h16v-2c0-2.66-5.33-4-8-4zm0 2c-2.69 0-5.78 1.28-6 2h12c-.2-.71-3.3-2-6-2zm6.08-9.95c.84 1.18.84 2.71 0 3.89l1.68 1.69c2.02-2.02 2.02-5.07 0-7.27l-1.68 1.69z" />
    </symbol>
    <symbol id="Icon-Platform" viewBox="0 0 24 24">
      <path fill-rule="evenodd" clip-rule="evenodd"
        d="M7 8h2v5H7V8zm1-5v3H6a1 1 0 00-1 1v7a1 1 0 001 1h4a1 1 0 001-1V3a1 1 0 00-1-1H9a1 1 0 00-1 1zm12 15v-2H4v2h3v4h2v-4h6v4h2v-4h3zm-6-5h3v-1.955l-3-1.143V13zm-2 1V8.451a1 1 0 011.356-.934l5 1.904a1 1 0 01.644.935V14a1 1 0 01-1 1h-5a1 1 0 01-1-1z" />
    </symbol>
    <symbol id="Icon-Warning" viewBox="0 0 24 24">
      <path fill-rule="evenodd" clip-rule="evenodd"
        d="M1 21.5l11-19 11 19H1zm18.53-2L12 6.49 4.47 19.5h15.06zm-8.53-3v2h2v-2h-2zm0-6h2v4h-2v-4z" />
    </symbol>
    <symbol id="Icon-PlayCircle" viewBox="0 0 24 24">
      <path fill-rule="evenodd" clip-rule="evenodd"
        d="M2 12C2 6.48 6.48 2 12 2s10 4.48 10 10-4.48 10-10 10S2 17.52 2 12zm14 0l-6-4.5v9l6-4.5z" />
    </symbol>
    <symbol id="Icon-NotificationsActive" viewBox="0 0 24 24">
      <path fill-rule="evenodd" clip-rule="evenodd"
        d="M18 15.75v-5c0-3.07-1.63-5.64-4.5-6.32v-.68c0-.83-.67-1.5-1.5-1.5s-1.5.67-1.5 1.5v.68C7.64 5.11 6 7.67 6 10.75v5l-2 2v1h16v-1l-2-2zm-6 6c1.1 0 2-.9 2-2h-4c0 1.1.9 2 2 2zm-4-5h8v-6c0-2.48-1.51-4.5-4-4.5s-4 2.02-4 4.5v6zM7.58 3.83L6.15 2.4c-2.4 1.83-3.98 4.65-4.12 7.85h2a8.445 8.445 0 013.55-6.42zm14.39 6.42h-2a8.495 8.495 0 00-3.54-6.42l1.42-1.43c2.39 1.83 3.97 4.65 4.12 7.85z" />
    </symbol>
    <symbol id="Icon-Timer" viewBox="0 0 24 24">
      <path fill-rule="evenodd" clip-rule="evenodd"
        d="M9 1.505h6v2H9v-2zm2 13v-6h2v6h-2zm8.03-6.62l1.42-1.42c-.43-.51-.9-.99-1.41-1.41l-1.42 1.42A8.962 8.962 0 0012 4.495a9 9 0 00-9 9c0 4.97 4.02 9 9 9s9-4.03 9-9c0-2.11-.74-4.06-1.97-5.61zM5 13.505c0 3.87 3.13 7 7 7s7-3.13 7-7-3.13-7-7-7-7 3.13-7 7z" />
    </symbol>
    <symbol id="Icon-Mic" viewBox="0 0 24 24">
      <path fill-rule="evenodd" clip-rule="evenodd"
        d="M15 11.5c0 1.66-1.34 3-3 3s-3-1.34-3-3v-6c0-1.66 1.34-3 3-3s3 1.34 3 3v6zm-3 5c2.76 0 5-2.24 5-5h2c0 3.53-2.61 6.43-6 6.92v3.08h-2v-3.08c-3.39-.49-6-3.39-6-6.92h2c0 2.76 2.24 5 5 5z" />
    </symbol>
    <symbol id="Icon-BatteryCharging" viewBox="0 0 24 24">
      <path fill-rule="evenodd" clip-rule="evenodd"
        d="M14 4h1.67C16.4 4 17 4.6 17 5.33v15.34c0 .73-.6 1.33-1.34 1.33H8.33C7.6 22 7 21.4 7 20.66V5.33C7 4.6 7.6 4 8.33 4H10V2h4v2zm-3 10.5V20l4-7.5h-2V7l-4 7.5h2z" />
    </symbol>
  </defs>
</svg>
