<svg style="display: none;" xmlns="http://www.w3.org/2000/svg" xmlns:xlink="http://www.w3.org/1999/xlink">
<style>
use,
use:target~use:last-child { display: none; }
use:target,
use:last-child { display: inline; }
</style><defs><symbol id="receipt" viewBox="0 0 24 24"><path fill-rule="evenodd" clip-rule="evenodd" d="M19.5 3.5 18 2l-1.5 1.5L15 2l-1.5 1.5L12 2l-1.5 1.5L9 2 7.5 3.5 6 2 4.5 3.5 3 2v20l1.5-1.5L6 22l1.5-1.5L9 22l1.5-1.5L12 22l1.5-1.5L15 22l1.5-1.5L18 22l1.5-1.5L21 22V2l-1.5 1.5zM5 19.09V4.91h14v14.18H5zM18 17v-2H6v2h12zm0-6v2H6v-2h12zm0-2V7H6v2h12z"/></symbol></defs><use id="medium" xlink:href="#receipt" /></svg>