<svg style="display: none;" xmlns="http://www.w3.org/2000/svg" xmlns:xlink="http://www.w3.org/1999/xlink">
<style>
use,use:target~use:last-child { display: none; }
use:target,use:last-child { display: inline; }
</style>
<defs><symbol id="shopping_basket" viewBox="0 0 24 24"><path fill-rule="evenodd" clip-rule="evenodd" d="M17.21 9.49H22c.55 0 1 .45 1 1l-.03.27-2.54 9.27a2.01 2.01 0 0 1-1.93 1.46h-13c-.92 0-1.69-.62-1.92-1.46l-2.54-9.27a.842.842 0 0 1-.04-.27c0-.55.45-1 1-1h4.79l4.38-6.55c.19-.29.51-.43.83-.43.32 0 .64.14.83.42l4.38 6.56zm-2.41 0L12 5.29l-2.8 4.2h5.6zm3.7 10-12.99.01-2.2-8.01H20.7l-2.2 8zm-8.5-4c0-1.1.9-2 2-2s2 .9 2 2-.9 2-2 2-2-.9-2-2z"/></symbol></defs><use id="medium" xlink:href="#shopping_basket" />
</svg>
