<svg width="24" height="24" viewBox="0 0 24 24" xmlns="http://www.w3.org/2000/svg"><path fill-rule="evenodd" clip-rule="evenodd" d="M9.8 1h8.4c.99 0 1.8.81 1.8 1.8v14.4c0 .99-.81 1.8-1.8 1.8l-8.4-.01c-.99 0-1.8-.8-1.8-1.79V2.8C8 1.81 8.81 1 9.8 1zM18 17V3h-8v13.99l8 .01zm-4-9a2 2 0 10.001-3.999A2 2 0 0014 8zm3.5 4.5c0 1.93-1.57 3.5-3.5 3.5s-3.5-1.57-3.5-3.5S12.07 9 14 9s3.5 1.57 3.5 3.5zM14 11c.83 0 1.5.67 1.5 1.5S14.83 14 14 14s-1.5-.67-1.5-1.5.67-1.5 1.5-1.5zM4 5h2v16h10v2H6a2 2 0 01-2-2V5z"/></svg>